<svg width="187" height="29" viewBox="0 0 187 29" fill="none" xmlns="http://www.w3.org/2000/svg">
<path d="M157.225 10.5772C158.637 10.5772 159.799 11.0508 160.712 11.998C161.642 12.9452 162.107 14.2541 162.107 15.9246V23.2087C162.107 23.5658 161.817 23.8553 161.46 23.8553H159.421C159.064 23.8553 158.774 23.5658 158.774 23.2087V16.3379C158.774 15.4768 158.542 14.8224 158.077 14.3746C157.612 13.9097 156.992 13.6772 156.217 13.6772C155.356 13.6772 154.667 13.9441 154.15 14.478C153.634 15.0119 153.375 15.8127 153.375 16.8804V23.2087C153.375 23.5658 153.086 23.8553 152.729 23.8553H150.69C150.332 23.8553 150.043 23.5658 150.043 23.2087V11.5855C150.043 11.2284 150.332 10.9389 150.69 10.9389H153.038C153.224 10.9389 153.375 11.0901 153.375 11.2766C153.375 11.6102 153.856 11.7751 154.111 11.5605C154.891 10.905 155.929 10.5772 157.225 10.5772Z" fill="#DF1E54"/>
<path d="M168.618 18.7662C168.191 18.7662 167.877 19.1791 168.081 19.5548C168.673 20.6479 169.783 21.1945 171.411 21.1945C172.457 21.1945 173.294 20.9045 173.922 20.3245C174.161 20.1037 174.515 20.0248 174.797 20.1875L176.383 21.1021C176.71 21.291 176.808 21.7219 176.563 22.0096C175.31 23.4812 173.575 24.217 171.359 24.217C169.223 24.217 167.51 23.5711 166.218 22.2795C164.927 20.9879 164.281 19.3604 164.281 17.3971C164.281 15.451 164.918 13.8322 166.192 12.5405C167.467 11.2316 169.103 10.5772 171.101 10.5772C172.995 10.5772 174.554 11.2316 175.776 12.5405C177.016 13.8494 177.636 15.4682 177.636 17.3971C177.636 17.665 177.62 17.9429 177.586 18.2307C177.55 18.5419 177.279 18.7662 176.966 18.7662H168.618ZM167.974 15.4148C167.8 15.7921 168.113 16.1829 168.528 16.1829H173.503C173.915 16.1829 174.227 15.7982 174.064 15.4202C173.845 14.9149 173.529 14.5147 173.116 14.2196C172.53 13.7891 171.858 13.5738 171.101 13.5738C170.205 13.5738 169.465 13.8063 168.879 14.2713C168.49 14.5688 168.188 14.95 167.974 15.4148Z" fill="#DF1E54"/>
<path d="M186.972 13.4955C186.972 13.8526 186.683 14.1421 186.326 14.1421H184.7C184.343 14.1421 184.053 14.4317 184.053 14.7888V19.5154C184.053 19.9632 184.165 20.2904 184.389 20.497C184.613 20.7037 184.94 20.8243 185.371 20.8587C185.638 20.8694 185.944 20.8701 186.291 20.8609C186.661 20.8511 186.972 21.1446 186.972 21.5154V23.2775C186.972 23.6066 186.725 23.8847 186.397 23.9114C184.409 24.0732 182.982 23.8392 182.116 23.2095C181.186 22.5206 180.721 21.2892 180.721 19.5154V14.7888C180.721 14.4317 180.431 14.1421 180.074 14.1421H179.12C178.763 14.1421 178.473 13.8526 178.473 13.4955V11.5855C178.473 11.2284 178.763 10.9389 179.12 10.9389H180.074C180.431 10.9389 180.721 10.6494 180.721 10.2922V8.8098C180.721 8.52475 180.908 8.27332 181.18 8.19083L183.22 7.57434C183.635 7.44882 184.053 7.75957 184.053 8.19331V10.2922C184.053 10.6494 184.343 10.9389 184.7 10.9389H186.326C186.683 10.9389 186.972 11.2284 186.972 11.5855V13.4955Z" fill="#DF1E54"/>
<path fill-rule="evenodd" clip-rule="evenodd" d="M141.47 7.52641C141.47 7.90272 141.148 8.19212 140.772 8.21594C139.412 8.30222 138.731 9.03673 138.731 10.4195C138.731 10.6335 138.905 10.807 139.119 10.807H140.823C141.18 10.807 141.47 11.0965 141.47 11.4536V13.3636C141.47 13.7207 141.18 14.0103 140.823 14.0103H139.378C139.021 14.0103 138.731 14.2998 138.731 14.6569V23.0768C138.731 23.4339 138.442 23.7234 138.085 23.7234H136.045C135.688 23.7234 135.399 23.4339 135.399 23.0768V14.6569C135.399 14.2998 135.109 14.0103 134.752 14.0103H132.222C131.865 14.0103 131.576 14.2998 131.576 14.6569V23.0768C131.576 23.4339 131.286 23.7234 130.929 23.7234H128.89C128.533 23.7234 128.243 23.4339 128.243 23.0768V14.6569C128.243 14.2998 127.954 14.0103 127.597 14.0103H127.03C126.673 14.0103 126.383 13.7207 126.383 13.3636V11.4536C126.383 11.0965 126.673 10.807 127.03 10.807H128.114C128.185 10.807 128.243 10.7492 128.243 10.6778C128.243 8.85229 128.751 7.46593 129.767 6.51872C130.678 5.66946 131.991 5.24937 133.705 5.25847C134.047 5.26029 134.314 5.54572 134.314 5.88785V7.78474C134.314 8.16104 133.992 8.45045 133.617 8.47427C132.256 8.56054 131.576 9.29506 131.576 10.6778C131.576 10.7492 131.633 10.807 131.705 10.807H135.011C135.225 10.807 135.399 10.6335 135.399 10.4195C135.399 8.59396 135.907 7.2076 136.923 6.26039C137.849 5.41187 139.161 4.99178 140.861 5.00012C141.203 5.0018 141.47 5.28721 141.47 5.62921V7.52641ZM111.382 7.78474C111.382 8.16104 111.06 8.45045 110.685 8.47427C109.324 8.56054 108.644 9.29506 108.644 10.6778C108.644 10.7492 108.702 10.807 108.773 10.807H110.736C111.093 10.807 111.382 11.0965 111.382 11.4536V13.3636C111.382 13.7207 111.093 14.0103 110.736 14.0103H109.29C108.933 14.0103 108.644 14.2998 108.644 14.6569V23.0768C108.644 23.4339 108.354 23.7234 107.997 23.7234H105.958C105.601 23.7234 105.311 23.4339 105.311 23.0768V14.6569C105.311 14.2998 105.022 14.0103 104.665 14.0103H104.098C103.741 14.0103 103.451 13.7207 103.451 13.3636V11.4536C103.451 11.0965 103.741 10.807 104.098 10.807H105.182C105.254 10.807 105.311 10.7492 105.311 10.6778C105.311 8.85229 105.819 7.46593 106.836 6.51872C107.747 5.66946 109.059 5.24937 110.773 5.25847C111.115 5.26029 111.382 5.54572 111.382 5.88785V7.78474ZM45.9529 24.0851C44.1618 24.0851 42.6549 23.689 41.4321 22.8968C40.361 22.1877 39.5673 21.2605 39.0513 20.1153C38.923 19.8307 39.0445 19.5016 39.314 19.344L41.2395 18.2181C41.584 18.0166 42.0234 18.1757 42.2175 18.5244C42.9868 19.9066 44.2664 20.5976 46.0562 20.5976C47.0551 20.5976 47.787 20.4168 48.252 20.0552C48.717 19.6935 48.9495 19.2371 48.9495 18.686C48.9495 18.0488 48.6653 17.558 48.097 17.2135C47.5287 16.8519 46.5126 16.4644 45.0487 16.0511C44.2393 15.81 43.5504 15.5688 42.9821 15.3277C42.431 15.0866 41.8713 14.768 41.303 14.3719C40.7519 13.9586 40.3299 13.4419 40.0372 12.8219C39.7444 12.202 39.598 11.4786 39.598 10.652C39.598 9.0159 40.1749 7.71565 41.3288 6.75122C42.4999 5.76957 43.9035 5.27874 45.5396 5.27874C47.0034 5.27874 48.2865 5.6404 49.3887 6.36373C50.3472 6.96837 51.1227 7.78137 51.7151 8.80275C51.8853 9.09629 51.7701 9.46603 51.4762 9.63574L49.6122 10.7124C49.2837 10.9021 48.8673 10.7659 48.6633 10.4461C47.9379 9.30893 46.8967 8.74035 45.5396 8.74035C44.799 8.74035 44.2135 8.91257 43.7829 9.25701C43.3696 9.58423 43.1629 10.0148 43.1629 10.5487C43.1629 11.117 43.3954 11.582 43.8604 11.9436C44.3426 12.2881 45.2554 12.6669 46.5987 13.0803C47.1498 13.2525 47.5631 13.3903 47.8387 13.4936C48.1315 13.5797 48.519 13.7261 49.0012 13.9328C49.5006 14.1222 49.8795 14.303 50.1378 14.4753C50.4134 14.6475 50.7234 14.88 51.0678 15.1727C51.4122 15.4655 51.6706 15.7669 51.8428 16.0769C52.0322 16.3869 52.1872 16.7658 52.3078 17.2135C52.4456 17.6441 52.5144 18.1177 52.5144 18.6343C52.5144 20.3049 51.9031 21.631 50.6803 22.6126C49.4748 23.5943 47.899 24.0851 45.9529 24.0851ZM61.8662 10.4453C63.2783 10.4453 64.4408 10.9189 65.3536 11.8661C66.2836 12.8133 66.7486 14.1222 66.7486 15.7927V23.0768C66.7486 23.4339 66.4591 23.7234 66.1019 23.7234H64.0628C63.7056 23.7234 63.4161 23.4339 63.4161 23.0768V16.2061C63.4161 15.345 63.1836 14.6905 62.7186 14.2428C62.2536 13.7778 61.6337 13.5453 60.8587 13.5453C59.9976 13.5453 59.3087 13.8122 58.792 14.3461C58.2754 14.88 58.0171 15.6808 58.0171 16.7485V23.0768C58.0171 23.4339 57.7275 23.7234 57.3704 23.7234H55.3313C54.9741 23.7234 54.6846 23.4339 54.6846 23.0768V6.28704C54.6846 5.92992 54.9741 5.64041 55.3313 5.64041H57.3704C57.7275 5.64041 58.0171 5.92992 58.0171 6.28704V10.1305C58.0171 10.7692 59.0274 11.1561 59.607 10.8878C60.2442 10.5928 60.9972 10.4453 61.8662 10.4453ZM74.0631 14.6569C74.0631 14.2998 74.3526 14.0103 74.7097 14.0103H76.3356C76.6927 14.0103 76.9822 13.7207 76.9822 13.3636V11.4536C76.9822 11.0965 76.6927 10.807 76.3356 10.807H74.7097C74.3526 10.807 74.0631 10.5175 74.0631 10.1603V8.06142C74.0631 7.62768 73.6445 7.31693 73.2293 7.44245L71.1902 8.05894C70.9173 8.14143 70.7307 8.39286 70.7307 8.67791V10.1603C70.7307 10.5175 70.4412 10.807 70.084 10.807H69.1298C68.7727 10.807 68.4832 11.0965 68.4832 11.4536V13.3636C68.4832 13.7207 68.7727 14.0103 69.1298 14.0103H70.084C70.4412 14.0103 70.7307 14.2998 70.7307 14.6569V19.3835C70.7307 21.1574 71.1957 22.3887 72.1256 23.0776C72.9915 23.7073 74.4185 23.9413 76.4068 23.7795C76.7348 23.7528 76.9822 23.4747 76.9822 23.1456V21.3835C76.9822 21.0127 76.671 20.7192 76.3002 20.7291C75.954 20.7382 75.6474 20.7375 75.3806 20.7268C74.95 20.6924 74.6228 20.5718 74.3989 20.3651C74.175 20.1585 74.0631 19.8313 74.0631 19.3835V14.6569ZM82.8661 11.148C82.8661 11.5277 83.6298 11.741 83.9212 11.4976C84.0664 11.3763 84.2227 11.2667 84.3902 11.1686C84.9324 10.8588 85.5182 10.6651 86.1476 10.5875C86.502 10.5438 86.7927 10.8382 86.7927 11.1953V13.5407C86.7927 13.928 86.4531 14.223 86.0661 14.2388C85.3365 14.2686 84.666 14.4852 84.0544 14.8886C83.2622 15.4225 82.8661 16.3094 82.8661 17.5494V23.0768C82.8661 23.4339 82.5766 23.7234 82.2194 23.7234H80.1803C79.8231 23.7234 79.5336 23.4339 79.5336 23.0768V11.4536C79.5336 11.0965 79.8231 10.807 80.1803 10.807H82.525C82.7134 10.807 82.8661 10.9597 82.8661 11.148ZM101.411 11.4536C101.411 11.0965 101.122 10.807 100.765 10.807H98.473C98.2553 10.807 98.0788 10.9835 98.0788 11.2012C98.0788 11.5745 97.5764 11.7635 97.2847 11.5306C96.3787 10.8071 95.2398 10.4453 93.868 10.4453C92.1459 10.4453 90.6648 11.1084 89.4248 12.4345C88.202 13.7433 87.5907 15.3536 87.5907 17.2652C87.5907 19.1768 88.202 20.7957 89.4248 22.1218C90.6648 23.4307 92.1459 24.0851 93.868 24.0851C95.2398 24.0851 96.3787 23.7233 97.2847 22.9998C97.5764 22.7669 98.0788 22.9559 98.0788 23.3292C98.0788 23.5469 98.2553 23.7234 98.473 23.7234H100.765C101.122 23.7234 101.411 23.4339 101.411 23.0768V11.4536ZM94.488 20.9076C93.4547 20.9076 92.6022 20.5718 91.9306 19.9002C91.2589 19.2113 90.9231 18.333 90.9231 17.2652C90.9231 16.1974 91.2589 15.3277 91.9306 14.6561C92.6022 13.9672 93.4547 13.6228 94.488 13.6228C95.5214 13.6228 96.3738 13.9672 97.0455 14.6561C97.7344 15.3277 98.0788 16.1974 98.0788 17.2652C98.0788 18.333 97.7344 19.2113 97.0455 19.9002C96.3738 20.5718 95.5214 20.9076 94.488 20.9076ZM118.578 24.0851C120.49 24.0851 122.109 23.4307 123.435 22.1218C124.761 20.7957 125.424 19.1768 125.424 17.2652C125.424 15.3536 124.761 13.7433 123.435 12.4345C122.487 11.4863 121.389 10.8771 120.142 10.6069C119.913 10.5574 119.717 10.866 119.717 11.0996V13.3934C119.717 13.6755 119.903 13.9191 120.157 14.042C120.495 14.2053 120.804 14.4272 121.084 14.7077C121.756 15.3794 122.092 16.2319 122.092 17.2652C122.092 18.2985 121.756 19.151 121.084 19.8227C120.413 20.4943 119.577 20.8301 118.578 20.8301C117.58 20.8301 116.744 20.4943 116.073 19.8227C115.418 19.151 115.091 18.2985 115.091 17.2652C115.091 16.2319 115.418 15.3794 116.073 14.7077C116.358 14.4226 116.672 14.198 117.017 14.0339C117.273 13.9118 117.461 13.6672 117.461 13.3836V11.0996C117.461 10.8648 117.264 10.5537 117.035 10.6027C115.779 10.8708 114.675 11.4814 113.722 12.4345C112.413 13.7433 111.759 15.3536 111.759 17.2652C111.759 19.1768 112.413 20.7957 113.722 22.1218C115.048 23.4307 116.667 24.0851 118.578 24.0851ZM144.943 24.0593C145.546 24.0593 146.063 23.844 146.493 23.4134C146.924 22.9829 147.139 22.4662 147.139 21.8635C147.139 21.2607 146.924 20.744 146.493 20.3135C146.063 19.8829 145.546 19.6677 144.943 19.6677C144.341 19.6677 143.824 19.8829 143.393 20.3135C142.963 20.744 142.747 21.2607 142.747 21.8635C142.747 22.4662 142.963 22.9829 143.393 23.4134C143.824 23.844 144.341 24.0593 144.943 24.0593Z" fill="#183557"/>
<rect x="117.817" y="10.3438" width="1.54376" height="4.63128" rx="0.771881" fill="#DF1E54"/>
<path d="M16.8792 4.0233C16.7538 3.88022 16.5749 3.78502 16.3818 3.78227C16.0164 3.77897 15.6714 3.96441 15.4177 4.21865C14.4184 5.21687 13.4196 6.21619 12.4203 7.21496C12.1913 7.43563 12.0208 7.72508 11.9734 8.04204C11.9382 8.25555 11.9949 8.49053 12.1528 8.64461C12.3432 8.8317 12.527 9.02541 12.7229 9.207C14.2753 7.65354 15.8238 6.09623 17.3833 4.54992C17.2375 4.35512 17.0432 4.20269 16.8792 4.0233Z" fill="#183557"/>
<path d="M22.1665 10.1397C20.6081 8.59014 19.059 7.03118 17.5023 5.48047C16.219 6.75713 14.9412 8.0393 13.6613 9.31927C14.0195 9.68521 14.3865 10.0423 14.7448 10.4083C11.656 13.5053 8.55955 16.5946 5.46859 19.6894C5.26003 19.9024 5.03992 20.1043 4.84016 20.3256C4.39883 20.8208 4.28768 21.5769 4.56172 22.1806C4.8055 22.7485 5.36734 23.1612 5.98201 23.2245C6.50093 23.2834 7.04186 23.0963 7.41055 22.7259C10.6837 19.4506 13.9634 16.1819 17.2304 12.9005C17.6046 13.2527 17.959 13.6264 18.3249 13.9868C19.606 12.7046 20.8942 11.4302 22.1665 10.1397Z" fill="#183557"/>
<path d="M23.7829 10.9306C23.593 10.7347 23.396 10.5459 23.2056 10.3506C21.6412 11.9013 20.0888 13.4647 18.5293 15.0214C18.7555 15.2371 18.9596 15.4771 19.2023 15.6735C19.6117 15.9107 20.1185 15.6878 20.4394 15.3984C21.4612 14.3853 22.4754 13.3645 23.4945 12.3476C23.7268 12.1236 23.9023 11.8298 23.9469 11.5073C23.976 11.3042 23.9287 11.0814 23.7829 10.9306Z" fill="#183557"/>
<path d="M21.6196 21.4678C21.5497 21.0936 21.1243 20.9263 20.7821 20.9208C18.5815 20.9164 16.3814 20.918 14.1814 20.9197C13.8396 20.9202 13.4291 21.076 13.3279 21.4348C13.3004 21.8167 13.3246 22.2019 13.3174 22.5849C16.0843 22.5838 18.8511 22.5832 21.6179 22.5854C21.6356 22.2134 21.6273 21.8398 21.6196 21.4678Z" fill="#183557"/>
<path d="M23.4654 23.7907C23.4032 23.4192 23.0004 23.2255 22.6565 23.2096C19.2254 23.2068 15.7938 23.2085 12.3628 23.209C12.0002 23.2024 11.5616 23.3873 11.484 23.7775C11.4603 24.1687 11.4812 24.5616 11.4763 24.954C15.4752 24.954 19.4742 24.9595 23.4726 24.9512C23.4649 24.5644 23.4825 24.177 23.4654 23.7907Z" fill="#183557"/>
<path fill-rule="evenodd" clip-rule="evenodd" d="M21.3061 2.36735H7.69388C4.75212 2.36735 2.36735 4.75212 2.36735 7.69388V21.3061C2.36735 24.2479 4.75212 26.6327 7.69388 26.6327H21.3061C24.2479 26.6327 26.6327 24.2479 26.6327 21.3061V7.69388C26.6327 4.75212 24.2479 2.36735 21.3061 2.36735ZM7.69388 0C3.44467 0 0 3.44467 0 7.69388V21.3061C0 25.5553 3.44467 29 7.69388 29H21.3061C25.5553 29 29 25.5553 29 21.3061V7.69388C29 3.44467 25.5553 0 21.3061 0H7.69388Z" fill="#183557"/>
</svg>
