<svg width="75" height="94" viewBox="0 0 75 94" fill="none" xmlns="http://www.w3.org/2000/svg">
<path d="M36.4645 0.00677293L37.1976 0C49.2159 5.59431 61.2122 11.2411 73.2694 16.7508C73.7469 17.4026 73.4658 18.3356 72.8021 18.7233C69.7154 20.3352 66.5373 21.7728 63.4997 23.4761C54.8221 27.7413 46.2528 32.2062 37.5955 36.5086C36.8708 37.0081 36.0429 36.5272 35.3893 36.1751C30.352 33.6624 25.3182 31.1429 20.3216 28.5523C13.9094 25.3996 7.57012 22.1114 1.18679 18.9062C0.644966 18.7572 0.101451 18.466 0.0591212 17.8361C0.0523484 16.9624 0.926035 16.4291 1.66935 16.1531C13.2796 10.7975 24.8373 5.3234 36.4645 0.00677293ZM36.6287 2.19607C25.5738 7.35354 14.4885 12.4467 3.42688 17.5855L3.38116 17.704C6.20033 19.1314 9.03135 20.5333 11.8573 21.9455C17.4668 24.9831 23.2897 27.6227 28.9196 30.6231C31.5153 31.9895 34.1651 33.2543 36.7845 34.5784C38.2474 34.0433 39.5291 33.0494 40.9785 32.4467C50.6687 27.6634 60.2437 22.6668 69.9338 17.8869C70.6399 17.8141 70.1167 17.5042 69.8881 17.423C58.8806 12.3518 47.8833 7.25872 36.8979 2.14697C36.8302 2.15882 36.6964 2.18422 36.6287 2.19607Z" fill="#136B9F"/>
<path d="M8.86052 24.5514C9.30753 24.5141 9.80025 24.8934 10.1423 25.1999C10.1711 25.5893 10.0288 26.0143 9.79686 26.3275C7.93773 27.3841 5.94992 28.2002 4.08741 29.2466C4.4379 29.7105 5.28958 29.8037 5.79923 30.2049C11.4274 33.207 17.2503 35.8467 22.8598 38.8842C27.7244 41.2954 32.5635 43.7589 37.4382 46.1514C45.0745 42.5923 52.5398 38.5558 60.1118 34.8172C62.9648 33.3746 65.8449 31.9794 68.6861 30.5131C69.3363 29.9747 70.3911 29.7935 70.9296 29.2449C68.9756 28.2476 66.915 27.423 64.978 26.3936C64.0434 25.8263 64.7968 24.211 65.8703 24.658C68.6692 25.7163 71.2953 27.2452 74.1162 28.2764C74.9594 28.7894 74.5903 30.0339 73.8215 30.4098C70.3962 32.1877 66.8727 33.786 63.4999 35.6655C58.1883 38.312 52.8886 40.9787 47.5754 43.6184C44.5801 45.3082 41.4426 46.7322 38.383 48.3035C37.6228 48.2984 36.7711 48.5778 36.0667 48.19C33.6353 46.9608 31.1633 45.8026 28.7894 44.465C19.277 39.7935 9.89845 34.8697 0.387787 30.1999C-0.358911 29.5006 0.343765 28.2832 1.18867 28.0444C3.7437 26.8761 6.30719 25.7231 8.86052 24.5514Z" fill="#136B9F"/>
<path d="M8.80633 35.8514C9.35662 35.7295 9.78499 36.1952 10.1304 36.5507C10.2455 36.9554 9.9086 37.2991 9.77653 37.6581C7.94449 38.7519 5.93975 39.5375 4.08571 40.5907L4.09756 40.7092C9.79854 43.4116 15.3353 46.4305 20.999 49.209C24.0061 50.716 27.0183 52.2145 30.0254 53.7231C32.4856 55.076 35.0237 56.3797 37.5771 57.4955C40.2472 56.1715 42.9496 54.8982 45.5486 53.4386C54.0484 49.2802 62.4094 44.8558 70.9109 40.7041L70.9567 40.5839C69.4209 39.7661 67.7972 39.1329 66.2564 38.3218C65.6773 38.0272 64.8612 37.9307 64.614 37.2466C64.3058 36.7099 64.8832 36.2138 65.232 35.8667C65.6976 35.7058 66.1006 36.0665 66.5205 36.2053C69.0806 37.3702 71.6458 38.5453 74.2076 39.6916C74.978 40.2775 74.5157 41.3018 73.7826 41.7082C69.2144 44.1244 64.5564 46.373 59.9424 48.7011C52.9038 52.289 45.8534 55.8582 38.7725 59.3699C37.9208 59.8829 36.7423 59.8863 35.8957 59.3716C31.2394 57.0197 26.5544 54.7221 21.9066 52.3567C15.7992 49.099 9.48699 46.2206 3.3915 42.9409C2.38743 42.482 1.44263 41.8911 0.397932 41.5236C0.252318 41.2206 0.0101907 40.9293 0.00341797 40.5822C0.167658 40.1166 0.513069 39.7492 0.899117 39.4529C3.54727 38.2812 6.18527 37.0841 8.80633 35.8514Z" fill="#136B9F"/>
<path d="M5.9685 47.377C6.67456 47.7596 7.27734 48.2896 7.93599 48.7383C8.07484 49.7271 7.26718 50.5652 7.22485 51.5507C5.68066 55.8751 4.41584 60.2876 2.87335 64.6086C10.7789 64.634 18.6827 64.6035 26.5882 64.6221C27.042 64.5392 27.7717 64.6255 27.8903 65.1758C28.0156 69.104 27.8953 73.039 27.9478 76.9706C33.1358 76.9807 38.3254 76.9858 43.5134 76.9689C43.5574 73.2049 43.4592 69.4342 43.5523 65.6753C44.3176 65.2994 44.9153 64.3952 45.8872 64.6221C53.4541 64.6001 61.0227 64.6391 68.5895 64.6052C67.2011 60.3265 66.0057 55.9818 64.5513 51.7217C64.128 50.8768 65.1828 50.2232 65.8398 50.0691C67.0132 53.1372 67.7954 56.3509 68.8164 59.4833C69.4226 61.5591 70.11 63.6096 70.6976 65.6905C70.8821 74.6966 70.7331 83.7163 70.7738 92.7274C70.7026 93.3827 70.3183 94.2936 69.426 93.9076C46.8489 93.9127 24.2719 93.9025 1.69489 93.9127C1.18693 94.0143 0.577378 93.9245 0.215035 93.53C-0.0270916 92.8392 0.00846596 92.0857 0 91.3712C0.0186251 82.7359 -0.0186254 74.0989 0.0169317 65.4653C2.04538 59.4545 3.96884 53.3979 5.9685 47.377ZM2.21131 66.825C2.19946 75.2842 2.20115 83.745 2.20962 92.2042C24.4429 92.2262 46.6762 92.2178 68.9096 92.2093C68.9214 83.7484 68.9197 75.2875 68.9112 66.8267C61.1835 66.8097 53.4558 66.8165 45.728 66.8233C45.6942 70.3214 45.7433 73.8195 45.7128 77.3177C45.7433 77.7511 45.64 78.2117 45.5012 78.6265C45.1304 79.2428 44.2634 79.0058 43.6894 79.17C38.3271 79.1853 32.9631 79.1819 27.6007 79.1717C27.0301 79.1429 26.3156 79.1429 25.9363 78.6316C25.8635 74.6966 25.9414 70.7599 25.9025 66.825C18.0054 66.8131 10.1084 66.8131 2.21131 66.825Z" fill="#DF1E54"/>
</svg>
