<svg width="92" height="94" viewBox="0 0 92 94" fill="none" xmlns="http://www.w3.org/2000/svg">
<path d="M0.498863 0.0438907C20.0585 -0.0265721 39.621 0.0397461 59.182 0.010732C59.8162 -0.106706 60.1187 0.767862 60.0041 1.25696C60.0096 11.3884 60.0124 21.5199 60.0027 31.6513C59.6255 31.6513 58.8698 31.6499 58.4926 31.6499C58.4787 21.705 58.4981 11.7601 58.4829 1.81513C39.6044 1.80961 20.7258 1.80684 1.84733 1.81652C1.84042 20.4187 1.83351 39.0223 1.85148 57.6245C10.8735 57.6383 19.8969 57.6176 28.9189 57.6342C28.7793 58.1758 29.2007 58.9716 28.7531 59.4054C19.5059 59.4468 10.2587 59.4178 1.01145 59.4206C0.370373 59.4206 -0.169843 58.8818 0.0498352 58.1827C0.0401638 39.0223 0.0484537 19.8633 0.0456905 0.704307C0.00424175 0.393442 0.322015 0.242845 0.498863 0.0438907Z" fill="#DF1E54"/>
<path d="M8.50541 13.5751C22.7707 13.5281 37.0387 13.5627 51.3054 13.5585C52.1247 13.2366 52.8611 14.2535 52.3678 14.8959C52.0957 15.3463 51.4712 15.3007 51.0291 15.345C37.2114 15.3546 23.3952 15.3546 9.57755 15.345C9.17411 15.2773 8.58001 15.3657 8.30231 14.9705C7.8892 14.5671 8.12408 13.9108 8.50541 13.5751Z" fill="#DF1E54"/>
<path d="M8.6531 21.0555C22.9156 20.9616 37.1809 21.0431 51.4448 21.0155C52.2641 21.0058 52.4755 22.1443 51.9615 22.6389C51.3978 22.8364 50.7844 22.8047 50.1999 22.8143C36.8424 22.8088 23.4862 22.8088 10.1301 22.8143C9.58293 22.7895 9.00956 22.8558 8.48454 22.6679C7.94018 22.3183 7.94018 21.2503 8.6531 21.0555Z" fill="#DF1E54"/>
<path d="M8.79554 28.2595C22.3617 28.1199 35.9376 28.2429 49.5079 28.1973C50.3203 28.2277 51.1727 28.1061 51.9603 28.3742C52.0846 28.7182 52.3499 29.0898 52.1647 29.4574C52.1081 29.9616 51.4062 30.0542 51.029 29.992C36.9834 29.9976 22.9378 30.0017 8.89363 29.9893C7.95827 29.8843 7.75932 28.312 8.79554 28.2595Z" fill="#DF1E54"/>
<path d="M43.7437 34.5847C59.3865 34.5225 75.032 34.5654 90.6748 34.5626C91.2205 34.6635 91.5024 35.2728 91.367 35.7978C91.3766 51.0426 91.3683 66.2875 91.3711 81.5323C91.4181 81.7755 91.2108 81.9123 91.0602 82.0587C87.3423 82.1237 83.6243 82.056 79.9078 82.0891C79.894 85.7725 79.9091 89.4559 79.9036 93.1394C79.905 93.7445 79.2225 94.1272 78.6615 93.9614C63.2343 93.9669 47.8071 93.9725 32.3813 93.9587C31.7277 93.8702 31.6835 93.0979 31.6904 92.5853C31.6794 77.6168 31.6835 62.6483 31.6891 47.6798C31.5523 47.1976 31.8024 46.7651 32.1312 46.4584C35.8491 46.4018 39.5685 46.4612 43.2864 46.4321C43.2989 42.7031 43.2837 38.9741 43.2906 35.2451C43.2491 34.9343 43.5669 34.7837 43.7437 34.5847ZM44.9554 36.0796C44.9375 39.1634 44.9527 42.2486 44.9485 45.3338C44.6874 45.6612 44.9679 46.2429 45.3616 46.1614C56.5072 46.1627 67.6528 46.16 78.7997 46.1627C79.3993 45.8767 79.858 46.4874 79.9022 46.9889C79.9091 58.1317 79.8953 69.2759 79.9091 80.4201C83.12 80.4215 86.3309 80.4464 89.5418 80.4077C89.9922 79.8371 89.5529 78.8934 89.7145 78.215C89.7076 64.1708 89.7201 50.128 89.709 36.0852C74.7916 36.0658 59.8728 36.0755 44.9554 36.0796ZM33.4907 47.8234C33.4714 62.5101 33.481 77.1982 33.4852 91.8848C48.3556 91.9014 63.2274 91.8931 78.0978 91.889C78.1172 77.2023 78.1075 62.5143 78.1034 47.8276C63.2329 47.811 48.3611 47.8193 33.4907 47.8234Z" fill="#136B9F"/>
<path d="M8.38121 35.7162C19.046 35.5918 29.7176 35.6885 40.3852 35.6678C40.3852 36.2605 40.4142 36.8574 40.381 37.4529C29.7439 37.4625 19.1081 37.4542 8.47101 37.457C7.91007 37.4266 7.32841 36.7413 7.61164 36.1997C7.64618 35.8267 8.10903 35.835 8.38121 35.7162Z" fill="#DF1E54"/>
<path d="M8.22905 43.0042C15.1247 42.9586 22.0218 42.9904 28.9175 42.989C28.9327 43.5375 28.9327 44.086 28.9161 44.6373C22.0204 44.6331 15.1234 44.6663 8.22905 44.6207C7.66258 44.2186 7.66258 43.4062 8.22905 43.0042Z" fill="#DF1E54"/>
<path d="M69.1682 59.1855C69.7803 59.209 70.9975 59.151 70.5056 60.2439C63.7743 67.1713 56.8317 73.9316 50.0327 80.8094C49.8987 81.0152 49.6141 81.0194 49.4055 80.9406C48.8017 80.6007 48.3761 80.0343 47.8884 79.5604C46.9365 78.3155 45.693 77.3304 44.6485 76.1671C43.8541 75.1295 42.8358 74.2895 41.9378 73.3444C41.7747 72.7213 42.4476 71.8937 43.1218 72.1562C44.8875 74.0353 46.569 75.9847 48.3527 77.8458C48.6469 78.1995 48.9316 78.683 49.3474 78.8792C55.6076 72.568 61.9174 66.3064 68.1928 60.0104C68.5064 59.7258 68.7593 59.3458 69.1682 59.1855Z" fill="#136B9F"/>
</svg>
