<svg width="90" height="77" viewBox="0 0 90 77" fill="none" xmlns="http://www.w3.org/2000/svg">
<path fill-rule="evenodd" clip-rule="evenodd" d="M31.6025 0.00726C30.146 -0.00299433 28.6896 -0.0132488 27.2364 0.0583269C26.0362 0.201392 25.2095 1.46714 25.3406 2.62804C25.3204 3.05863 25.3317 3.4934 25.3431 3.9286C25.3656 4.78926 25.3881 5.65157 25.1669 6.48643C24.871 7.55559 23.9285 8.37794 22.8309 8.52975C21.9572 8.69173 21.1814 9.09799 20.4068 9.5036C20.1213 9.65313 19.8359 9.80257 19.5459 9.93965C18.7617 10.0139 17.9307 9.84027 17.2896 9.36739C16.6603 8.89414 16.1134 8.32732 15.5668 7.76066C15.272 7.45511 14.9772 7.1496 14.6696 6.85883C13.9172 6.06051 12.5728 6.06925 11.7133 6.69174C10.7384 7.68195 9.75429 8.6639 8.77031 9.64569C8.27837 10.1365 7.78648 10.6273 7.29579 11.1191C6.85021 11.4719 6.5335 11.9426 6.37733 12.4886C6.11195 13.6288 6.96379 14.6062 7.73263 15.3259C7.95444 15.5769 8.204 15.8099 8.45392 16.0432C9.05552 16.6049 9.65922 17.1686 9.88298 17.9895C10.1287 18.9014 9.77377 19.8515 9.22225 20.5778C8.93176 21.2156 8.68603 21.8774 8.45123 22.5392C7.95214 23.5385 7.09375 24.3947 5.98199 24.6502C5.35887 24.7092 4.73051 24.6994 4.1018 24.6896C3.41376 24.6788 2.72529 24.6681 2.04279 24.7474C0.798888 24.8479 -0.08899 26.1027 0.00711476 27.3095C0.00711476 27.9465 0.00646461 28.5836 0.00581439 29.2207C0.00423502 30.7683 0.00265526 32.3163 0.0103913 33.8643C-0.0289243 34.9728 0.898269 35.9851 1.97071 36.1533C2.41409 36.1685 2.8593 36.1623 3.30468 36.1562C4.23605 36.1432 5.16815 36.1303 6.08574 36.3128C6.98345 36.5694 7.81235 37.2039 8.07009 38.1366L8.08192 38.1776C8.36746 39.1669 8.65739 40.1715 9.19277 41.0623C9.90919 42.0103 9.69841 43.3939 9.02895 44.3102C8.64201 44.7452 8.22233 45.1523 7.80294 45.5592C7.29669 46.0503 6.79085 46.541 6.34348 47.0798C5.69914 47.9447 5.89026 49.1439 6.52914 49.9455C6.99852 50.4152 7.4688 50.8841 7.93914 51.353C9.01836 52.4291 10.0979 53.5054 11.1673 54.5923C12.0213 55.4442 13.4694 55.4758 14.3573 54.6644C14.8532 54.3049 15.2775 53.8444 15.7011 53.3847C16.4072 52.6183 17.1113 51.8541 18.1414 51.5639C18.9499 51.3916 19.6317 51.7406 20.3145 52.0901C20.614 52.2435 20.9138 52.3969 21.2244 52.5064C21.5072 52.6478 21.8118 52.73 22.1161 52.8122C22.4747 52.909 22.8328 53.0056 23.1542 53.1988C24.0737 53.6968 24.7006 54.6164 25.0031 55.6025C25.0273 56.2132 25.0214 56.8248 25.0156 57.4367C25.0104 57.9869 25.0051 58.5373 25.0217 59.0874C25.1342 60.1107 25.9587 61.0073 26.9798 61.1635H26.9812C29.3834 61.1668 31.7866 61.1701 34.1898 61.1613C35.1695 61.2312 35.9536 60.4394 36.3784 59.6422C36.9044 58.8603 36.8589 57.953 36.8131 57.0415C36.781 56.401 36.7488 55.7584 36.9146 55.1559C36.9282 54.7744 37.146 54.4877 37.3635 54.2015C37.4785 54.0502 37.5934 53.899 37.678 53.734C37.6933 53.1486 37.6922 52.5632 37.6758 51.9789C36.397 52.3437 35.4687 53.4293 34.9587 54.6164C34.5959 55.6828 34.6097 56.7945 34.6235 57.9051C34.6297 58.4028 34.6358 58.9002 34.6081 59.3932C34.417 59.5985 34.1582 59.7776 33.8633 59.7492C32.8875 59.745 31.9115 59.7457 30.9354 59.7463C29.908 59.747 28.8806 59.7477 27.8535 59.7427C27.4734 59.8453 27.1338 59.6542 26.8892 59.3976C26.8614 58.9045 26.8666 58.4096 26.8719 57.9147C26.8804 57.1041 26.8889 56.2938 26.7526 55.4922C26.5681 54.3488 25.9543 53.2261 24.9834 52.572C24.5054 52.2184 23.9528 52.0131 23.4004 51.8079C23.1236 51.7051 22.8469 51.6023 22.5797 51.4809C21.504 50.9404 20.4108 50.3932 19.2368 50.1082C17.804 49.869 16.3471 50.3943 15.184 51.2243C14.7355 51.5838 14.3371 52.0026 13.9389 52.4211C13.4624 52.9219 12.9864 53.4222 12.4254 53.8202C12.1165 54.0145 11.9611 53.8546 11.8026 53.6917C11.774 53.6622 11.7453 53.6327 11.7155 53.6051C10.8207 52.7041 9.92244 51.8061 9.02425 50.9082C8.48532 50.3694 7.94642 49.8307 7.40828 49.2913C7.36187 49.2379 7.26945 49.2047 7.17529 49.1708C7.00354 49.1091 6.82602 49.0452 6.91137 48.8534C7.74792 48.0146 8.58556 47.1759 9.42866 46.3448C10.7173 45.0408 11.14 42.9757 10.3842 41.2906C9.67649 40.1685 9.24799 38.9058 8.82391 37.656L8.80835 37.6102C8.3038 36.5388 7.36241 35.6586 6.23973 35.2698C5.28987 34.8895 4.27756 34.9212 3.26637 34.9529C2.69526 34.9708 2.12449 34.9887 1.56554 34.9324C1.52904 34.895 1.48906 34.8583 1.44867 34.8212C1.24253 34.6321 1.02597 34.4334 1.20952 34.0827V34.0826C1.20624 32.0797 1.20296 30.0769 1.21061 28.074C1.12761 27.7037 1.2805 27.2265 1.67694 27.1249C2.28555 27.0579 2.90582 27.0764 3.52571 27.095C4.59211 27.1269 5.65738 27.1587 6.66019 26.7547C7.82546 26.2021 8.80289 25.2334 9.26812 24.019C9.46483 23.4428 9.74002 22.88 10.0158 22.3159C10.6527 21.0136 11.2928 19.7046 10.9773 18.2079C10.8517 17.13 10.2237 16.1952 9.42539 15.4875C9.16653 15.2474 8.92073 14.9922 8.6749 14.7368C8.22066 14.2651 7.7663 13.7932 7.22917 13.4169C7.23245 13.3754 7.23682 13.2924 7.239 13.2509C7.86547 12.6236 8.4926 11.9971 9.11974 11.3706C10.0954 10.396 11.071 9.42135 12.0442 8.44347C12.2474 8.26873 12.5433 8.08854 12.788 8.3015C13.3309 8.77788 13.8391 9.29783 14.347 9.81747C14.6146 10.0912 14.8821 10.3649 15.1545 10.632C16.6136 12.0922 19.1232 12.4264 20.8389 11.2272C21.4088 10.8908 22.0365 10.6706 22.6626 10.4509C23.5712 10.1321 24.4766 9.81441 25.1975 9.1446C25.9412 8.38887 26.3398 7.36338 26.5255 6.33572C26.5539 5.75058 26.5486 5.16473 26.5433 4.57895C26.5373 3.90306 26.5312 3.22724 26.5768 2.55268C26.6587 2.23379 26.9929 2.05796 27.3063 2.0798C28.2029 2.08777 29.0996 2.08497 29.9964 2.08217C31.3116 2.07807 32.627 2.07396 33.9419 2.10383C34.1844 2.32334 34.4465 2.59964 34.4104 2.95458C34.438 3.43592 34.4223 3.92476 34.4066 4.41414C34.3725 5.47591 34.3383 6.5402 34.7457 7.53594C35.2514 8.73725 36.2528 9.69065 37.4672 10.157C38.068 10.3779 38.6459 10.6532 39.2235 10.9284C40.0024 11.2996 40.781 11.6706 41.615 11.9076C41.7394 11.9091 41.8647 11.9121 41.9906 11.9151C42.7916 11.9342 43.6132 11.9538 44.3475 11.5876C45.4183 11.0833 46.2253 10.2362 47.0303 9.39128C47.3566 9.04875 47.6826 8.70658 48.0257 8.38777C48.1392 8.13987 48.5389 8.12021 48.6897 8.33317C49.5449 9.19675 50.4052 10.0553 51.2658 10.914C51.5349 11.1825 51.804 11.4511 52.073 11.7198C52.1732 11.8186 52.2712 11.9204 52.3692 12.0222C52.7208 12.3875 53.0731 12.7535 53.5342 12.9866C53.7221 13.0751 53.6216 13.4256 53.4403 13.4726C53.0379 13.8658 52.6406 14.2635 52.2434 14.6611C51.9314 14.9734 51.6195 15.2857 51.3052 15.5956C49.8658 16.9717 49.3635 19.3077 50.3562 21.0834C50.9107 21.9273 51.2429 22.8839 51.5719 23.8314C51.5857 23.871 51.5994 23.9106 51.6132 23.9502C52.0348 25.5545 53.484 26.7394 55.085 27.0408C56.1476 27.1293 57.2222 27.1206 58.287 27.0463C58.5976 26.9502 58.9057 26.8445 59.2137 26.7389C59.9943 26.4712 60.775 26.2035 61.5972 26.0907C61.1516 25.0554 59.9481 24.5716 58.8713 24.6863C58.4297 24.6459 57.9633 24.6676 57.493 24.6895C56.4387 24.7385 55.3646 24.7886 54.5051 24.1413C53.7379 23.6725 53.4646 22.8717 53.1907 22.0693C53.0626 21.6941 52.9344 21.3185 52.7555 20.9764C52.6523 20.7197 52.5113 20.4812 52.3706 20.2432C52.1779 19.9173 51.9857 19.5924 51.8917 19.2225C51.8393 18.5137 51.9135 17.7602 52.3242 17.1584C52.8176 16.4483 53.4386 15.8483 54.0589 15.2489C54.3297 14.9873 54.6002 14.7259 54.86 14.4555C55.6616 13.7107 55.6878 12.3652 54.9681 11.556C54.7087 11.2971 54.4493 11.0382 54.1898 10.7794C52.8272 9.4201 51.4646 8.06087 50.1105 6.69393C49.3722 6.20139 48.3795 6.05286 47.5855 6.52138C46.866 6.99552 46.2702 7.61478 45.675 8.23336C45.4093 8.50953 45.1437 8.78557 44.8673 9.04849C44.1443 9.9047 42.8524 10.1821 41.8356 9.72887C41.6698 9.64405 41.5084 9.55011 41.3471 9.45618C41.0411 9.27803 40.7352 9.09991 40.3984 8.98406C40.1727 8.88771 39.9391 8.80544 39.7053 8.72316C39.0808 8.50327 38.4558 8.28321 37.9805 7.79367C37.4126 7.33499 37.0686 6.68082 36.8207 6.00809C36.8018 5.34237 36.8057 4.67605 36.8097 4.00976C36.8132 3.40485 36.8168 2.79996 36.8032 2.19557C36.6995 0.940744 35.5593 -0.0934749 34.2991 0.0069983C33.4007 0.0199209 32.5016 0.0135905 31.6025 0.00726ZM42.3533 17.7274C39.0344 14.758 34.5393 13.0259 30.077 13.2858C26.1378 13.3994 22.262 14.9502 19.3351 17.5887C16.7654 19.8439 14.9416 22.9138 14.0898 26.2174C13.0599 30.1227 13.5339 34.3874 15.2933 38.0143C17.187 41.8093 20.4742 44.9338 24.4593 46.4398C28.6551 48.1457 33.539 48.0168 37.6671 46.1777C37.69 45.6044 37.6955 45.0321 37.6846 44.4587C33.1546 46.8188 27.4276 46.6517 23.0461 44.0252C19.2543 41.8574 16.5077 37.9979 15.6679 33.7179C14.6882 28.8996 16.2194 23.6226 19.689 20.1278C21.9922 17.6466 25.1877 16.0718 28.5099 15.5225C31.9947 15.0583 35.6664 15.7147 38.6566 17.6018C43.1735 20.2851 46.2041 25.418 46.0992 30.7005C46.7173 30.6317 47.342 30.529 47.9383 30.351C47.9066 28.2094 47.543 26.0405 46.7239 24.0507C45.788 21.6415 44.2044 19.5119 42.3533 17.7274Z" fill="#DF1E54"/>
<path d="M86.8652 15.1242C88.2708 14.7834 90.0585 15.8056 89.9908 17.3717C90.0018 36.1198 89.9908 54.869 89.9963 73.6171C90.1132 75.6298 87.5314 77.067 85.8441 76.0208C78.2136 71.7638 70.6366 67.4096 63.0192 63.1274C59.459 61.0787 55.8518 59.1041 52.3101 57.0259C51.8995 56.8588 51.4353 56.9287 51.0083 56.9046C47.9133 56.9101 44.8183 56.9025 41.7233 56.9101C41.0484 57.0302 40.4466 56.6644 39.9028 56.3237C39.4561 55.8366 39.2104 55.1682 39.2169 54.5053C39.2082 47.6972 39.2115 40.889 39.2158 34.0808C39.3829 33.0685 40.2348 32.1882 41.2908 32.1227C44.9264 32.0943 48.562 32.1435 52.1976 32.0998C55.3866 30.8133 58.3461 29.0244 61.4914 27.6396C67.1594 24.7652 72.8918 22.0284 78.562 19.1595C81.3764 17.9134 84.0454 16.3539 86.8652 15.1242ZM87.5118 16.9731C85.9042 17.7682 84.3207 18.6167 82.6792 19.3408C79.9086 20.7168 77.1466 22.1103 74.3771 23.4864C70.8398 25.1071 67.4324 27.0029 63.894 28.6203C60.4812 30.312 57.1012 32.0703 53.6447 33.6691C53.6064 40.8672 53.6381 48.0685 53.6294 55.2687C53.3006 55.7492 53.7244 55.7962 53.9548 55.9272C65.1783 62.091 76.3527 68.3488 87.5904 74.4864C87.5959 55.3025 87.5915 36.1187 87.5915 16.9338L87.5118 16.9731ZM41.3127 34.0961C41.2832 34.1267 41.2231 34.1868 41.1925 34.2163C41.1619 41.1227 41.1827 48.0302 41.1827 54.9367C44.6381 54.9443 48.0935 54.9432 51.5489 54.9378C51.5566 47.9887 51.5555 41.0386 51.55 34.0896C48.1383 34.0798 44.7244 34.0677 41.3127 34.0961Z" fill="#136B9F"/>
</svg>
