<svg width="37" height="37" viewBox="0 0 37 37" fill="none" xmlns="http://www.w3.org/2000/svg">
<circle cx="18.5" cy="18.5" r="18.5" fill="#DF1E54"/>
<path d="M18.0026 5.94889C19.0146 5.9176 20.034 6.16955 20.9308 6.63925C21.6828 7.03089 22.3325 7.59898 22.8629 8.25741C23.8181 9.46522 24.2697 11.0495 24.1145 12.578C23.99 13.8222 23.4735 15.0342 22.6354 15.9656C22.0215 16.6705 21.2205 17.2144 20.3485 17.5505C20.3143 17.5692 20.2659 17.5724 20.245 17.6092C22.247 18.128 24.0107 19.5019 24.993 21.3226C25.6108 22.424 25.9201 23.6876 25.9411 24.947C25.9885 26.662 25.9417 28.3811 25.9643 30.0976C26.0408 30.3028 25.8727 30.5996 25.6378 30.5483C20.6914 30.5486 15.7454 30.5509 10.7993 30.5474C10.6102 30.5035 10.5667 30.298 10.5738 30.1299C10.5693 28.3556 10.5744 26.581 10.5715 24.8067C10.6202 23.4328 11.0261 22.0656 11.7693 20.9062C12.771 19.3248 14.3708 18.1286 16.1802 17.6395V17.6189C14.8282 17.1744 13.6733 16.1933 12.9584 14.9681C12.2784 13.8345 12.021 12.467 12.1848 11.1605C12.3632 9.84491 12.9839 8.58291 13.9511 7.66867C15.016 6.60248 16.4986 5.98567 18.0026 5.94889ZM17.6481 6.69474C16.396 6.80152 15.1747 7.36768 14.3221 8.29741C13.2436 9.39005 12.712 10.9943 12.8942 12.5157C13.0507 14.4613 14.434 16.2246 16.2593 16.894C17.9403 17.5418 19.9424 17.2502 21.3708 16.1514C22.5483 15.2413 23.3226 13.8126 23.411 12.3225C23.4019 11.9347 23.438 11.5437 23.3864 11.1582C23.2719 10.1162 22.7845 9.13133 22.0815 8.36161C20.9621 7.16767 19.2791 6.52247 17.6481 6.69474ZM17.6481 17.9857C17.2871 18.027 16.9245 18.0673 16.5725 18.1609C14.1666 18.7409 12.1355 20.6697 11.46 23.0544C11.3045 23.636 11.1683 24.2331 11.1845 24.839C11.1867 26.5049 11.1832 28.1711 11.1861 29.837C15.906 29.8415 20.626 29.8392 25.3459 29.8383C25.3491 28.2146 25.3456 26.5913 25.3478 24.9677C25.3133 24.2002 25.2114 23.426 24.943 22.7018C24.4339 21.2507 23.4455 19.9668 22.1531 19.1296C20.8434 18.2434 19.2223 17.8334 17.6481 17.9857Z" fill="white"/>
</svg>
