<svg width="110" height="110" viewBox="0 0 110 110" fill="none" xmlns="http://www.w3.org/2000/svg">
<circle cx="55" cy="55" r="55" fill="url(#paint0_linear)"/>
<path fill-rule="evenodd" clip-rule="evenodd" d="M58.9285 26.0029C65.0064 26.0057 71.0841 26.0085 77.161 26.0011C77.546 25.9978 77.7902 26.2461 77.9195 26.5023C78.0449 26.7505 78.0887 27.0465 78.0762 27.2824C78.0833 46.5867 78.0804 65.891 78.0776 85.1953C78.1378 85.5169 78.0073 85.8135 77.8063 86.0117C77.6095 86.2057 77.3212 86.3301 77.0176 86.295C76.4203 86.3709 75.7911 86.3992 75.1771 86.3043C74.2239 86.3848 73.25 86.3838 72.3037 86.3081C71.4104 86.3644 70.4779 86.4048 69.5657 86.314C69.3389 86.3188 69.1063 86.328 68.87 86.3373C68.138 86.3661 67.3705 86.3963 66.6285 86.3037C65.7164 86.3681 64.7692 86.4031 63.842 86.314C63.615 86.3188 63.3823 86.328 63.1459 86.3373C62.4138 86.3661 61.6464 86.3963 60.9044 86.3037C59.9923 86.3681 59.0451 86.4031 58.1179 86.314C57.8909 86.3188 57.6582 86.328 57.4217 86.3373C56.6897 86.3661 55.9223 86.3963 55.1803 86.3037C54.2681 86.3681 53.3209 86.4031 52.3938 86.314C52.1667 86.3188 51.934 86.328 51.6976 86.3373H51.6975C50.9657 86.3661 50.1986 86.3963 49.4561 86.3037C48.544 86.3681 47.5968 86.4031 46.6696 86.314C46.4426 86.3188 46.2099 86.328 45.9735 86.3373H45.9734C45.2416 86.3661 44.4745 86.3963 43.732 86.3037C42.8199 86.3681 41.8727 86.4031 40.9455 86.314C40.7185 86.3188 40.4858 86.328 40.2493 86.3373H40.2493C39.5174 86.3661 38.7503 86.3963 38.0079 86.3037C37.096 86.3681 36.149 86.4031 35.2221 86.3141C35.0164 86.3194 34.8077 86.3271 34.5967 86.3349C33.716 86.3673 32.7964 86.4012 31.8969 86.2705L31.8873 86.2691L31.8778 86.267C31.3191 86.1461 31.1086 85.5687 31.1588 85.1358C31.1532 77.9327 31.1553 70.7296 31.1581 63.5273L31.1581 63.5223L31.1583 63.5173C31.1785 62.9502 31.6315 62.6511 32.0592 62.5799C32.4786 62.5101 32.9993 62.6322 33.2756 63.0335L33.2945 63.061L33.3065 63.092C33.4162 63.3762 33.4168 63.6905 33.4173 63.9367C33.4174 63.9898 33.4175 64.0397 33.4187 64.0855L33.4188 64.0892L33.4188 64.0928L33.4181 66.9783C33.4167 72.659 33.4154 78.3392 33.42 84.0199C47.5286 84.0227 61.6371 84.0254 75.7456 84.0186C75.7491 65.3406 75.7498 46.662 75.7449 27.984C61.6363 27.9812 47.5278 27.9785 33.4193 27.9854C33.416 32.4546 33.4166 36.9236 33.4172 41.3928L33.4172 41.3971C33.4175 44.127 33.4179 46.8569 33.4174 49.587C33.4466 49.8033 33.4205 50.0433 33.3277 50.2547C33.2301 50.4771 33.0504 50.6825 32.7728 50.7689L32.7478 50.7767L32.7218 50.7798C32.6888 50.7836 32.6509 50.7888 32.6099 50.7945L32.6098 50.7945C32.4989 50.8098 32.3647 50.8282 32.2415 50.8321C32.0629 50.8376 31.8571 50.8172 31.659 50.7087C31.2223 50.4913 31.137 49.9999 31.1588 49.6682C31.1543 45.2934 31.155 40.9182 31.1557 36.5432C31.1562 33.3597 31.1568 30.1762 31.1553 26.9931C31.1504 26.5988 31.373 26.1913 31.7864 26.0408L31.8329 26.0239L31.8822 26.0238C40.8966 25.9946 49.9128 25.9988 58.9285 26.0029Z" fill="#136B9F"/>
<path fill-rule="evenodd" clip-rule="evenodd" d="M46.8567 49.9025C46.6093 49.7103 46.3577 49.5147 46.0198 49.6466C45.7874 49.7582 45.574 49.9066 45.3641 50.0551C45.3111 50.4345 45.4334 50.7935 45.6504 51.1038C46.1548 51.4296 46.6327 51.7921 47.1107 52.1546C47.493 52.4447 47.8753 52.7348 48.2714 53.0062C48.8975 53.473 49.5294 53.9319 50.1613 54.3907C50.7575 54.8235 51.3536 55.2563 51.9447 55.6958C46.0241 55.7057 40.1034 55.7043 34.1826 55.7029C29.1224 55.7017 24.0622 55.7005 19.0019 55.7064C18.9348 55.7183 18.8632 55.7239 18.7905 55.7295C18.6043 55.7439 18.411 55.7589 18.2678 55.8824C17.9264 56.1318 17.9808 56.6385 18.0571 56.9996C18.1858 57.4187 18.7016 57.4802 19.0726 57.4689C23.5419 57.4715 28.0114 57.4704 32.4809 57.4694C38.9697 57.4678 45.4586 57.4663 51.9476 57.4759C50.7702 58.3472 49.5869 59.2104 48.4038 60.0735C47.4614 60.7611 46.5189 61.4485 45.5797 62.14C45.4037 62.2265 45.3165 62.3662 45.288 62.5264C45.0301 62.7525 44.9825 63.1419 45.1881 63.425L45.3794 63.6885C45.5972 63.9886 46.0171 64.0552 46.3172 63.8373L55.4345 57.2178C55.7345 56.9999 55.8012 56.5801 55.5833 56.2801L55.392 56.0166C55.2705 55.8491 55.086 55.7544 54.8945 55.7412C54.7278 55.6028 54.5486 55.4794 54.3696 55.356C54.2371 55.2646 54.1046 55.1733 53.9772 55.076C52.7277 54.1549 51.4696 53.2457 50.2115 52.3364C49.1733 51.5862 48.1351 50.836 47.1018 50.0791C47.0187 50.0284 46.938 49.9657 46.8567 49.9025Z" fill="#DF1E54"/>
<defs>
<linearGradient id="paint0_linear" x1="55" y1="0" x2="55" y2="110" gradientUnits="userSpaceOnUse">
<stop stop-color="#F0F6FF"/>
<stop offset="1" stop-color="#F0F6FF" stop-opacity="0"/>
</linearGradient>
</defs>
</svg>
