<svg width="110" height="110" viewBox="0 0 110 110" fill="none" xmlns="http://www.w3.org/2000/svg">
<circle cx="55" cy="55" r="55" fill="url(#paint0_linear)"/>
<circle cx="91.5" cy="89.5" r="16.5" fill="#D5DEEB"/>
<path fill-rule="evenodd" clip-rule="evenodd" d="M91.5 79C90.6716 79 90 79.6716 90 80.5V88H82.5C81.6716 88 81 88.6716 81 89.5C81 90.3284 81.6716 91 82.5 91H90V98.5C90 99.3284 90.6716 100 91.5 100C92.3284 100 93 99.3284 93 98.5V91H100.5C101.328 91 102 90.3284 102 89.5C102 88.6716 101.328 88 100.5 88H93V80.5C93 79.6716 92.3284 79 91.5 79Z" fill="white"/>
<g opacity="0.97">
<path d="M91.463 72.5652C91.8007 73.0231 92.4677 73.0805 92.8278 72.64C93.4533 71.8748 93.9548 71.0083 94.2973 70.0911C95.8961 65.7481 93.1096 60.4583 88.6193 59.3449C84.0439 57.8949 78.7587 61.192 78.094 65.9621C77.782 68.1506 78.2469 70.4016 79.4852 72.2347C80.341 73.3808 81.4873 74.3202 82.7791 74.9411C83.3059 75.1943 83.8976 74.8413 84.001 74.266C84.0842 73.8032 83.8158 73.3549 83.3976 73.1398C81.4144 72.1199 79.9657 70.0306 79.9088 67.7811C79.4762 63.9082 83.2443 60.377 87.0307 60.9976C90.9656 61.1973 93.8312 65.5589 92.585 69.2629C92.3687 70.0059 92 70.6968 91.5208 71.3058C91.2323 71.6725 91.1861 72.1897 91.463 72.5652Z" fill="#136B9F"/>
<path fill-rule="evenodd" clip-rule="evenodd" d="M41.9062 37.6701C43.0517 37.5031 44.2107 37.5251 45.3659 37.5471C45.8595 37.5564 46.2734 37.9281 46.3259 38.419C46.4856 39.9126 46.6079 41.411 46.7301 42.909C46.8695 44.6161 47.0088 46.3233 47.2036 48.0244C47.2153 48.095 47.2326 48.173 47.2503 48.2525C47.3593 48.7422 47.4851 49.3079 46.4577 48.8049C46.3273 48.741 46.1863 48.6984 46.0414 48.6893C43.5181 48.5297 40.995 48.3859 38.4725 48.2421C35.2354 48.0576 31.9989 47.8731 28.7631 47.6555C25.0661 47.5469 21.3069 46.7243 18.1747 44.6872C18.1356 44.6617 18.0989 44.6326 18.0623 44.6036C18.0451 44.59 18.028 44.5763 18.0106 44.5631C17.9209 44.4949 17.8112 44.4371 17.7013 44.3791C17.4501 44.2467 17.1974 44.1135 17.1785 43.8544C17.1714 43.7575 17.2454 43.6787 17.335 43.641C20.2538 42.4107 23.1867 41.1744 26.242 40.3219C31.3433 38.8632 36.6132 38.0032 41.9062 37.6701ZM41.9062 39.5652C35.2156 40.0648 28.5102 41.2115 22.2474 43.6884C22.1387 43.7484 21.9931 43.7828 21.845 43.8179C21.3832 43.9272 21.5269 44.3545 21.9774 44.5038C23.8382 45.1201 25.7575 45.6026 27.7239 45.7246C30.1139 45.817 32.501 45.9709 34.8876 46.1247C37.9297 46.3208 40.9716 46.5169 44.0196 46.5856C44.6448 46.5997 45.123 46.0369 45.0435 45.4165C44.8837 44.1702 44.7998 42.9128 44.7159 41.6567L44.7158 41.6553C44.6861 41.2105 44.6565 40.7658 44.6234 40.3218C44.5865 39.8257 44.1849 39.4329 43.6874 39.4331C43.0906 39.4332 42.4941 39.4715 41.9062 39.5652Z" fill="#136B9F"/>
<path fill-rule="evenodd" clip-rule="evenodd" d="M47.3624 38.729C47.2297 38.1186 47.678 37.5326 48.3026 37.5304C56.9308 37.4996 65.2851 40.9436 72.1914 45.9743C72.5687 46.2944 72.9616 46.602 73.3553 46.9101C74.3649 47.7004 75.3795 48.4945 76.1475 49.5145C76.1775 49.5544 76.2047 49.5978 76.2273 49.6423C76.7934 50.7584 76.1579 50.6606 75.5992 50.5747C75.4843 50.557 75.3726 50.5398 75.2753 50.5338C68.6349 50.029 61.9844 49.6399 55.3355 49.251C53.6291 49.1511 51.9225 49.0513 50.2165 48.9495C49.7697 48.9229 49.3949 48.6025 49.3013 48.1649C48.9844 46.6839 48.687 45.1994 48.3896 43.715L48.3894 43.714C48.0562 42.0505 47.7229 40.3871 47.3624 38.729ZM50.3114 43.6018C50.4963 44.4611 50.6814 45.3208 50.8174 46.1881C50.8911 46.6583 51.2694 47.0278 51.7439 47.0662C55.6561 47.3832 59.5738 47.6065 63.4924 47.8298C65.1258 47.9229 66.7594 48.016 68.3928 48.1159C68.8667 48.1837 69.3412 48.2339 69.8167 48.267C70.7329 48.3307 71.0877 47.2402 70.3348 46.7144C64.5861 42.7006 57.7609 40.0549 50.7415 39.523C50.147 39.478 49.6603 39.9773 49.7401 40.5682C49.8776 41.5868 50.0945 42.5942 50.3114 43.6018Z" fill="#136B9F"/>
<path fill-rule="evenodd" clip-rule="evenodd" d="M52.1614 35.462C48.3334 35.0973 44.48 34.838 40.6372 35.1184C40.1964 35.1437 39.7556 35.1686 39.3147 35.1934C36.4926 35.3525 33.6713 35.5115 30.8563 35.8014C27.6368 36.042 24.4334 36.4408 21.2302 36.8396C18.696 37.1551 16.1619 37.4706 13.6202 37.7077C13.1152 37.7548 12.7156 38.19 12.9507 38.6395C13.0865 38.8992 13.2693 39.1421 13.4499 39.3818C13.6391 39.6332 13.5941 39.9819 13.3525 40.1834C12.7937 40.6494 12.2156 41.0997 11.6368 41.5507C10.0226 42.8081 8.40232 44.0703 7.17818 45.6898C7.12139 45.765 7.07653 45.8485 7.04464 45.9372C5.70876 49.6501 5.56683 53.6421 5.51681 57.5537C5.51237 57.9007 5.32256 58.2132 5.05255 58.4313C4.34384 59.0035 3.83825 59.8296 4.05433 60.7845C4.07889 60.8931 4.09468 61.004 4.09602 61.1153C4.11378 62.5962 5.01824 64.0588 6.34744 64.7156C6.39184 64.7375 6.4352 64.7618 6.47674 64.7888C7.85049 65.6805 9.43572 65.9986 11.0121 66.3149C11.2878 66.3702 11.5633 66.4255 11.8373 66.4838C12.5524 66.6359 13.2525 66.029 13.3016 65.2995C13.6066 60.7676 17.905 56.8151 22.5337 57.339C22.6107 57.3478 22.6889 57.3488 22.7661 57.3419C25.3447 57.1106 27.9619 58.0953 29.7749 59.9333C31.6307 61.8379 32.3063 64.5143 32.2152 67.1146C32.1963 67.6541 32.5709 68.1416 33.1082 68.1947C35.0814 68.3898 37.0662 68.3578 39.0508 68.3258C41.2475 68.2904 43.4442 68.255 45.6247 68.5274C47.1836 68.5672 48.7449 68.5507 50.3063 68.5342C51.1743 68.5251 72.4734 68.5159 75.6914 68.5164C75.8504 68.802 76.147 69 76.4973 69C77.0181 69 77.4191 68.5603 77.4197 68.0394C77.4202 67.5226 77.472 64.0164 77.652 63.5435C77.669 63.4989 77.6841 63.4533 77.6961 63.4071C78.7351 59.4215 82.999 56.7734 87.0478 57.3374C87.1195 57.3473 87.1923 57.3505 87.2646 57.3469C91.3782 57.142 95.3771 60.3843 95.9985 64.4547C96.0058 64.5024 96.0091 64.5507 96.0089 64.599C96.0059 65.6498 96.0052 66.7006 96.0087 67.7514C96.0106 68.301 96.457 68.7465 97.0064 68.7346C99.1275 68.689 101.261 68.4774 103.311 67.9174C103.36 67.904 103.408 67.8868 103.454 67.8656C104.536 67.3709 105.619 66.6948 106.119 65.5742C106.245 65.1625 105.918 65.0998 105.593 65.0376C105.274 64.9765 104.959 64.916 105.078 64.5265C105.719 62.0609 106.184 59.3137 105.085 56.9264C105.01 56.764 104.971 56.5866 104.984 56.4083L104.994 56.2687C105.055 55.45 105.117 54.6078 104.789 53.8413C103.796 51.9863 101.876 50.8417 100.008 50.0006C93.9717 47.4672 87.3491 46.8324 80.8918 46.2849C80.8044 46.2774 80.7184 46.2586 80.6357 46.229L80.3556 46.1291C80.2993 46.109 80.2451 46.0836 80.1934 46.0537C75.9482 43.5921 71.4976 41.5002 66.9783 39.5915C62.2501 37.5699 57.288 36.0417 52.1614 35.462ZM75.5924 64.2003C75.5935 64.3556 75.5908 65.6088 75.5848 66.6312C74.1027 66.6323 69.5101 66.6334 64.7812 66.6346H64.7599C58.659 66.6362 52.3388 66.6377 52.1849 66.6393C49.5744 66.6663 46.9642 66.6933 44.3641 66.4469C42.6134 66.4104 40.8621 66.4193 39.1111 66.4281C37.7683 66.4349 36.4255 66.4417 35.0834 66.4281C34.5182 66.4223 34.0792 65.9442 34.0478 65.3798C33.8101 61.1117 30.7662 57.1538 26.653 55.905C23.0589 54.9121 18.8409 55.1482 15.7612 57.4354C13.6189 58.9406 12.151 61.3917 11.6399 63.9561C11.6271 64.02 11.6113 64.0843 11.5777 64.1402C11.3503 64.5191 10.8222 64.3816 10.3864 64.2682C10.3009 64.2459 10.2189 64.2246 10.1435 64.2082C8.80702 63.8899 7.44949 63.3672 6.46297 62.3806C5.9308 61.8604 5.96397 61.1097 5.99531 60.4001C6.00795 60.1139 6.19953 59.8622 6.47505 59.7839L6.84174 59.6797C7.31349 59.5459 7.61833 59.0906 7.57437 58.6022C7.31157 55.6821 7.39641 52.7155 7.9807 49.8383C8.0689 49.5092 8.14043 49.1738 8.212 48.8382C8.38004 48.0502 8.5483 47.2611 8.93317 46.5504C8.97157 46.4795 9.02076 46.415 9.07694 46.3572C11.4469 43.9161 14.1976 41.8841 16.967 39.9257C17.0008 39.9018 17.0398 39.8827 17.0786 39.8636C17.1568 39.8252 17.2345 39.7871 17.2684 39.7112C17.2992 39.6423 17.282 39.5538 17.266 39.4714C17.2408 39.3411 17.2185 39.2258 17.3927 39.2268C25.1121 38.2318 32.8631 37.3634 40.6372 37.0155C44.4779 36.7057 48.3228 37.0219 52.1467 37.3823C57.6801 38.0042 62.9669 39.8739 68.0428 42.0957C71.8203 43.7926 75.5682 45.5718 79.1602 47.6397C79.5257 47.8719 79.9324 48.0354 80.3431 48.1751C80.4308 48.2049 80.5225 48.2212 80.6151 48.2251C85.722 48.4401 90.7991 49.2194 95.7562 50.4728C96.0909 50.593 96.4284 50.7096 96.7665 50.8265C98.4917 51.4227 100.233 52.0247 101.707 53.1351C102.755 53.7408 103.41 55.0751 103.099 56.2324C102.978 56.6809 102.986 57.1869 103.226 57.5847C104.43 59.5812 103.772 62.0357 103.159 64.3214C103.051 64.7226 102.945 65.1186 102.851 65.506C102.753 65.9065 102.432 66.2188 102.025 66.2863C101.049 66.4484 100.071 66.6002 99.09 66.7275C98.5645 66.7957 98.084 66.4326 98.0229 65.9062C98.0021 65.7273 97.9827 65.548 97.9634 65.3688C97.8467 64.2873 97.73 63.2058 97.2971 62.1951C96.2684 59.2861 93.8148 57.1234 90.969 56.0589C87.6785 55.0175 83.9073 55.026 80.8192 56.7229C78.1321 58.2377 76.0934 60.9621 75.6041 64.0358C75.5954 64.0902 75.592 64.1452 75.5924 64.2003Z" fill="#136B9F"/>
<path fill-rule="evenodd" clip-rule="evenodd" d="M25.3998 59.2364C24.2219 58.6718 22.905 58.7744 21.6275 58.874C21.382 58.8931 21.138 58.9122 20.8966 58.9263C20.8437 58.9294 20.7908 58.9363 20.7391 58.9481C17.0371 59.7893 14.3049 63.287 14.2108 67.0591C14.3499 69.5212 15.3195 72.1034 17.3643 73.6064C18.5468 74.6541 20.1362 75.1178 21.6582 75.4087C24.1771 75.7635 26.6733 74.6968 28.5576 73.0821C28.5956 73.0495 28.6307 73.0141 28.6629 72.9759C30.3036 71.027 31.513 68.3786 30.8763 65.7943C30.4189 62.8305 28.2561 60.1871 25.3998 59.2364ZM16.2217 67.9782C15.6083 64.8015 17.9482 61.5868 21.0258 60.8195C24.1877 60.0312 27.7923 61.7765 28.7219 64.9806C30.1933 68.425 27.708 72.6663 24.1245 73.3935C20.5831 74.4201 16.6075 71.6039 16.2217 67.9782Z" fill="#136B9F"/>
</g>
<defs>
<linearGradient id="paint0_linear" x1="55" y1="0" x2="55" y2="110" gradientUnits="userSpaceOnUse">
<stop stop-color="#F0F6FF"/>
<stop offset="1" stop-color="#F0F6FF" stop-opacity="0"/>
</linearGradient>
</defs>
</svg>
