<svg width="43" height="18" viewBox="0 0 43 18" fill="none" xmlns="http://www.w3.org/2000/svg">
<path opacity="0.97" fill-rule="evenodd" clip-rule="evenodd" d="M15.4219 0.0498352C17.0396 -0.0681899 18.6618 0.0409616 20.2733 0.194483C22.4315 0.43852 24.5204 1.08189 26.5109 1.93291C28.425 2.74134 30.3099 3.62786 32.1069 4.67234C32.1325 4.68163 32.171 4.69532 32.2094 4.70903L32.2098 4.70916L32.21 4.70921L32.2109 4.70954C32.2491 4.72317 32.2873 4.73676 32.3128 4.74599C35.0486 4.97761 37.8573 5.24117 40.4157 6.31493C41.2019 6.66901 42.0103 7.15087 42.4283 7.93178C42.5665 8.25448 42.5403 8.60901 42.5149 8.95368C42.5106 9.01184 42.5063 9.06972 42.5029 9.12712C43.0291 10.1556 42.8294 11.3563 42.5499 12.4301C42.4998 12.594 42.6328 12.6195 42.767 12.6452C42.9037 12.6714 43.0416 12.6978 42.9883 12.8711C42.7735 13.353 42.3023 13.6396 41.8373 13.849C40.8301 14.1285 39.7741 14.2066 38.734 14.2058C38.7305 13.6139 38.7305 13.022 38.7323 12.4301C38.4838 10.6872 36.7631 9.29662 35.0052 9.41021C33.2774 9.14487 31.4431 10.279 31.0154 11.9881C30.8765 12.3274 30.901 12.7092 30.9252 13.0857C30.9505 13.4791 30.9754 13.8668 30.813 14.1942C28.157 14.2173 25.501 14.2093 22.8459 14.1987C21.7312 14.0936 20.6118 14.1054 19.4926 14.1172H19.4925H19.4925H19.4925C18.8351 14.1241 18.1778 14.1311 17.5215 14.1143C16.6035 13.9997 15.6789 14.0146 14.7541 14.0295H14.7541C13.7827 14.0451 12.8112 14.0608 11.8474 13.9262C11.9778 12.7105 11.7276 11.398 10.849 10.4964C10.0743 9.71104 8.95088 9.29573 7.84961 9.41021C5.66038 9.12712 3.62999 11.2347 3.93792 13.4142C3.61756 13.3168 3.28442 13.25 2.95033 13.1829L2.95031 13.1829C2.27663 13.0477 1.59912 12.9118 1.0148 12.5232C0.418464 12.2437 0.0173564 11.5808 0.0395415 10.9232C-0.119304 10.4085 0.22501 9.97548 0.634104 9.72967C0.653627 7.98858 0.691786 6.20134 1.30055 4.5481C1.81985 3.84316 2.51789 3.29939 3.21325 2.7577L3.21326 2.75769L3.21327 2.75769C3.51842 2.51997 3.82306 2.28266 4.11185 2.0323C4.07043 1.96933 4.02369 1.90725 3.97657 1.84468L3.97656 1.84467C3.8238 1.6418 3.66711 1.43372 3.67525 1.17329C4.87043 1.07092 6.06113 0.922686 7.25191 0.774441C8.60037 0.606565 9.94895 0.438676 11.3043 0.337356C12.4893 0.21532 13.6771 0.148381 14.8651 0.0814228C15.0507 0.0709641 15.2363 0.0605049 15.4219 0.0498352ZM15.4219 0.848502C12.1491 0.994924 8.8861 1.36054 5.63642 1.77939C5.56305 1.77896 5.57245 1.82749 5.58308 1.88235C5.59444 1.94096 5.60719 2.00678 5.52194 2.02786C4.32039 2.87623 3.12417 3.75476 2.1001 4.81787C1.92017 5.12848 1.8458 5.47727 1.77152 5.82557C1.74139 5.96685 1.71128 6.10806 1.67415 6.2466C1.40437 7.57505 1.38751 8.94875 1.53926 10.2923C1.36533 10.3411 1.01835 10.4396 0.84442 10.4893C0.84442 10.5553 0.841401 10.6236 0.83834 10.6929C0.825145 10.9916 0.811183 11.3077 1.03521 11.5267C1.45052 11.942 2.02201 12.1621 2.58463 12.2961C2.61638 12.3029 2.65088 12.3119 2.68687 12.3213C2.88326 12.3724 3.1242 12.4351 3.2067 12.2304C3.41435 11.1362 4.03642 10.0864 4.94957 9.44481C6.24607 8.48198 8.02177 8.38259 9.5348 8.80056C11.4055 9.3685 12.7508 11.2675 12.6487 13.2243C13.3585 13.2378 14.0688 13.2342 14.7792 13.2306H14.7792H14.7793H14.7794H14.7794H14.7795H14.7795C15.5166 13.2268 16.2538 13.2231 16.9908 13.2385C18.0854 13.3422 19.1841 13.3309 20.283 13.3195C20.9606 13.3125 21.6383 13.3055 22.3152 13.3254C22.901 13.4192 23.493 13.4141 24.0846 13.409C24.2933 13.4072 24.502 13.4054 24.7103 13.408C25.4299 13.4055 26.1496 13.4067 26.8694 13.408C27.9213 13.4099 28.9733 13.4118 30.025 13.4018C30.0925 13.0237 30.1431 12.6421 30.1368 12.2579C30.333 10.9499 31.1964 9.78824 32.3376 9.14487C33.6377 8.43051 35.2252 8.42696 36.6105 8.86534C37.8085 9.31348 38.8414 10.224 39.2745 11.4486C39.4567 11.874 39.5058 12.3292 39.555 12.7845C39.5774 12.9921 39.5998 13.1996 39.6348 13.4044C40.2755 13.3325 40.9126 13.2314 41.5489 13.1231C41.6004 12.8725 41.6706 12.6108 41.7422 12.3437C42.0285 11.2758 42.3382 10.1204 41.5737 9.23805C41.9589 8.70649 41.6669 7.94421 41.1309 7.6345C40.5106 7.16704 39.7774 6.91363 39.0511 6.6626C38.9087 6.61341 38.7667 6.56431 38.6258 6.51371C36.52 5.98126 34.3627 5.65204 32.193 5.56507C32.0013 5.50206 31.8096 5.4293 31.6392 5.32103C30.1271 4.45049 28.5493 3.70152 26.959 2.98715C24.8222 2.05183 22.5965 1.2647 20.2671 1.00291C18.6573 0.851164 17.0387 0.718053 15.4219 0.848502ZM15.956 1.12409C16.4382 1.05378 16.9261 1.06304 17.4124 1.07228C17.5338 1.07458 17.655 1.07688 17.776 1.07795C17.864 1.82645 17.9254 2.57796 17.9867 3.32953C18.0454 4.04818 18.104 4.76688 18.186 5.48303C18.191 5.51281 18.1983 5.54551 18.2057 5.57905C18.2543 5.79748 18.3109 6.05187 17.7893 5.76878C16.6962 5.69927 15.6032 5.63697 14.5104 5.57468L14.5104 5.57468C13.1476 5.497 11.7852 5.41934 10.423 5.32774C8.85227 5.28159 7.25494 4.92929 5.92915 4.05431C5.88759 4.01245 5.82698 3.9805 5.76617 3.94844C5.64132 3.88261 5.5156 3.81633 5.55201 3.66296L5.61199 3.63768C6.84076 3.11975 8.07542 2.59933 9.36164 2.24045C11.5092 1.62636 13.7277 1.2643 15.956 1.12409ZM15.956 1.92187C13.1393 2.13219 10.3165 2.61494 7.68001 3.65764C7.63424 3.6829 7.57294 3.69741 7.51059 3.71218C7.38675 3.74149 7.25874 3.7718 7.23985 3.88925C8.1246 4.20073 9.04218 4.4563 9.98549 4.51487C10.9917 4.55375 11.9965 4.61852 13.0013 4.68329L13.0013 4.68329C14.4503 4.77669 15.8992 4.87009 17.3519 4.88581C17.232 4.19841 17.1853 3.49994 17.1388 2.80249L17.1388 2.80244L17.1388 2.80239L17.1388 2.80234C17.1181 2.49321 17.0975 2.18428 17.0705 1.87661C16.6987 1.8562 16.3234 1.8633 15.956 1.92187ZM28.7054 4.61999C25.6633 2.40414 21.954 0.919505 18.1435 1.07658C18.3385 1.93779 18.5119 2.80319 18.6853 3.66866L18.6853 3.66886C18.8314 4.39784 18.9774 5.12687 19.1365 5.85349C19.9603 5.90293 20.7843 5.95114 21.6084 5.99935L21.6093 5.9994L21.6094 5.99941C24.4085 6.16316 27.2082 6.32695 30.0037 6.53945C30.0446 6.54199 30.0916 6.54922 30.14 6.55666C30.3798 6.59356 30.6533 6.63563 30.3897 6.13568C30.0642 5.69404 29.6287 5.35316 29.1953 5.01395L29.1953 5.01394L29.1953 5.01393C29.0296 4.88422 28.8642 4.75476 28.7054 4.61999ZM19.4943 3.6212C19.37 3.0434 19.2457 2.46592 19.2057 1.87613C22.695 2.02788 26.0982 3.43708 28.8083 5.59082C28.2377 5.62365 27.6707 5.60235 27.1063 5.5216C26.4186 5.47954 25.7309 5.44034 25.0433 5.40115C23.279 5.30059 21.5152 5.20005 19.7541 5.05127C19.6985 4.5697 19.5964 4.09534 19.4943 3.6212ZM34.7672 9.98444C36.7932 9.90457 38.5529 11.8489 38.2929 13.8526C38.166 15.7961 36.1818 17.3446 34.2632 17.0056C33.0111 16.7784 31.8459 15.8866 31.4634 14.6486C30.9984 13.4107 31.3862 11.9758 32.2718 11.028C32.9392 10.3784 33.8372 10.0182 34.7672 9.98444ZM34.1487 10.8718C32.9898 11.1106 32.0961 12.2305 32.0775 13.4072C31.9559 14.7835 33.1282 16.0916 34.4788 16.2344C36.1063 16.4749 37.7001 14.9628 37.4898 13.3175C37.465 11.7025 35.7212 10.4042 34.1487 10.8718ZM7.41905 10.0504C7.30433 10.0594 7.19036 10.0682 7.07788 10.0743C5.50273 10.4151 4.33668 11.8971 4.29674 13.4962C4.35531 14.5327 4.76352 15.6197 5.6243 16.2525C6.12214 16.6935 6.79124 16.8887 7.43195 17.0112C8.50305 17.162 9.56439 16.7024 10.3604 16.0111C11.0614 15.1884 11.5832 14.0623 11.3126 12.9637C11.12 11.716 10.2095 10.6032 9.0071 10.203C8.51122 9.9653 7.95686 10.0085 7.41905 10.0504ZM5.14333 13.8831C4.88509 12.5458 5.87012 11.1925 7.16573 10.8694C8.49684 10.5376 10.0143 11.2723 10.4057 12.6212C11.0251 14.0712 9.97881 15.8567 8.47022 16.1628C6.97937 16.595 5.30572 15.4094 5.14333 13.8831Z" fill="#136B9F"/>
</svg>
