<svg width="42" height="42" viewBox="0 0 42 42" fill="none" xmlns="http://www.w3.org/2000/svg">
<path d="M20.6102 34.3867C19.9714 34.3867 19.3325 34.3867 18.6937 34.227L10.5482 33.4284H5.75681C5.27767 33.4284 4.79855 33.2687 4.47912 32.9493C4.15969 32.6299 4 32.1507 4 31.6716C4 30.7133 4.79853 30.0745 5.75681 30.0745H6.71515C8.63171 30.0745 10.0691 28.4773 10.0691 26.7204V17.6167C10.0691 11.867 14.7008 7.23535 20.4505 7.23535C26.2002 7.23535 30.8319 11.867 30.8319 17.6167V26.7204C30.8319 28.637 32.429 30.0745 34.1859 30.0745H35.6233C36.5815 30.0745 37.2205 30.7133 37.3802 31.5118C37.5399 31.991 37.3801 32.6299 37.0607 32.9493C36.7413 33.2687 36.2622 33.5881 35.783 33.5881H30.3527L22.2074 34.3867C21.888 34.3867 21.2491 34.3867 20.6102 34.3867ZM5.91658 31.0327C5.43744 31.0327 4.95824 31.3521 4.95824 31.8313C4.95824 31.991 4.9583 32.3105 5.11801 32.4702C5.27773 32.6299 5.43738 32.7895 5.75681 32.7895H10.5482L18.6937 33.5881C19.8117 33.7478 21.0894 33.7478 22.2074 33.5881L30.3527 32.7895H35.783C36.1025 32.7895 36.2621 32.6299 36.4218 32.4702C36.5815 32.3105 36.5816 31.991 36.5816 31.8313C36.5816 31.5118 36.1024 31.1924 35.6233 31.1924H34.1859C31.7902 31.1924 29.8736 29.2759 29.8736 26.8802V17.7765C29.8736 12.506 25.5613 8.19369 20.2908 8.19369C15.0203 8.19369 10.708 12.506 10.708 17.7765V26.8802C10.708 29.2759 8.79141 31.1924 6.3957 31.1924H5.91658V31.0327Z" fill="#136B9F"/>
<path d="M20.611 37.7415C18.5347 37.7415 16.9375 36.1444 16.9375 34.0681C16.9375 33.7487 17.0973 33.5889 17.4167 33.5889C17.7361 33.5889 17.8958 33.7487 17.8958 34.0681C17.8958 35.6652 19.1736 36.7831 20.611 36.7831C22.2081 36.7831 23.326 35.5055 23.326 34.0681C23.326 33.7487 23.4858 33.5889 23.8053 33.5889C24.1247 33.5889 24.2844 33.7487 24.2844 34.0681C24.2844 36.1444 22.6873 37.7415 20.611 37.7415Z" fill="#DF1E54"/>
<path d="M20.612 11.5482C20.2926 11.5482 20.1328 11.3885 20.1328 11.0691V5.47912C20.1328 5.15969 20.2926 5 20.612 5C20.9315 5 21.0912 5.15969 21.0912 5.47912V11.0691C21.0912 11.3885 20.9315 11.5482 20.612 11.5482Z" fill="#DF1E54"/>
</svg>
