<svg width="19" height="18" viewBox="0 0 19 18" fill="none" xmlns="http://www.w3.org/2000/svg">
<path fill-rule="evenodd" clip-rule="evenodd" d="M9.5098 17.4858H9.65465L9.66172 17.4422C9.6666 17.439 9.6714 17.4356 9.67611 17.432L9.69376 17.423L9.69378 17.423L9.69648 17.4216C9.71725 17.411 9.72762 17.4058 9.73567 17.4026H9.86089L10.0419 16.9467L18.037 7.05413C18.0958 6.99121 18.1466 6.90535 18.1466 6.79874C18.1466 6.7012 18.1041 6.62103 18.0518 6.55991C18.0336 6.51474 18.0073 6.47181 17.9703 6.43378C17.9619 6.42516 17.9533 6.41709 17.9444 6.40954L14.1551 1.00488C14.1468 0.973963 14.1327 0.942936 14.1108 0.91396C14.0712 0.86157 14.0201 0.834822 13.9799 0.821042C13.9166 0.799385 13.8451 0.799778 13.8122 0.799959L13.805 0.799986H9.64913L9.64895 0.799805H9.56139H9.56138C9.55173 0.799803 9.54006 0.7998 9.5268 0.799986H5.40196L5.39455 0.799914C5.36456 0.799505 5.29631 0.798575 5.23054 0.83236C5.19681 0.84969 5.17126 0.871535 5.15362 0.887846C5.13718 0.903056 5.11893 0.92181 5.10126 0.939983L5.10122 0.940024L5.10121 0.940034L5.1012 0.940037L5.08919 0.952383L1.10887 6.32668C1.03966 6.34373 0.972912 6.37677 0.917455 6.43377C0.827926 6.5258 0.800781 6.64658 0.800781 6.75832C0.800781 6.87006 0.827926 6.99084 0.917476 7.08287C0.975811 7.14281 1.04663 7.17624 1.11967 7.19244L9.0558 17.1882L9.07322 17.2321L9.10536 17.2652L9.10543 17.2652C9.11579 17.2759 9.12706 17.2875 9.13906 17.2995C9.14761 17.3242 9.16013 17.3487 9.17766 17.3719C9.21352 17.4193 9.2587 17.4457 9.29679 17.4605L9.32051 17.4849H9.42224C9.44436 17.4861 9.46333 17.486 9.47629 17.486L9.48345 17.4859L9.48717 17.486C9.49257 17.486 9.50042 17.486 9.5098 17.4858ZM1.38506 7.20507L8.80043 16.5449L8.79927 16.542L1.38622 7.20507H1.38506ZM2.17617 7.20507L7.94639 14.3936L5.09275 7.20507H2.17617ZM5.01335 7.00507H2.01563L2.01539 7.00478H5.01324L5.01335 7.00507ZM5.82279 7.20507L9.3929 16.0545L9.39333 16.0534L5.82365 7.20507H5.82279ZM5.74296 7.00507H5.7421L5.74198 7.00478H5.74284L5.74296 7.00507ZM5.95862 7.00507L5.9585 7.00478H13.0438L13.0437 7.00507H5.95862ZM6.03931 7.20507H12.963L9.50116 15.7862L6.03931 7.20507ZM13.6931 7.20507L10.6516 14.8669L10.653 14.8652L13.6938 7.20507H13.6931ZM13.909 7.20507L11.0753 14.3435L16.8534 7.20507H13.909ZM17.0153 7.00507H13.9965C13.9966 7.00497 13.9967 7.00487 13.9968 7.00478H17.0156L17.0153 7.00507ZM17.1108 7.20507L10.8276 14.9673L10.8265 14.9702L17.1119 7.20507H17.1108ZM1.22608 7.00483L1.22586 7.00455L1.22705 7.00459L1.22727 7.00486C1.22688 7.00485 1.22648 7.00484 1.22608 7.00483ZM17.2738 7.00507H17.2726L17.2729 7.00478H17.2741L17.2738 7.00507ZM13.7732 7.00507H13.7725L13.7726 7.00478H13.7734L13.7732 7.00507ZM1.37016 6.31152H1.36898L5.24191 1.08222C5.32192 0.999986 5.32193 0.999986 5.4019 0.999986H9.05628L9.05627 1H5.40313H5.40307C5.3231 1 5.32309 1 5.24308 1.08223L1.37016 6.31152ZM5.12245 6.31152H2.14228L5.5824 1.69348H8.54266L5.12245 6.31152ZM5.97178 6.31152H5.97114L9.33018 1.75439L9.3305 1.75482L5.97178 6.31152ZM6.22024 6.31152L9.45473 1.92336L12.6893 6.31152H6.22024ZM13.5379 6.31152H13.5369L10.1168 1.69348H10.1177L13.5379 6.31152ZM16.7901 6.31152H13.7867L10.3666 1.69348H13.5412L16.7901 6.31152ZM17.0358 6.31152H17.0346L13.645 1.49349H13.6462L17.0358 6.31152ZM10.4042 15.4919L10.4028 15.4936L10.404 15.4907L10.4054 15.489L10.4042 15.4919ZM9.85961 1H13.8062L13.805 0.999986H9.8596L9.85961 1Z" fill="white"/>
</svg>
