<svg width="14" height="14" viewBox="0 0 14 14" fill="none" xmlns="http://www.w3.org/2000/svg">
<path d="M3.35473 0.00269953C3.51713 -0.00854817 3.69883 0.0121331 3.82685 0.126424C3.9426 0.228379 3.98066 0.393466 3.97943 0.544585C3.97996 1.24611 3.97996 1.94783 3.97943 2.64954C3.98101 2.80066 3.94471 2.96665 3.83159 3.07114C3.71689 3.178 3.55501 3.20539 3.40559 3.20122C3.26248 3.19886 3.11008 3.15278 3.01397 3.03722C2.90786 2.90479 2.88927 2.72392 2.89296 2.5581C2.91979 2.29233 2.87384 2.02565 2.89892 1.7597C2.91137 1.52404 2.8777 1.28838 2.89752 1.05291C2.90646 0.913945 2.90102 0.774618 2.8919 0.635836C2.89068 0.468028 2.90944 0.280989 3.02572 0.152911C3.1092 0.0567611 3.23425 0.0168499 3.35473 0.00269953Z" fill="#9CB8C2"/>
<path d="M10.4777 0.00376709C10.6508 -0.00838768 10.8508 0.0151962 10.9755 0.15416C11.0742 0.262827 11.1003 0.418844 11.0993 0.562887C11.0998 1.25226 11.0998 1.94182 11.0993 2.63138C11.101 2.78413 11.0721 2.95139 10.9625 3.06242C10.8439 3.18251 10.6671 3.20646 10.5086 3.20065C10.3555 3.19557 10.1889 3.13625 10.1043 2.99566C10.0145 2.85705 10.0103 2.68235 10.0214 2.52162C10.0224 2.41313 10.024 2.30447 10.0203 2.19616C10.0068 2.08731 10.0296 1.97828 10.0154 1.86943C10.0333 1.61564 10.0107 1.36147 10.016 1.10767C10.0305 0.920455 10.0184 0.732328 10.0172 0.545108C10.0179 0.392357 10.0579 0.228358 10.1736 0.124771C10.2562 0.0469438 10.3692 0.0162847 10.4777 0.00376709Z" fill="#9CB8C2"/>
<path d="M1.12549 1.78019C1.35751 1.73393 1.59445 1.75606 1.82876 1.73865C2.04921 1.73683 2.26931 1.75407 2.48994 1.74445C2.49345 2.05794 2.49012 2.37124 2.49204 2.68472C2.49748 2.92002 2.57079 3.1593 2.72477 3.33618C2.89524 3.52304 3.14516 3.61393 3.38999 3.61973C3.64218 3.62844 3.91192 3.56767 4.10238 3.3868C4.27425 3.22878 4.36878 2.99422 4.38176 2.75928C4.38369 2.66205 4.37948 2.56463 4.39106 2.46793C4.39106 2.22774 4.36703 1.98537 4.39404 1.7459C4.5503 1.74844 4.70639 1.72903 4.86283 1.74155C5.09064 1.75969 5.31846 1.73012 5.54628 1.74046C5.80304 1.76296 6.06049 1.72286 6.31725 1.74518C6.52841 1.75552 6.73904 1.7303 6.95019 1.74064C7.18345 1.76078 7.41706 1.72957 7.65049 1.74064C7.90777 1.76277 8.16575 1.7225 8.42303 1.74554C8.6505 1.75624 8.87797 1.72522 9.10526 1.74445C9.27222 1.75243 9.43918 1.74155 9.60614 1.73846C9.61088 2.04778 9.60772 2.35709 9.60842 2.6664C9.61544 2.89861 9.67805 3.13826 9.82888 3.31568C9.99636 3.51669 10.2557 3.61375 10.5078 3.61991C10.7684 3.62917 11.0502 3.56531 11.2396 3.36811C11.4117 3.20339 11.4945 2.95975 11.5036 2.72137C11.5073 2.52199 11.5178 2.32226 11.5064 2.12288C11.5067 1.99771 11.5008 1.87235 11.5115 1.74754C11.7088 1.72323 11.9068 1.75153 12.1044 1.74645C12.2042 1.75062 12.3035 1.73611 12.4031 1.73792C12.7514 1.75479 13.1164 1.78472 13.424 1.97122C13.656 2.10946 13.8195 2.34929 13.8963 2.61198C14.0234 3.00964 13.9966 3.43288 13.9994 3.84523C13.9994 6.66949 13.9994 9.49375 13.9994 12.318C13.9987 12.5887 13.9771 12.8626 13.8998 13.1224C13.821 13.3871 13.6586 13.6336 13.4222 13.7717C13.1735 13.9259 12.8803 13.9736 12.5955 13.9927C12.3854 14.0052 12.1749 13.997 11.9646 13.9992C8.55667 13.9995 5.14852 13.9992 1.74054 13.9994C1.40855 14.0024 1.06796 13.9881 0.755084 13.8615C0.513762 13.7682 0.30278 13.5841 0.187907 13.3439C0.0263818 13.0174 -0.00167888 12.642 7.492e-05 12.2814C0.000425679 9.28839 -0.000100456 6.29542 0.000250304 3.30262C0.0148068 2.93217 0.0649654 2.53832 0.288399 2.23445C0.486227 1.96342 0.808926 1.82772 1.12549 1.78019ZM0.814889 4.38548C0.811381 7.09001 0.815415 9.79454 0.812784 12.4991C0.812784 12.6253 0.80875 12.7552 0.849438 12.8762C0.878025 12.9691 0.939759 13.054 1.0264 13.0959C1.13846 13.1531 1.26614 13.1598 1.38891 13.1596C4.56907 13.1591 7.74905 13.16 10.929 13.1592C11.11 13.1554 11.2919 13.1669 11.4725 13.1551C11.6676 12.9631 11.854 12.7614 12.0464 12.5662C12.4257 12.1729 12.8072 11.7818 13.1858 11.3877C13.186 9.99228 13.1855 8.59702 13.186 7.20176C13.1837 6.26294 13.1893 5.32412 13.1832 4.3853C9.06036 4.38512 4.93771 4.38476 0.814889 4.38548Z" fill="#9CB8C2"/>
<path d="M4.79132 5.49777C4.85639 5.44788 4.94092 5.43591 5.01984 5.43555C5.38831 5.43627 5.75679 5.43609 6.12526 5.43555C6.22715 5.43591 6.34606 5.43373 6.42375 5.51374C6.48672 5.57306 6.5011 5.66667 6.50232 5.75048C6.50022 6.0471 6.50443 6.34371 6.50162 6.64032C6.50303 6.72613 6.48514 6.81811 6.42796 6.88342C6.39499 6.92133 6.34589 6.93603 6.30204 6.95507C5.88639 6.96632 5.47057 6.95634 5.05492 6.96052C4.96705 6.96179 4.87164 6.96288 4.79746 6.90646C4.71152 6.84314 4.69399 6.72413 4.69539 6.62254C4.69872 6.33192 4.69399 6.04111 4.69644 5.7503C4.69732 5.65887 4.71819 5.55728 4.79132 5.49777Z" fill="#9CB8C2"/>
<path d="M7.58601 5.50496C7.62792 5.46469 7.68562 5.45271 7.73911 5.43802C8.17809 5.43457 8.61724 5.43493 9.05639 5.43784C9.11725 5.45326 9.18459 5.46614 9.22949 5.51566C9.29192 5.58261 9.30122 5.68111 9.30595 5.76928C9.3056 6.05356 9.30648 6.33784 9.30578 6.62193C9.29982 6.71862 9.29105 6.82983 9.21423 6.89696C9.14706 6.95864 9.05218 6.96099 8.9673 6.95972C8.57567 6.96063 8.18388 6.95972 7.79225 6.96009C7.70667 6.96299 7.61302 6.93795 7.55707 6.86666C7.50866 6.8028 7.49779 6.71881 7.49972 6.64007C7.50165 6.33802 7.49832 6.03596 7.50042 5.73391C7.49937 5.65046 7.52199 5.56084 7.58601 5.50496Z" fill="#9CB8C2"/>
<path d="M10.5173 5.44571C10.5505 5.43754 10.5847 5.43591 10.619 5.43555C11.0103 5.43627 11.4018 5.43573 11.7932 5.43591C11.8744 5.43972 11.9646 5.44879 12.0259 5.51065C12.0938 5.57596 12.1042 5.67846 12.1057 5.76917C12.1052 6.05381 12.1073 6.33827 12.1057 6.62272C12.1036 6.70636 12.0961 6.79688 12.0461 6.86636C11.996 6.93548 11.9074 6.95979 11.8274 6.95888C11.4186 6.96142 11.01 6.95907 10.6012 6.96015C10.5191 6.96179 10.4291 6.94346 10.3714 6.87815C10.3032 6.80686 10.2997 6.69874 10.2969 6.60458C10.2997 6.3321 10.296 6.05961 10.2974 5.78731C10.3013 5.70585 10.3044 5.61859 10.3495 5.54857C10.3849 5.48779 10.4531 5.46022 10.5173 5.44571Z" fill="#9CB8C2"/>
<path d="M2.12098 7.96269C2.18061 7.95253 2.24129 7.95561 2.30127 7.95525C2.66396 7.95525 3.02647 7.95543 3.38898 7.95525C3.47088 7.95652 3.56015 7.97212 3.62258 8.03144C3.68098 8.08877 3.7001 8.17512 3.6994 8.25585C3.70133 8.56408 3.69905 8.87248 3.69992 9.1807C3.70133 9.27304 3.6759 9.37863 3.59487 9.42997C3.51279 9.48439 3.41195 9.48113 3.3183 9.48094C2.95561 9.47877 2.59293 9.48185 2.23024 9.48004C2.13887 9.47949 2.03206 9.47478 1.96682 9.3984C1.90579 9.33019 1.8993 9.23259 1.89562 9.1446C1.89158 8.86033 1.89685 8.57605 1.89457 8.29177C1.8979 8.20705 1.90491 8.11453 1.95963 8.04668C1.99909 7.99589 2.061 7.97321 2.12098 7.96269Z" fill="#9CB8C2"/>
<path d="M4.9261 7.96182C4.98591 7.95257 5.04676 7.95565 5.10709 7.95529C5.46346 7.95511 5.81984 7.95565 6.17621 7.95511C6.26285 7.95584 6.36106 7.96672 6.42454 8.03511C6.49207 8.10006 6.50136 8.2022 6.50224 8.29218C6.50434 8.57627 6.49961 8.86037 6.50294 9.14446C6.50487 9.23535 6.49154 9.33604 6.42665 9.40316C6.36106 9.46883 6.2646 9.4828 6.17708 9.48081C5.78581 9.47917 5.39454 9.48208 5.00309 9.47954C4.92505 9.4799 4.83929 9.46793 4.77948 9.41114C4.71793 9.35309 4.69951 9.26329 4.69723 9.18075C4.69355 8.87797 4.69846 8.575 4.69583 8.27222C4.6967 8.18442 4.71442 8.08718 4.78106 8.02641C4.8193 7.98577 4.87384 7.97107 4.9261 7.96182Z" fill="#9CB8C2"/>
<path d="M7.76384 7.95783C8.17089 7.9522 8.57813 7.95728 8.98536 7.95529C9.07919 7.95583 9.18845 7.97506 9.24737 8.05888C9.2935 8.126 9.30034 8.21199 9.3056 8.29181C9.30648 8.56992 9.3049 8.84821 9.30613 9.1265C9.30314 9.21685 9.29823 9.31753 9.23948 9.3901C9.17757 9.46593 9.07568 9.4828 8.98466 9.4808C8.59286 9.47953 8.20088 9.48207 7.80909 9.4799C7.73034 9.48008 7.64546 9.46829 7.5825 9.41495C7.52462 9.35998 7.50182 9.27544 7.50059 9.19635C7.49796 8.8825 7.50112 8.56847 7.49989 8.25462C7.49884 8.17807 7.51743 8.09716 7.56811 8.03928C7.6181 7.98377 7.69351 7.96545 7.76384 7.95783Z" fill="#9CB8C2"/>
<path d="M10.5081 7.96655C10.5442 7.95766 10.5814 7.95566 10.6186 7.95512C11.01 7.95493 11.4013 7.95548 11.7927 7.95512C11.8823 7.95584 11.9839 7.97471 12.044 8.05036C12.0981 8.12365 12.1042 8.22016 12.106 8.30906C12.107 8.58154 12.1044 8.85384 12.1061 9.12615C12.1051 9.21903 12.1003 9.3228 12.0381 9.39609C11.9711 9.4683 11.8678 9.48226 11.7757 9.48063C11.3843 9.47882 10.9928 9.48226 10.6014 9.47918C10.5161 9.47972 10.4204 9.46213 10.3637 9.38992C10.3078 9.32207 10.3022 9.22901 10.2981 9.14411C10.2948 8.866 10.2994 8.58771 10.2971 8.3096C10.2985 8.22325 10.3048 8.12964 10.3557 8.05725C10.3911 8.00591 10.4493 7.97779 10.5081 7.96655Z" fill="#9CB8C2"/>
<path d="M2.11713 10.4838C2.18395 10.4727 2.25182 10.4765 2.31916 10.476C2.6694 10.4753 3.0198 10.4767 3.37021 10.4756C3.45527 10.4749 3.54787 10.4852 3.6161 10.5431C3.68046 10.6008 3.70115 10.6933 3.7001 10.778C3.6994 11.0863 3.70151 11.3943 3.69958 11.7025C3.70115 11.7874 3.67836 11.879 3.61452 11.9371C3.55121 11.9903 3.4665 11.9993 3.3881 12.0013C3.00823 12.0044 2.62836 12 2.24849 12.0029C2.15062 12.0031 2.03961 11.9961 1.96665 11.9199C1.90194 11.8469 1.89667 11.7413 1.89404 11.6477C1.89773 11.3753 1.89229 11.103 1.89492 10.8305C1.89895 10.7445 1.90193 10.6518 1.95174 10.5788C1.9898 10.523 2.05399 10.4949 2.11713 10.4838Z" fill="#9CB8C2"/>
<path d="M4.95594 10.4788C5.36878 10.4723 5.7818 10.4779 6.19482 10.4761C6.29601 10.4743 6.41141 10.5059 6.4628 10.6047C6.51156 10.6962 6.50279 10.8038 6.50209 10.9044C6.50086 11.1704 6.50524 11.4363 6.50138 11.7025C6.49981 11.7856 6.47964 11.8759 6.41685 11.9332C6.35757 11.9902 6.27164 11.998 6.19464 12.0011C5.82056 12.0051 5.4463 12 5.07222 12.0031C4.97628 12.0025 4.86983 12.0038 4.78985 11.9403C4.70988 11.8765 4.6948 11.7636 4.69585 11.666C4.69901 11.3761 4.6941 11.0862 4.69673 10.7963C4.69831 10.7125 4.71146 10.62 4.77109 10.5579C4.81774 10.5042 4.88894 10.4854 4.95594 10.4788Z" fill="#9CB8C2"/>
<path d="M7.75933 10.4784C8.1606 10.4724 8.56187 10.4782 8.96314 10.4757C9.06293 10.4742 9.18096 10.4873 9.2441 10.5786C9.30653 10.6731 9.30285 10.7943 9.3025 10.9042C9.30162 11.1582 9.30303 11.4123 9.30215 11.6665C9.29671 11.7587 9.28707 11.8628 9.21832 11.9303C9.16062 11.9887 9.07556 11.9974 8.99909 12.0008C8.61922 12.005 8.23935 11.9999 7.85948 12.003C7.76039 12.0037 7.65042 11.9985 7.57168 11.9283C7.50942 11.8651 7.49363 11.7701 7.49609 11.6835C7.49819 11.3813 7.49451 11.0791 7.49697 10.7768C7.49644 10.7012 7.51293 10.6214 7.56238 10.5633C7.61166 10.506 7.68778 10.4842 7.75933 10.4784Z" fill="#9CB8C2"/>
</svg>
