<svg width="110" height="110" viewBox="0 0 110 110" fill="none" xmlns="http://www.w3.org/2000/svg">
<circle cx="55" cy="55" r="55" fill="url(#paint0_linear)"/>
<path fill-rule="evenodd" clip-rule="evenodd" d="M19.3344 29.9529H91.6656C95.1945 29.9529 98.0553 32.8257 98.0553 36.3696V70.0276C98.0553 70.5647 98.4906 71 99.0276 71C99.5647 71 100 70.5647 100 70.0276V36.3696C100 31.7472 96.2685 28 91.6656 28H19.3344C14.7315 28 11 31.7472 11 36.3696V74.6304C11 79.2528 14.7315 83 19.3344 83H73.0235C73.5628 83 74 82.5628 74 82.0236C74 81.4843 73.5628 81.0471 73.0235 81.0471H19.3344C15.8055 81.0471 12.9447 78.1743 12.9447 74.6304V36.3696C12.9447 32.8257 15.8055 29.9529 19.3344 29.9529ZM53.6232 46.0604H88.8243C89.2968 46.0604 89.5331 46.5588 89.5331 46.808C89.5331 47.3065 89.2968 47.5557 88.8243 47.5557H53.6232C53.1507 47.5557 52.9145 47.3065 52.9145 46.808C52.9145 46.3096 53.1507 46.0604 53.6232 46.0604ZM54.0957 54.0339H88.8243C89.2968 54.0339 89.5331 53.7847 89.5331 53.2862C89.5331 52.7877 89.2968 52.5385 88.8243 52.5385H54.0957C53.6232 52.5385 53.387 52.7877 53.387 53.2862C53.387 53.7847 53.6232 54.0339 54.0957 54.0339ZM88.8243 60.2656H54.0957C53.6232 60.2656 53.387 60.0164 53.387 59.5179C53.387 59.0195 53.6232 58.7703 54.0957 58.7703H88.8243C89.2968 58.7703 89.5331 59.0195 89.5331 59.5179C89.5331 60.0164 89.2968 60.2656 88.8243 60.2656ZM53.861 65.2495H88.8259C89.2984 65.2495 89.5346 65.4988 89.5346 65.9973C89.5346 66.4957 89.2984 66.7449 88.8259 66.7449H53.861C53.3885 66.7449 53.1523 66.4957 53.1523 65.9973C53.1523 65.4988 53.3885 65.2495 53.861 65.2495ZM37.5609 33.3085C35.8675 32.4216 33.9426 31.9458 32.0317 32.0049C29.1918 32.0744 26.3922 33.239 24.3814 35.2523C22.5552 36.9786 21.3832 39.3616 21.0463 41.8457C20.7369 44.3127 21.223 46.8949 22.5071 49.0354C23.8569 51.349 26.0377 53.2014 28.5906 54.0408V54.0798C25.1739 55.0032 22.1532 57.2619 20.2618 60.248C18.8583 62.4372 18.092 65.0188 18 67.6132C18.0025 69.136 18.0018 70.659 18.0012 72.182C18.0004 74.0096 17.9996 75.8372 18.0043 77.6647C17.9909 77.982 18.0731 78.3701 18.4301 78.4529C25.4321 78.4579 32.4342 78.4568 39.4366 78.4556C41.774 78.4553 44.1114 78.4549 46.4489 78.4547C46.8924 78.5516 47.2098 77.9912 47.0654 77.6038C47.0473 76.2292 47.0528 74.8539 47.0583 73.4786C47.0657 71.6108 47.0731 69.7431 47.0215 67.8781C46.9819 65.5 46.3978 63.114 45.2313 61.0344C43.3764 57.5964 40.0462 55.002 36.2658 54.0225C36.2927 53.9754 36.3434 53.9574 36.3934 53.9397C36.4171 53.9313 36.4406 53.923 36.4614 53.9116C38.1079 53.2769 39.6204 52.2499 40.7796 50.9189C42.3622 49.1603 43.3374 46.8717 43.5725 44.5223C43.8655 41.6361 43.0127 38.6446 41.2091 36.364C40.2076 35.1207 38.9808 34.048 37.5609 33.3085ZM25.0819 36.4395C26.6919 34.6839 28.9981 33.6149 31.3622 33.4133C34.4421 33.088 37.62 34.3063 39.7337 36.5607C41.061 38.0141 41.9815 39.8739 42.1977 41.8414C42.2621 42.322 42.2542 42.8071 42.2463 43.292C42.2423 43.5415 42.2382 43.791 42.244 44.0398C42.0771 46.8535 40.6151 49.5514 38.3918 51.2698C35.6945 53.3445 31.9141 53.8952 28.7399 52.672C25.2933 51.408 22.6813 48.0784 22.3858 44.4047C22.0417 41.532 23.0456 38.5027 25.0819 36.4395ZM31.3198 54.7382L31.3622 54.7334C34.3349 54.4459 37.3958 55.2201 39.8689 56.8934C42.3092 58.4741 44.1756 60.8985 45.1368 63.6385C45.6436 65.006 45.8361 66.468 45.9013 67.9171C45.8993 69.3323 45.8997 70.7474 45.9001 72.1625C45.9005 73.813 45.9009 75.4634 45.8977 77.114C44.4711 77.1143 43.0444 77.1146 41.6178 77.115C34.132 77.1169 26.6462 77.1187 19.1604 77.1116C19.1575 75.4559 19.158 73.8001 19.1585 72.1443C19.159 70.6542 19.1594 69.1641 19.1574 67.6741C19.1269 66.5301 19.384 65.4026 19.6776 64.3043C20.9531 59.8015 24.7883 56.1594 29.3313 55.0641C29.9821 54.8911 30.6522 54.8145 31.3198 54.7382Z" fill="#136B9F"/>
<circle cx="91.5" cy="89.5" r="16.5" fill="#D5DEEB"/>
<path fill-rule="evenodd" clip-rule="evenodd" d="M91.5 79C90.6716 79 90 79.6716 90 80.5V88H82.5C81.6716 88 81 88.6716 81 89.5C81 90.3284 81.6716 91 82.5 91H90V98.5C90 99.3284 90.6716 100 91.5 100C92.3284 100 93 99.3284 93 98.5V91H100.5C101.328 91 102 90.3284 102 89.5C102 88.6716 101.328 88 100.5 88H93V80.5C93 79.6716 92.3284 79 91.5 79Z" fill="white"/>
<defs>
<linearGradient id="paint0_linear" x1="55" y1="0" x2="55" y2="110" gradientUnits="userSpaceOnUse">
<stop stop-color="#F0F6FF"/>
<stop offset="1" stop-color="#F0F6FF" stop-opacity="0"/>
</linearGradient>
</defs>
</svg>
