<svg width="42" height="42" viewBox="0 0 42 42" fill="none" xmlns="http://www.w3.org/2000/svg">
<path d="M36.7248 37.7251H4.47888C4.15961 37.7251 4 37.5654 4 37.2462V8.83142C4 8.51215 4.15961 8.35254 4.47888 8.35254H36.7248C37.044 8.35254 37.2037 8.51215 37.2037 8.83142V37.2462C37.044 37.5654 36.8844 37.7251 36.7248 37.7251ZM4.79817 36.9269H36.2459V9.46999H4.79817V36.9269Z" fill="#136B9F"/>
<path d="M28.7416 11.8642C28.4223 11.8642 28.2627 11.7046 28.2627 11.3853V5.47888C28.2627 5.15961 28.4223 5 28.7416 5C29.0608 5 29.2205 5.15961 29.2205 5.47888V11.3853C29.0608 11.545 28.9012 11.8642 28.7416 11.8642Z" fill="#136B9F"/>
<path d="M12.143 11.8642C11.8237 11.8642 11.6641 11.7046 11.6641 11.3853V5.47888C11.6641 5.15961 11.8237 5 12.143 5C12.4623 5 12.6219 5.15961 12.6219 5.47888V11.3853C12.6219 11.545 12.3026 11.8642 12.143 11.8642Z" fill="#136B9F"/>
<path d="M36.7239 13.7801H4.79724C4.47797 13.7801 4.31836 13.6205 4.31836 13.3012C4.31836 12.982 4.47797 12.8223 4.79724 12.8223H36.7239C37.0431 12.8223 37.2027 12.982 37.2027 13.3012C37.0431 13.6205 36.8835 13.7801 36.7239 13.7801Z" fill="#136B9F"/>
<path d="M12.8033 30.2581C12.5824 30.2581 12.4033 30.0939 12.4033 29.8914V29.4503C12.4033 29.3545 12.4442 29.2626 12.5172 29.1941L16.5155 25.4418C17.6904 24.3479 18.2778 23.411 18.2778 22.631C18.2778 21.9524 18.0494 21.4257 17.5925 21.0509C17.1464 20.666 16.6079 20.4736 15.977 20.4736C14.9477 20.4736 14.1647 20.8584 13.6281 21.6279C13.5015 21.8094 13.2418 21.882 13.0405 21.7709L12.7689 21.6208C12.5901 21.5221 12.5224 21.3129 12.6302 21.149C12.9675 20.6363 13.3978 20.239 13.9209 19.957C14.541 19.6126 15.2263 19.4404 15.977 19.4404C16.8908 19.4404 17.6904 19.7291 18.3757 20.3065C19.072 20.8737 19.4201 21.6485 19.4201 22.631C19.4201 23.2489 19.2352 23.8414 18.8653 24.4087C18.4954 24.9759 17.9732 25.5735 17.2987 26.2015L14.7093 28.6004C14.4594 28.8319 14.6383 29.225 14.9936 29.225H19.2649C19.4858 29.225 19.6649 29.3891 19.6649 29.5916V29.8914C19.6649 30.0939 19.4858 30.2581 19.2649 30.2581H12.8033Z" fill="#DF1E54"/>
<path d="M24.5686 23.9073C25.6347 23.9073 26.5376 24.201 27.2774 24.7885C28.028 25.3658 28.4033 26.161 28.4033 27.1739C28.4033 28.1867 28.028 28.9869 27.2774 29.5744C26.5376 30.1518 25.6347 30.4404 24.5686 30.4404C23.7092 30.4404 22.9422 30.248 22.2677 29.8631C21.6798 29.5188 21.2572 29.0475 20.9999 28.4492C20.9322 28.2917 21.0093 28.1164 21.1687 28.0309L21.4052 27.9039C21.6336 27.7814 21.9252 27.8942 22.0381 28.1136C22.219 28.4652 22.4805 28.7496 22.8225 28.9667C23.3121 29.2604 23.8941 29.4073 24.5686 29.4073C25.3518 29.4073 25.9937 29.2148 26.4941 28.8299C27.0054 28.4349 27.2611 27.8829 27.2611 27.1739C27.2611 26.4648 27.0054 25.9179 26.4941 25.533C25.9937 25.1379 25.3518 24.9404 24.5686 24.9404H21.8973C21.6653 24.9404 21.482 24.7601 21.4982 24.548L21.8499 19.9637C21.8647 19.7716 22.0389 19.6227 22.2489 19.6227H27.5954C27.8163 19.6227 27.9954 19.7869 27.9954 19.9894V20.2588C27.9954 20.4614 27.8163 20.6255 27.5954 20.6255H23.2614C23.0511 20.6255 22.8767 20.7748 22.8623 20.9672L22.6723 23.5156C22.6565 23.7275 22.8397 23.9073 23.0713 23.9073H24.5686Z" fill="#DF1E54"/>
</svg>
