<svg width="18" height="16" viewBox="0 0 18 16" fill="none" xmlns="http://www.w3.org/2000/svg">
<path d="M17.5634 15.791H0.258274C0.0860844 15.791 0 15.7049 0 15.5327C0 15.3605 0.0860844 15.2744 0.258274 15.2744H17.5634C17.7356 15.2744 17.8217 15.3605 17.8217 15.5327C17.8217 15.7049 17.7356 15.791 17.5634 15.791Z" fill="#136B9F"/>
<path d="M4.8211 13.8969C4.735 13.8969 4.73505 13.8969 4.64895 13.8969C4.56286 13.8969 4.56283 13.8108 4.56283 13.7247L4.39062 10.8836C4.39062 10.7975 4.39062 10.7975 4.39062 10.7114L11.2782 0.12174C11.3643 0.035645 11.5365 -0.0504289 11.6226 0.035666L14.4637 1.84364C14.5498 1.84364 14.5499 1.92974 14.5499 2.01584C14.5499 2.10193 14.5499 2.18804 14.5499 2.18804L7.66228 12.7777C7.66228 12.8638 7.57615 12.8638 7.57615 12.8638L4.90723 13.8969H4.8211ZM4.90723 10.8836L5.07943 13.2943L7.31787 12.4333L14.0333 2.10191L11.6226 0.552215L4.90723 10.8836Z" fill="#136B9F"/>
</svg>
