<svg width="36" height="36" viewBox="0 0 36 36" fill="none" xmlns="http://www.w3.org/2000/svg">
<circle cx="18" cy="18" r="18" fill="white"/>
<path d="M17.5157 5.78769C18.5004 5.75724 19.4922 6.00238 20.3648 6.45939C21.0965 6.84044 21.7286 7.39318 22.2446 8.03381C23.174 9.20898 23.6135 10.7504 23.4625 12.2376C23.3413 13.4482 22.8388 14.6275 22.0234 15.5337C21.4261 16.2195 20.6467 16.7487 19.7983 17.0757C19.765 17.0939 19.7179 17.0971 19.6975 17.1329C21.6455 17.6376 23.3614 18.9744 24.3172 20.7459C24.9183 21.8175 25.2193 23.047 25.2397 24.2724C25.2858 25.941 25.2403 27.6136 25.2623 29.2838C25.3367 29.4834 25.1731 29.7722 24.9446 29.7223C20.1319 29.7226 15.3195 29.7248 10.5071 29.7213C10.3232 29.6786 10.2808 29.4787 10.2877 29.3152C10.2833 27.5888 10.2883 25.8622 10.2855 24.1358C10.3329 22.799 10.7278 21.4688 11.451 20.3407C12.4256 18.8021 13.9821 17.6382 15.7426 17.1624V17.1423C14.4272 16.7098 13.3035 15.7553 12.6079 14.5631C11.9463 13.4602 11.6958 12.1296 11.8552 10.8584C12.0288 9.57841 12.6327 8.35052 13.5737 7.46098C14.6098 6.42361 16.0524 5.82347 17.5157 5.78769ZM17.1708 6.51338C15.9526 6.61727 14.7643 7.16813 13.9347 8.07273C12.8854 9.13584 12.3681 10.6968 12.5455 12.177C12.6977 14.07 14.0436 15.7857 15.8195 16.437C17.4552 17.0673 19.4031 16.7835 20.793 15.7144C21.9386 14.829 22.6919 13.4388 22.7779 11.989C22.7691 11.6117 22.8043 11.2313 22.7541 10.8562C22.6426 9.84239 22.1684 8.88411 21.4844 8.1352C20.3953 6.97353 18.7578 6.34577 17.1708 6.51338ZM17.1708 17.4992C16.8196 17.5393 16.4668 17.5786 16.1243 17.6696C13.7834 18.234 11.8072 20.1106 11.1499 22.4308C10.9987 22.9968 10.8662 23.5778 10.8819 24.1672C10.8841 25.7881 10.8806 27.4093 10.8835 29.0302C15.4758 29.0346 20.0682 29.0324 24.6606 29.0314C24.6637 27.4517 24.6603 25.8722 24.6625 24.2925C24.6289 23.5457 24.5297 22.7924 24.2685 22.0878C23.7732 20.6759 22.8115 19.4267 21.5541 18.6122C20.2798 17.75 18.7025 17.351 17.1708 17.4992Z" fill="#136B9F"/>
</svg>
