<svg width="37" height="37" viewBox="0 0 37 37" fill="none" xmlns="http://www.w3.org/2000/svg">
<circle cx="18.5" cy="18.5" r="18.5" fill="#DD0F49"/>
<path fill-rule="evenodd" clip-rule="evenodd" d="M17.4507 6.04997C19.5662 5.75462 21.7835 6.78979 22.9213 8.59203C23.4321 9.3515 23.7356 10.2401 23.8255 11.146C24.091 13.3841 22.8407 15.6994 20.839 16.7245C20.7592 16.7809 20.676 16.8262 20.5941 16.8649C22.4248 17.4848 24.0184 18.8139 24.8877 20.5541L24.915 20.6088L24.9055 20.6692C24.8759 20.8568 24.7668 21.0239 24.6579 21.1417L24.6137 21.1894L24.5497 21.2003C24.1473 21.2687 23.8686 20.9506 23.7765 20.6598C22.8972 19.0374 21.2239 17.8962 19.4028 17.6062L19.401 17.6059L19.3991 17.6056C17.3701 17.2412 15.2059 17.9988 13.7906 19.4905C12.7261 20.6176 12.0843 22.1412 12.0617 23.6926C12.0632 24.3776 12.0628 25.061 12.0625 25.7441C12.0621 26.5078 12.0617 27.2711 12.0639 28.0359C13.5115 28.0386 14.9593 28.038 16.4074 28.0374H16.4109H16.4132C17.9199 28.0368 19.427 28.0362 20.934 28.0393C21.0738 28.0237 21.2356 28.0449 21.3725 28.1154C21.5195 28.1909 21.6497 28.3323 21.6608 28.5447L21.6675 28.6738L21.5502 28.728C21.5132 28.7451 21.4745 28.7688 21.4272 28.7998L21.401 28.8171C21.3622 28.8427 21.317 28.8726 21.2716 28.8985C21.1593 28.9626 21.0118 29.0233 20.8312 28.9911C18.9072 28.9931 16.9829 28.9928 15.0587 28.9925H15.0541H15.0541H15.054H15.0539C13.8655 28.9923 12.6772 28.9921 11.489 28.9925C11.306 28.9929 11.1645 28.8892 11.0845 28.7615C11.0109 28.6439 10.98 28.4932 11.0134 28.3482C11.011 27.5467 11.0115 26.7382 11.0119 25.9301C11.0123 25.1498 11.0127 24.3698 11.0106 23.5969L11.0106 23.596L11.0106 23.5951C11.0273 21.1708 12.3652 18.8103 14.4413 17.5554C14.8664 17.2813 15.3277 17.0713 15.7998 16.9075C15.7839 16.9001 15.7682 16.8922 15.7531 16.8838C14.0584 16.0982 12.7864 14.4382 12.5181 12.5794C12.2072 10.7698 12.8766 8.84097 14.2112 7.59096C15.0904 6.75393 16.2365 6.19199 17.4507 6.04997ZM22.3011 9.639C21.5519 8.07709 19.8371 7.00952 18.1057 7.0458C18.0266 7.05353 17.9483 7.06054 17.8708 7.06747C17.4147 7.10828 16.9884 7.14643 16.5921 7.3145L16.5845 7.31772L16.5766 7.32028C14.5735 7.97215 13.223 10.1714 13.5299 12.2548L13.5305 12.2589L13.531 12.2631C13.6766 13.6798 14.5301 15.0087 15.7684 15.7154L15.7703 15.7165L15.7723 15.7177C17.1035 16.5194 18.8513 16.5824 20.2383 15.8818L20.2405 15.8807L20.2428 15.8796C21.6813 15.1998 22.6474 13.7006 22.8071 12.1221C22.8501 11.2631 22.7156 10.3903 22.3061 9.64873L22.3035 9.64394L22.3011 9.639ZM24.8071 22.458L24.6901 22.4373L24.6198 22.533L24.6146 22.5401C24.5689 22.602 24.4788 22.7243 24.4791 22.8789C24.4765 23.282 24.4775 23.6751 24.4785 24.0673V24.0674V24.0675C24.4795 24.4344 24.4804 24.8005 24.4784 25.1732C24.1961 25.1773 23.9133 25.1746 23.6278 25.1719L23.4123 25.17C22.9931 25.1666 22.569 25.1669 22.1443 25.193C21.8629 25.206 21.7252 25.4352 21.7013 25.6333C21.678 25.8261 21.7482 26.073 21.9655 26.19L22.0052 26.2113L22.0503 26.2127C22.5472 26.2277 23.0539 26.2253 23.5567 26.2229H23.5571C23.8668 26.2214 24.1751 26.2199 24.4786 26.2225C24.4809 26.5343 24.4797 26.8506 24.4785 27.1681V27.1682V27.1683C24.4767 27.6637 24.4748 28.1623 24.4863 28.6522L24.4878 28.7136L24.5247 28.7626C24.622 28.8919 24.7751 28.9698 24.9263 28.9869C25.0799 29.0044 25.2585 28.9605 25.3773 28.809L25.3927 28.7894L25.4025 28.7664C25.4084 28.7526 25.4172 28.7363 25.432 28.7104L25.4357 28.7038C25.4484 28.6816 25.4654 28.6518 25.4799 28.621C25.5129 28.5512 25.5494 28.4435 25.5098 28.3183L25.5096 28.3177L25.5093 28.317C25.4891 28.2545 25.4933 28.1832 25.5101 28.0693L25.515 28.037C25.53 27.9396 25.5503 27.8077 25.5291 27.6757C25.4961 27.4162 25.5028 27.1549 25.5154 26.8793L25.5206 26.7715L25.5206 26.7714C25.5292 26.5936 25.5381 26.4092 25.5364 26.2223C25.8298 26.2186 26.1237 26.2207 26.4198 26.2228L26.5961 26.2241C27.0157 26.2268 27.4392 26.2272 27.8633 26.2083L27.8834 26.2074L27.903 26.2023C28.0911 26.1532 28.1903 26.0066 28.2323 25.869C28.2732 25.7349 28.2689 25.5873 28.2383 25.4695L28.228 25.4296L28.2021 25.3976C28.0748 25.2397 27.8859 25.1933 27.7515 25.1758L27.7402 25.1743L27.7289 25.1742C27.3387 25.1699 26.9488 25.1711 26.5604 25.1723L26.5351 25.1724C26.1916 25.1734 25.8494 25.1743 25.5077 25.1715C25.4904 25.0034 25.502 24.8285 25.5155 24.634L25.5161 24.6255C25.5322 24.3953 25.5503 24.1364 25.4974 23.8738C25.5528 23.5016 25.571 23.0872 25.4598 22.6973L25.4549 22.6803L25.447 22.6645C25.4025 22.5753 25.3342 22.515 25.2533 22.4812C25.1788 22.4501 25.1033 22.4454 25.0455 22.4462C25.0024 22.4468 24.9552 22.451 24.9186 22.4544H24.9185L24.8894 22.4569C24.8429 22.4607 24.8196 22.4602 24.8071 22.458Z" fill="white"/>
</svg>
