<svg width="37" height="37" viewBox="0 0 37 37" fill="none" xmlns="http://www.w3.org/2000/svg">
<circle cx="18.5" cy="18.5" r="18.5" fill="#DD0F49"/>
<path fill-rule="evenodd" clip-rule="evenodd" d="M27.6584 8.00042C25.4336 8.00312 23.2086 8.0021 20.9835 8.00107C17.6829 7.99955 14.3821 7.99803 11.0819 8.0087L11.0639 8.00875L11.0469 8.01494C10.8955 8.07005 10.814 8.21923 10.8158 8.36359C10.8163 9.52889 10.8161 10.6943 10.816 11.8598V11.8598V11.8598C10.8157 13.4615 10.8154 15.0633 10.8171 16.6649C10.8091 16.7863 10.8403 16.9662 11.0002 17.0458C11.0727 17.0855 11.1481 17.093 11.2135 17.091C11.2586 17.0896 11.3077 17.0828 11.3483 17.0772L11.3483 17.0772L11.3483 17.0772C11.3633 17.0751 11.3772 17.0732 11.3893 17.0718L11.3988 17.0707L11.408 17.0678C11.5096 17.0362 11.5754 16.961 11.6111 16.8796C11.6451 16.8022 11.6546 16.7143 11.6439 16.6351C11.6441 15.6351 11.644 14.6352 11.6439 13.6353V13.6336V13.6336C11.6436 11.998 11.6434 10.3624 11.6446 8.72684C16.8097 8.72433 21.9748 8.72533 27.1399 8.72635C27.1417 15.5643 27.1415 22.4025 27.1402 29.2404C21.9751 29.2429 16.81 29.2419 11.6449 29.2409C11.6432 27.1618 11.6437 25.0828 11.6442 23.0037V23.0035V23.002L11.6445 21.9457L11.6445 21.9443L11.6444 21.943C11.644 21.9262 11.644 21.908 11.6439 21.8885C11.6437 21.7984 11.6435 21.6833 11.6034 21.5793L11.599 21.5679L11.592 21.5579C11.4909 21.411 11.3003 21.3662 11.1467 21.3918C10.9901 21.4179 10.8243 21.5274 10.8169 21.735L10.8168 21.7368L10.8168 21.7386C10.8158 24.3754 10.815 27.0124 10.8171 29.6494C10.7987 29.8079 10.8758 30.0193 11.0803 30.0636L11.0838 30.0644L11.0873 30.0649C11.4166 30.1127 11.7533 30.1003 12.0757 30.0884C12.1529 30.0856 12.2293 30.0828 12.3046 30.0808C12.644 30.1134 12.9907 30.1006 13.3245 30.077C13.5963 30.1109 13.8772 30.0999 14.1451 30.0893H14.1451H14.1451C14.2317 30.0859 14.3169 30.0826 14.4 30.0808C14.7394 30.1134 15.0862 30.1006 15.4201 30.077C15.6919 30.1109 15.9727 30.0999 16.2407 30.0893H16.2407H16.2407C16.3272 30.0859 16.4124 30.0826 16.4956 30.0808C16.835 30.1134 17.1818 30.1006 17.5157 30.077C17.7875 30.1109 18.0683 30.0999 18.3362 30.0893H18.3363H18.3363C18.4228 30.0859 18.508 30.0826 18.5912 30.0808C18.9306 30.1134 19.2773 30.1006 19.6113 30.077C19.8829 30.1109 20.1639 30.0999 20.4319 30.0893H20.4319C20.5184 30.0859 20.6036 30.0826 20.6867 30.0808C21.0262 30.1134 21.3729 30.1006 21.7069 30.077C21.9785 30.1109 22.2595 30.0999 22.5274 30.0893H22.5275C22.614 30.0859 22.6992 30.0826 22.7823 30.0808C23.1218 30.1134 23.4685 30.1006 23.8025 30.077C24.0741 30.1109 24.355 30.0999 24.623 30.0893H24.6231C24.7096 30.0859 24.7947 30.0826 24.8777 30.0808C25.2117 30.114 25.5531 30.0992 25.8801 30.0786C26.2266 30.1063 26.5831 30.1067 26.9321 30.0772C27.1569 30.112 27.3872 30.1016 27.6059 30.0738C27.717 30.0867 27.8226 30.0412 27.8946 29.9701C27.9682 29.8976 28.016 29.789 27.9939 29.6712C27.995 22.604 27.996 15.5367 27.9934 8.46948C27.998 8.38312 27.9819 8.27477 27.9361 8.1839C27.8887 8.0901 27.7993 7.99919 27.6584 8.00042ZM16.5644 16.7505L16.5643 16.7505C16.4738 16.6801 16.3817 16.6085 16.258 16.6568C16.1729 16.6977 16.0948 16.752 16.0179 16.8064C15.9985 16.9453 16.0433 17.0767 16.1227 17.1903C16.3072 17.3095 16.482 17.442 16.6568 17.5746L16.6573 17.575L16.6579 17.5755L16.6579 17.5755C16.7977 17.6815 16.9375 17.7875 17.0823 17.8868C17.3115 18.0577 17.5428 18.2257 17.7741 18.3936C17.9924 18.5521 18.2107 18.7105 18.4271 18.8714C16.2596 18.875 14.092 18.8745 11.9244 18.874C10.0719 18.8736 8.21934 18.8732 6.3668 18.8753C6.34228 18.8797 6.3161 18.8817 6.28951 18.8838L6.28939 18.8838C6.22122 18.889 6.15048 18.8945 6.09803 18.9397C5.97307 19.031 5.99298 19.2165 6.02092 19.3487C6.06801 19.5022 6.25685 19.5247 6.39267 19.5205C8.02889 19.5215 9.66516 19.5211 11.3014 19.5207C13.677 19.5202 16.0525 19.5196 18.4281 19.5231C17.9986 19.841 17.567 20.1559 17.1354 20.4707L17.1353 20.4708L17.1307 20.4741L17.1248 20.4784C16.7818 20.7287 16.4387 20.9789 16.0968 21.2306C16.0324 21.2623 16.0005 21.3134 15.9901 21.3721C15.8956 21.4549 15.8782 21.5974 15.9535 21.7011L16.0235 21.7975C16.1033 21.9074 16.257 21.9318 16.3668 21.852L19.7047 19.4286C19.8145 19.3489 19.8389 19.1952 19.7591 19.0853L19.6891 18.9888C19.6446 18.9276 19.5771 18.8929 19.507 18.888C19.4461 18.8375 19.3807 18.7924 19.3153 18.7474L19.3153 18.7473L19.3148 18.747L19.3144 18.7467C19.266 18.7134 19.2177 18.6801 19.1712 18.6445C18.7137 18.3073 18.2531 17.9744 17.7925 17.6416L17.7904 17.64L17.7904 17.64C17.411 17.3659 17.0317 17.0917 16.6541 16.8152C16.6238 16.7967 16.5944 16.7738 16.5648 16.7508L16.5647 16.7508L16.5644 16.7505Z" fill="#FEF9FB"/>
</svg>
