<svg width="110" height="110" viewBox="0 0 110 110" fill="none" xmlns="http://www.w3.org/2000/svg">
<circle cx="55" cy="55" r="55" fill="url(#paint0_linear)"/>
<circle cx="91.5" cy="89.5" r="16.5" fill="#D5DEEB"/>
<path fill-rule="evenodd" clip-rule="evenodd" d="M91.5 79C90.6716 79 90 79.6716 90 80.5V88H82.5C81.6716 88 81 88.6716 81 89.5C81 90.3284 81.6716 91 82.5 91H90V98.5C90 99.3284 90.6716 100 91.5 100C92.3284 100 93 99.3284 93 98.5V91H100.5C101.328 91 102 90.3284 102 89.5C102 88.6716 101.328 88 100.5 88H93V80.5C93 79.6716 92.3284 79 91.5 79Z" fill="white"/>
<path fill-rule="evenodd" clip-rule="evenodd" d="M62.8092 11.6594C60.4051 10.4003 57.6722 9.72485 54.9593 9.80874C50.9276 9.90733 46.9529 11.5609 44.0981 14.4191C41.5054 16.87 39.8415 20.2531 39.3633 23.7798C38.9239 27.2823 39.6141 30.9483 41.4371 33.9872C43.349 37.2641 46.435 39.8893 50.0484 41.085C50.0637 41.09 50.074 41.1043 50.074 41.1203C50.074 41.1371 50.0627 41.1518 50.0465 41.1562C45.2071 42.4719 40.9296 45.6746 38.2494 49.9059C36.7604 52.2286 35.7765 54.8623 35.3199 57.5822C35.2498 57.9997 34.9374 58.3383 34.5239 58.4291C33.0933 58.7433 31.9732 59.0295 31.2066 59.2372C31.143 59.2544 31.0813 59.2774 31.0236 59.3092C30.4987 59.5993 30 60.1257 30 60.652V83.9858C30 84.7902 30.7766 85.5947 31.5801 85.3997C31.587 85.398 31.5938 85.3963 31.6007 85.3946C31.6522 85.3821 31.7037 85.3695 31.756 85.3619C32.1141 85.3105 32.5233 85.2503 32.9787 85.1833C37.5528 84.5103 46.7807 83.1525 55.5561 83.1525C61.6659 83.1525 68.2407 83.9662 73.1748 84.7665C73.6073 84.8366 74 84.5034 74 84.0653C74 83.7184 73.75 83.4226 73.4076 83.3674C68.6125 82.5947 62.1193 81.7635 55.8338 81.7635C46.616 81.7635 37.1749 83.1041 33.121 83.7815C32.5056 83.8843 31.9445 83.4115 31.9445 82.7876V61.7106C31.9445 61.2517 32.2541 60.8515 32.7004 60.7446C35.8249 59.9963 44.4461 58.152 55.8338 58.152C67.4748 58.152 76.1187 59.9964 79.2451 60.7447C79.6914 60.8515 80.0009 61.2517 80.0009 61.7106V71.3055C80.0009 71.689 80.3119 71.9999 80.6954 71.9999C81.0789 71.9999 81.3899 71.689 81.3899 71.3055V60.652C81.3899 60.1257 80.8913 59.5993 80.3664 59.3092C80.3088 59.2774 80.247 59.2544 80.1834 59.2372C79.404 59.0265 78.2443 58.7348 76.7572 58.4151C76.3405 58.3255 76.0256 57.9843 75.9566 57.5637C75.581 55.2746 74.8343 53.0463 73.699 51.0223C71.1006 46.2062 66.463 42.5562 61.1843 41.1241C61.0768 41.095 61.0467 40.9871 61.1517 40.95C61.1853 40.938 61.2188 40.9262 61.2483 40.9101C63.5858 40.0089 65.7332 38.5509 67.3789 36.6612C69.6257 34.1645 71.0103 30.9154 71.3441 27.5798C71.7601 23.4823 70.5493 19.2352 67.9886 15.9974C66.5669 14.2323 64.8251 12.7093 62.8092 11.6594ZM38.3213 57.6836C37.631 57.8038 37.0318 57.2049 37.1987 56.5244C37.2693 56.2365 37.3438 55.9499 37.42 55.6647C39.2309 49.272 44.6758 44.1012 51.1256 42.5463C52.0495 42.3007 53.0008 42.1919 53.9487 42.0836L54.0089 42.0767C58.2292 41.6685 62.5749 42.7677 66.086 45.1433C69.5505 47.3875 72.2003 50.8295 73.5649 54.7194C73.7871 55.3188 73.9667 55.931 74.1116 56.5515C74.2684 57.2231 73.6688 57.8057 72.9891 57.6891C68.5054 56.9198 62.4759 56.2075 55.5561 56.2075C48.6529 56.2075 42.7245 56.9164 38.3213 57.6836ZM45.0927 16.1046C47.3784 13.6122 50.6525 12.0944 54.0089 11.8082C58.3814 11.3464 62.8931 13.076 65.894 16.2767C67.7785 18.3401 69.0852 20.9804 69.3922 23.7738C69.4836 24.4561 69.4724 25.1448 69.4612 25.8332C69.4555 26.1875 69.4497 26.5417 69.4579 26.8949C69.221 30.8895 67.1454 34.7197 63.9888 37.1594C60.1595 40.1049 54.7924 40.8867 50.2859 39.1502C45.3927 37.3557 41.6844 32.6286 41.265 27.4129C40.7764 23.3344 42.2016 19.0337 45.0927 16.1046Z" fill="#136B9F"/>
<path d="M74 87.9404C74 87.605 73.7537 87.3206 73.4213 87.2751C69.2144 86.6981 64.2683 86.2086 59.4446 86.2086C48.9838 86.2086 38.523 87.8455 35.3617 88.4156C35.3215 88.4229 35.2828 88.4265 35.2434 88.4303C35.225 88.432 35.2063 88.4338 35.1873 88.4359C34.8882 88.4697 34.6847 88.6697 34.6285 88.8804C34.5603 89.1367 34.6892 89.4346 34.8329 89.6575C34.9425 89.8274 35.1169 89.9261 35.2814 89.9287C35.3968 89.9305 35.5058 89.8859 35.6152 89.8411C35.6929 89.8093 35.7708 89.7774 35.8514 89.762C39.0214 89.1573 49.233 87.5975 59.4446 87.5975C64.1273 87.5975 69.0034 88.0486 73.2348 88.6094C73.6396 88.663 74 88.3488 74 87.9404Z" fill="#136B9F"/>
<path d="M85.0005 71.3055C85.0005 71.689 84.6896 71.9999 84.306 71.9999C83.9225 71.9999 83.6116 71.689 83.6116 71.3055V65.6527C83.6116 65.3749 83.8894 64.8193 84.1672 64.8193C84.7227 64.8193 85.0005 65.0971 85.0005 65.6527V71.3055Z" fill="#136B9F"/>
<path fill-rule="evenodd" clip-rule="evenodd" d="M55.8368 77.6101V78.9852C55.8368 79.2091 55.6563 79.433 55.2954 79.8023C55.1101 79.992 54.8436 80.1269 54.5971 80.029C54.3124 79.916 54.1701 79.6607 54.1701 79.263V78.2445C54.1701 77.722 53.7652 77.295 53.254 77.1868C50.0568 76.5099 47.5033 73.6512 47.5033 70.0961C47.5033 66.541 50.0568 63.6823 53.254 63.0055C53.7652 62.8973 54.1701 62.4703 54.1701 61.9477V60.9293C54.1701 60.3737 54.4479 60.0959 55.0034 60.0959C55.559 60.0959 55.8368 60.3737 55.8368 60.9293V62.0159C55.8368 62.5094 56.1999 62.922 56.6759 63.0525C59.8295 63.9167 61.948 66.7498 61.948 69.8183C61.948 72.8725 59.6161 75.6934 56.6616 76.5719C56.1931 76.7113 55.8368 77.1212 55.8368 77.6101ZM54.7257 64.2627C51.6701 64.2627 49.1701 66.7627 49.1701 69.8183C49.1701 72.874 51.6701 75.374 54.7257 75.374C57.7813 75.374 60.2814 72.874 60.2814 69.8183C60.2814 66.7627 57.7813 64.2627 54.7257 64.2627Z" fill="#136B9F"/>
<defs>
<linearGradient id="paint0_linear" x1="55" y1="0" x2="55" y2="110" gradientUnits="userSpaceOnUse">
<stop stop-color="#F0F6FF"/>
<stop offset="1" stop-color="#F0F6FF" stop-opacity="0"/>
</linearGradient>
</defs>
</svg>
