<svg width="32" height="41" viewBox="0 0 32 41" fill="none" xmlns="http://www.w3.org/2000/svg">
<path d="M30.8404 40.1324H0.59312C0.197731 40.1324 0 39.9348 0 39.5394V15.2229C0 14.8276 0.197731 14.6299 0.59312 14.6299H30.8404C31.2358 14.6299 31.4335 14.8276 31.4335 15.2229V39.5394C31.4335 39.9348 31.0381 40.1324 30.8404 40.1324ZM1.18618 39.1439H30.2473V16.0136H1.18618V39.1439Z" fill="#136B9F"/>
<path d="M25.7003 16.0132C25.3049 16.0132 25.1073 15.8155 25.1073 15.4202V10.2801C25.1073 5.14009 20.758 0.988473 15.6179 0.988473C10.2802 0.988473 6.12856 5.14009 6.12856 10.2801V15.4202C6.12856 15.8155 5.93089 16.0132 5.5355 16.0132C5.14011 16.0132 4.94238 15.8155 4.94238 15.4202V10.2801C4.94238 4.547 9.6871 0 15.6179 0C21.5488 0 26.2934 4.7447 26.2934 10.2801V15.4202C26.2934 15.6179 25.898 16.0132 25.7003 16.0132Z" fill="#DF1E54"/>
<path d="M15.6205 31.829C15.2251 31.829 15.0273 31.6313 15.0273 31.2359V23.9212C15.0273 23.5258 15.2251 23.3281 15.6205 23.3281C16.0159 23.3281 16.2135 23.5258 16.2135 23.9212V31.2359C16.2135 31.4336 16.0159 31.829 15.6205 31.829Z" fill="#DF1E54"/>
</svg>
