<svg width="21" height="21" viewBox="0 0 21 21" fill="none" xmlns="http://www.w3.org/2000/svg">
<path d="M0.300003 0C0.100003 0 0 0.100049 0 0.300049V20.3C0 20.5 0.100003 20.6 0.300003 20.6H20.5C20.7 20.6 20.8 20.5 20.8 20.3V0.300049C20.8 0.100049 20.7 0 20.5 0H0.300003ZM20.3 20H0.600006V0.600037H20.3V20Z" fill="#5980E3"/>
<path d="M3.09999 5.30023H17.9C18.1 5.30023 18.2 5.20018 18.2 5.00018C18.2 4.80018 18.1 4.7002 17.9 4.7002H3.09999C2.89999 4.7002 2.79999 4.80018 2.79999 5.00018C2.79999 5.20018 2.89999 5.30023 3.09999 5.30023Z" fill="#DF1E54"/>
<path d="M17.8 7.89978C18 7.89978 18.1 7.79979 18.1 7.59979C18.1 7.39979 18 7.2998 17.8 7.2998H3.09999C2.89999 7.2998 2.79999 7.39979 2.79999 7.59979C2.79999 7.79979 2.89999 7.89978 3.09999 7.89978H17.8Z" fill="#DF1E54"/>
<path d="M3.09999 10.3998H17.8C18 10.3998 18.1 10.2998 18.1 10.0998C18.1 9.89979 18 9.7998 17.8 9.7998H3.09999C2.89999 9.7998 2.79999 9.89979 2.79999 10.0998C2.79999 10.2998 2.99999 10.3998 3.09999 10.3998Z" fill="#DF1E54"/>
<path d="M10.6 14.9004H3.00002C2.80002 14.9004 2.70001 15.0004 2.70001 15.2004C2.70001 15.4004 2.80002 15.5004 3.00002 15.5004H10.6C10.8 15.5004 10.9 15.4004 10.9 15.2004C10.9 15.0004 10.7 14.9004 10.6 14.9004Z" fill="#DF1E54"/>
<path d="M2.90157 13.0004H17.8016C18.0016 13.0004 18.1016 12.9004 18.1016 12.7004C18.1016 12.5004 18.0016 12.4004 17.8016 12.4004H2.90157C2.70157 12.4004 2.60156 12.5004 2.60156 12.7004C2.60156 12.8004 2.80157 13.0004 2.90157 13.0004Z" fill="#DF1E54"/>
</svg>
