<svg width="67" height="64" viewBox="0 0 67 64" fill="none" xmlns="http://www.w3.org/2000/svg">
<path d="M34.003 28.6843L40.8817 35.563L65.1595 11.2852C65.7664 10.6782 66.9804 11.0828 66.9804 12.0944V25.8519C66.9804 26.0542 66.778 26.4588 66.5757 26.6611L41.4887 51.9505C41.084 52.3551 40.2747 52.3551 39.8701 51.9505L25.3035 36.9792C24.8988 36.5746 24.8988 35.7653 25.3035 35.3606L32.3845 28.6843C32.9914 28.2796 33.5984 28.2796 34.003 28.6843ZM25.9104 36.3722L40.6794 51.1412L65.9688 25.8519V12.2967L41.691 36.5745C41.2864 36.9792 40.4771 36.9792 40.0724 36.5745L33.1937 29.6958C29.9567 32.3259 26.7197 35.3606 25.9104 36.3722Z" fill="#DF1E54"/>
<path d="M59.253 29.6799V29.8478L40.5783 48.1507L29.6723 36.8778C29.8129 36.696 30.0528 36.4288 30.3687 36.1002L29.8159 35.5288L29.2241 36.1056C28.9253 36.4145 28.9253 37.0322 29.2241 37.341L39.9807 48.7684C40.2795 49.0772 40.8771 49.0772 41.1759 48.7684L59.7012 30.4655C59.8506 30.311 60 30.0022 60 29.8478V29L59.253 29.6799Z" fill="#136B9F"/>
<path fill-rule="evenodd" clip-rule="evenodd" d="M34.6726 1.03596C23.6008 1.03057 12.5289 1.02518 1.45821 1.06298C1.19499 1.16389 0.994049 1.45559 1.01564 1.76839C1.01937 11.8744 1.01875 21.9805 1.01813 32.0867C1.01751 42.1929 1.01688 52.2991 1.02062 62.4051C0.918487 62.8234 1.20911 63.2985 1.59771 63.3224C10.8673 63.321 20.137 63.3212 29.4067 63.3215H29.4067H29.4068H29.4068H29.4069H29.4069H29.407C38.6823 63.3217 47.9578 63.3219 57.2334 63.3206C57.6146 63.4774 57.9401 63.0509 57.9791 62.6803C57.9791 56.896 57.9794 51.1117 57.9796 45.3274V45.3273V45.3273V45.3272V45.3271V45.3271V45.327C57.9797 43.058 57.9798 40.7891 57.9799 38.5201L56.6521 39.8479C56.6516 47.1819 56.6502 54.5159 56.648 61.8501C38.6594 61.8565 20.6708 61.8565 2.68214 61.8501C2.67633 42.2831 2.67633 22.7169 2.68214 3.14985C20.6708 3.14343 38.6594 3.14343 56.648 3.14985C56.6495 8.02777 56.6506 12.9056 56.6513 17.7835L57.9797 16.4919C57.9793 11.6456 57.9786 6.7992 57.9774 1.95277C58.1194 1.37395 57.5647 0.862092 57.0674 1.03363C49.6027 1.04323 42.1377 1.0396 34.6726 1.03596ZM50.5845 23.6817C50.484 23.3116 50.1257 23.0368 49.7603 23.1462C44.8259 23.1505 39.8914 23.147 34.9568 23.1436H34.9557C26.059 23.1374 17.1623 23.1311 8.267 23.1701C7.56784 23.4829 7.75467 25.1322 8.65643 24.8836C22.2206 24.8881 35.784 24.8882 49.3482 24.8837L50.5845 23.6817ZM27.5604 30.9396C24.0709 30.9416 20.5816 30.9412 17.0922 30.9407C14.9172 30.9405 12.7421 30.9402 10.5669 30.9406C10.335 30.9462 10.1026 30.9426 9.87027 30.939C9.41896 30.932 8.96767 30.9249 8.51928 30.9855C7.77778 30.9617 7.64576 32.122 8.07505 32.5963C8.09669 32.6083 8.11828 32.6206 8.13988 32.6329C8.32464 32.7381 8.51035 32.8439 8.73933 32.7724C14.4015 32.7762 20.0638 32.7769 25.7255 32.7745L27.5604 30.9396ZM24.049 38.549C18.8165 38.5498 13.5842 38.5581 8.35236 38.5854C7.70968 38.767 7.66401 39.8871 8.18048 40.2714C8.66249 40.4025 9.15937 40.3965 9.65408 40.3905H9.65436H9.65464H9.65492C9.82126 40.3885 9.98735 40.3865 10.1526 40.3898C15.3981 40.3879 20.6435 40.3883 25.8888 40.3888L24.049 38.549ZM21.5395 15.5295C17.1708 15.5213 12.8022 15.5131 8.43551 15.5675C7.59437 15.6803 7.64751 17.2929 8.49612 17.3525C12.4823 17.3696 16.4694 17.3671 20.4566 17.3646H20.4567H20.4567H20.4568H20.4569H20.457H20.457C23.3052 17.3628 26.1534 17.3609 29.0015 17.3663C29.1126 17.3456 29.2344 17.3524 29.3576 17.3593H29.3576C29.5953 17.3726 29.8379 17.3861 30.0179 17.203C30.5551 16.77 30.3675 15.6032 29.6666 15.5298C26.9578 15.5397 24.2486 15.5346 21.5395 15.5295ZM22.9978 46.4435C18.0872 46.4365 13.1764 46.4295 8.26681 46.4696C7.73456 46.721 7.73954 47.6419 8.09825 48.0694C8.30751 48.2055 8.55208 48.2302 8.79259 48.2546C8.85843 48.2612 8.92396 48.2678 8.98838 48.2767C11.269 48.2761 13.5496 48.2767 15.8303 48.2774L15.8504 48.2774C20.2341 48.2787 24.6177 48.28 29.0014 48.2721C29.1257 48.2378 29.2644 48.2303 29.4048 48.2227C29.6957 48.2069 29.9934 48.1908 30.1822 47.9346C30.4587 47.4622 30.3723 46.6118 29.8276 46.4485C27.5512 46.45 25.2746 46.4467 22.9979 46.4435H22.9979H22.9978Z" fill="#136B9F"/>
<path d="M1.45821 1.06298L1.45805 1.01611L1.44946 1.01614L1.44143 1.01921L1.45821 1.06298ZM34.6726 1.03596L34.6726 0.989087L34.6726 1.03596ZM1.01564 1.76839L1.06262 1.76837L1.0624 1.76516L1.01564 1.76839ZM1.02062 62.4051L1.0675 62.4165L1.06749 62.4051L1.02062 62.4051ZM1.59771 63.3224L1.59483 63.3693H1.59772L1.59771 63.3224ZM29.4067 63.3215L29.4067 63.3684H29.4067V63.3215ZM29.407 63.3215V63.2746V63.3215ZM57.2334 63.3206L57.2513 63.2772L57.2427 63.2737H57.2334L57.2334 63.3206ZM57.9791 62.6803L58.026 62.6852V62.6803H57.9791ZM57.9796 45.3274H58.0265H57.9796ZM57.9796 45.327L57.9327 45.327V45.327H57.9796ZM57.9799 38.5201H58.0268L58.0268 38.4069L57.9468 38.4869L57.9799 38.5201ZM56.6521 39.8479L56.619 39.8147L56.6053 39.8285L56.6053 39.8479L56.6521 39.8479ZM56.648 61.8501L56.6481 61.897L56.6949 61.897L56.6949 61.8501L56.648 61.8501ZM2.68214 61.8501L2.63527 61.8501L2.63528 61.897L2.68213 61.897L2.68214 61.8501ZM2.68214 3.14985L2.68213 3.10298L2.63528 3.103L2.63527 3.14984L2.68214 3.14985ZM56.648 3.14985L56.6949 3.14984L56.6949 3.103L56.6481 3.10298L56.648 3.14985ZM56.6513 17.7835L56.6044 17.7835L56.6044 17.8944L56.684 17.8171L56.6513 17.7835ZM57.9797 16.4919L58.0124 16.5255L58.0266 16.5117L58.0266 16.4919L57.9797 16.4919ZM57.9774 1.95277L57.9305 1.94127V1.95278L57.9774 1.95277ZM57.0674 1.03363L57.0674 1.0805L57.0752 1.08049L57.0826 1.07794L57.0674 1.03363ZM50.5845 23.6817L50.6172 23.7153L50.637 23.6961L50.6297 23.6694L50.5845 23.6817ZM49.7603 23.1462L49.7603 23.1951L49.7737 23.1911L49.7603 23.1462ZM34.9568 23.1436L34.9569 23.0967H34.9568V23.1436ZM34.9557 23.1436L34.9557 23.1905H34.9557V23.1436ZM8.267 23.1701L8.26679 23.1232L8.25689 23.1232L8.24785 23.1273L8.267 23.1701ZM8.65643 24.8836L8.65645 24.835L8.64397 24.8384L8.65643 24.8836ZM49.3482 24.8837L49.3482 24.9306L49.3672 24.9306L49.3808 24.9173L49.3482 24.8837ZM17.0922 30.9407L17.0922 30.8939H17.0922L17.0922 30.9407ZM27.5604 30.9396L27.5936 30.9727L27.6737 30.8926L27.5604 30.8927L27.5604 30.9396ZM10.5669 30.9406L10.5669 30.8937L10.5658 30.8937L10.5669 30.9406ZM9.87027 30.939L9.871 30.8921L9.87027 30.939ZM8.51928 30.9855L8.51776 31.033L8.52556 31.032L8.51928 30.9855ZM8.07505 32.5963L8.0403 32.6278L8.04552 32.6335L8.05231 32.6373L8.07505 32.5963ZM8.13988 32.6329L8.16308 32.5922H8.16307L8.13988 32.6329ZM8.73933 32.7724L8.73936 32.7255L8.7322 32.7255L8.72536 32.7277L8.73933 32.7724ZM25.7255 32.7745L25.7256 32.8213L25.745 32.8213L25.7587 32.8076L25.7255 32.7745ZM24.049 38.549L24.0822 38.5159L24.0684 38.5021L24.049 38.5021L24.049 38.549ZM8.35236 38.5854L8.35211 38.5368L8.33962 38.5403L8.35236 38.5854ZM8.18048 40.2714L8.1525 40.309L8.15962 40.3143L8.16818 40.3167L8.18048 40.2714ZM9.65408 40.3905V40.3437L9.65352 40.3437L9.65408 40.3905ZM9.65492 40.3905V40.4374L9.65548 40.4374L9.65492 40.3905ZM10.1526 40.3898L10.1516 40.4366H10.1526L10.1526 40.3898ZM25.8888 40.3888L25.8888 40.4357L26.002 40.4357L25.922 40.3557L25.8888 40.3888ZM8.43551 15.5675L8.43492 15.5202L8.42928 15.521L8.43551 15.5675ZM21.5395 15.5295L21.5394 15.5764L21.5395 15.5295ZM8.49612 17.3525L8.49283 17.3994L8.49592 17.3994L8.49612 17.3525ZM20.4566 17.3646V17.3177H20.4566L20.4566 17.3646ZM20.457 17.3646V17.4114H20.4571L20.457 17.3646ZM29.0015 17.3663L29.0014 17.414L29.0101 17.4124L29.0015 17.3663ZM29.3576 17.3593L29.355 17.4062H29.3576V17.3593ZM29.3576 17.3593L29.3602 17.3124H29.3576V17.3593ZM30.0179 17.203L29.9883 17.1663L29.9844 17.1701L30.0179 17.203ZM29.6666 15.5298L29.6716 15.4829L29.6665 15.483L29.6666 15.5298ZM8.26681 46.4696L8.26643 46.4227L8.25612 46.4228L8.24679 46.4272L8.26681 46.4696ZM22.9978 46.4435L22.9977 46.4904H22.9978V46.4435ZM8.09825 48.0694L8.06071 48.1009L8.07269 48.1087L8.09825 48.0694ZM8.79259 48.2546L8.79731 48.2079H8.79731L8.79259 48.2546ZM8.98838 48.2767L8.98192 48.3236H8.98839L8.98838 48.2767ZM15.8303 48.2774L15.8303 48.2305H15.8303L15.8303 48.2774ZM15.8504 48.2774L15.8504 48.3243H15.8504L15.8504 48.2774ZM29.0014 48.2721L29.0015 48.3207L29.0139 48.3173L29.0014 48.2721ZM29.4048 48.2227L29.4073 48.2695L29.4048 48.2227ZM30.1822 47.9346L30.2201 47.9625L30.2226 47.9582L30.1822 47.9346ZM29.8276 46.4485L29.8416 46.4016L29.8276 46.4017L29.8276 46.4485ZM22.9979 46.4435L22.998 46.3966H22.9979V46.4435ZM1.45837 1.10986C12.529 1.07205 23.6007 1.07744 34.6726 1.08284L34.6726 0.989087C23.6008 0.983694 12.5288 0.978302 1.45805 1.01611L1.45837 1.10986ZM1.0624 1.76516C1.04226 1.47332 1.23063 1.20043 1.47499 1.10675L1.44143 1.01921C1.15936 1.12735 0.945839 1.43786 0.968874 1.77162L1.0624 1.76516ZM1.065 32.0867C1.06563 21.9805 1.06625 11.8743 1.06251 1.76837L0.968763 1.76841C0.972499 11.8744 0.971877 21.9805 0.971254 32.0867L1.065 32.0867ZM1.06749 62.4051C1.06376 52.2991 1.06438 42.1929 1.065 32.0867L0.971254 32.0867C0.970631 42.1929 0.970008 52.2991 0.973745 62.4051L1.06749 62.4051ZM1.60058 63.2756C1.42528 63.2648 1.26766 63.1517 1.16492 62.9869C1.06233 62.8222 1.01843 62.6117 1.06616 62.4162L0.975082 62.394C0.920682 62.6168 0.971023 62.853 1.08536 63.0364C1.19955 63.2197 1.38154 63.3561 1.59484 63.3692L1.60058 63.2756ZM29.4067 63.2746C20.137 63.2744 10.8673 63.2741 1.5977 63.2755L1.59772 63.3693C10.8673 63.3679 20.137 63.3681 29.4067 63.3684L29.4067 63.2746ZM29.4067 63.2746H29.4067V63.3684H29.4067V63.2746ZM29.4068 63.2746H29.4067V63.3684H29.4068V63.2746ZM29.4068 63.2746H29.4068V63.3684H29.4068V63.2746ZM29.4069 63.2746H29.4068V63.3684H29.4069V63.2746ZM29.4069 63.2746H29.4069V63.3684H29.4069V63.2746ZM29.407 63.2746H29.4069V63.3684H29.407V63.2746ZM57.2334 63.2737C47.9578 63.2751 38.6823 63.2748 29.407 63.2746L29.407 63.3684C38.6823 63.3686 47.9578 63.3688 57.2334 63.3674L57.2334 63.2737ZM57.9325 62.6754C57.914 62.8505 57.8273 63.0396 57.7015 63.165C57.5767 63.2893 57.4194 63.3464 57.2513 63.2772L57.2156 63.3639C57.4286 63.4516 57.6246 63.3738 57.7676 63.2314C57.9095 63.0901 58.0051 62.8806 58.0257 62.6852L57.9325 62.6754ZM57.9327 45.3274C57.9325 51.1117 57.9322 56.896 57.9322 62.6803H58.026C58.026 56.896 58.0262 51.1117 58.0265 45.3274L57.9327 45.3274ZM57.9327 45.3273V45.3274H58.0265V45.3273H57.9327ZM57.9327 45.3273V45.3273H58.0265V45.3273H57.9327ZM57.9327 45.3272V45.3273H58.0265V45.3272H57.9327ZM57.9327 45.3271V45.3272H58.0265V45.3271H57.9327ZM57.9327 45.3271V45.3271H58.0265V45.3271H57.9327ZM57.9327 45.327V45.3271H58.0265V45.327H57.9327ZM57.9331 38.5201C57.933 40.7891 57.9329 43.058 57.9327 45.327L58.0265 45.327C58.0266 43.058 58.0267 40.7891 58.0268 38.5201L57.9331 38.5201ZM57.9468 38.4869L56.619 39.8147L56.6853 39.881L58.0131 38.5532L57.9468 38.4869ZM56.6949 61.8501C56.6971 54.5159 56.6985 47.1819 56.699 39.8479L56.6053 39.8479C56.6047 47.1819 56.6033 54.5159 56.6012 61.8501L56.6949 61.8501ZM2.68213 61.897C20.6708 61.9034 38.6594 61.9034 56.6481 61.897L56.648 61.8032C38.6594 61.8097 20.6708 61.8097 2.68216 61.8032L2.68213 61.897ZM2.63527 3.14984C2.62946 22.7169 2.62946 42.2831 2.63527 61.8501L2.72902 61.8501C2.72321 42.2831 2.72321 22.7169 2.72902 3.14987L2.63527 3.14984ZM56.6481 3.10298C38.6594 3.09656 20.6708 3.09656 2.68213 3.10298L2.68216 3.19673C20.6708 3.19031 38.6594 3.19031 56.648 3.19673L56.6481 3.10298ZM56.6982 17.7834C56.6975 12.9056 56.6964 8.02776 56.6949 3.14984L56.6012 3.14987C56.6026 8.02778 56.6037 12.9056 56.6044 17.7835L56.6982 17.7834ZM56.684 17.8171L58.0124 16.5255L57.9471 16.4583L56.6186 17.7498L56.684 17.8171ZM57.9305 1.95278C57.9317 6.79921 57.9325 11.6456 57.9329 16.4919L58.0266 16.4919C58.0262 11.6456 58.0255 6.79919 58.0243 1.95276L57.9305 1.95278ZM57.0826 1.07794C57.3114 0.999047 57.5564 1.07634 57.7294 1.24534C57.902 1.41397 57.9985 1.67009 57.9319 1.9416L58.0229 1.96394C58.0983 1.65663 57.9885 1.36741 57.7949 1.17829C57.6017 0.989545 57.3207 0.896673 57.0521 0.989315L57.0826 1.07794ZM34.6726 1.08284C42.1376 1.08647 49.6027 1.09011 57.0674 1.0805L57.0673 0.986753C49.6027 0.996358 42.1377 0.992722 34.6726 0.989087L34.6726 1.08284ZM50.6297 23.6694C50.5246 23.2823 50.1451 22.9821 49.7468 23.1013L49.7737 23.1911C50.1062 23.0916 50.4434 23.3409 50.5393 23.694L50.6297 23.6694ZM49.7602 23.0993C44.8259 23.1036 39.8914 23.1002 34.9569 23.0967L34.9568 23.1905C39.8913 23.1939 44.8259 23.1974 49.7603 23.1931L49.7602 23.0993ZM34.9568 23.0967H34.9557V23.1905H34.9568V23.0967ZM34.9557 23.0967C26.059 23.0905 17.1622 23.0843 8.26679 23.1232L8.2672 23.2169C17.1624 23.178 26.0589 23.1842 34.9557 23.1905L34.9557 23.0967ZM8.24785 23.1273C8.05762 23.2124 7.93119 23.3868 7.86174 23.5895C7.79223 23.7924 7.77796 24.0281 7.81517 24.2453C7.8523 24.4619 7.94165 24.6653 8.08484 24.799C8.23027 24.9348 8.4279 24.9952 8.66889 24.9288L8.64397 24.8384C8.43408 24.8963 8.27019 24.8438 8.14882 24.7305C8.02522 24.6151 7.94248 24.4331 7.90757 24.2294C7.87275 24.0262 7.8865 23.8065 7.95043 23.6199C8.01439 23.4332 8.1268 23.2842 8.28614 23.2129L8.24785 23.1273ZM8.65641 24.9305C22.2206 24.935 35.784 24.9351 49.3482 24.9306L49.3481 24.8369C35.784 24.8413 22.2206 24.8413 8.65644 24.8367L8.65641 24.9305ZM49.3808 24.9173L50.6172 23.7153L50.5518 23.6481L49.3155 24.8501L49.3808 24.9173ZM17.0922 30.9876C20.5816 30.988 24.0709 30.9885 27.5605 30.9864L27.5604 30.8927C24.0709 30.8947 20.5816 30.8943 17.0922 30.8939L17.0922 30.9876ZM10.5669 30.9874C12.7421 30.9871 14.9172 30.9874 17.0922 30.9876L17.0922 30.8939C14.9172 30.8936 12.7421 30.8934 10.5669 30.8937L10.5669 30.9874ZM9.86954 30.9858C10.1017 30.9894 10.335 30.9931 10.5681 30.9874L10.5658 30.8937C10.3349 30.8993 10.1035 30.8957 9.871 30.8921L9.86954 30.9858ZM8.52556 31.032C8.96988 30.972 9.41764 30.9788 9.86954 30.9858L9.871 30.8921C9.42027 30.8851 8.96546 30.8779 8.51301 30.9391L8.52556 31.032ZM8.1098 32.5648C7.90788 32.3418 7.83412 31.9498 7.90401 31.6137C7.93875 31.4466 8.00815 31.298 8.11026 31.1931C8.21138 31.0894 8.34608 31.0268 8.51778 31.0324L8.52079 30.9387C8.32174 30.9323 8.16188 31.0058 8.04311 31.1277C7.92533 31.2486 7.84953 31.4152 7.81223 31.5946C7.73806 31.9512 7.81293 32.3766 8.0403 32.6278L8.1098 32.5648ZM8.16307 32.5922C8.14151 32.5799 8.1197 32.5675 8.09778 32.5553L8.05231 32.6373C8.07369 32.6491 8.09504 32.6613 8.11668 32.6736L8.16307 32.5922ZM8.72536 32.7277C8.51857 32.7922 8.35061 32.699 8.16308 32.5922L8.11668 32.6736C8.29866 32.7773 8.50213 32.8955 8.75329 32.8172L8.72536 32.7277ZM25.7255 32.7276C20.0638 32.73 14.4016 32.7293 8.73936 32.7255L8.7393 32.8193C14.4015 32.823 20.0638 32.8237 25.7256 32.8213L25.7255 32.7276ZM25.7587 32.8076L27.5936 30.9727L27.5273 30.9064L25.6924 32.7413L25.7587 32.8076ZM24.049 38.5021C18.8165 38.5029 13.5841 38.5112 8.35212 38.5385L8.35261 38.6323C13.5843 38.6049 18.8166 38.5967 24.049 38.5959L24.049 38.5021ZM8.33962 38.5403C7.99127 38.6388 7.81294 38.9884 7.785 39.3488C7.75704 39.7094 7.87704 40.104 8.1525 40.309L8.20847 40.2338C7.96744 40.0545 7.85204 39.6969 7.87847 39.356C7.90492 39.0149 8.07077 38.7137 8.36511 38.6305L8.33962 38.5403ZM8.16818 40.3167C8.65755 40.4497 9.16105 40.4434 9.65464 40.4374L9.65352 40.3437C9.15768 40.3496 8.66742 40.3553 8.19278 40.2262L8.16818 40.3167ZM9.65408 40.4374H9.65436V40.3437H9.65408V40.4374ZM9.65436 40.4374H9.65464V40.3437H9.65436V40.4374ZM9.65464 40.4374H9.65492V40.3437H9.65464V40.4374ZM9.65548 40.4374C9.82195 40.4354 9.9873 40.4334 10.1516 40.4366L10.1535 40.3429C9.98741 40.3396 9.82056 40.3417 9.65435 40.3437L9.65548 40.4374ZM10.1526 40.4366C15.3981 40.4348 20.6434 40.4352 25.8888 40.4357L25.8888 40.3419C20.6435 40.3414 15.3981 40.3411 10.1525 40.3429L10.1526 40.4366ZM25.922 40.3557L24.0822 38.5159L24.0159 38.5822L25.8557 40.422L25.922 40.3557ZM8.43609 15.6143C12.8024 15.56 17.1706 15.5682 21.5394 15.5764L21.5396 15.4826C17.1709 15.4744 12.802 15.4662 8.43493 15.5206L8.43609 15.6143ZM8.49941 17.3058C8.30377 17.292 8.15344 17.1893 8.04896 17.0377C7.94383 16.8852 7.88588 16.6836 7.87901 16.4784C7.87213 16.2731 7.91649 16.0684 8.01106 15.9096C8.10505 15.7518 8.24792 15.6399 8.44174 15.6139L8.42928 15.521C8.20252 15.5514 8.03661 15.6834 7.93051 15.8616C7.825 16.0388 7.77796 16.2621 7.78531 16.4815C7.79266 16.701 7.85453 16.9208 7.97176 17.0909C8.08963 17.262 8.26417 17.3832 8.49284 17.3993L8.49941 17.3058ZM20.4566 17.3177C16.4693 17.3202 12.4824 17.3228 8.49633 17.3057L8.49592 17.3994C12.4823 17.4165 16.4694 17.414 20.4566 17.4114L20.4566 17.3177ZM20.4567 17.3177H20.4566V17.4114H20.4567V17.3177ZM20.4567 17.3177H20.4567V17.4114H20.4567V17.3177ZM20.4568 17.3177H20.4567V17.4114H20.4568V17.3177ZM20.4569 17.3177H20.4568V17.4114H20.4569V17.3177ZM20.457 17.3177H20.4569V17.4114H20.457V17.3177ZM20.457 17.3177H20.457V17.4114H20.457V17.3177ZM29.0016 17.3194C26.1535 17.3141 23.3051 17.3159 20.457 17.3177L20.4571 17.4114C23.3052 17.4096 26.1534 17.4078 29.0014 17.4132L29.0016 17.3194ZM29.3602 17.3125C29.2384 17.3057 29.1106 17.2983 28.993 17.3202L29.0101 17.4124C29.1146 17.3929 29.2305 17.3992 29.355 17.4061L29.3602 17.3125ZM29.3576 17.3124H29.3576V17.4062H29.3576V17.3124ZM29.9844 17.1701C29.8217 17.3357 29.6023 17.326 29.3602 17.3125L29.355 17.4061C29.5883 17.4191 29.8542 17.4364 30.0513 17.2359L29.9844 17.1701ZM29.6618 15.5765C29.983 15.6101 30.1951 15.8956 30.2605 16.2403C30.3258 16.5848 30.2391 16.9645 29.9885 17.1665L30.0473 17.2395C30.3338 17.0086 30.4219 16.5883 30.3526 16.2228C30.2833 15.8575 30.0511 15.523 29.6715 15.4832L29.6618 15.5765ZM21.5394 15.5764C24.2485 15.5815 26.9578 15.5865 29.6668 15.5767L29.6665 15.483C26.9578 15.4928 24.2487 15.4877 21.5396 15.4826L21.5394 15.5764ZM8.26719 46.5165C13.1765 46.4764 18.0871 46.4834 22.9977 46.4904L22.9979 46.3966C18.0873 46.3896 13.1763 46.3826 8.26643 46.4227L8.26719 46.5165ZM8.13416 48.0393C7.96423 47.8368 7.87534 47.5124 7.89519 47.2065C7.91508 46.9001 8.04239 46.6274 8.28683 46.512L8.24679 46.4272C7.95898 46.5632 7.82265 46.8766 7.80164 47.2004C7.7806 47.5247 7.87356 47.8746 8.06234 48.0995L8.13416 48.0393ZM8.79731 48.2079C8.55479 48.1834 8.32198 48.159 8.12381 48.0301L8.07269 48.1087C8.29304 48.252 8.54938 48.2771 8.78788 48.3012L8.79731 48.2079ZM8.99478 48.2303C8.92938 48.2213 8.86299 48.2146 8.79731 48.2079L8.78788 48.3012C8.85386 48.3079 8.91855 48.3144 8.98198 48.3232L8.99478 48.2303ZM15.8303 48.2305C13.5497 48.2299 11.269 48.2292 8.98837 48.2298L8.98839 48.3236C11.269 48.323 13.5496 48.3236 15.8303 48.3243L15.8303 48.2305ZM15.8504 48.2305L15.8303 48.2305L15.8302 48.3243L15.8504 48.3243L15.8504 48.2305ZM29.0013 48.2253C24.6177 48.2331 20.2341 48.2318 15.8504 48.2305L15.8504 48.3243C20.234 48.3256 24.6178 48.3268 29.0015 48.319L29.0013 48.2253ZM29.4022 48.1759C29.2631 48.1834 29.119 48.191 28.9889 48.2269L29.0139 48.3173C29.1324 48.2846 29.2658 48.2772 29.4073 48.2695L29.4022 48.1759ZM30.1444 47.9068C29.9708 48.1424 29.6977 48.1599 29.4022 48.1759L29.4073 48.2695C29.6938 48.254 30.016 48.2391 30.2199 47.9624L30.1444 47.9068ZM29.8141 46.4934C30.0632 46.5681 30.2134 46.8015 30.2668 47.0843C30.3201 47.3668 30.2735 47.6857 30.1417 47.9109L30.2226 47.9582C30.3673 47.711 30.4158 47.3685 30.3589 47.0669C30.302 46.7656 30.1367 46.4923 29.841 46.4036L29.8141 46.4934ZM22.9979 46.4904C25.2745 46.4936 27.5511 46.4969 29.8276 46.4954L29.8276 46.4017C27.5512 46.4031 25.2746 46.3999 22.998 46.3966L22.9979 46.4904ZM22.9979 46.4904H22.9979V46.3966H22.9979V46.4904ZM22.9978 46.4904H22.9979V46.3966H22.9978V46.4904Z" fill="#2B2929"/>
</svg>
