<svg width="34" height="34" viewBox="0 0 34 34" fill="none" xmlns="http://www.w3.org/2000/svg">
<path d="M19.3525 8.66279C19.4425 8.66089 19.6228 8.65669 19.7128 8.65479C20.2118 9.45462 20.6613 10.2956 21.1775 11.0848C22.458 11.0985 23.7394 11.0859 25.0203 11.0905C25.1877 11.0905 25.2925 11.2773 25.2472 11.4332C25.2537 13.0954 25.2403 14.7584 25.2533 16.4202C25.2636 16.4305 25.2845 16.4507 25.2952 16.4606C26.2064 16.4763 27.1183 16.4576 28.0295 16.4683C28.19 16.4976 28.1232 16.7023 28.1107 16.8087C28.1011 17.6348 28.1126 18.461 28.1065 19.2875C28.1251 19.3889 28.1004 19.5098 28.0234 19.583C27.8507 19.6188 27.673 19.6363 27.498 19.631C26.723 19.6314 25.9479 19.6276 25.1732 19.6318C25.1702 21.347 25.1732 23.0625 25.1721 24.7777C25.1454 24.934 25.1416 25.1799 24.9308 25.1803C22.7756 25.2177 20.6182 25.1856 18.4623 25.1963C14.3956 25.1956 10.329 25.1978 6.2623 25.1952C6.04118 25.255 5.82273 25.0366 5.88259 24.8155C5.87954 20.3546 5.88297 15.8937 5.88106 11.4329C5.88068 11.2548 6.00458 11.0181 6.22418 11.0913C9.33813 11.0901 12.4521 11.0898 15.566 11.0917C15.6781 11.1008 15.7696 11.0188 15.8611 10.9666C17.0205 10.1919 18.1958 9.44166 19.3525 8.66279ZM19.4287 9.42641C17.6933 10.5877 15.9675 11.7607 14.2344 12.9254C13.9671 13.1118 13.6579 13.2605 13.425 13.4893C16.2747 13.495 19.1249 13.4935 21.9746 13.4896C21.6468 12.9132 21.2819 12.349 20.9381 11.7783C20.8828 11.6597 20.7657 11.5903 20.7078 11.4744C20.2995 10.7901 19.89 10.1065 19.4783 9.4245C19.4657 9.42489 19.4409 9.42565 19.4287 9.42641ZM6.53145 11.7016C6.52764 15.9833 6.52917 20.2646 6.53069 24.5463C12.5279 24.5497 18.5248 24.5486 24.5221 24.5471C24.5255 22.934 24.5247 21.321 24.5224 19.708C22.0448 19.7034 19.5671 19.7092 17.0895 19.7053C16.9564 19.7412 16.8375 19.6745 16.7528 19.5837C16.7391 18.6333 16.7498 17.6829 16.7471 16.7325C16.6872 16.6261 16.7768 16.4557 16.8985 16.466C19.4398 16.4652 21.9811 16.4675 24.5224 16.4648C24.5255 15.6905 24.5247 14.9162 24.5228 14.1419C19.4909 14.1377 14.4585 14.1431 9.42657 14.1393C9.13264 14.2197 8.92372 13.8461 9.09566 13.6174C9.17076 13.4935 9.34156 13.5057 9.4647 13.4938C10.3503 13.4816 11.2371 13.5091 12.1223 13.4813C13.0258 12.9189 13.9084 12.3215 14.7967 11.7356L14.8055 11.7032C12.0476 11.6978 9.28933 11.7005 6.53145 11.7016ZM21.468 11.7043C21.8069 12.3036 22.1763 12.8861 22.5072 13.49C23.2167 13.495 23.927 13.4923 24.6368 13.4912C24.6376 12.9098 24.6441 12.328 24.633 11.747C24.6231 11.7367 24.6025 11.7161 24.5922 11.7058C23.5514 11.6948 22.5091 11.6997 21.468 11.7043ZM17.4734 17.0771C17.4673 17.7496 17.4711 18.4225 17.4726 19.095C20.8389 19.0977 24.2053 19.0973 27.5716 19.0954C27.5773 18.4225 27.5735 17.75 27.5724 17.0775C24.206 17.0748 20.8397 17.0752 17.4734 17.0771Z" fill="#183557"/>
</svg>
