<svg width="20" height="14" viewBox="0 0 20 14" fill="none" xmlns="http://www.w3.org/2000/svg">
<path fill-rule="evenodd" clip-rule="evenodd" d="M17.2 3.79168V2.1389H14.2L15.2 3.79168H17.2ZM13.5 1.94444L12.3 0L6.5 3.79168H14.7L13.6 2.04167C13.5 2.04167 13.5 1.94444 13.5 1.94444ZM0 14H17.1V9.52778H10C9.8 9.52778 9.70001 9.43054 9.70001 9.2361V6.80554C9.70001 6.6111 9.8 6.51389 10 6.51389H17.1V4.37499H15H2.70001C2.50001 4.37499 2.40002 4.27778 2.40002 4.08334C2.40002 3.88889 2.50001 3.79168 2.70001 3.79168H5.29999L7.90002 2.1389H0V14ZM17.5 8.94444H20V7.09723H10.4V8.94444H17.5Z" fill="white"/>
</svg>
