<svg width="110" height="110" viewBox="0 0 110 110" fill="none" xmlns="http://www.w3.org/2000/svg">
<circle cx="55" cy="55" r="55" fill="url(#paint0_linear)"/>
<path d="M57.9765 73.2461C72.5261 73.2461 84.0996 61.342 84.0996 47.1231C84.0996 32.5736 72.1954 21 57.9765 21C43.427 21 31.8535 32.9043 31.8535 47.1231C31.8535 61.6727 43.427 73.2461 57.9765 73.2461ZM57.9765 22.6534C71.5341 22.6534 82.4463 33.5656 82.4463 47.1231C82.4463 60.6807 71.5341 71.5927 57.9765 71.5927C44.419 71.5927 33.5068 60.6807 33.5068 47.1231C33.5068 33.5656 44.419 22.6534 57.9765 22.6534Z" fill="#136B9F"/>
<path d="M24.9096 89.7788C25.2403 89.7788 25.5709 89.7789 25.5709 89.4482L43.7579 67.9546C44.0885 67.6239 44.0885 66.9625 43.7579 66.6318C43.4272 66.3011 42.7659 66.3011 42.4352 66.6318L24.2482 88.1255C23.9176 88.4561 23.9176 89.1175 24.2482 89.4482C24.5789 89.7789 24.5789 89.7788 24.9096 89.7788Z" fill="#136B9F"/>
<path d="M62.924 27.3889C63.0289 26.9712 63.4531 26.7162 63.8666 26.8365C67.8963 28.0089 71.4886 30.3642 74.1731 33.6056C77.0237 37.0474 78.7018 41.3089 78.9636 45.7703C79.2254 50.2316 78.0571 54.6601 75.6286 58.4117C73.3416 61.9448 70.0494 64.704 66.1845 66.3396C65.7878 66.5075 65.3368 66.3038 65.1838 65.9013C65.0307 65.4987 65.2338 65.0498 65.6299 64.8808C69.1847 63.3638 72.2128 60.8187 74.3194 57.5642C76.5675 54.0912 77.649 49.9916 77.4067 45.8616C77.1644 41.7316 75.6108 37.7866 72.972 34.6003C70.4992 31.6146 67.1943 29.441 63.4864 28.3502C63.0733 28.2287 62.8192 27.8066 62.924 27.3889Z" fill="#DF1E54"/>
<defs>
<linearGradient id="paint0_linear" x1="55" y1="0" x2="55" y2="110" gradientUnits="userSpaceOnUse">
<stop stop-color="#F0F6FF"/>
<stop offset="1" stop-color="#F0F6FF" stop-opacity="0"/>
</linearGradient>
</defs>
</svg>
