<svg width="24" height="28" viewBox="0 0 24 28" fill="none" xmlns="http://www.w3.org/2000/svg">
<path d="M13.5683 21.2696C19.3784 21.2696 24 16.4234 24 10.6348C24 4.71166 19.2463 0 13.5683 0C7.75824 0 3.13662 4.84627 3.13662 10.6348C3.13662 16.558 7.75824 21.2696 13.5683 21.2696ZM13.5683 0.673089C18.9822 0.673089 23.3398 5.11551 23.3398 10.6348C23.3398 16.1542 18.9822 20.5965 13.5683 20.5965C8.15438 20.5965 3.79685 16.1542 3.79685 10.6348C3.79685 5.11551 8.15438 0.673089 13.5683 0.673089Z" fill="white"/>
<path d="M0.362588 27.9998C0.494635 27.9998 0.626678 27.9998 0.626678 27.8652L7.88925 19.1151C8.02129 18.9804 8.02129 18.7112 7.88925 18.5765C7.7572 18.4419 7.49311 18.4419 7.36107 18.5765L0.0984993 27.3267C-0.0335474 27.4613 -0.0335474 27.7306 0.0984993 27.8652C0.230546 27.9998 0.230542 27.9998 0.362588 27.9998Z" fill="white"/>
<path d="M15.5426 2.6013C15.5845 2.43125 15.7539 2.32744 15.919 2.37642C17.5282 2.85372 18.9627 3.81256 20.0347 5.13213C21.173 6.53333 21.8432 8.2682 21.9477 10.0844C22.0522 11.9006 21.5857 13.7035 20.616 15.2308C19.7027 16.6691 18.388 17.7924 16.8446 18.4583C16.6862 18.5266 16.5061 18.4437 16.445 18.2798C16.3839 18.116 16.465 17.9332 16.6232 17.8644C18.0427 17.2468 19.2519 16.2107 20.0931 14.8858C20.9909 13.4719 21.4228 11.803 21.326 10.1216C21.2292 8.44027 20.6088 6.83424 19.5551 5.53711C18.5676 4.3216 17.2479 3.43672 15.7672 2.99266C15.6022 2.94318 15.5008 2.77135 15.5426 2.6013Z" fill="white"/>
</svg>
