<svg width="14" height="14" viewBox="0 0 14 14" fill="none" xmlns="http://www.w3.org/2000/svg">
<path d="M0.254116 0.254116C-0.0848551 0.593087 -0.0845556 1.14197 0.254116 1.48064L5.77348 7L0.254116 12.5194C-0.0848551 12.8583 -0.0845556 13.4072 0.254116 13.7459C0.592788 14.0846 1.14167 14.0849 1.48064 13.7459L7 8.22652L12.5194 13.7459C12.858 14.0846 13.4069 14.0849 13.7459 13.7459C13.9435 13.5483 14.0262 13.2788 13.9923 13.0221C13.969 12.8383 13.8869 12.6604 13.7459 12.5194L8.22652 7L13.7459 1.48064C14.0849 1.14167 14.0846 0.592788 13.7459 0.254116C13.4072 -0.0845556 12.8583 -0.0848551 12.5194 0.254116L7 5.77348L1.48064 0.254116C1.14197 -0.0845556 0.593087 -0.0848551 0.254116 0.254116Z" fill="white"/>
</svg>
