<svg width="80" height="64" viewBox="0 0 80 64" fill="none" xmlns="http://www.w3.org/2000/svg">
<path d="M49.6911 0.100531L50.2289 0.0579285C50.9299 -0.225324 51.5125 0.589891 51.3735 1.20936C51.3827 21.5529 51.3723 41.8953 51.3792 62.2377C51.5665 63.2221 50.5794 64.2895 49.5704 63.928C37.4913 57.0723 25.4168 50.2029 13.332 43.3588C9.27308 43.3438 5.21416 43.3576 1.15524 43.3541C0.75073 43.3438 0.269222 43.1872 0.168094 42.7416C0.118679 42.1014 -0.0318644 41.4658 0.00605874 40.821C0.00950629 33.7189 0.00950629 26.6181 0.00605874 19.5172C0.00950629 18.8551 0.0037591 18.0157 0.611678 17.5931C1.12881 17.4722 1.65858 17.4273 2.19066 17.4434C6.21051 17.44 10.2304 17.4595 14.2491 17.4354C26.0845 11.6989 37.8717 5.86806 49.6911 0.100531ZM49.3015 2.94572C37.8866 8.50139 26.5155 14.1434 15.0776 19.6576C15.0408 26.7885 15.073 33.9204 15.0627 41.0513C14.7271 41.5717 15.2431 41.6984 15.5166 41.8676C26.7867 48.1464 38.0268 54.4793 49.3049 60.7397C49.3084 41.475 49.3153 22.2104 49.3015 2.94572ZM2.08378 19.8672C2.06884 26.8886 2.07689 33.9101 2.08034 40.9304C5.56237 40.9384 9.0444 40.9373 12.5276 40.9315C12.5414 33.9101 12.5345 26.8886 12.531 19.8683C9.04899 19.8603 5.56581 19.8614 2.08378 19.8672Z" fill="#136B9F"/>
<path d="M67.8449 3.08628C68.5688 2.80994 69.1377 3.32348 69.5663 3.82665C74.7181 9.46407 78.2576 16.6041 79.4712 24.1644C80.4583 30.1956 80.0756 36.4606 78.222 42.2915C76.5879 47.5823 73.8218 52.5093 70.2191 56.704C69.9099 57.1162 69.533 57.4743 69.1595 57.8266C68.6769 57.9141 68.1069 58.1409 67.7196 57.7195C67.0416 57.3165 66.9899 56.2894 67.5759 55.7851C73.5046 49.5179 77.1452 41.0709 77.4888 32.4225C78.1921 22.3613 74.3492 12.117 67.3852 4.86294C67.0301 4.28953 67.1439 3.33269 67.8449 3.08628Z" fill="#DF1E54"/>
<path d="M58.6519 13.563C59.0989 13.4317 59.6103 13.6251 59.9149 13.9579C63.6394 18.0397 65.9757 23.4158 66.2021 28.9599C66.7123 35.5335 64.1358 42.1749 59.7907 47.0616C59.5264 47.4393 59.03 47.3978 58.6255 47.3794C57.8797 47.0639 57.6946 46.0472 58.1578 45.4254C60.1792 43.1801 61.8363 40.5745 62.897 37.7316C64.7874 32.7608 64.7162 27.0647 62.6534 22.1573C61.6122 19.5976 60.0286 17.2855 58.0785 15.3408C57.6717 14.719 57.9612 13.8151 58.6519 13.563Z" fill="#DF1E54"/>
</svg>
