<svg width="110" height="110" viewBox="0 0 110 110" fill="none" xmlns="http://www.w3.org/2000/svg">
<circle cx="55" cy="55" r="55" fill="url(#paint0_linear)"/>
<path fill-rule="evenodd" clip-rule="evenodd" d="M16 46C16 45.4477 16.4477 45 17 45H35C35.5523 45 36 45.4477 36 46C36 46.5523 35.5523 47 35 47H17C16.4477 47 16 46.5523 16 46ZM21 53C21 52.4477 21.4477 52 22 52H40C40.5523 52 41 52.4477 41 53C41 53.5523 40.5523 54 40 54H22C21.4477 54 21 53.5523 21 53ZM13 60C12.4477 60 12 60.4477 12 61C12 61.5523 12.4477 62 13 62H35C35.5523 62 36 61.5523 36 61C36 60.4477 35.5523 60 35 60H13Z" fill="#DF1E54"/>
<path d="M72.8626 71.48L78.106 76.7234L96.612 58.2174C97.0747 57.7547 98 58.0632 98 58.8342V69.321C98 69.4752 97.8458 69.7836 97.6915 69.9379L78.5687 89.215C78.2602 89.5234 77.6433 89.5234 77.3349 89.215L66.2313 77.8029C65.9229 77.4945 65.9229 76.8776 66.2313 76.5692L71.6289 71.48C72.0916 71.1716 72.5542 71.1716 72.8626 71.48ZM66.694 77.3403L77.9518 88.5981L97.2289 69.321V58.9885L78.7229 77.4945C78.4145 77.8029 77.7976 77.8029 77.4891 77.4945L72.2458 72.2511C69.7783 74.2559 67.3108 76.5692 66.694 77.3403Z" fill="#DF1E54"/>
<path d="M92.1095 72.239V72.3669L77.8745 86.3185L69.5613 77.7256C69.6685 77.5871 69.8514 77.3834 70.0921 77.1329L69.6708 76.6974L69.2196 77.1371C68.9919 77.3725 68.9919 77.8433 69.2196 78.0788L77.419 86.7894C77.6467 87.0248 78.1023 87.0248 78.33 86.7894L92.4512 72.8378C92.565 72.72 92.6789 72.4846 92.6789 72.3669V71.7207L92.1095 72.239Z" fill="#136B9F"/>
<path fill-rule="evenodd" clip-rule="evenodd" d="M63.918 79.5937C63.9703 79.9774 63.6958 80.3725 63.3085 80.3725H31.792C31.2641 80.3725 31 80.1086 31 79.5807V65.1812C31 64.9039 31.1599 64.6517 31.4042 64.5205C31.9204 64.2434 32.5838 64.5986 32.5838 65.1844V78.0527C32.5838 78.605 33.0315 79.0527 33.5838 79.0527H63.2979C63.6177 79.0527 63.8749 79.2769 63.918 79.5937ZM85.3376 65.7229C85.6589 65.6804 85.9004 65.415 85.9004 65.091V26.792C85.9004 26.2641 85.6363 26 85.1084 26H31.792C31.2641 26 31 26.2641 31 26.792V41.8188C31 42.0961 31.1599 42.3483 31.4042 42.4795C31.9204 42.7566 32.5838 42.4014 32.5838 41.8156V28.8476C32.5838 28.2954 33.0315 27.8476 33.5838 27.8476H83.5807C84.133 27.8476 84.5807 28.2954 84.5807 28.8476V65.0958C84.5807 65.4862 84.9505 65.774 85.3376 65.7229ZM78.246 40.2524H58.1863C57.6584 40.2524 57.3944 39.9885 57.3944 39.4606C57.3944 38.9327 57.6584 38.6688 58.1863 38.6688H78.246C78.7738 38.6688 79.0378 38.9327 79.0378 39.4606C79.0378 39.9885 78.7738 40.2524 78.246 40.2524ZM38.6533 46.851H78.2448C78.7727 46.851 79.0366 46.587 79.0366 46.0592C79.0366 45.5313 78.7727 45.2674 78.2448 45.2674H38.6533C38.1254 45.2674 37.8615 45.5313 37.8615 46.0592C37.8615 46.587 38.1254 46.851 38.6533 46.851ZM78.246 53.715H58.1863C57.6584 53.715 57.3944 53.4511 57.3944 52.9232C57.3944 52.3954 57.6584 52.1314 58.1863 52.1314H78.246C78.7738 52.1314 79.0378 52.3954 79.0378 52.9232C79.0378 53.4511 78.7738 53.715 78.246 53.715ZM58.1863 67.1753H78.246C78.7738 67.1753 79.0378 66.9114 79.0378 66.3835C79.0378 65.8556 78.7738 65.5915 78.246 65.5915H58.1863C57.6584 65.5915 57.3944 65.8556 57.3944 66.3835C57.3944 66.9114 57.6584 67.1753 58.1863 67.1753ZM78.2448 60.3136H38.6533C38.1254 60.3136 37.8615 60.0497 37.8615 59.5218C37.8615 58.9939 38.1254 58.73 38.6533 58.73H78.2448C78.7727 58.73 79.0366 58.9939 79.0366 59.5218C79.0366 60.0497 78.7727 60.3136 78.2448 60.3136Z" fill="#136B9F"/>
<defs>
<linearGradient id="paint0_linear" x1="55" y1="0" x2="55" y2="110" gradientUnits="userSpaceOnUse">
<stop stop-color="#F0F6FF"/>
<stop offset="1" stop-color="#F0F6FF" stop-opacity="0"/>
</linearGradient>
</defs>
</svg>
