<svg width="34" height="34" viewBox="0 0 34 34" fill="none" xmlns="http://www.w3.org/2000/svg">
<path d="M16.7378 6.18413C17.7039 6.15425 18.677 6.39477 19.5331 6.84315C20.251 7.21701 20.8712 7.75932 21.3775 8.38786C22.2893 9.54084 22.7204 11.0532 22.5723 12.5123C22.4534 13.7001 21.9604 14.8571 21.1603 15.7461C20.5743 16.419 19.8097 16.9382 18.9772 17.2591C18.9446 17.277 18.8984 17.2801 18.8784 17.3152C20.7896 17.8104 22.4732 19.1219 23.4109 20.86C24.0006 21.9114 24.2959 23.1177 24.316 24.3199C24.3612 25.957 24.3166 27.5981 24.3381 29.2367C24.4111 29.4326 24.2507 29.7159 24.0265 29.667C19.3046 29.6673 14.583 29.6694 9.86146 29.666C9.681 29.6242 9.63942 29.428 9.6462 29.2675C9.64189 27.5738 9.64681 25.8797 9.64404 24.186C9.69054 22.8744 10.078 21.5693 10.7875 20.4625C11.7437 18.9529 13.2708 17.811 14.9982 17.3441V17.3244C13.7075 16.9001 12.605 15.9636 11.9226 14.7939C11.2734 13.7118 11.0277 12.4064 11.1841 11.1591C11.3544 9.9033 11.9469 8.69858 12.8702 7.82584C13.8867 6.80804 15.3021 6.21923 16.7378 6.18413ZM16.3994 6.89612C15.2042 6.99805 14.0383 7.53851 13.2243 8.42604C12.1948 9.46909 11.6873 11.0005 11.8613 12.4529C12.0107 14.3101 13.3312 15.9934 15.0736 16.6324C16.6784 17.2508 18.5895 16.9724 19.9532 15.9235C21.0772 15.0548 21.8163 13.6908 21.9007 12.2684C21.892 11.8982 21.9265 11.525 21.8773 11.157C21.7679 10.1623 21.3026 9.22211 20.6316 8.48732C19.563 7.34758 17.9564 6.73167 16.3994 6.89612ZM16.3994 17.6746C16.0548 17.714 15.7086 17.7525 15.3726 17.8418C13.0759 18.3955 11.137 20.2367 10.4922 22.5132C10.3437 23.0684 10.2138 23.6384 10.2292 24.2168C10.2313 25.807 10.2279 27.3976 10.2307 28.9879C14.7364 28.9922 19.2421 28.9901 23.7478 28.9891C23.7509 27.4392 23.7475 25.8896 23.7496 24.3396C23.7167 23.607 23.6194 22.8679 23.3631 22.1766C22.8772 20.7914 21.9336 19.5657 20.7 18.7666C19.4497 17.9206 17.9022 17.5292 16.3994 17.6746Z" fill="#183557"/>
<path fill-rule="evenodd" clip-rule="evenodd" d="M23.6225 10.0287C23.5362 9.65403 23.4187 9.28629 23.2709 8.92939C22.9214 8.08562 22.4091 7.31896 21.7633 6.67317C21.1175 6.02738 20.3508 5.51511 19.5071 5.16561C18.6633 4.81612 17.759 4.63623 16.8457 4.63623C15.9324 4.63623 15.0281 4.81612 14.1843 5.16561C13.3405 5.51511 12.5739 6.02738 11.9281 6.67317C11.2823 7.31896 10.77 8.08562 10.4205 8.92939C10.2727 9.28628 10.1552 9.65402 10.0689 10.0287C9.92736 9.94124 9.7606 9.89078 9.58206 9.89078C9.06994 9.89078 8.65479 10.3059 8.65479 10.818V12.3635C8.65479 12.8756 9.06994 13.2908 9.58206 13.2908C10.0942 13.2908 10.5093 12.8756 10.5093 12.3635V11.5908H10.5184C10.5184 10.7599 10.6821 9.9371 11.0001 9.16944C11.318 8.40178 11.7841 7.70426 12.3716 7.11672C12.9592 6.52918 13.6567 6.06312 14.4244 5.74514C15.192 5.42717 16.0148 5.26351 16.8457 5.26351C17.6766 5.26351 18.4994 5.42717 19.267 5.74514C20.0347 6.06312 20.7322 6.52918 21.3197 7.11672C21.9073 7.70426 22.3734 8.40178 22.6913 9.16944C23.0093 9.93709 23.173 10.7599 23.173 11.5908H23.1821V12.3635C23.1821 12.8756 23.5972 13.2908 24.1093 13.2908C24.6215 13.2908 25.0366 12.8756 25.0366 12.3635V10.8181C25.0366 10.3059 24.6215 9.89079 24.1093 9.89079C23.9308 9.89079 23.764 9.94125 23.6225 10.0287ZM23.8002 11.5908H23.8002C23.8002 11.581 23.8002 11.5712 23.8002 11.5614V10.8181C23.8002 10.6474 23.9386 10.509 24.1093 10.509C24.28 10.509 24.4184 10.6474 24.4184 10.8181V12.3636C24.4184 12.5343 24.28 12.6726 24.1093 12.6726C23.9386 12.6726 23.8002 12.5343 23.8002 12.3636V11.5908ZM9.89115 11.5908L9.89115 11.5829V10.8181C9.89115 10.6474 9.75277 10.509 9.58206 10.509C9.41136 10.509 9.27297 10.6474 9.27297 10.8181V12.3635C9.27297 12.5342 9.41136 12.6726 9.58206 12.6726C9.75277 12.6726 9.89115 12.5342 9.89115 12.3635L9.89115 11.5908Z" fill="#183557"/>
</svg>
