<svg width="84" height="84" viewBox="0 0 84 84" fill="none" xmlns="http://www.w3.org/2000/svg">
<circle cx="42" cy="42" r="42" fill="white"/>
<path opacity="0.97" fill-rule="evenodd" clip-rule="evenodd" d="M30.9745 27.0904C33.909 26.8763 36.8516 27.0743 39.7748 27.3528C43.6897 27.7955 47.4789 28.9625 51.0895 30.5062C54.5617 31.9727 57.9807 33.5808 61.2404 35.4754C61.2871 35.4923 61.3571 35.5173 61.4271 35.5422C61.4972 35.5672 61.5672 35.5921 61.6139 35.609C66.5766 36.0291 71.6714 36.5072 76.3122 38.455C77.7384 39.0973 79.2048 39.9713 79.963 41.3879C80.2137 41.9732 80.1662 42.6163 80.12 43.2415C80.1122 43.347 80.1045 43.452 80.0982 43.5562C81.0528 45.4218 80.6906 47.5998 80.1835 49.5475C80.0926 49.845 80.3339 49.8912 80.5773 49.9378C80.8253 49.9853 81.0754 50.0332 80.9787 50.3476C80.5892 51.2216 79.7344 51.7416 78.8909 52.1215C77.0639 52.6285 75.1483 52.7702 73.2618 52.7686C73.2553 51.6949 73.2553 50.6212 73.2585 49.5475C72.8078 46.3861 69.6866 43.8636 66.4977 44.0697C63.3636 43.5884 60.0363 45.6456 59.2605 48.7459C59.0086 49.3614 59.0531 50.0539 59.0969 50.7368C59.1428 51.4505 59.1879 52.1537 58.8934 52.7477C54.0756 52.7895 49.2577 52.775 44.4414 52.7557C42.4193 52.5651 40.3889 52.5865 38.3586 52.608H38.3586H38.3585H38.3585C37.1661 52.6206 35.9737 52.6332 34.7831 52.6028C33.1181 52.3947 31.4408 52.4218 29.7633 52.4488C28.0012 52.4772 26.2389 52.5056 24.4906 52.2615C24.7272 50.0562 24.2733 47.6754 22.6797 46.04C21.2744 44.6154 19.2365 43.862 17.2388 44.0697C13.2677 43.5562 9.58463 47.3793 10.1432 51.3327C9.56207 51.1561 8.95775 51.0348 8.35173 50.9132C7.12971 50.668 5.90073 50.4214 4.8408 49.7166C3.75907 49.2095 3.03148 48.007 3.07173 46.8142C2.78359 45.8806 3.40816 45.0951 4.15024 44.6492C4.18565 41.4909 4.25487 38.2489 5.35913 35.25C6.30112 33.9713 7.56733 32.9849 8.82869 32.0023L8.8287 32.0023C9.38225 31.5711 9.93485 31.1406 10.4587 30.6865C10.3836 30.5723 10.2988 30.4597 10.2133 30.3461C9.93619 29.9782 9.65197 29.6007 9.66673 29.1283C11.8347 28.9426 13.9946 28.6737 16.1546 28.4048C18.6007 28.1003 21.0469 27.7957 23.5055 27.6119C25.6551 27.3906 27.8095 27.2692 29.9646 27.1477C30.3013 27.1287 30.6379 27.1098 30.9745 27.0904ZM30.9745 28.5391C25.0379 28.8047 19.119 29.4679 13.2242 30.2277C13.0911 30.227 13.1082 30.315 13.1275 30.4145C13.1481 30.5208 13.1712 30.6402 13.0165 30.6785C10.837 32.2173 8.6671 33.811 6.80949 35.7394C6.48311 36.3028 6.34819 36.9355 6.21345 37.5673C6.1588 37.8236 6.10418 38.0797 6.03682 38.331C5.54747 40.7408 5.51688 43.2326 5.79215 45.6697C5.47664 45.7583 4.84724 45.9369 4.53174 46.0271C4.53174 46.1468 4.52626 46.2708 4.52071 46.3964C4.49677 46.9383 4.47145 47.5116 4.87783 47.9088C5.63117 48.6622 6.66783 49.0614 7.68839 49.3045C7.74599 49.3169 7.80857 49.3332 7.87387 49.3502C8.23011 49.443 8.66716 49.5567 8.8168 49.1854C9.19347 47.2006 10.3219 45.2963 11.9783 44.1325C14.3301 42.3859 17.5511 42.2056 20.2957 42.9638C23.689 43.994 26.1293 47.4388 25.9442 50.9882C27.2319 51.0127 28.5204 51.0062 29.8091 50.9997H29.8092H29.8093H29.8094C31.1464 50.9929 32.4837 50.9861 33.8205 51.014C35.8061 51.2022 37.799 51.1816 39.7925 51.1609C41.0216 51.1482 42.2509 51.1355 43.4788 51.1717C44.5413 51.3419 45.6153 51.3326 46.6883 51.3234H46.6883H46.6885H46.6886H46.6888C47.0673 51.3201 47.4457 51.3168 47.8234 51.3214C49.1282 51.3169 50.4333 51.3192 51.7385 51.3215H51.7385H51.7386H51.7397C53.6479 51.3249 55.5562 51.3283 57.464 51.3102C57.5864 50.6244 57.6781 49.9323 57.6668 49.2353C58.0226 46.8625 59.5888 44.7554 61.6589 43.5884C64.0172 42.2925 66.8969 42.2861 69.4097 43.0813C71.5828 43.8942 73.4565 45.5458 74.2421 47.7672C74.5727 48.5389 74.6618 49.3646 74.7509 50.1905V50.1906L74.7509 50.1908L74.7509 50.1909L74.7509 50.1911C74.7915 50.5674 74.8321 50.9437 74.8956 51.315C76.0578 51.1846 77.2136 51.0011 78.3678 50.8047C78.4612 50.3502 78.5885 49.8755 78.7184 49.3909C79.2377 47.4537 79.7996 45.3579 78.4128 43.7574C79.1115 42.7932 78.5819 41.4104 77.6096 40.8486C76.4844 40.0007 75.1544 39.541 73.8369 39.0857L73.8367 39.0856C73.5785 38.9964 73.3209 38.9073 73.0654 38.8156C69.2455 37.8497 65.3323 37.2525 61.3965 37.0948C61.0488 36.9805 60.7011 36.8485 60.3921 36.6521C57.6491 35.073 54.7871 33.7144 51.9024 32.4186C48.0262 30.7219 43.9891 29.2941 39.7636 28.8192C36.8436 28.544 33.9074 28.3025 30.9745 28.5391ZM31.943 29.0387C32.8177 28.9112 33.7027 28.928 34.5849 28.9447L34.5849 28.9447C34.805 28.9489 35.0249 28.9531 35.2445 28.955C35.4041 30.3128 35.5154 31.676 35.6267 33.0393C35.7331 34.3429 35.8395 35.6466 35.9882 36.9457C35.9972 36.9997 36.0104 37.059 36.0239 37.1198C36.1121 37.516 36.2147 37.9775 35.2686 37.464C33.2858 37.3379 31.3032 37.2249 29.321 37.1119L29.3209 37.1119L29.3209 37.1119L29.3208 37.1119C26.8488 36.971 24.3774 36.8301 21.9064 36.664C19.0572 36.5802 16.1597 35.9412 13.7548 34.354C13.6794 34.2781 13.5695 34.2201 13.4591 34.162C13.2327 34.0426 13.0046 33.9223 13.0707 33.6441L13.1795 33.5983L13.1795 33.5983C15.4084 32.6588 17.648 31.7148 19.9812 31.0638C23.8767 29.9498 27.901 29.2931 31.943 29.0387ZM31.943 30.4859C26.8337 30.8674 21.7132 31.7431 16.9308 33.6345C16.8477 33.6803 16.7365 33.7066 16.6234 33.7334C16.3988 33.7866 16.1666 33.8416 16.1323 34.0546C17.7372 34.6196 19.4017 35.0832 21.1128 35.1895C22.9379 35.26 24.7607 35.3775 26.5833 35.495C29.2118 35.6644 31.84 35.8338 34.475 35.8623C34.2575 34.6153 34.173 33.3483 34.0885 32.083C34.0511 31.5223 34.0137 30.9619 33.9648 30.4038C33.2903 30.3667 32.6094 30.3796 31.943 30.4859ZM55.0709 35.3804C49.5528 31.3609 42.8242 28.6678 35.9121 28.9528C36.266 30.515 36.5805 32.0849 36.895 33.6548L36.8951 33.6551C37.16 34.9774 37.4249 36.2998 37.7134 37.6179C39.2083 37.7076 40.7036 37.7951 42.199 37.8825C47.2764 38.1796 52.355 38.4767 57.426 38.8622C57.5003 38.8668 57.5855 38.8799 57.6733 38.8934C58.1084 38.9603 58.6044 39.0366 58.1262 38.1297C57.5358 37.3286 56.7458 36.7103 55.9597 36.095C55.6591 35.8597 55.359 35.6248 55.0709 35.3804ZM38.3625 33.5686L38.3625 33.5685C38.1369 32.5204 37.9114 31.4729 37.8389 30.4031C44.1683 30.6784 50.3416 33.2346 55.2577 37.1414C54.2226 37.2009 53.194 37.1623 52.1702 37.0158C50.923 36.9395 49.6757 36.8684 48.4285 36.7974L48.4283 36.7973L48.4281 36.7973L48.428 36.7973C45.2277 36.6149 42.0282 36.4326 38.8337 36.1627C38.7329 35.2891 38.5477 34.4286 38.3625 33.5686ZM66.0636 45.1118C69.7386 44.9669 72.9307 48.4938 72.459 52.1285C72.2289 55.6538 68.6295 58.4628 65.1493 57.8479C62.878 57.4358 60.7645 55.818 60.0707 53.5725C59.2272 51.3269 59.9306 48.724 61.5371 47.0048C62.7476 45.8265 64.3767 45.173 66.0636 45.1118ZM64.9417 46.7215C62.8394 47.1545 61.2184 49.186 61.1846 51.3205C60.9641 53.8171 63.0905 56.1899 65.5405 56.449C68.4927 56.8853 71.3838 54.1423 71.0023 51.1579C70.9572 48.2282 67.7941 45.8732 64.9417 46.7215ZM16.4582 45.2313C16.2501 45.2475 16.0433 45.2637 15.8393 45.2747C12.982 45.8928 10.8669 48.581 10.7944 51.4818C10.9007 53.3619 11.6411 55.3338 13.2026 56.4815C14.1056 57.2816 15.3193 57.6357 16.4816 57.8578C18.4245 58.1315 20.3497 57.2977 21.7936 56.0437C23.0653 54.5515 24.0118 52.5087 23.5208 50.5159C23.1715 48.2527 21.52 46.2341 19.3388 45.5081C18.4393 45.0769 17.4337 45.1553 16.4582 45.2313ZM12.3301 52.1836C11.8617 49.7577 13.6485 47.3029 15.9986 46.717C18.4132 46.115 21.1658 47.4478 21.8757 49.8946C22.9993 52.5248 21.1014 55.7636 18.3649 56.3189C15.6606 57.1029 12.6247 54.9523 12.3301 52.1836Z" fill="#183557"/>
</svg>
