<svg width="84" height="84" viewBox="0 0 84 84" fill="none" xmlns="http://www.w3.org/2000/svg">
<circle cx="42" cy="42" r="42" fill="white"/>
<path d="M35.6721 13.6412C36.4276 13.5963 37.1839 13.5659 37.9401 13.541C37.9401 14.0754 37.9401 14.6104 37.9401 15.1447C37.1832 15.1648 36.427 15.2035 35.6707 15.2422C35.6687 14.7085 35.6687 14.1749 35.6721 13.6412Z" fill="#9CB8C2"/>
<path d="M37.9494 13.5395C38.7063 13.5146 39.4632 13.5001 40.2202 13.5021C40.2181 14.0358 40.2195 14.5694 40.2202 15.1024C39.4632 15.1052 38.7063 15.1231 37.9494 15.1418C37.9494 14.6075 37.9487 14.0738 37.9494 13.5395Z" fill="#9CB8C2"/>
<path d="M40.2289 13.5016C40.9858 13.4961 41.7427 13.5051 42.4996 13.5265C42.5017 14.0567 42.4976 14.5862 42.5038 15.1164C41.7462 15.1039 40.9879 15.1053 40.2303 15.1025C40.2296 14.5689 40.231 14.0352 40.2289 13.5016Z" fill="#9CB8C2"/>
<path d="M42.5124 13.5244C43.2686 13.5514 44.0255 13.5797 44.7818 13.6143C44.7845 14.1396 44.7804 14.6643 44.7831 15.1889C44.0262 15.1634 43.27 15.1371 42.5131 15.115C42.5124 14.5848 42.5117 14.0546 42.5124 13.5244Z" fill="#9CB8C2"/>
<path d="M33.3862 13.8C34.1438 13.7385 34.9021 13.6832 35.6611 13.6396C35.6542 14.1726 35.657 14.7063 35.6584 15.2392C34.9008 15.2897 34.1438 15.3443 33.3862 15.3982C33.3883 14.8652 33.3855 14.3323 33.3862 13.8Z" fill="#9CB8C2"/>
<path d="M44.7933 13.6201C45.5516 13.654 46.3099 13.7024 47.0661 13.7701C47.0606 14.2879 47.0647 14.8056 47.0626 15.3227C46.3057 15.277 45.5495 15.2273 44.7919 15.1955C44.7939 14.6701 44.7933 14.1455 44.7933 13.6201Z" fill="#9CB8C2"/>
<path d="M31.108 14.0277C31.8628 13.9413 32.6191 13.868 33.376 13.8037C33.3788 14.3374 33.3767 14.8703 33.3788 15.404C32.6232 15.4696 31.8677 15.5422 31.1135 15.6231C31.1032 15.0915 31.1066 14.5599 31.108 14.0277Z" fill="#9CB8C2"/>
<path d="M47.0731 13.7695C47.8148 13.8269 48.5572 13.8857 49.2961 13.9748L49.339 14.0191C49.3556 14.5175 49.3349 15.0166 49.3445 15.5156C48.5869 15.452 47.8307 15.3767 47.0724 15.3318C47.0724 14.8106 47.0731 14.29 47.0731 13.7695Z" fill="#9CB8C2"/>
<path d="M49.3522 13.9736C50.1098 14.0552 50.866 14.1485 51.6222 14.2411C51.6326 14.7513 51.6229 15.2621 51.6299 15.7723C50.8757 15.6727 50.1181 15.5912 49.3598 15.5241C49.348 15.0071 49.3681 14.49 49.3522 13.9736Z" fill="#9CB8C2"/>
<path d="M20.6596 15.9332C24.0855 15.038 27.5818 14.4249 31.0989 14.0322C31.0955 14.5631 31.0927 15.094 31.1038 15.6249C27.7228 15.9981 24.3613 16.565 21.0571 17.3765C21.0488 23.6911 21.0543 30.005 21.0543 36.3189C24.3793 35.721 27.7346 35.2965 31.0975 34.9779C31.0969 35.3587 31.0941 35.7396 31.1031 36.1205C27.6005 36.4841 24.109 36.9486 20.6292 37.4906C19.985 37.5445 19.4451 36.9065 19.4569 36.2892C19.452 30.0658 19.4575 23.8432 19.4541 17.6198C19.4596 17.3164 19.4105 16.9846 19.5868 16.7164C19.8232 16.3306 20.211 16.0223 20.6596 15.9332Z" fill="#9CB8C2"/>
<path d="M51.632 14.25C54.7066 14.6571 57.7661 15.2164 60.7634 16.0217C60.7351 16.7026 60.7503 17.3841 60.7517 18.065C60.6915 18.0643 60.5712 18.0623 60.5111 18.0609C60.5125 17.8328 60.5118 17.6046 60.5069 17.3765C57.5871 16.6597 54.6209 16.135 51.6375 15.7714C51.6313 15.2641 51.6382 14.7567 51.632 14.25Z" fill="#9CB8C2"/>
<path d="M60.7773 16.0322C61.152 16.2465 61.5238 16.559 61.6303 16.9958C61.6801 17.3491 61.6434 17.7078 61.6538 18.0638C61.3566 18.0617 61.0593 18.0624 60.7621 18.0631C60.7662 17.3857 60.7441 16.709 60.7773 16.0322Z" fill="#9CB8C2"/>
<path d="M39.3626 17.0181C39.5064 16.6863 39.9177 16.6815 40.2246 16.7043C40.2191 17.157 40.2191 17.6105 40.2191 18.0633C39.9142 18.0626 39.6094 18.0626 39.3052 18.0633C39.317 17.7163 39.2478 17.3527 39.3626 17.0181Z" fill="#9CB8C2"/>
<path d="M40.2427 16.7178C40.4003 16.798 40.5787 16.8885 40.6236 17.0772C40.7052 17.3993 40.6561 17.736 40.6637 18.0636C40.5178 18.063 40.3734 18.063 40.2289 18.0636C40.2358 17.615 40.2227 17.1664 40.2427 16.7178Z" fill="#9CB8C2"/>
<path d="M39.3053 18.0723C39.6101 18.0736 39.915 18.0743 40.2198 18.073C40.2226 18.7614 40.2177 19.4499 40.2226 20.1384C39.1311 20.032 38.0002 20.3209 37.1119 20.97C35.8594 21.8458 35.1156 23.3797 35.1944 24.906C34.7368 24.906 34.2785 24.9067 33.8202 24.9053C33.823 23.5352 34.3124 22.1714 35.193 21.1207C36.205 19.8916 37.7175 19.1036 39.3032 18.9688C39.3011 18.6702 39.2984 18.3709 39.3053 18.0723Z" fill="#9CB8C2"/>
<path d="M40.2281 18.0732C40.3733 18.0739 40.5184 18.0739 40.6636 18.0732C40.6691 18.3719 40.6664 18.6712 40.6657 18.9712C41.8961 19.1751 43.0754 19.7385 43.9602 20.6247C44.9348 21.5813 45.5673 22.8913 45.6683 24.2572C45.7699 25.433 45.4318 26.6282 44.7876 27.6118C43.8751 29.0531 42.3482 30.09 40.667 30.3907C40.6684 30.9506 40.6643 31.5105 40.6677 32.0704C40.7023 32.5349 40.2571 32.8183 39.9696 33.1121C39.7359 33.1398 39.4815 33.0278 39.3716 32.8142C39.2873 32.6476 39.3025 32.4561 39.2997 32.2764C39.3046 31.7987 39.3025 31.3211 39.2984 30.8434C37.8633 30.7287 36.4815 30.0692 35.4896 29.0254C34.425 27.9429 33.823 26.4339 33.8202 24.9173C34.2771 24.9159 34.7333 24.9187 35.1903 24.9166C35.2608 25.9667 35.6797 26.9959 36.4034 27.7653C37.1928 28.6307 38.3251 29.1761 39.4968 29.2349C40.553 29.2971 41.63 28.9784 42.4733 28.3363C43.3878 27.6623 44.0314 26.6351 44.2387 25.5187C44.4226 24.5309 44.2781 23.4775 43.8012 22.5899C43.1196 21.2426 41.7302 20.2949 40.2295 20.1387C40.2329 19.4502 40.2336 18.7617 40.2281 18.0732Z" fill="#9CB8C2"/>
<path d="M60.5132 18.0747C60.5733 18.0741 60.6929 18.0727 60.7531 18.0713C60.7482 18.8296 60.7489 19.5879 60.7531 20.3455C60.6936 20.3448 60.5733 20.3427 60.5132 20.3421C60.5146 19.5865 60.5146 18.8303 60.5132 18.0747Z" fill="#9CB8C2"/>
<path d="M60.7663 18.073C61.0636 18.0736 61.3608 18.0743 61.6587 18.0723C61.658 18.8299 61.658 19.5875 61.6587 20.3451C61.3608 20.343 61.0636 20.3437 60.7663 20.3444C60.7643 19.5875 60.7643 18.8299 60.7663 18.073Z" fill="#9CB8C2"/>
<path d="M60.5132 20.357C60.5733 20.3563 60.6936 20.3542 60.7537 20.3535C60.7482 21.1118 60.7482 21.8701 60.7537 22.6284C60.6936 22.627 60.5733 22.625 60.5132 22.6243C60.5146 21.8687 60.5146 21.1125 60.5132 20.357Z" fill="#9CB8C2"/>
<path d="M60.7607 20.3535C61.058 20.3542 61.3552 20.3549 61.6531 20.3535C61.6525 21.1104 61.6525 21.868 61.6531 22.6257C61.3552 22.6236 61.058 22.6243 60.7607 22.6243C60.758 21.8674 60.758 21.1104 60.7607 20.3535Z" fill="#9CB8C2"/>
<path d="M63.4806 21.347C63.4737 21.0602 63.5982 20.7512 63.8477 20.5963C64.0205 20.5417 64.2189 20.5894 64.3717 20.6821C64.5673 20.812 64.6198 21.0595 64.6198 21.28C64.6247 21.7279 64.6178 22.1765 64.6212 22.6245C64.241 22.6238 63.8608 22.6252 63.4806 22.6245C63.482 22.1987 63.4772 21.7729 63.4806 21.347Z" fill="#9CB8C2"/>
<path d="M60.5132 22.6372C60.5733 22.6366 60.6929 22.6345 60.7531 22.6338C60.7489 23.3921 60.7482 24.1504 60.7537 24.9087C60.6936 24.9073 60.5733 24.9052 60.5132 24.9046C60.5146 24.149 60.5146 23.3935 60.5132 22.6372Z" fill="#9CB8C2"/>
<path d="M60.7666 22.6355C61.0638 22.6361 61.3611 22.6368 61.659 22.6348C61.6583 23.3924 61.6583 24.15 61.659 24.9076C61.3611 24.9055 61.0638 24.9062 60.7666 24.9069C60.7638 24.1493 60.7645 23.3924 60.7666 22.6355Z" fill="#9CB8C2"/>
<path d="M63.4821 22.6364C63.8622 22.6357 64.2424 22.6364 64.6226 22.6357C64.6219 23.3927 64.6219 24.1503 64.6226 24.9072C64.2424 24.9065 63.8622 24.9072 63.4821 24.9065C63.4821 24.1496 63.4821 23.3934 63.4821 22.6364Z" fill="#9CB8C2"/>
<path d="M60.5132 24.9195C60.5733 24.9188 60.6936 24.9167 60.7537 24.916C60.7489 25.6743 60.7475 26.4326 60.7537 27.1909C60.6936 27.1895 60.5733 27.1875 60.5132 27.1861C60.5146 26.4305 60.5146 25.675 60.5132 24.9195Z" fill="#9CB8C2"/>
<path d="M60.7608 24.9167C61.058 24.9174 61.3553 24.9181 61.6532 24.916C61.6525 25.6736 61.6525 26.4312 61.6532 27.1889C61.3553 27.1868 61.058 27.1875 60.7608 27.1875C60.7573 26.4305 60.7587 25.6736 60.7608 24.9167Z" fill="#9CB8C2"/>
<path d="M63.4821 24.9163C63.8622 24.9156 64.2424 24.9163 64.6226 24.9163C64.6219 25.6726 64.6219 26.4295 64.6226 27.1864C64.2424 27.1864 63.8622 27.1871 63.4821 27.1857C63.4821 26.4295 63.4821 25.6732 63.4821 24.9163Z" fill="#9CB8C2"/>
<path d="M60.5132 27.1997C60.5733 27.1991 60.6936 27.197 60.7537 27.1963C60.7482 27.9546 60.7482 28.7129 60.7537 29.4712C60.6936 29.4698 60.5733 29.4677 60.5132 29.4671C60.5146 28.7108 60.5146 27.9553 60.5132 27.1997Z" fill="#9CB8C2"/>
<path d="M60.7666 27.1973C61.0638 27.198 61.3611 27.1986 61.659 27.1973C61.6583 27.9542 61.6583 28.7118 61.659 29.4694C61.3611 29.4673 61.0638 29.468 60.7666 29.4687C60.7645 28.7118 60.7638 27.9542 60.7666 27.1973Z" fill="#9CB8C2"/>
<path d="M63.4821 27.198C63.8622 27.1973 64.2424 27.198 64.6226 27.1973C64.6219 27.9542 64.6219 28.7111 64.6226 29.4687C64.2424 29.4673 63.8622 29.4687 63.4821 29.4673C63.4821 28.7111 63.4821 27.9549 63.4821 27.198Z" fill="#9CB8C2"/>
<path d="M60.5132 29.481C60.5733 29.4803 60.6936 29.4782 60.7537 29.4775C60.7475 30.2358 60.7489 30.9941 60.7537 31.7524C60.6936 31.7511 60.5733 31.749 60.5132 31.7483C60.5146 30.9928 60.5146 30.2365 60.5132 29.481Z" fill="#9CB8C2"/>
<path d="M60.7608 29.4789C61.058 29.4789 61.3553 29.4789 61.6532 29.4775C61.6525 30.2352 61.6525 30.9928 61.6532 31.7504C61.3553 31.7483 61.058 31.749 60.7608 31.749C60.7587 30.9921 60.7573 30.2352 60.7608 29.4789Z" fill="#9CB8C2"/>
<path d="M63.4821 29.4782C63.8622 29.4775 64.2424 29.4782 64.6226 29.4775C64.6219 30.2345 64.6219 30.9914 64.6226 31.7483C64.2424 31.7476 63.8622 31.749 63.4821 31.7476C63.4821 30.9914 63.4821 30.2352 63.4821 29.4782Z" fill="#9CB8C2"/>
<path d="M60.5132 31.7622C60.5733 31.7616 60.6936 31.7595 60.7537 31.7588C60.7482 32.0927 60.7489 32.4272 60.7524 32.7618C60.6936 32.757 60.5761 32.748 60.5173 32.7431C60.5111 32.4162 60.5153 32.0892 60.5132 31.7622Z" fill="#9CB8C2"/>
<path d="M60.7609 31.7595C61.0582 31.7595 61.3554 31.7602 61.6527 31.7588C61.652 32.1376 61.6547 32.5157 61.6499 32.8945C61.3547 32.8434 61.0589 32.7971 60.7616 32.7639C60.7568 32.4286 60.7589 32.094 60.7609 31.7595Z" fill="#9CB8C2"/>
<path d="M63.4797 31.7605C63.8599 31.7598 64.2401 31.7605 64.6203 31.7598C64.6189 32.3252 64.621 32.8907 64.6189 33.4561C64.2394 33.3821 63.8599 33.3123 63.4811 33.239C63.4783 32.7462 63.4797 32.2533 63.4797 31.7605Z" fill="#9CB8C2"/>
<path d="M58.472 34.1771C60.214 33.81 61.985 33.5702 63.7643 33.49C64.9028 33.4464 66.0502 33.454 67.1784 33.6317C67.7894 33.7623 68.3929 33.9282 68.9991 34.0831C67.7991 34.7729 66.5673 35.4068 65.3576 36.0794C61.5461 38.1442 57.7435 40.2262 53.9284 42.2848C53.9098 41.8465 53.9229 41.4076 53.9036 40.97C57.3654 39.0746 60.8278 37.1813 64.2896 35.2872C64.4887 35.1732 64.6947 35.0723 64.9028 34.9769C64.8053 34.8877 64.7161 34.7377 64.5627 34.7833C63.1968 34.963 61.8129 34.9803 60.4518 35.2029C59.7896 35.3087 59.1329 35.4476 58.4762 35.5796C58.4803 35.1117 58.4831 34.6444 58.472 34.1771Z" fill="#9CB8C2"/>
<path d="M56.197 34.7061C56.9498 34.5216 57.6998 34.3266 58.4616 34.1787C58.4692 34.6481 58.4678 35.1181 58.4644 35.5882C57.7061 35.7575 56.9519 35.9449 56.2047 36.1564C56.1922 35.6725 56.1943 35.1893 56.197 34.7061Z" fill="#9CB8C2"/>
<path d="M40.2289 34.4844C40.9865 34.4844 41.7441 34.4927 42.5017 34.5148C42.5003 34.8971 42.5017 35.2793 42.501 35.6623C41.7441 35.6401 40.9865 35.6263 40.2296 35.6249C40.2316 35.2448 40.231 34.8646 40.2289 34.4844Z" fill="#9CB8C2"/>
<path d="M35.6687 34.63C36.4249 34.5927 37.1811 34.5553 37.938 34.5332C37.938 34.912 37.9387 35.2908 37.9367 35.6689C37.179 35.6973 36.4221 35.7291 35.6659 35.7733C35.6673 35.3917 35.6687 35.0109 35.6687 34.63Z" fill="#9CB8C2"/>
<path d="M37.9491 34.5316C38.706 34.5157 39.4622 34.4839 40.2199 34.4991C40.2199 34.8745 40.2192 35.2498 40.2206 35.6252C39.4636 35.639 38.706 35.6445 37.9491 35.6708C37.9491 35.2906 37.9505 34.9111 37.9491 34.5316Z" fill="#9CB8C2"/>
<path d="M42.5107 34.5186C43.2669 34.5338 44.0225 34.5766 44.7773 34.6181C44.7808 35.0031 44.7787 35.3881 44.7822 35.7732C44.0252 35.7282 43.2683 35.6909 42.5107 35.6633C42.5086 35.2817 42.5093 34.9001 42.5107 34.5186Z" fill="#9CB8C2"/>
<path d="M44.7919 34.6191C46.285 34.7097 47.7739 34.8459 49.2615 35.0028C48.6491 35.2807 48.0269 35.5351 47.4235 35.8316C47.3004 35.8862 47.1781 35.9698 47.0371 35.9491C46.2905 35.8883 45.5446 35.8185 44.796 35.7798C44.7919 35.3933 44.7926 35.0062 44.7919 34.6191Z" fill="#9CB8C2"/>
<path d="M33.3874 34.7765C34.1436 34.7274 34.8999 34.6686 35.6568 34.6348C35.6582 35.0136 35.6568 35.3924 35.6533 35.7712C34.8978 35.8189 34.143 35.8693 33.3874 35.924C33.386 35.5417 33.3853 35.1587 33.3874 34.7765Z" fill="#9CB8C2"/>
<path d="M44.7919 39.1982C48.4348 37.3449 52.2304 35.7578 56.1892 34.7168C56.1913 35.1972 56.1865 35.6776 56.1989 36.1587C52.2394 37.2675 48.4451 38.9037 44.8029 40.7998C44.7933 40.2662 44.7967 39.7318 44.7919 39.1982Z" fill="#9CB8C2"/>
<path d="M31.1063 34.9725C31.8626 34.9047 32.6195 34.8329 33.3778 34.7852C33.3771 35.1674 33.3764 35.549 33.3785 35.9313C32.6209 35.9852 31.8653 36.0584 31.1091 36.1269C31.107 35.7418 31.1063 35.3575 31.1063 34.9725Z" fill="#9CB8C2"/>
<path d="M40.4705 38.1935C41.3332 38.1714 42.1972 38.1306 43.0606 38.1493C42.4654 38.5322 41.8668 38.9124 41.2723 39.2947C40.5693 39.3521 39.8594 39.3438 39.155 39.3894C37.2299 39.4813 35.3075 39.6265 33.39 39.8131C33.3844 39.4419 33.3948 39.0714 33.3817 38.7009C33.3713 39.0728 33.3803 39.444 33.3775 39.8159C32.6199 39.8857 31.8651 39.9721 31.1088 40.0544C31.1054 39.6742 31.1061 39.2933 31.1075 38.9124C34.2181 38.5571 37.3412 38.3069 40.4705 38.1935Z" fill="#9CB8C2"/>
<path d="M63.4917 39.004C63.8754 38.8326 64.2355 38.6156 64.615 38.4365C64.6199 39.1706 64.6226 39.9054 64.615 40.6395C64.6095 41.14 64.1678 41.6806 63.6334 41.5935C62.3968 41.3232 61.1518 41.0909 59.9055 40.8683C60.4364 40.6071 60.9521 40.3133 61.4878 40.0623C62.1569 40.1446 62.8122 40.3167 63.4807 40.41C63.4821 39.9414 63.4655 39.472 63.4917 39.004Z" fill="#9CB8C2"/>
<path d="M28.828 39.1914C29.5835 39.0946 30.3391 38.9958 31.0974 38.917C31.0946 39.2944 31.0918 39.6712 31.1015 40.0486C30.3418 40.1536 29.5794 40.2359 28.8197 40.3403C28.8328 39.9573 28.8211 39.5744 28.828 39.1914Z" fill="#9CB8C2"/>
<path d="M26.5433 39.5101C27.3016 39.4071 28.0572 39.2855 28.8176 39.1963C28.8086 39.5613 28.83 39.9276 28.8086 40.2919L28.7719 40.3445C28.0309 40.453 27.2885 40.5511 26.5489 40.6673C26.5454 40.2816 26.5454 39.8958 26.5433 39.5101Z" fill="#9CB8C2"/>
<path d="M40.26 41.7448C41.7358 40.851 43.2414 40.0056 44.7746 39.2148C44.787 39.7519 44.7822 40.2891 44.787 40.8268C43.4633 41.4987 42.1796 42.2481 40.9029 43.0057C40.6547 43.1425 40.4079 43.4135 40.0969 43.2946C39.922 43.1944 39.7831 43.0402 39.6469 42.8937C39.5764 42.7105 39.6835 42.517 39.7616 42.3531C39.8971 42.1299 40.0181 41.872 40.26 41.7448Z" fill="#9CB8C2"/>
<path d="M23.6304 39.9855C24.5968 39.821 25.5638 39.6579 26.5344 39.5127C26.5364 39.8977 26.533 40.2834 26.542 40.6685C25.7691 40.7915 24.9949 40.909 24.2283 41.0625C24.0334 41.0881 23.8426 41.2512 23.6449 41.1572C23.3975 41.0556 23.3415 40.7715 23.273 40.5434C23.1742 40.2952 23.3892 40.0304 23.6304 39.9855Z" fill="#9CB8C2"/>
<path d="M34.9338 40.2574C35.35 40.1696 35.7626 40.0624 36.1802 39.9795L36.2348 40.0016C36.6184 41.0475 36.9765 42.103 37.347 43.1537C36.8728 43.153 36.3986 43.162 35.9251 43.153C35.6037 42.1846 35.2504 41.2272 34.9338 40.2574Z" fill="#9CB8C2"/>
<path d="M51.6238 42.2174C52.3807 41.8068 53.1335 41.3865 53.8939 40.9814C53.916 41.419 53.9035 41.858 53.9187 42.2955C53.4342 42.5658 52.9441 42.8243 52.4595 43.0946C52.2134 43.255 51.9107 43.1375 51.639 43.1464C51.6411 42.8368 51.6376 42.5271 51.6238 42.2174Z" fill="#9CB8C2"/>
<path d="M29.8527 41.4141C30.2204 41.3401 30.5819 41.2323 30.9545 41.1846C31.5234 43.3938 32.2223 45.5671 32.9999 47.7107C32.6066 47.7197 32.2126 47.7155 31.8193 47.7245C31.0651 45.6535 30.3981 43.5493 29.8527 41.4141Z" fill="#9CB8C2"/>
<path d="M50.0002 43.1191C50.5235 42.7998 51.0717 42.5212 51.6109 42.2295C51.6261 42.5371 51.6275 42.8461 51.6275 43.1544C51.0848 43.1426 50.5401 43.1841 50.0002 43.1191Z" fill="#9CB8C2"/>
<path d="M35.9393 43.1672C36.4101 43.1659 36.8815 43.1638 37.3529 43.1631C38.1493 45.4408 38.958 47.7136 39.7488 49.9934C39.2684 49.9996 38.788 49.992 38.3076 50.0079C37.5168 47.7281 36.7198 45.4504 35.9393 43.1672Z" fill="#9CB8C2"/>
<path d="M49.3398 43.4632C49.5624 43.363 49.7594 43.1819 50.0034 43.1445C50.5433 43.177 51.0839 43.1632 51.6237 43.1653C51.6251 43.289 51.63 43.4134 51.6362 43.5372C50.8772 43.9429 50.1286 44.3653 49.3661 44.7628C49.3502 44.33 49.3592 43.8959 49.3398 43.4632Z" fill="#9CB8C2"/>
<path d="M51.632 43.1543C51.8303 43.1654 52.028 43.1799 52.2257 43.2013C52.0391 43.3202 51.8456 43.4273 51.6492 43.529C51.6437 43.4031 51.6375 43.2787 51.632 43.1543Z" fill="#9CB8C2"/>
<path d="M44.7865 45.961C46.3024 45.1349 47.8093 44.2916 49.3342 43.4814C49.3536 43.9142 49.3446 44.3476 49.3598 44.7803C47.8377 45.5946 46.3294 46.4338 44.8065 47.246C44.7927 46.8174 44.8003 46.3889 44.7865 45.961Z" fill="#9CB8C2"/>
<path d="M42.5033 47.2069C43.2609 46.7984 44.0102 46.3733 44.772 45.9717C44.7872 46.403 44.7851 46.8344 44.7879 47.2657C44.472 47.4116 44.1865 47.63 43.8547 47.7364C43.4088 47.7192 42.9616 47.7088 42.515 47.7185C42.5109 47.5477 42.5061 47.377 42.5033 47.2069Z" fill="#9CB8C2"/>
<path d="M41.6528 47.6855C41.9259 47.5168 42.2093 47.3668 42.4934 47.2168C42.4989 47.3848 42.5038 47.5534 42.5086 47.7214C42.2224 47.72 41.9369 47.7152 41.6528 47.6855Z" fill="#9CB8C2"/>
<path d="M31.829 47.7345C32.2223 47.7242 32.6163 47.7283 33.0096 47.7207C33.5785 49.2622 34.2256 50.774 34.903 52.2705C34.4993 52.2795 34.0956 52.2747 33.6919 52.2885C33.0089 50.7975 32.382 49.2788 31.829 47.7345Z" fill="#9CB8C2"/>
<path d="M41.3297 47.8614C41.6552 47.5731 42.1129 47.7819 42.5006 47.7314C42.5013 47.9879 42.5055 48.245 42.5055 48.5022C42.1688 48.6528 41.8198 49.0033 41.4306 48.7987C41.0497 48.6487 41.0373 48.1054 41.3297 47.8614Z" fill="#9CB8C2"/>
<path d="M42.5094 47.728C42.9539 47.7294 43.4004 47.7107 43.8442 47.7591C43.4122 48.019 42.9636 48.2506 42.5184 48.487C42.5115 48.234 42.5108 47.981 42.5094 47.728Z" fill="#9CB8C2"/>
<path d="M17.4078 50.5248C18.3583 49.8488 19.5321 49.4886 20.6996 49.546C22.0261 49.5923 23.3167 50.1598 24.2713 51.0771C24.2492 51.4753 24.2499 51.8741 24.2526 52.2737C24.077 52.2813 23.9015 52.293 23.7259 52.3034C23.4812 52.0462 23.2012 51.8264 22.904 51.6343C22.7194 51.5223 22.604 51.328 22.4167 51.2209C21.4302 50.6928 20.2489 50.493 19.1581 50.7847C18.5214 50.943 17.9505 51.2852 17.441 51.6903C17.4147 51.3025 17.4196 50.9133 17.4078 50.5248Z" fill="#9CB8C2"/>
<path d="M38.3121 50.0183C38.7946 50.0038 39.2778 50.0086 39.761 50.0059C40.5532 52.2835 41.3619 54.555 42.1555 56.8327C41.6626 56.8458 41.1691 56.8375 40.6769 56.8465C39.8896 54.5695 39.096 52.2953 38.3121 50.0183Z" fill="#9CB8C2"/>
<path d="M15.8718 52.2634C16.2693 51.6067 16.7601 50.9901 17.396 50.5498C17.4161 50.9362 17.4057 51.3233 17.4334 51.7097C17.2122 51.8812 17.058 52.1328 16.8285 52.2869C16.5092 52.2959 16.1905 52.2717 15.8718 52.2634Z" fill="#9CB8C2"/>
<path d="M24.2856 51.127C24.6603 51.4387 24.9299 51.8528 25.1808 52.2654C24.8746 52.28 24.5676 52.2807 24.2607 52.2813C24.2635 51.8963 24.249 51.5106 24.2856 51.127Z" fill="#9CB8C2"/>
<path d="M15.2499 56.8447C14.7687 55.3274 14.9906 53.6145 15.8506 52.2734C16.1782 52.2866 16.5066 52.2942 16.8342 52.3066C16.3026 53.0324 15.9556 53.9041 15.9114 54.8076C15.8637 55.4988 16.0047 56.1921 16.2625 56.8322C15.9252 56.8412 15.5879 56.844 15.2499 56.8447Z" fill="#9CB8C2"/>
<path d="M23.7509 52.3143C23.9209 52.3019 24.0916 52.2915 24.2624 52.2832C24.252 52.4961 24.2437 52.7083 24.2285 52.9212C24.0688 52.7194 23.9112 52.5155 23.7509 52.3143Z" fill="#9CB8C2"/>
<path d="M24.2743 52.2915C24.5813 52.2935 24.8889 52.2887 25.1965 52.2783C25.587 52.9813 25.8331 53.7604 25.9133 54.5608C25.549 54.5608 25.1847 54.5595 24.8204 54.5657C24.7368 54.079 24.6006 53.5979 24.3538 53.1673C24.17 52.9074 24.2833 52.5839 24.2743 52.2915Z" fill="#9CB8C2"/>
<path d="M33.7 52.302C34.1092 52.2875 34.5191 52.2889 34.929 52.2861C35.4861 53.5117 36.1152 54.7041 36.7684 55.88C36.9488 56.1903 36.7594 56.6154 36.4083 56.6866C36.1345 56.7896 35.856 56.6016 35.7371 56.359C35.0085 55.0325 34.3159 53.6852 33.7 52.302Z" fill="#9CB8C2"/>
<path d="M31.0907 53.6278C31.3105 53.5255 31.5317 53.3229 31.7916 53.3983C32.0965 53.4881 32.3177 53.7411 32.5009 53.9893C32.6377 54.1573 32.5479 54.3792 32.5168 54.5679C32.0453 54.563 31.5746 54.5568 31.1038 54.5623C31.1066 54.2499 31.1024 53.9388 31.0907 53.6278Z" fill="#9CB8C2"/>
<path d="M29.4835 54.528C30.0054 54.2134 30.5439 53.9273 31.0831 53.6445C31.0969 53.9494 31.0983 54.2549 31.099 54.5604C30.5605 54.5508 30.0206 54.5853 29.4835 54.528Z" fill="#9CB8C2"/>
<path d="M24.816 54.5747C25.1817 54.5727 25.548 54.5727 25.9137 54.5713C25.9669 55.2383 25.9054 55.9109 25.7374 56.5593C26.7688 56.0202 27.7766 55.436 28.8052 54.892C28.828 55.4623 28.8052 56.0326 28.8273 56.6036C27.7745 57.1524 26.7273 57.7123 25.6759 58.2646C25.4547 58.3801 25.2141 58.4796 25.051 58.6766C24.2505 59.5863 23.168 60.2485 21.986 60.5237C21.9825 60.093 21.9874 59.6624 21.9763 59.2317C22.8881 58.8833 23.6713 58.2211 24.1807 57.3895C24.704 56.5586 24.9245 55.5501 24.816 54.5747Z" fill="#9CB8C2"/>
<path d="M28.8163 54.8813C29.0783 54.7652 29.3105 54.5136 29.6154 54.553C30.1075 54.5882 30.6018 54.5668 31.0947 54.5709C31.0794 54.8468 31.1417 55.1357 31.0774 55.4053C30.3357 55.809 29.585 56.1968 28.8384 56.5908C28.8149 56.0212 28.837 55.4509 28.8163 54.8813Z" fill="#9CB8C2"/>
<path d="M31.1063 54.5702C31.5612 54.575 32.0174 54.5564 32.4715 54.5903C32.4003 54.6663 32.3319 54.7499 32.2358 54.7969C31.8653 54.9981 31.49 55.1903 31.1181 55.3886C31.1153 55.1156 31.1105 54.8426 31.1063 54.5702Z" fill="#9CB8C2"/>
<path d="M15.2668 56.8583C15.6028 56.8534 15.9387 56.8527 16.274 56.8438C16.7344 57.8779 17.5998 58.7157 18.6422 59.1539C18.9803 59.3018 19.3404 59.3882 19.6985 59.474C19.6888 59.8479 19.695 60.2219 19.6922 60.5959C18.8275 60.4307 17.9607 60.1168 17.2901 59.53C16.3487 58.8905 15.6215 57.9415 15.2668 56.8583Z" fill="#9CB8C2"/>
<path d="M40.6884 56.8588C41.1791 56.8463 41.6699 56.8629 42.1607 56.8408C42.964 59.1074 43.7465 61.3823 44.5607 63.6455C45.0121 62.657 45.7538 61.7612 46.7624 61.3139C47.0983 61.1466 47.5864 61.4038 47.5739 61.7964C47.5843 62.0453 47.4163 62.2609 47.202 62.3708C46.0926 63.0185 45.2879 64.1833 45.1248 65.4635C44.8829 66.8045 45.4373 68.2016 46.3684 69.1638C46.8675 69.667 47.529 69.9691 48.2023 70.1633C48.6336 70.2815 49.0753 70.4018 49.5274 70.3714C50.5843 70.3196 51.6025 69.8502 52.3754 69.1347C53.0956 68.4463 53.4316 67.4647 53.6072 66.5073C53.789 64.9312 53.0818 63.2155 51.7055 62.3757C51.2535 62.1918 51.3115 61.495 51.6772 61.2489C51.886 61.1259 52.1472 61.1992 52.3325 61.3326C54.2016 62.5962 55.1556 65.0156 54.7457 67.2227C54.5417 68.3764 53.9514 69.4679 53.0638 70.2394C52.5219 70.6859 51.9475 71.1117 51.2852 71.3613C50.4447 71.7062 49.5205 71.7898 48.6212 71.7276C48.0136 71.7408 47.4384 71.5092 46.893 71.2679C46.2059 70.9341 45.6197 70.4301 45.0923 69.8848C44.6838 69.4824 44.4211 68.9626 44.1813 68.4497C43.7997 67.6057 43.6898 66.6649 43.7499 65.7476C43.5695 65.1241 43.3234 64.5193 43.125 63.9006C42.3128 61.5538 41.4888 59.2104 40.6884 56.8588Z" fill="#9CB8C2"/>
<path d="M19.7019 59.4663C20.4609 59.5817 21.2406 59.496 21.9637 59.2402C21.9727 59.6716 21.9747 60.1036 21.9685 60.5356C21.2247 60.696 20.456 60.7299 19.704 60.6061C19.6964 60.2267 19.7019 59.8465 19.7019 59.4663Z" fill="#9CB8C2"/>
</svg>
