<svg width="26" height="26" viewBox="0 0 26 26" fill="none" xmlns="http://www.w3.org/2000/svg">
<path d="M0.372819 0C0.124276 0 0 0.124332 0 0.372876V25.2272C0 25.4758 0.124276 25.6 0.372819 25.6H25.4757C25.7243 25.6 25.8485 25.4758 25.8485 25.2272V0.372876C25.8485 0.124332 25.7243 0 25.4757 0H0.372819ZM25.2272 24.8544H0.745638V0.745676H25.2272V24.8544Z" fill="#5980E3"/>
<path d="M3.85207 6.5865H22.2443C22.4928 6.5865 22.6171 6.46216 22.6171 6.21362C22.6171 5.96508 22.4928 5.84082 22.2443 5.84082H3.85207C3.60352 5.84082 3.47925 5.96508 3.47925 6.21362C3.47925 6.46216 3.60352 6.5865 3.85207 6.5865Z" fill="#DF1E54"/>
<path d="M22.12 9.81787C22.3686 9.81787 22.4928 9.69361 22.4928 9.44507C22.4928 9.19652 22.3686 9.07227 22.12 9.07227H3.85207C3.60352 9.07227 3.47925 9.19652 3.47925 9.44507C3.47925 9.69361 3.60352 9.81787 3.85207 9.81787H22.12Z" fill="#DF1E54"/>
<path d="M3.85207 12.9243H22.12C22.3686 12.9243 22.4928 12.8001 22.4928 12.5515C22.4928 12.303 22.3686 12.1787 22.12 12.1787H3.85207C3.60352 12.1787 3.47925 12.303 3.47925 12.5515C3.47925 12.8001 3.7278 12.9243 3.85207 12.9243Z" fill="#DF1E54"/>
<path d="M13.173 18.5166H3.72829C3.47974 18.5166 3.35547 18.6409 3.35547 18.8894C3.35547 19.1379 3.47974 19.2622 3.72829 19.2622H13.173C13.4215 19.2622 13.5458 19.1379 13.5458 18.8894C13.5458 18.6409 13.2972 18.5166 13.173 18.5166Z" fill="#DF1E54"/>
<path d="M3.60573 16.1558H22.1222C22.3708 16.1558 22.495 16.0315 22.495 15.783C22.495 15.5344 22.3708 15.4102 22.1222 15.4102H3.60573C3.35719 15.4102 3.23291 15.5344 3.23291 15.783C3.23291 15.9072 3.48146 16.1558 3.60573 16.1558Z" fill="#DF1E54"/>
</svg>
