<svg width="84" height="84" viewBox="0 0 84 84" fill="none" xmlns="http://www.w3.org/2000/svg">
<path fill-rule="evenodd" clip-rule="evenodd" d="M67.8409 26.8125H14.6591C13.9248 26.8125 13.3295 27.4001 13.3295 28.125V47.8125H69.1705V28.125C69.1705 27.4001 68.5752 26.8125 67.8409 26.8125ZM14.6591 25.5C13.1905 25.5 12 26.6753 12 28.125V49.125H70.5V28.125C70.5 26.6753 69.3095 25.5 67.8409 25.5H14.6591Z" fill="#183557"/>
<path d="M13.3295 50.4375V64.875C13.3295 65.5646 13.5996 66.1913 14.0385 66.6592C14.5241 67.177 15.2174 67.5 15.9886 67.5H66.5114C67.9811 67.5 69.1705 66.3246 69.1705 64.875V50.4375H67.8409V64.875C67.8409 65.6005 67.2462 66.1875 66.5114 66.1875H15.9886C15.5628 66.1875 15.1862 65.9914 14.9421 65.6851C14.7656 65.462 14.6591 65.1813 14.6591 64.875V50.4375H13.3295Z" fill="#183557"/>
<path d="M34.6023 16.3125H47.8977C49.3675 16.3125 50.5568 17.4879 50.5568 18.9375V24.1875H51.8864V18.9375C51.8864 16.7624 50.0998 15 47.8977 15H34.6023C32.4002 15 30.6136 16.7624 30.6136 18.9375V24.1875H31.9432V18.9375C31.9432 17.4879 33.1325 16.3125 34.6023 16.3125Z" fill="#183557"/>
</svg>
