<svg width="87" height="76" viewBox="0 0 87 76" fill="none" xmlns="http://www.w3.org/2000/svg">
<path d="M85.341 76H1.1407C0.725916 76 0.311085 75.6266 0.311085 75.6266C-0.103695 75.2532 -0.103695 74.8795 0.311085 74.5061L42.6187 0.560196C43.0335 -0.186732 44.2778 -0.186732 44.6926 0.560196L87 74.5061C87 74.8795 87 75.2532 87 75.6266C86.1704 76.0001 85.7558 76 85.341 76ZM3.2146 74.1327H83.6818L43.4481 3.54786L3.2146 74.1327Z" fill="#DF1E54"/>
<path d="M43.4513 53.9655C42.6218 53.9655 42.207 53.5921 42.207 52.8451V22.968C42.207 22.2211 42.6218 21.8477 43.4513 21.8477C44.2809 21.8477 44.6959 22.2211 44.6959 22.968V52.8451C44.6959 53.2186 43.8661 53.9655 43.4513 53.9655Z" fill="#457C9D"/>
<path d="M43.0351 66.2905C40.5465 66.2905 38.4727 64.423 38.4727 62.1822C38.4727 59.9414 40.5465 58.0742 43.0351 58.0742C45.5238 58.0742 47.5976 59.9414 47.5976 62.1822C48.0124 64.423 45.9386 66.2905 43.0351 66.2905ZM43.0351 59.9415C41.7908 59.9415 40.5466 61.0618 40.5466 62.1822C40.5466 63.3026 41.7908 64.4232 43.0351 64.4232C44.2795 64.4232 45.5237 63.3026 45.5237 62.1822C45.5237 60.6884 44.2795 59.9415 43.0351 59.9415Z" fill="#457C9D"/>
</svg>
