<svg width="30" height="30" viewBox="0 0 30 30" fill="none" xmlns="http://www.w3.org/2000/svg">
<circle cx="15" cy="15" r="15" fill="white"/>
<path opacity="0.97" fill-rule="evenodd" clip-rule="evenodd" d="M11.0627 9.67486C12.1107 9.5984 13.1616 9.66911 14.2057 9.76857C15.6038 9.92667 16.9571 10.3435 18.2466 10.8948C19.4867 11.4185 20.7078 11.9929 21.8719 12.6695L21.9386 12.6934L22.0053 12.7172C23.7777 12.8673 25.5973 13.038 27.2547 13.7336C27.7641 13.963 28.2878 14.2752 28.5586 14.7811C28.6481 14.9902 28.6311 15.2198 28.6146 15.4431C28.6119 15.4808 28.6091 15.5183 28.6069 15.5555C28.9478 16.2218 28.8184 16.9996 28.6373 17.6953C28.6049 17.8015 28.691 17.818 28.778 17.8346C28.8665 17.8516 28.9559 17.8687 28.9213 17.981C28.7822 18.2932 28.4769 18.4789 28.1757 18.6145C27.5232 18.7956 26.839 18.8462 26.1653 18.8456C26.163 18.4622 26.163 18.0787 26.1641 17.6953C26.0031 16.5662 24.8884 15.6653 23.7495 15.7389C22.6302 15.567 21.4419 16.3017 21.1648 17.409C21.0748 17.6288 21.0907 17.8761 21.1064 18.12C21.1228 18.3749 21.1389 18.6261 21.0337 18.8382C19.313 18.8531 17.5924 18.8479 15.8723 18.841C15.1501 18.773 14.4249 18.7806 13.6999 18.7883H13.6998H13.6998H13.6998C13.2739 18.7928 12.8481 18.7973 12.4229 18.7864C11.8282 18.7121 11.2292 18.7218 10.6301 18.7314H10.6301C10.0008 18.7416 9.37139 18.7517 8.74699 18.6645C8.8315 17.8769 8.66938 17.0267 8.10023 16.4426C7.59834 15.9338 6.87052 15.6647 6.15707 15.7389C4.7388 15.5555 3.42343 16.9209 3.62292 18.3328C3.41538 18.2698 3.19956 18.2264 2.98312 18.183L2.98311 18.183C2.54667 18.0954 2.10775 18.0074 1.72921 17.7556C1.34288 17.5745 1.08302 17.1451 1.09739 16.7191C0.994487 16.3857 1.21755 16.1051 1.48258 15.9459C1.49522 14.8179 1.51994 13.6601 1.91432 12.589C2.25075 12.1323 2.70297 11.7801 3.15345 11.4291L3.15345 11.4291C3.35115 11.2751 3.54851 11.1214 3.7356 10.9592C3.70877 10.9184 3.67848 10.8782 3.64795 10.8376C3.54899 10.7062 3.44748 10.5714 3.45275 10.4027C4.22704 10.3364 4.99842 10.2403 5.76986 10.1443C6.64345 10.0355 7.51711 9.92677 8.39515 9.86113C9.16288 9.78207 9.93233 9.73871 10.702 9.69533L11.0627 9.67486ZM11.0627 10.1923C8.94246 10.2871 6.82856 10.524 4.72328 10.7953C4.67575 10.7951 4.68184 10.8265 4.68872 10.862C4.69608 10.9 4.70435 10.9427 4.64912 10.9563C3.8707 11.5059 3.09574 12.0751 2.43231 12.7638C2.31574 12.965 2.26756 13.191 2.21944 13.4166L2.21944 13.4166L2.21944 13.4166L2.21944 13.4166C2.19992 13.5082 2.18041 13.5996 2.15636 13.6894C1.98159 14.55 1.97066 15.4399 2.06897 16.3103C1.95629 16.342 1.73151 16.4058 1.61883 16.438C1.61883 16.4807 1.61687 16.525 1.61489 16.5699C1.60634 16.7634 1.59729 16.9682 1.74243 17.11C2.01148 17.3791 2.38172 17.5217 2.7462 17.6085C2.76677 17.6129 2.78911 17.6187 2.81243 17.6248L2.81243 17.6248L2.81244 17.6248C2.93967 17.6579 3.09576 17.6986 3.14921 17.5659C3.28373 16.8571 3.68674 16.177 4.27831 15.7613C5.11823 15.1375 6.2686 15.0732 7.24881 15.3439C8.46069 15.7119 9.33224 16.9422 9.26612 18.2098C9.72598 18.2186 10.1861 18.2162 10.6463 18.2139H10.6464H10.6464H10.6465H10.6465H10.6466H10.6467C11.1241 18.2115 11.6017 18.209 12.0791 18.219C12.7882 18.2862 13.5 18.2789 14.212 18.2715H14.212H14.212H14.212C14.651 18.2669 15.09 18.2624 15.5285 18.2753C15.908 18.3361 16.2915 18.3328 16.6748 18.3295H16.6748H16.6749H16.6749C16.8101 18.3283 16.9452 18.3272 17.0801 18.3288C17.5461 18.3272 18.0121 18.328 18.4782 18.3288H18.4782H18.4782H18.4788C19.1603 18.3301 19.8419 18.3313 20.5232 18.3248C20.5669 18.0799 20.5997 17.8327 20.5956 17.5837C20.7227 16.7363 21.2821 15.9838 22.0214 15.567C22.8636 15.1042 23.8921 15.1019 24.7895 15.3859C25.5656 15.6762 26.2348 16.2661 26.5154 17.0594C26.6334 17.3351 26.6653 17.63 26.6971 17.9249C26.7116 18.0594 26.7261 18.1938 26.7488 18.3265C27.1639 18.2799 27.5766 18.2144 27.9888 18.1443C28.0222 17.9819 28.0677 17.8124 28.1141 17.6393C28.2995 16.9475 28.5002 16.199 28.0049 15.6274C28.2544 15.283 28.0653 14.7892 27.7181 14.5885C27.3162 14.2857 26.8412 14.1215 26.3707 13.9589C26.2784 13.927 26.1864 13.8952 26.0951 13.8624C24.7309 13.5175 23.3333 13.3042 21.9277 13.2479C21.8035 13.207 21.6793 13.1599 21.5689 13.0898C20.5893 12.5258 19.5672 12.0406 18.5369 11.5778C17.1526 10.9718 15.7107 10.4619 14.2016 10.2923C13.1588 10.194 12.1101 10.1078 11.0627 10.1923ZM11.4091 10.3708C11.7215 10.3252 12.0376 10.3312 12.3527 10.3372C12.4313 10.3387 12.5098 10.3402 12.5883 10.3409C12.6453 10.8257 12.685 11.3126 12.7247 11.7994V11.7994L12.7247 11.7995L12.7247 11.7996L12.7247 11.7996C12.7627 12.2652 12.8007 12.7307 12.8539 13.1947C12.8571 13.2139 12.8618 13.2351 12.8666 13.2568L12.8666 13.2569L12.8666 13.2569C12.8981 13.3984 12.9348 13.5632 12.5969 13.3798C11.8887 13.3348 11.1807 13.2944 10.4728 13.254L10.4727 13.254L10.4727 13.254L10.4726 13.254C9.5898 13.2037 8.70713 13.1534 7.82464 13.0941C6.80707 13.0642 5.77226 12.8359 4.91336 12.2691C4.88643 12.242 4.84717 12.2213 4.80777 12.2005L4.80777 12.2005C4.72689 12.1578 4.64544 12.1149 4.66903 12.0155L4.70789 11.9992C5.50393 11.6636 6.3038 11.3265 7.13706 11.094C8.52832 10.6962 9.96556 10.4616 11.4091 10.3708ZM11.4091 10.8876C9.58441 11.0238 7.75565 11.3366 6.04763 12.0121C6.01798 12.0285 5.97827 12.0379 5.93787 12.0474C5.85765 12.0664 5.77472 12.0861 5.76248 12.1621C6.33566 12.3639 6.9301 12.5295 7.54122 12.5674C8.19305 12.5926 8.84401 12.6346 9.49493 12.6766L9.49496 12.6766C10.4337 12.7371 11.3724 12.7976 12.3134 12.8078C12.2358 12.3624 12.2056 11.9099 12.1754 11.458C12.162 11.2577 12.1487 11.0576 12.1312 10.8583C11.8903 10.8451 11.6471 10.8497 11.4091 10.8876ZM19.6684 12.6356C17.6977 11.2001 15.2946 10.2382 12.826 10.34C12.9524 10.898 13.0647 11.4587 13.177 12.0194L13.1771 12.0195L13.1771 12.0196C13.2717 12.4918 13.3663 12.964 13.4693 13.4347C14.0032 13.4667 14.5372 13.498 15.0713 13.5292C16.8846 13.6353 18.6984 13.7414 20.5095 13.8791C20.536 13.8807 20.5665 13.8854 20.5978 13.8902C20.7532 13.9141 20.9304 13.9414 20.7596 13.6175C20.5487 13.3314 20.2666 13.1105 19.9858 12.8908L19.9858 12.8908L19.9858 12.8908C19.8785 12.8067 19.7713 12.7229 19.6684 12.6356ZM13.7011 11.9885C13.6206 11.6142 13.54 11.2401 13.5141 10.858C15.7746 10.9563 17.9794 11.8692 19.7351 13.2645C19.3654 13.2858 18.9981 13.272 18.6325 13.2197C18.187 13.1924 17.7416 13.167 17.2962 13.1416L17.2961 13.1416L17.296 13.1416C16.153 13.0765 15.0103 13.0114 13.8694 12.915C13.8334 12.603 13.7673 12.2957 13.7011 11.9885L13.7011 11.9885ZM23.5939 16.1111C24.9064 16.0593 26.0464 17.3189 25.878 18.6171C25.7958 19.8761 24.5103 20.8793 23.2674 20.6597C22.4562 20.5125 21.7013 19.9347 21.4536 19.1327C21.1523 18.3308 21.4035 17.4011 21.9773 16.7872C22.4096 16.3663 22.9914 16.1329 23.5939 16.1111ZM23.1932 16.686C22.4424 16.8406 21.8635 17.5661 21.8514 18.3285C21.7726 19.2201 22.5321 20.0675 23.4071 20.1601C24.4614 20.3159 25.4939 19.3363 25.3577 18.2704C25.3416 17.2241 24.2119 16.383 23.1932 16.686ZM5.87784 16.1538C5.80352 16.1596 5.72969 16.1653 5.65682 16.1693C4.63637 16.39 3.88096 17.3501 3.85509 18.3861C3.89303 19.0575 4.15748 19.7618 4.71513 20.1717C5.03765 20.4574 5.47113 20.5839 5.8862 20.6632C6.5801 20.761 7.26768 20.4632 7.78337 20.0153C8.23754 19.4824 8.57558 18.7529 8.40023 18.0411C8.27548 17.2328 7.68563 16.5119 6.90665 16.2526C6.58539 16.0986 6.22626 16.1266 5.87784 16.1538ZM4.40354 18.6367C4.23624 17.7704 4.87438 16.8936 5.71373 16.6844C6.57608 16.4694 7.55916 16.9454 7.81269 17.8192C8.21397 18.7586 7.53616 19.9153 6.55883 20.1136C5.593 20.3936 4.50875 19.6255 4.40354 18.6367Z" fill="#183557"/>
</svg>
