<svg width="18" height="18" viewBox="0 0 18 18" fill="none" xmlns="http://www.w3.org/2000/svg">
<path fill-rule="evenodd" clip-rule="evenodd" d="M8.70902 17.4858H8.85387L8.86093 17.4422C8.86582 17.439 8.87062 17.4356 8.87533 17.432L8.89298 17.423L8.893 17.423L8.8957 17.4216C8.91647 17.411 8.92684 17.4058 8.93489 17.4026H9.06011L9.24109 16.9467L17.2362 7.05413C17.2951 6.99121 17.3458 6.90535 17.3458 6.79874C17.3458 6.7012 17.3033 6.62103 17.251 6.55991C17.2329 6.51474 17.2065 6.47181 17.1695 6.43378C17.1611 6.42516 17.1525 6.41709 17.1436 6.40954L13.3544 1.00488C13.346 0.973963 13.332 0.942936 13.31 0.91396C13.2704 0.86157 13.2193 0.834822 13.1791 0.821042C13.1158 0.799385 13.0443 0.799778 13.0114 0.799959L13.0043 0.799986H8.84835L8.84817 0.799805H8.76061H8.7606C8.75095 0.799803 8.73927 0.7998 8.72602 0.799986H4.60117L4.59377 0.799914C4.56378 0.799505 4.49553 0.798575 4.42976 0.83236C4.39603 0.84969 4.37048 0.871535 4.35284 0.887846C4.3364 0.903056 4.31815 0.92181 4.30048 0.939983L4.30044 0.940024L4.30043 0.940034L4.30042 0.940037L4.28841 0.952383L0.308092 6.32668C0.23888 6.34373 0.17213 6.37677 0.116673 6.43377C0.0271448 6.5258 0 6.64658 0 6.75832C0 6.87006 0.0271451 6.99084 0.116695 7.08287C0.17503 7.14281 0.245854 7.17624 0.318885 7.19244L8.25502 17.1882L8.27244 17.2321L8.30458 17.2652L8.30465 17.2652C8.315 17.2759 8.32628 17.2875 8.33828 17.2995C8.34683 17.3242 8.35935 17.3487 8.37688 17.3719C8.41273 17.4193 8.45792 17.4457 8.49601 17.4605L8.51973 17.4849H8.62146C8.64357 17.4861 8.66255 17.486 8.67551 17.486L8.68267 17.4859L8.68639 17.486C8.69179 17.486 8.69964 17.486 8.70902 17.4858ZM0.584282 7.20507L7.99965 16.5449L7.99849 16.542L0.585443 7.20507H0.584282ZM1.37539 7.20507L7.14561 14.3936L4.29197 7.20507H1.37539ZM4.21257 7.00507H1.21484L1.21461 7.00478H4.21246L4.21257 7.00507ZM5.022 7.20507L8.59212 16.0545L8.59255 16.0534L5.02286 7.20507H5.022ZM4.94218 7.00507H4.94132L4.9412 7.00478H4.94206L4.94218 7.00507ZM5.15784 7.00507L5.15772 7.00478H12.243L12.2429 7.00507H5.15784ZM5.23853 7.20507H12.1622L8.70038 15.7862L5.23853 7.20507ZM12.8924 7.20507L9.85084 14.8669L9.85222 14.8652L12.8931 7.20507H12.8924ZM13.1082 7.20507L10.2745 14.3435L16.0527 7.20507H13.1082ZM16.2146 7.00507H13.1958C13.1958 7.00497 13.1959 7.00487 13.196 7.00478H16.2148L16.2146 7.00507ZM16.31 7.20507L10.0269 14.9673L10.0257 14.9702L16.3112 7.20507H16.31ZM0.425301 7.00483L0.425083 7.00455L0.426272 7.00459L0.426491 7.00486C0.426094 7.00485 0.425697 7.00484 0.425301 7.00483ZM16.473 7.00507H16.4719L16.4721 7.00478H16.4733L16.473 7.00507ZM12.9725 7.00507H12.9718L12.9719 7.00478H12.9726L12.9725 7.00507ZM0.56938 6.31152H0.568198L4.44113 1.08222C4.52114 0.999986 4.52114 0.999986 4.60112 0.999986H8.2555L8.25549 1H4.60235H4.60229C4.52232 1 4.52231 1 4.4423 1.08223L0.56938 6.31152ZM4.32166 6.31152H1.3415L4.78162 1.69348H7.74188L4.32166 6.31152ZM5.17099 6.31152H5.17036L8.5294 1.75439L8.52972 1.75482L5.17099 6.31152ZM5.41945 6.31152L8.65395 1.92336L11.8885 6.31152H5.41945ZM12.7371 6.31152H12.7362L9.31597 1.69348H9.31689L12.7371 6.31152ZM15.9893 6.31152H12.986L9.56577 1.69348H12.7404L15.9893 6.31152ZM16.235 6.31152H16.2339L12.8442 1.49349H12.8454L16.235 6.31152ZM9.60345 15.4919L9.60206 15.4936L9.6032 15.4907L9.60459 15.489L9.60345 15.4919ZM9.05883 1H13.0054L13.0043 0.999986H9.05882L9.05883 1Z" fill="#DF1E54"/>
</svg>
