<svg width="34" height="34" viewBox="0 0 34 34" fill="none" xmlns="http://www.w3.org/2000/svg">
<path d="M16.9385 22.8591C15.5738 22.8591 14.3228 22.4042 13.2993 21.3807C11.2523 19.3337 11.1386 16.0358 13.1856 13.875C15.2327 11.828 18.5306 11.7143 20.6913 13.7613C22.7383 15.8083 22.8521 19.1063 20.805 21.267C19.7815 22.2905 18.4169 22.8591 16.9385 22.8591ZM16.9385 12.9653C15.6875 12.9653 14.5503 13.4201 13.6405 14.3299C11.821 16.1495 11.9347 19.1063 13.7543 20.9258C15.5738 22.7454 18.5306 22.6317 20.3502 20.8121C22.1697 18.9926 22.056 16.0358 20.2364 14.2162C19.3266 13.4201 18.1894 12.9653 16.9385 12.9653Z" fill="#183557"/>
<path d="M13.6058 13.9286L13.1318 14.4194L20.2495 21.2917L20.7234 20.8009L13.6058 13.9286Z" fill="#183557"/>
<path d="M16.37 29.2279L8.18193 23.7693C7.84077 23.5418 7.72705 23.2006 7.72705 22.8595V9.78137C7.72705 9.32648 8.06823 8.87159 8.52312 8.64414H8.63685C13.9818 6.59713 20.0091 6.59713 25.3541 8.64414L25.6952 8.75787C25.809 8.87159 25.9227 8.98531 25.9227 9.21276C25.809 9.32648 25.6952 9.4402 25.4678 9.4402L25.2403 9.32648C19.8954 7.27947 14.0955 7.27947 8.75055 9.32648C8.5231 9.4402 8.40939 9.55392 8.40939 9.78137V22.9732C8.40939 23.2006 8.52313 23.3144 8.63685 23.4281L16.7111 28.7731C16.9386 28.8868 17.166 28.8868 17.2797 28.7731L25.3541 23.4281C25.4678 23.3144 25.5815 23.2006 25.5815 22.9732V15.9224C25.5815 15.6949 25.6952 15.5812 25.9227 15.5812C26.1501 15.5812 26.2639 15.6949 26.2639 15.9224V22.9732C26.2639 23.3144 26.0364 23.7693 25.6952 23.883L17.6209 29.2279C17.166 29.4554 16.7111 29.4554 16.37 29.2279Z" fill="#183557"/>
</svg>
