<svg width="42" height="42" viewBox="0 0 42 42" fill="none" xmlns="http://www.w3.org/2000/svg">
<path d="M21.4988 37.9976C12.2975 37.9976 5 30.5414 5 21.4988C5 12.2976 12.4562 5 21.4988 5C30.7 5 37.9975 12.4562 37.9975 21.4988C38.1562 30.5414 30.7 37.9976 21.4988 37.9976ZM21.4988 5.79321C12.9321 5.79321 5.79321 12.7735 5.79321 21.4988C5.79321 30.0655 12.7734 37.2044 21.4988 37.2044C30.0654 37.2044 37.2043 30.2241 37.2043 21.4988C37.2043 12.7735 30.2241 5.79321 21.4988 5.79321Z" fill="#136B9F"/>
<path d="M16.4206 26.8925C16.262 26.8925 16.262 26.8924 16.1034 26.7338C15.9447 26.5751 15.9447 26.2579 16.1034 26.0993L20.0694 22.2918C20.228 22.1332 20.5453 22.1332 20.704 22.2918C20.8626 22.4505 20.8626 22.7678 20.704 22.9264L16.7379 26.7338C16.5793 26.7338 16.4206 26.8925 16.4206 26.8925Z" fill="#136B9F"/>
<path d="M21.5003 20.3885C21.183 20.3885 21.0244 20.2299 21.0244 19.9126V9.60091C21.0244 9.28362 21.183 9.125 21.5003 9.125C21.8176 9.125 21.9762 9.28362 21.9762 9.60091V19.9126C21.9762 20.0713 21.8176 20.3885 21.5003 20.3885Z" fill="#DF1E54"/>
<path d="M21.499 23.244C20.5471 23.244 19.7539 22.4508 19.7539 21.4989C19.7539 20.5471 20.5471 19.7539 21.499 19.7539C22.4508 19.7539 23.244 20.5471 23.244 21.4989C23.4027 22.4508 22.6095 23.244 21.499 23.244ZM21.499 20.5471C21.0231 20.5471 20.5471 21.023 20.5471 21.4989C20.5471 21.9749 21.0231 22.4507 21.499 22.4507C21.9749 22.4507 22.4508 21.9749 22.4508 21.4989C22.4508 21.023 21.9749 20.5471 21.499 20.5471Z" fill="#136B9F"/>
</svg>
