<svg width="110" height="110" viewBox="0 0 110 110" fill="none" xmlns="http://www.w3.org/2000/svg">
<circle cx="55" cy="55" r="55" fill="url(#paint0_linear)"/>
<path d="M73.3396 46.1201C72.5959 46.1201 72.2241 45.7483 72.2241 45.0046V35.3365C72.2241 25.6683 64.0434 17.8593 54.3751 17.8593C44.3351 17.8593 36.5261 25.6683 36.5261 35.3365V45.0046C36.5261 45.7483 36.1543 46.1201 35.4106 46.1201C34.6668 46.1201 34.2949 45.7483 34.2949 45.0046V35.3365C34.2949 24.5527 43.2195 16 54.3751 16C65.5308 16 74.4553 24.9245 74.4553 35.3365V45.0046C74.4553 45.3764 73.7115 46.1201 73.3396 46.1201Z" fill="#DF1E54"/>
<path d="M54.3813 75.8686C53.6375 75.8686 53.2656 75.4968 53.2656 74.7531V60.9944C53.2656 60.2507 53.6375 59.8789 54.3813 59.8789C55.125 59.8789 55.4968 60.2507 55.4968 60.9944V74.7531C55.4968 75.1249 55.125 75.8686 54.3813 75.8686Z" fill="#DF1E54"/>
<path d="M72.003 69.8034L78.8817 76.6821L103.159 52.4043C103.766 51.7974 104.98 52.202 104.98 53.2136V66.971C104.98 67.1733 104.778 67.5779 104.576 67.7803L79.4887 93.0696C79.084 93.4742 78.2747 93.4742 77.8701 93.0696L63.3035 78.0983C62.8988 77.6937 62.8988 76.8844 63.3035 76.4798L70.3845 69.8034C70.9914 69.3988 71.5984 69.3988 72.003 69.8034ZM63.9104 77.4913L78.6794 92.2604L103.969 66.971V53.4159L79.691 77.6937C79.2864 78.0983 78.4771 78.0983 78.0724 77.6937L71.1937 70.815C67.9567 73.4451 64.7197 76.4798 63.9104 77.4913Z" fill="#DF1E54"/>
<path d="M97.253 70.7991V70.9669L78.5783 89.2698L67.6723 77.9969C67.8129 77.8152 68.0528 77.5479 68.3687 77.2193L67.8159 76.648L67.2241 77.2248C66.9253 77.5336 66.9253 78.1513 67.2241 78.4602L77.9807 89.8875C78.2795 90.1964 78.8771 90.1964 79.1759 89.8875L97.7012 71.5846C97.8506 71.4302 98 71.1213 98 70.9669V70.1191L97.253 70.7991Z" fill="#136B9F"/>
<path fill-rule="evenodd" clip-rule="evenodd" d="M84.1249 68.739V44.6331C84.1249 43.8894 83.753 43.5176 83.0093 43.5176H26.1156C25.3719 43.5176 25 43.8894 25 44.6331V90.3711C25 91.1148 25.3719 91.4866 26.1156 91.4866H74.7635L72.8511 89.6274H27.2311V46.1204H81.8938V70.8732L84.1249 68.739Z" fill="#136B9F"/>
<defs>
<linearGradient id="paint0_linear" x1="55" y1="0" x2="55" y2="110" gradientUnits="userSpaceOnUse">
<stop stop-color="#F0F6FF"/>
<stop offset="1" stop-color="#F0F6FF" stop-opacity="0"/>
</linearGradient>
</defs>
</svg>
