<svg width="14" height="18" viewBox="0 0 14 18" fill="none" xmlns="http://www.w3.org/2000/svg">
<path d="M10.9343 17.3052H2.66919C2.5831 17.3052 2.41089 17.2191 2.41089 17.0469L1.20557 2.32468C1.20557 2.23859 1.20557 2.15253 1.29167 2.15253C1.37776 2.06644 1.37775 2.06641 1.46384 2.06641H12.1396C12.2257 2.06641 12.3118 2.06644 12.3118 2.15253C12.3979 2.23863 12.3979 2.23859 12.3979 2.32468L11.1926 17.0469C11.1065 17.133 11.0204 17.3052 10.9343 17.3052ZM2.84137 16.7887H10.676L11.8813 2.58301H1.72214L2.84137 16.7887Z" fill="#136B9F"/>
<path d="M13.1725 2.49653H0.258274C0.0860844 2.49653 0 2.41044 0 2.23825C0 2.06606 0.0860844 1.97998 0.258274 1.97998H13.1725C13.3447 1.97998 13.4308 2.06606 13.4308 2.23825C13.4308 2.41044 13.2586 2.49653 13.1725 2.49653Z" fill="#136B9F"/>
<path d="M6.801 15.9276C6.62881 15.9276 6.54272 15.8415 6.54272 15.6693V3.96042C6.54272 3.78823 6.62881 3.70215 6.801 3.70215C6.97319 3.70215 7.05927 3.78823 7.05927 3.96042V15.6693C7.05927 15.8415 6.88709 15.9276 6.801 15.9276Z" fill="#136B9F"/>
<path d="M8.86741 15.9276C8.69522 15.9276 8.60913 15.7554 8.60913 15.6693L9.64225 3.96042C9.64225 3.78823 9.81446 3.70215 9.90056 3.70215C10.0727 3.70215 10.1588 3.87433 10.1588 3.96042L9.12571 15.6693C9.03961 15.8415 8.9535 15.9276 8.86741 15.9276Z" fill="#136B9F"/>
<path d="M4.73527 15.9276C4.64918 15.9276 4.47697 15.8415 4.47697 15.6693L3.44385 3.96042C3.44385 3.78823 3.52993 3.70215 3.70212 3.70215C3.87431 3.70215 3.96042 3.78823 3.96042 3.96042L4.99355 15.6693C4.99355 15.7554 4.82137 15.9276 4.73527 15.9276Z" fill="#136B9F"/>
<path d="M8.95422 2.49672C8.78203 2.49672 8.69594 2.41064 8.69594 2.23845V0.688749C8.69594 0.602654 8.60984 0.516549 8.52374 0.516549H4.90774C4.82165 0.516549 4.73557 0.602654 4.73557 0.688749V2.23845C4.73557 2.41064 4.64946 2.49672 4.47727 2.49672C4.30508 2.49672 4.21899 2.41064 4.21899 2.23845V0.688749C4.21899 0.344369 4.47727 0 4.90774 0H8.52374C8.86812 0 9.21249 0.258274 9.21249 0.688749V2.23845C9.21249 2.41064 9.04031 2.49672 8.95422 2.49672Z" fill="#136B9F"/>
</svg>
