<svg width="110" height="110" viewBox="0 0 110 110" fill="none" xmlns="http://www.w3.org/2000/svg">
<circle cx="55" cy="55" r="55" fill="url(#paint0_linear)"/>
<circle cx="88.5" cy="89.5" r="16.5" fill="#D5DEEB"/>
<path fill-rule="evenodd" clip-rule="evenodd" d="M88.5 79C87.6716 79 87 79.6716 87 80.5V88H79.5C78.6716 88 78 88.6716 78 89.5C78 90.3284 78.6716 91 79.5 91H87V98.5C87 99.3284 87.6716 100 88.5 100C89.3284 100 90 99.3284 90 98.5V91H97.5C98.3284 91 99 90.3284 99 89.5C99 88.6716 98.3284 88 97.5 88H90V80.5C90 79.6716 89.3284 79 88.5 79Z" fill="white"/>
<path fill-rule="evenodd" clip-rule="evenodd" d="M62.7955 19.65H46.2045C44.3705 19.65 42.8864 21.1276 42.8864 22.95V28.7205C42.8864 29.1786 42.515 29.55 42.0568 29.55C41.5987 29.55 41.2273 29.1786 41.2273 28.7205V22.95C41.2273 20.2156 43.4567 18 46.2045 18H62.7955C65.5433 18 67.7727 20.2156 67.7727 22.95V28.7205C67.7727 29.1786 67.4013 29.55 66.9432 29.55C66.485 29.55 66.1136 29.1786 66.1136 28.7205V22.95C66.1136 21.1276 64.6295 19.65 62.7955 19.65ZM87.6818 32.85H21.3182C20.4019 32.85 19.6591 33.5887 19.6591 34.5V58.25C19.6591 58.8023 20.1068 59.25 20.6591 59.25H88.3409C88.8932 59.25 89.3409 58.8023 89.3409 58.25V34.5C89.3409 33.5887 88.5981 32.85 87.6818 32.85ZM21.3182 31.2C19.4856 31.2 18 32.6775 18 34.5V59.9C18 60.4523 18.4477 60.9 19 60.9H90C90.5523 60.9 91 60.4523 91 59.9V34.5C91 32.6775 89.5144 31.2 87.6818 31.2H21.3182ZM20.4886 62.55C20.0305 62.55 19.6591 62.9214 19.6591 63.3795V80.7C19.6591 81.5669 19.9961 82.3548 20.5437 82.943C21.1497 83.5939 22.0149 84 22.9773 84H70.175C70.6306 84 71 83.6306 71 83.175C71 82.7194 70.6306 82.35 70.175 82.35H22.9773C22.4458 82.35 21.976 82.1035 21.6714 81.7184C21.451 81.438 21.3182 81.0851 21.3182 80.7V63.3795C21.3182 62.9214 20.9468 62.55 20.4886 62.55ZM87.6818 71.1705C87.6818 71.6286 88.0532 72 88.5114 72C88.9695 72 89.3409 71.6286 89.3409 71.1705V63.3795C89.3409 62.9214 88.9695 62.55 88.5114 62.55C88.0532 62.55 87.6818 62.9214 87.6818 63.3795V71.1705Z" fill="#136B9F"/>
<defs>
<linearGradient id="paint0_linear" x1="55" y1="0" x2="55" y2="110" gradientUnits="userSpaceOnUse">
<stop stop-color="#F0F6FF"/>
<stop offset="1" stop-color="#F0F6FF" stop-opacity="0"/>
</linearGradient>
</defs>
</svg>
