<svg width="37" height="37" viewBox="0 0 37 37" fill="none" xmlns="http://www.w3.org/2000/svg">
<circle cx="18.5" cy="18.5" r="18.5" fill="#DD0F49"/>
<path fill-rule="evenodd" clip-rule="evenodd" d="M27.6584 8.00042C25.4336 8.00312 23.2086 8.0021 20.9835 8.00107C17.6829 7.99955 14.3821 7.99803 11.0819 8.0087L11.0639 8.00875L11.0469 8.01494C10.8955 8.07005 10.814 8.21923 10.8158 8.36359C10.8163 9.52889 10.8161 10.6943 10.816 11.8598V11.8598V11.8598C10.8157 13.4615 10.8154 15.0633 10.8171 16.6649C10.8091 16.7863 10.8403 16.9662 11.0002 17.0458C11.0727 17.0855 11.1481 17.093 11.2135 17.091C11.2586 17.0896 11.3077 17.0828 11.3483 17.0772L11.3483 17.0772L11.3483 17.0772C11.3633 17.0751 11.3772 17.0732 11.3893 17.0718L11.3988 17.0707L11.408 17.0678C11.5096 17.0362 11.5754 16.961 11.6111 16.8796C11.6451 16.8022 11.6546 16.7143 11.6439 16.6351C11.6441 15.6351 11.644 14.6352 11.6439 13.6353V13.6336V13.6336C11.6436 11.998 11.6434 10.3624 11.6446 8.72684C16.8097 8.72433 21.9748 8.72533 27.1399 8.72635C27.1417 15.5643 27.1415 22.4025 27.1402 29.2404C21.9751 29.2429 16.81 29.2419 11.6449 29.2409C11.6432 27.1618 11.6437 25.0828 11.6442 23.0037V23.0035V23.002L11.6445 21.9457L11.6445 21.9443L11.6444 21.943C11.644 21.9262 11.644 21.908 11.6439 21.8885C11.6437 21.7984 11.6435 21.6833 11.6034 21.5793L11.599 21.5679L11.592 21.5579C11.4909 21.411 11.3003 21.3662 11.1467 21.3918C10.9901 21.4179 10.8243 21.5274 10.8169 21.735L10.8168 21.7368L10.8168 21.7386C10.8158 24.3754 10.815 27.0124 10.8171 29.6494C10.7987 29.8079 10.8758 30.0193 11.0803 30.0636L11.0838 30.0644L11.0873 30.0649C11.4166 30.1127 11.7533 30.1003 12.0757 30.0884C12.1529 30.0856 12.2293 30.0828 12.3046 30.0808C12.644 30.1134 12.9907 30.1006 13.3245 30.077C13.5963 30.1109 13.8771 30.0999 14.1451 30.0893H14.1451H14.1451C14.2317 30.0859 14.3169 30.0826 14.4 30.0808C14.7394 30.1134 15.0862 30.1006 15.4201 30.077C15.6919 30.1109 15.9727 30.0999 16.2407 30.0893H16.2407H16.2407C16.3272 30.0859 16.4124 30.0826 16.4956 30.0808C16.835 30.1134 17.1818 30.1006 17.5157 30.077C17.7875 30.1109 18.0683 30.0999 18.3362 30.0893H18.3363H18.3363C18.4228 30.0859 18.508 30.0826 18.5912 30.0808C18.9306 30.1134 19.2773 30.1006 19.6113 30.077C19.8829 30.1109 20.1639 30.0999 20.4319 30.0893H20.4319C20.5184 30.0859 20.6036 30.0826 20.6867 30.0808C21.0262 30.1134 21.3729 30.1006 21.7069 30.077C21.9785 30.1109 22.2595 30.0999 22.5274 30.0893H22.5275C22.614 30.0859 22.6992 30.0826 22.7823 30.0808C23.1218 30.1134 23.4685 30.1006 23.8025 30.077C24.0741 30.1109 24.355 30.0999 24.623 30.0893H24.6231C24.7096 30.0859 24.7947 30.0826 24.8777 30.0808C25.2117 30.114 25.5531 30.0992 25.8801 30.0786C26.2266 30.1063 26.5831 30.1067 26.9321 30.0772C27.1569 30.112 27.3872 30.1016 27.6059 30.0738C27.717 30.0867 27.8226 30.0412 27.8946 29.9701C27.9682 29.8976 28.016 29.789 27.9939 29.6712C27.995 22.604 27.996 15.5367 27.9934 8.46948C27.998 8.38312 27.9819 8.27477 27.9361 8.1839C27.8887 8.0901 27.7993 7.99919 27.6584 8.00042ZM9.24171 16.7505L9.24177 16.7505C9.3323 16.6801 9.4244 16.6085 9.54807 16.6568C9.63317 16.6977 9.71129 16.752 9.78814 16.8064C9.80755 16.9453 9.76278 17.0767 9.68334 17.1903C9.49883 17.3095 9.32406 17.442 9.14924 17.5746L9.14873 17.575L9.14809 17.5755C9.00833 17.6815 8.86857 17.7875 8.72377 17.8868C8.49457 18.0577 8.26324 18.2257 8.03191 18.3936C7.81362 18.5521 7.59538 18.7105 7.37901 18.8714C9.54651 18.875 11.7141 18.8745 13.8816 18.874C15.7342 18.8736 17.5867 18.8732 19.4393 18.8753C19.4638 18.8797 19.49 18.8817 19.5166 18.8838L19.5167 18.8838C19.5848 18.889 19.6556 18.8945 19.708 18.9397C19.833 19.031 19.8131 19.2165 19.7851 19.3487C19.738 19.5022 19.5492 19.5247 19.4134 19.5205C17.7772 19.5215 16.1409 19.5211 14.5046 19.5207C12.1291 19.5202 9.75353 19.5196 7.37795 19.5231C7.80738 19.8409 8.23896 20.1558 8.6705 20.4706L8.67531 20.4741L8.6813 20.4785L8.68133 20.4785C9.02435 20.7287 9.36736 20.979 9.70921 21.2306C9.77364 21.2623 9.80557 21.3134 9.81598 21.3721C9.91042 21.4549 9.92786 21.5974 9.85257 21.7011L9.78253 21.7975C9.7028 21.9074 9.54908 21.9318 9.43923 21.852L6.10141 19.4286C5.99155 19.3489 5.96715 19.1952 6.04693 19.0853L6.11697 18.9888C6.16144 18.9276 6.22899 18.8929 6.29908 18.888C6.35997 18.8375 6.42538 18.7924 6.49076 18.7473L6.49125 18.747L6.49164 18.7467C6.54002 18.7134 6.58839 18.6801 6.6349 18.6445C7.09235 18.3073 7.55294 17.9744 8.01352 17.6416L8.01584 17.6399L8.01587 17.6399C8.39517 17.3658 8.77448 17.0917 9.15197 16.8152C9.18225 16.7967 9.21168 16.7738 9.24131 16.7508L9.24131 16.7508L9.24171 16.7505Z" fill="#FEF9FB"/>
</svg>
