<svg width="110" height="110" viewBox="0 0 110 110" fill="none" xmlns="http://www.w3.org/2000/svg">
<circle cx="55" cy="55" r="55" fill="url(#paint0_linear)"/>
<path d="M83.0093 95.3675H26.1156C25.3719 95.3675 25 94.9957 25 94.252V48.514C25 47.7702 25.3719 47.3984 26.1156 47.3984H83.0093C83.753 47.3984 84.1249 47.7702 84.1249 48.514V94.252C84.1249 94.9957 83.3811 95.3675 83.0093 95.3675ZM27.2311 93.5082H81.8938V50.0012H27.2311V93.5082Z" fill="#136B9F"/>
<path d="M73.3406 50.001C72.5969 50.001 72.2251 49.6292 72.2251 48.8854V39.2173C72.2251 29.5491 64.0443 21.7401 54.3761 21.7401C44.3361 21.7401 36.527 29.5491 36.527 39.2173V48.8854C36.527 49.6292 36.1552 50.001 35.4115 50.001C34.6678 50.001 34.2959 49.6292 34.2959 48.8854V39.2173C34.2959 28.4336 43.2205 19.8809 54.3761 19.8809C65.5317 19.8809 74.4562 28.8054 74.4562 39.2173V48.8854C74.4562 49.2573 73.7125 50.001 73.3406 50.001Z" fill="#DF1E54"/>
<path d="M54.3817 79.7495C53.638 79.7495 53.2661 79.3776 53.2661 78.6339V64.8753C53.2661 64.1316 53.638 63.7598 54.3817 63.7598C55.1255 63.7598 55.4973 64.1316 55.4973 64.8753V78.6339C55.4973 79.0058 55.1255 79.7495 54.3817 79.7495Z" fill="#DF1E54"/>
<defs>
<linearGradient id="paint0_linear" x1="55" y1="0" x2="55" y2="110" gradientUnits="userSpaceOnUse">
<stop stop-color="#F0F6FF"/>
<stop offset="1" stop-color="#F0F6FF" stop-opacity="0"/>
</linearGradient>
</defs>
</svg>
