<svg width="110" height="110" viewBox="0 0 110 110" fill="none" xmlns="http://www.w3.org/2000/svg">
<circle cx="55" cy="55" r="55" fill="url(#paint0_linear)"/>
<path fill-rule="evenodd" clip-rule="evenodd" d="M63.345 20.8401C60.5604 19.3817 57.3952 18.5994 54.2529 18.6966C49.5832 18.8108 44.9796 20.7259 41.6731 24.0364C38.6701 26.8751 36.7429 30.7936 36.189 34.8784C35.6802 38.9351 36.4795 43.1812 38.591 46.701C40.8054 50.4964 44.3797 53.537 48.565 54.9219C48.5826 54.9277 48.5946 54.9442 48.5946 54.9628C48.5946 54.9822 48.5815 54.9993 48.5627 55.0044C42.9575 56.5283 38.0031 60.2377 34.8989 65.1386C32.591 68.7385 31.3309 72.9836 31.1797 77.2497C31.1838 79.7538 31.1827 82.2581 31.1816 84.7625C31.1803 87.7678 31.1791 90.7731 31.1867 93.7781C31.17 94.1726 31.2433 94.6335 31.5336 94.8939C31.7319 95.0717 32.0213 95.0743 32.2877 95.0745C40.9148 95.0805 62.542 95.0809 71.1693 95.0799C71.7776 95.0799 72.2708 94.5867 72.2708 93.9783C72.2708 93.3698 71.7775 92.8766 71.169 92.8767C63.9759 92.8776 43.7828 92.8768 36.5898 92.8715C34.6542 92.8701 33.0851 91.3022 33.0844 89.3666C33.0838 87.8114 33.0843 86.2561 33.0847 84.7008C33.0854 82.2504 33.0862 79.8 33.0828 77.3498C33.0328 75.4687 33.4555 73.6146 33.9383 71.8086C36.0357 64.4044 42.3422 58.4154 49.8126 56.6144C50.8827 56.33 51.9846 56.204 53.0824 56.0785L53.1521 56.0705C58.0402 55.5978 63.0736 56.8709 67.1403 59.6224C71.153 62.2217 74.2221 66.2083 75.8027 70.7138C76.0453 71.3684 76.2441 72.0362 76.4067 72.7128C76.5115 73.1489 76.8952 73.4661 77.3438 73.4661C77.9331 73.4661 78.3786 72.9304 78.2436 72.3568C77.7567 70.2886 76.9981 68.2861 75.9579 66.4317C72.9484 60.8535 67.5769 56.6259 61.4629 54.9672C61.3384 54.9334 61.3036 54.8086 61.4252 54.7655C61.4642 54.7517 61.5029 54.738 61.537 54.7193C64.2445 53.6756 66.7316 51.9868 68.6378 49.7981C71.2401 46.9063 72.8438 43.1431 73.2304 39.2797C73.7122 34.5338 72.3099 29.6147 69.344 25.8644C67.6972 23.8201 65.6799 22.0561 63.345 20.8401ZM42.825 25.9887C45.4724 23.1019 49.2647 21.344 53.1521 21.0124C58.2165 20.4775 63.4422 22.4808 66.9179 26.188C69.1006 28.5779 70.6141 31.636 70.9697 34.8714C71.0755 35.6617 71.0625 36.4594 71.0496 37.2567C71.0429 37.6671 71.0363 38.0773 71.0458 38.4864C70.7713 43.113 68.3673 47.5494 64.7113 50.3751C60.2759 53.7868 54.0596 54.6922 48.84 52.6809C43.1726 50.6025 38.8775 45.1274 38.3916 39.0864C37.8257 34.3625 39.4764 29.3813 42.825 25.9887Z" fill="#136B9F"/>
<circle cx="91.5" cy="89.5" r="16.5" fill="#D5DEEB"/>
<path fill-rule="evenodd" clip-rule="evenodd" d="M91.5 79C90.6716 79 90 79.6716 90 80.5V88H82.5C81.6716 88 81 88.6716 81 89.5C81 90.3284 81.6716 91 82.5 91H90V98.5C90 99.3284 90.6716 100 91.5 100C92.3284 100 93 99.3284 93 98.5V91H100.5C101.328 91 102 90.3284 102 89.5C102 88.6716 101.328 88 100.5 88H93V80.5C93 79.6716 92.3284 79 91.5 79Z" fill="white"/>
<defs>
<linearGradient id="paint0_linear" x1="55" y1="0" x2="55" y2="110" gradientUnits="userSpaceOnUse">
<stop stop-color="#F0F6FF"/>
<stop offset="1" stop-color="#F0F6FF" stop-opacity="0"/>
</linearGradient>
</defs>
</svg>
