<svg width="110" height="110" viewBox="0 0 110 110" fill="none" xmlns="http://www.w3.org/2000/svg">
<circle cx="55" cy="55" r="55" fill="url(#paint0_linear)"/>
<path d="M54.1515 19.008C57.277 18.9114 60.4254 19.6895 63.1952 21.1402C65.5176 22.3497 67.5242 24.1043 69.1622 26.1378C72.1123 29.868 73.5072 34.761 73.0279 39.4816C72.6434 43.3244 71.0482 47.0676 68.4598 49.944C66.5638 52.1209 64.0899 53.8008 61.3968 54.8389C61.2912 54.8967 61.1418 54.9067 61.077 55.0203C67.2602 56.6223 72.7071 60.8657 75.7409 66.489C77.6489 69.8904 78.6044 73.793 78.6691 77.6827C78.8156 82.9792 78.6711 88.2886 78.7409 93.59C78.977 94.2237 78.4579 95.1403 77.7326 94.9819C62.4559 94.9829 47.1803 94.9899 31.9046 94.9789C31.3207 94.8434 31.1862 94.2088 31.2081 93.6897C31.1942 88.2099 31.2101 82.7291 31.2012 77.2493C31.3516 73.0059 32.605 68.7835 34.9005 65.2027C37.9941 60.3187 42.9349 56.6243 48.5233 55.1139V55.0501C44.3477 53.6772 40.7808 50.6474 38.573 46.8633C36.4727 43.3622 35.6777 39.1388 36.1838 35.1037C36.7348 31.0407 38.6517 27.143 41.6387 24.3195C44.9276 21.0266 49.5067 19.1216 54.1515 19.008ZM53.0566 21.3115C49.1898 21.6413 45.4178 23.3899 42.7845 26.2613C39.4537 29.6359 37.8118 34.5906 38.3747 39.2893C38.8579 45.2981 43.1302 50.744 48.7674 52.8114C53.9593 54.812 60.1425 53.9113 64.5542 50.5179C68.1908 47.7072 70.582 43.2945 70.855 38.6925C70.8271 37.4949 70.9386 36.2873 70.7792 35.0967C70.4255 31.8786 68.9201 28.8368 66.7491 26.4596C63.2918 22.7722 58.094 20.7795 53.0566 21.3115ZM53.0566 56.183C51.9417 56.3105 50.8218 56.435 49.7348 56.724C42.3042 58.5154 36.0314 64.4724 33.9451 71.8372C33.4648 73.6336 33.0444 75.4778 33.0942 77.3489C33.1012 82.494 33.0902 87.64 33.0992 92.785C47.6764 92.799 62.2537 92.792 76.8309 92.789C76.8409 87.7745 76.8299 82.761 76.8369 77.7465C76.7303 75.3762 76.4155 72.985 75.5865 70.7483C74.0143 66.2668 70.9616 62.3014 66.9703 59.7159C62.9252 56.979 57.9187 55.7127 53.0566 56.183Z" fill="#136B9F"/>
<path fill-rule="evenodd" clip-rule="evenodd" d="M76.3448 31.1098C76.0744 30.0138 75.7212 28.9373 75.2873 27.8896C74.1566 25.1598 72.4992 22.6794 70.4099 20.5901C68.3206 18.5008 65.8402 16.8434 63.1104 15.7127C60.3806 14.582 57.4547 14 54.5 14C51.5453 14 48.6194 14.582 45.8896 15.7127C43.1598 16.8434 40.6794 18.5008 38.5901 20.5901C36.5008 22.6794 34.8434 25.1598 33.7127 27.8896C33.2788 28.9373 32.9256 30.0138 32.6552 31.1098C32.4499 31.0386 32.2295 31 32 31H30C28.8954 31 28 31.8954 28 33V40C28 41.1046 28.8954 42 30 42H32C33.1046 42 34 41.1046 34 40V36.5H34.0294C34.0294 33.8118 34.5589 31.1499 35.5877 28.6663C36.6164 26.1826 38.1243 23.926 40.0251 22.0251C41.926 20.1243 44.1826 18.6164 46.6663 17.5877C49.1499 16.5589 51.8118 16.0294 54.5 16.0294C57.1882 16.0294 59.8501 16.5589 62.3337 17.5877C64.8174 18.6164 67.074 20.1242 68.9749 22.0251C70.8758 23.926 72.3836 26.1826 73.4123 28.6663C74.4411 31.1499 74.9706 33.8118 74.9706 36.5H75V40C75 41.1046 75.8954 42 77 42H79C80.1046 42 81 41.1046 81 40V33C81 31.8954 80.1046 31 79 31H77C76.7705 31 76.5501 31.0386 76.3448 31.1098ZM77 36.4869C77 36.4913 77 36.4956 77 36.5L77 39C77 39.5523 77.4477 40 78 40C78.5523 40 79 39.5523 79 39V34C79 33.4477 78.5523 33 78 33C77.4477 33 77 33.4477 77 34V36.4869ZM31 33C30.4477 33 30 33.4477 30 34V39C30 39.5523 30.4477 40 31 40C31.5523 40 32 39.5523 32 39V34C32 33.4477 31.5523 33 31 33Z" fill="#DF1E54"/>
<defs>
<linearGradient id="paint0_linear" x1="55" y1="0" x2="55" y2="110" gradientUnits="userSpaceOnUse">
<stop stop-color="#F0F6FF"/>
<stop offset="1" stop-color="#F0F6FF" stop-opacity="0"/>
</linearGradient>
</defs>
</svg>
