<svg width="34" height="34" viewBox="0 0 34 34" fill="none" xmlns="http://www.w3.org/2000/svg">
<path d="M33.3618 9.02542C33.3618 8.86425 33.3618 8.86425 33.3618 9.02542C33.3618 8.86425 33.3618 8.86425 33.3618 8.86425L29.4937 6.76906V4.51271C29.4937 4.19038 29.3326 4.0292 29.0103 4.0292H24.3363L16.9226 0C16.7615 0 16.6003 0 16.4392 0L9.02537 4.0292H4.0292C3.70687 4.0292 3.54572 4.19038 3.54572 4.51271V7.09141L0 9.02542C0 9.02542 0 9.02541 0 9.18658V33.0395C0 33.3618 0.161148 33.523 0.483485 33.523H33.0395C33.3618 33.523 33.5229 33.3618 33.5229 33.0395L33.3618 9.02542ZM31.1054 8.54191H29.1714V7.5749L31.1054 8.54191ZM16.6003 0.644687L22.2412 3.70687H10.9594L16.6003 0.644687ZM9.1866 4.67389H28.3655V9.02542L16.2779 20.3072L4.51269 8.86425V4.67389H9.1866ZM3.70685 7.73607V8.54191H2.25639L3.70685 7.73607ZM32.556 32.3948H0.80584V9.50893H3.86807L15.9557 21.2742C16.1168 21.4354 16.1168 21.4354 16.2779 21.4354C16.4391 21.4354 16.4391 21.4354 16.6003 21.2742L29.3326 9.50893H32.556V32.3948Z" fill="#136B9F"/>
<path fill-rule="evenodd" clip-rule="evenodd" d="M4.5465 8.83857V5.08361H28.342V8.83857H29.4403V4.61293C29.4403 4.26633 29.1593 3.98535 28.8127 3.98535H4.07582C3.72922 3.98535 3.44824 4.26633 3.44824 4.61293V8.83857H4.5465Z" fill="#DF1E54"/>
</svg>
