<svg width="117" height="117" viewBox="0 0 117 117" fill="none" xmlns="http://www.w3.org/2000/svg">
<path d="M39.463 46.718H94.7264C95.5832 46.718 96.0117 46.2894 96.0117 45.4326C96.0117 44.5758 95.5832 44.1475 94.7264 44.1475H39.463C38.6062 44.1475 38.1778 44.5758 38.1778 45.4326C38.1778 46.2894 39.0346 46.718 39.463 46.718Z" fill="#136B9F"/>
<path d="M39.463 68.5644H94.7264C95.5832 68.5644 96.0117 68.1361 96.0117 67.2793C96.0117 66.4225 95.5832 65.9941 94.7264 65.9941H39.463C38.6062 65.9941 38.1778 66.4225 38.1778 67.2793C38.6062 68.1361 39.0346 68.5644 39.463 68.5644Z" fill="#136B9F"/>
<path d="M39.463 90.842H94.7264C95.5832 90.842 96.0117 90.4137 96.0117 89.5569C96.0117 88.7001 95.5832 88.2715 94.7264 88.2715H39.463C38.6062 88.2715 38.1778 88.7001 38.1778 89.5569C38.6062 89.9853 39.0346 90.842 39.463 90.842Z" fill="#136B9F"/>
<path d="M16.4344 47.574C16.006 47.574 16.0061 47.5741 15.5777 47.1457L12.1504 44.1469C11.722 43.7185 11.722 42.8619 12.1504 42.4335C12.5788 42.0051 13.4357 42.0051 13.8641 42.4335L16.4344 44.5755L29.7148 31.2949C30.1432 30.8665 31 30.8665 31.4284 31.2949C31.8568 31.7233 31.8568 32.5802 31.4284 33.0086L17.2912 47.1457C16.8628 47.5741 16.4344 47.574 16.4344 47.574Z" fill="#DF1E54"/>
<path d="M15.0447 68.994C14.6163 68.994 14.6164 68.9941 14.188 68.5657L10.7608 65.5668C10.3324 65.1384 10.3324 64.2818 10.7608 63.8534C11.1892 63.425 12.0461 63.425 12.4745 63.8534L15.0447 65.9954L28.3251 52.7149C28.7535 52.2865 29.6103 52.2865 30.0387 52.7149C30.4671 53.1433 30.4671 54.0002 30.0387 54.4286L15.9016 68.5657C15.4732 68.9941 15.0447 68.994 15.0447 68.994Z" fill="#DF1E54"/>
<path d="M15.0447 90.4149C14.6163 90.4149 14.6164 90.415 14.188 89.9866L10.7608 86.9877C10.3324 86.5593 10.3324 85.7027 10.7608 85.2743C11.1892 84.8459 12.0461 84.8459 12.4745 85.2743L15.0447 87.4163L28.3251 74.1358C28.7535 73.7074 29.6103 73.7074 30.0387 74.1358C30.4671 74.5642 30.4671 75.4211 30.0387 75.8495L15.9016 89.9866C15.4732 90.415 15.0447 90.4149 15.0447 90.4149Z" fill="#DF1E54"/>
<path d="M115.275 0H58.5769C57.443 0 56.8757 0.566912 56.8757 1.70087V14.1745H2.44565C1.31168 14.1745 0.745117 14.7414 0.745117 15.8754V115.097C0.745117 116.231 1.31168 116.798 2.44565 116.798H101.667C102.801 116.798 103.369 116.231 103.369 115.097V60.0999H114.708C115.842 60.0999 116.409 59.533 116.409 58.399V1.70087C116.976 0.566912 115.842 0 115.275 0ZM100.534 112.829H4.71371V17.0094H59.1438H101.101L100.534 112.829ZM113.574 56.6981H103.369V15.3082C103.369 14.7412 103.369 14.7415 102.802 14.1745C102.235 13.6076 102.234 13.6073 101.667 13.6073H59.7106V2.83491H113.007V56.6981H113.574Z" fill="#136B9F"/>
</svg>
