<svg width="42" height="42" viewBox="0 0 42 42" fill="none" xmlns="http://www.w3.org/2000/svg">
<path fill-rule="evenodd" clip-rule="evenodd" d="M12.5 3H30.5C30.7761 3 31 3.22386 31 3.5V32H12V3.5C12 3.22386 12.2239 3 12.5 3ZM12 33V38.5C12 38.7761 12.2239 39 12.5 39H30.5C30.7761 39 31 38.7761 31 38.5V33H12ZM11 3.5C11 2.67157 11.6716 2 12.5 2H30.5C31.3284 2 32 2.67157 32 3.5V38.5C32 39.3284 31.3284 40 30.5 40H12.5C11.6716 40 11 39.3284 11 38.5V3.5Z" fill="#136B9F"/>
<rect x="20" y="35" width="3" height="2" rx="1" fill="#DD0F49"/>
</svg>
