<svg width="27" height="27" viewBox="0 0 27 27" fill="none" xmlns="http://www.w3.org/2000/svg">
<circle cx="13.5" cy="13.5" r="13.5" fill="#F4F5F9"/>
<path d="M21.6758 20H5.22289C5.14185 20 5.06079 19.9263 5.06079 19.9263C4.97974 19.8526 4.97974 19.7789 5.06079 19.7051L13.3278 5.11057C13.4088 4.96314 13.652 4.96314 13.733 5.11057L22 19.7051C22 19.7789 22 19.8526 22 19.9263C21.8379 20 21.7569 20 21.6758 20ZM5.62814 19.6314H21.3516L13.4899 5.70024L5.62814 19.6314Z" fill="#DD0F49"/>
<path d="M13.4907 15.6515C13.3286 15.6515 13.2476 15.5778 13.2476 15.4304V9.53362C13.2476 9.3862 13.3286 9.3125 13.4907 9.3125C13.6528 9.3125 13.7339 9.3862 13.7339 9.53362V15.4304C13.7339 15.5041 13.5717 15.6515 13.4907 15.6515Z" fill="#DD0F49"/>
<path d="M13.4091 18.0835C12.9228 18.0835 12.5176 17.715 12.5176 17.2727C12.5176 16.8304 12.9228 16.4619 13.4091 16.4619C13.8954 16.4619 14.3006 16.8304 14.3006 17.2727C14.3817 17.715 13.9764 18.0835 13.4091 18.0835ZM13.4091 16.8305C13.166 16.8305 12.9228 17.0516 12.9228 17.2727C12.9228 17.4938 13.166 17.715 13.4091 17.715C13.6522 17.715 13.8954 17.4938 13.8954 17.2727C13.8954 16.9779 13.6522 16.8305 13.4091 16.8305Z" fill="#DD0F49"/>
</svg>
