<svg width="53" height="53" viewBox="0 0 53 53" fill="none" xmlns="http://www.w3.org/2000/svg">
<path d="M5.0691 4.65666C13.473 4.61854 21.8792 4.65162 30.2837 4.6404C30.5186 4.64377 30.6716 4.9342 30.6173 5.14501C30.6156 8.01789 30.6296 10.8919 30.6105 13.7642C30.2825 13.8567 29.9792 14.0182 29.6737 14.1657C29.6602 14.15 29.6338 14.118 29.6204 14.1023C29.5929 11.267 29.6209 8.43111 29.6069 5.59523C21.4228 5.58794 13.2387 5.60027 5.05509 5.58906C4.67944 5.4416 4.65421 4.7845 5.0691 4.65666Z" fill="#136B9F"/>
<path d="M0.585036 8.9233C3.75452 8.8734 6.92736 8.91657 10.098 8.90199C15.2376 8.90368 20.3773 8.89863 25.517 8.90424C26.044 8.86106 26.5313 9.32923 26.5217 9.85738C26.5307 11.9498 26.524 14.0428 26.5251 16.1358C26.5273 16.3012 26.3513 16.3763 26.2487 16.4739C25.9768 16.6673 25.7777 16.9426 25.5215 17.154C25.5064 14.7403 25.526 12.3266 25.5125 9.91289C17.3475 9.91064 9.18182 9.9084 1.01675 9.91401C1.01395 17.8554 1.01339 25.7962 1.01731 33.7375C8.11823 33.7431 15.2197 33.7375 22.3212 33.7403C22.5034 33.6041 22.6105 33.7639 22.6918 33.8699C22.8078 34.1721 22.9598 34.4591 23.1056 34.749C15.6856 34.7484 8.26569 34.7501 0.84631 34.7479C0.361889 34.6537 -0.0518871 34.1945 0.0053015 33.6848C0.00754419 25.6476 0.00361941 17.6109 0.00698345 9.57368C0.0423058 9.26419 0.274424 8.98609 0.585036 8.9233Z" fill="#136B9F"/>
<path d="M4.6207 13.0172C7.50985 12.965 10.4029 13.0065 13.2937 12.9964C13.6969 12.9589 14.2155 13.2616 14.1325 13.7225C14.1364 16.2646 14.1336 18.8067 14.1342 21.3493C14.0882 21.6829 13.7434 21.9537 13.4059 21.9072C10.5089 21.91 7.61133 21.9105 4.71434 21.9066C4.24786 21.9705 3.87165 21.5164 3.9322 21.0684C3.92771 18.6009 3.92996 16.1334 3.93108 13.6664C3.98266 13.3384 4.26972 13.0037 4.6207 13.0172ZM4.77321 13.8369C4.76928 16.1906 4.76928 18.5437 4.77321 20.8974C7.57489 20.9013 10.3771 20.9008 13.1788 20.898C13.1827 18.5443 13.1827 16.1906 13.1788 13.8374C10.3771 13.8335 7.57489 13.8341 4.77321 13.8369Z" fill="#136B9F"/>
<path d="M16.0588 13.0174C18.3873 12.9635 20.7191 13.0129 23.0493 12.9927C23.407 12.9663 23.8348 13.2932 23.6884 13.6857C23.6677 13.9268 23.3778 14.0541 23.1614 14.0025C20.7875 14.0058 18.4131 14.0042 16.0397 14.0036C15.6686 13.9828 15.5413 13.5046 15.6994 13.217C15.7617 13.0796 15.9321 13.0628 16.0588 13.0174Z" fill="#DF1E54"/>
<path d="M35.0672 14.5324C37.7876 14.316 40.5612 15.0006 42.8807 16.4342C46.2352 18.4936 48.5979 22.1447 48.9764 26.0772C49.4552 29.8601 48.1152 33.8397 45.4413 36.5596C45.1021 37.0002 44.5869 37.2924 44.2398 37.7201C47.1071 41.1638 50.0304 44.5665 52.914 47.9984C53.1214 48.263 52.9201 48.5865 52.6987 48.7587C52.5423 48.776 52.2529 48.8125 52.1879 48.609C49.3509 45.2018 46.4494 41.8288 43.5967 38.4266C43.5457 38.3587 43.5126 38.2489 43.4061 38.2808C39.5397 40.9491 34.1763 41.2709 30.0391 39.0332C27.3473 37.64 25.1988 35.2638 24.0337 32.4689C22.969 29.8517 22.7313 26.8823 23.4899 24.1502C24.5266 20.2059 27.5357 16.8603 31.3376 15.3914C32.5291 14.9159 33.7911 14.6502 35.0672 14.5324ZM34.9556 15.3807C33.1088 15.5304 31.3096 16.1376 29.7257 17.0919C27.5441 18.4112 25.8015 20.4341 24.8204 22.7872C23.8257 25.1112 23.6357 27.7447 24.1728 30.2071C24.766 32.8232 26.2254 35.2504 28.324 36.9324C30.3878 38.6419 33.0404 39.6348 35.7215 39.6836C38.2883 39.7672 40.8909 39.0147 42.9895 37.5362C43.0288 37.2391 43.3046 37.0316 43.6096 37.0827C46.8419 34.577 48.6512 30.3546 48.1752 26.2819C48.0087 24.301 47.2803 22.3942 46.2061 20.7318C44.7971 18.6522 42.7484 16.996 40.393 16.1124C38.6695 15.4452 36.7935 15.2198 34.9556 15.3807Z" fill="#136B9F"/>
<path d="M15.8844 17.3208C18.3979 17.3107 20.9125 17.2962 23.4254 17.3281C23.8061 17.4616 23.8156 18.0486 23.4837 18.2544C20.9669 18.2773 18.4489 18.2622 15.9315 18.2616C15.516 18.1658 15.5558 17.5014 15.8844 17.3208Z" fill="#DF1E54"/>
<path d="M15.8365 21.428C18.1263 21.3741 20.4194 21.4179 22.7104 21.4061C22.5663 21.7352 22.4558 22.0783 22.3061 22.4046C20.2557 22.4254 18.2042 22.408 16.1539 22.4136C15.9778 22.4512 15.8236 22.3929 15.6649 22.3402C15.3476 22.1198 15.4098 21.4644 15.8365 21.428Z" fill="#DF1E54"/>
<path d="M5.17817 25.5645C10.6301 25.5415 16.0832 25.5566 21.5352 25.5572C21.5268 25.8739 21.473 26.1868 21.4735 26.5047C16.1303 26.5109 10.7866 26.5036 5.4428 26.5086C5.1591 26.5114 4.86083 26.2541 4.9382 25.9446C4.94212 25.7854 5.07052 25.6676 5.17817 25.5645Z" fill="#DF1E54"/>
<path d="M5.40494 29.8308C10.7779 29.7972 16.1536 29.8168 21.5271 29.8213C21.6016 30.1493 21.6672 30.4862 21.7059 30.8215C16.324 30.821 10.941 30.8333 5.55968 30.8159C5.06012 30.7907 4.91659 29.9889 5.40494 29.8308Z" fill="#DF1E54"/>
</svg>
