<svg width="34" height="34" viewBox="0 0 34 34" fill="none" xmlns="http://www.w3.org/2000/svg">
<path d="M7.88124 7.74062C13.927 7.71884 19.9735 7.73934 26.0197 7.73037C26.2157 7.69407 26.3092 7.96439 26.2738 8.11556C26.2755 11.2471 26.2755 22.9864 26.2725 26.118C26.1559 26.118 25.9255 26.0891 25.8089 26.0891C25.8046 23.0152 25.8083 11.362 25.8036 8.28809C19.9684 8.28638 14.1332 8.28553 8.29804 8.28852C8.29591 14.0383 8.29377 19.7885 8.29932 25.5383C11.0879 25.5425 23.1497 25.5361 25.9383 25.5412C25.8952 25.7086 26.0255 25.9546 25.8871 26.0887C23.0289 26.1015 10.8979 26.0926 8.03968 26.0934C7.84153 26.0934 7.67455 25.9269 7.74245 25.7108C7.73947 19.7885 7.74203 13.8666 7.74117 7.94475C7.72836 7.84866 7.82658 7.80211 7.88124 7.74062Z" fill="#183557"/>
<path d="M10.356 11.9231C14.7652 11.9086 19.1754 11.9193 23.5851 11.918C23.8383 11.8185 24.0659 12.1328 23.9135 12.3314C23.8293 12.4706 23.6363 12.4565 23.4996 12.4702C19.2287 12.4732 14.9583 12.4732 10.6874 12.4702C10.5627 12.4492 10.379 12.4766 10.2932 12.3544C10.1655 12.2297 10.2381 12.0269 10.356 11.9231Z" fill="#183557"/>
<path d="M10.4017 14.2352C14.8101 14.2061 19.2194 14.2313 23.6282 14.2228C23.8814 14.2198 23.9468 14.5717 23.7879 14.7246C23.6137 14.7856 23.4241 14.7758 23.2434 14.7788C19.1147 14.7771 14.9865 14.7771 10.8582 14.7788C10.6891 14.7711 10.5119 14.7916 10.3496 14.7335C10.1813 14.6255 10.1813 14.2954 10.4017 14.2352Z" fill="#183557"/>
<path d="M10.4457 16.4618C14.6388 16.4186 18.835 16.4567 23.0295 16.4426C23.2806 16.452 23.5441 16.4144 23.7875 16.4972C23.8259 16.6036 23.9079 16.7184 23.8507 16.832C23.8332 16.9879 23.6162 17.0165 23.4997 16.9973C19.1583 16.999 14.8169 17.0003 10.476 16.9964C10.1869 16.964 10.1254 16.478 10.4457 16.4618Z" fill="#183557"/>
<path d="M10.3176 18.7666C13.6139 18.7281 16.9125 18.758 20.2097 18.7516C20.2097 18.9348 20.2187 19.1193 20.2084 19.3034C16.9206 19.3063 13.6332 19.3038 10.3453 19.3046C10.1719 19.2952 9.99215 19.0834 10.0797 18.916C10.0904 18.8007 10.2334 18.8033 10.3176 18.7666Z" fill="#183557"/>
<path d="M10.2706 21.0192C12.402 21.0051 14.5338 21.015 16.6652 21.0145C16.6699 21.1841 16.6699 21.3536 16.6648 21.524C14.5334 21.5227 12.4016 21.533 10.2706 21.5189C10.0955 21.3946 10.0955 21.1435 10.2706 21.0192Z" fill="#183557"/>
</svg>
