<svg width="27" height="30" viewBox="0 0 27 30" fill="none" xmlns="http://www.w3.org/2000/svg">
<path d="M14.8199 22.7889C21.1662 22.7889 26.2144 17.5965 26.2144 11.3945C26.2144 5.04821 21.0219 0 14.8199 0C8.4736 0 3.42544 5.19245 3.42544 11.3945C3.42544 17.7408 8.4736 22.7889 14.8199 22.7889ZM14.8199 0.721168C20.7335 0.721168 25.4932 5.48091 25.4932 11.3945C25.4932 17.3081 20.7335 22.0677 14.8199 22.0677C8.90631 22.0677 4.1466 17.3081 4.1466 11.3945C4.1466 5.48091 8.90631 0.721168 14.8199 0.721168Z" fill="#136B9F"/>
<path d="M0.396586 30.0004C0.540819 30.0004 0.685049 30.0005 0.685049 29.8562L8.6179 20.481C8.76213 20.3368 8.76213 20.0483 8.6179 19.9041C8.47367 19.7598 8.18521 19.7598 8.04097 19.9041L0.108123 29.2793C-0.0361109 29.4235 -0.0361109 29.712 0.108123 29.8562C0.252357 30.0005 0.252353 30.0004 0.396586 30.0004Z" fill="#136B9F"/>
<path d="M16.978 2.78718C17.0237 2.60498 17.2087 2.49375 17.3891 2.54623C19.1468 3.05763 20.7137 4.08495 21.8846 5.49879C23.128 7.00008 23.86 8.85887 23.9742 10.8048C24.0883 12.7508 23.5788 14.6824 22.5195 16.3188C21.522 17.8599 20.0859 19.0634 18.4001 19.7769C18.2271 19.8501 18.0304 19.7612 17.9636 19.5856C17.8969 19.4101 17.9854 19.2142 18.1582 19.1405C19.7088 18.4789 21.0296 17.3687 21.9484 15.9492C22.929 14.4343 23.4008 12.6461 23.2951 10.8447C23.1894 9.04323 22.5117 7.32248 21.3607 5.93269C20.2821 4.63035 18.8406 3.68228 17.2233 3.20649C17.0431 3.15348 16.9322 2.96937 16.978 2.78718Z" fill="#136B9F"/>
</svg>
