<svg width="41" height="41" viewBox="0 0 41 41" fill="none" xmlns="http://www.w3.org/2000/svg">
<path d="M22.6001 41H18.2001C17.4001 41 16.6001 40.394 16.6001 39.3841V37.5665C16.6001 36.7586 16.0001 35.9507 15.2001 35.5468C14.6001 35.3448 13.8001 35.1428 13.2001 34.7389C12.4001 34.3349 11.6 34.5369 11 35.1428L9.6001 36.5566C9.0001 37.1625 8.00002 37.1625 7.40002 36.5566L4.40002 33.5271C3.80002 32.9212 3.80002 31.9113 4.40002 31.3053L5.80005 29.8917C6.40005 29.2857 6.60007 28.2758 6.20007 27.6699C5.80007 27.064 5.60002 26.4581 5.40002 25.6502C5.20002 24.8423 4.40002 24.2364 3.40002 24.2364H1.6001C0.800098 24.2364 0 23.6305 0 22.6207V18.1773C0 17.3694 0.600098 16.5616 1.6001 16.5616H3.6001C4.4001 16.5616 5.2001 15.9556 5.6001 15.1477C5.8001 14.5418 6.00002 13.936 6.40002 13.3301C6.80002 12.5222 6.6 11.7143 6 11.1083L4.6001 9.69466C4.4001 9.49269 4.20007 9.08875 4.20007 8.68481C4.20007 8.28087 4.4001 7.87693 4.6001 7.67496L7.6001 4.64541C8.2001 4.0395 9.20005 4.0395 9.80005 4.64541L11.2001 6.0591C11.8001 6.66501 12.8 6.867 13.4 6.46306C14 6.05912 14.6 5.85723 15.4 5.65526C16.2 5.45329 16.8 4.64541 16.8 3.63556V1.61586C16.8 0.807978 17.4 0 18.4 0H22.8C23.6 0 24.4 0.606008 24.4 1.61586V3.63556C24.4 4.44344 25 5.25132 25.8 5.65526C26.4 5.85723 27.0001 6.05912 27.6001 6.46306C28.4001 6.867 29.2 6.66501 29.8 6.0591L31.2001 4.64541C31.8001 4.0395 32.8 4.0395 33.4 4.64541L36.4 7.67496C36.6 7.87693 36.8 8.28087 36.8 8.68481C36.8 9.08875 36.6 9.49269 36.4 9.69466L35 11.1083C34.4 11.7143 34.2001 12.7242 34.6001 13.3301C35.0001 13.936 35.2 14.5418 35.4 15.1477C35.6 15.9556 36.4 16.5616 37.4 16.5616H39.4C40.2 16.5616 41 17.1674 41 18.1773V22.6207C41 23.4285 40.4 24.2364 39.4 24.2364H37.6001C36.8001 24.2364 36.0001 24.8423 35.6001 25.6502C35.4001 26.2561 35.2001 27.064 34.8 27.6699C34.4 28.4778 34.6001 29.2857 35.2001 29.8917L36.6001 31.3053C37.2001 31.9113 37.2001 32.9212 36.6001 33.5271L33.6001 36.5566C33.0001 37.1625 32 37.1625 31.4 36.5566L30 35.1428C29.4 34.5369 28.4 34.3349 27.8 34.7389C27.2 35.1428 26.6 35.3448 25.8 35.5468C25 35.7488 24.4 36.5566 24.4 37.5665V39.3841C24 40.394 23.4001 41 22.6001 41ZM12.4 33.5271C12.8 33.5271 13.4 33.7291 13.8 33.9311C14.4 34.133 15.0001 34.5369 15.6001 34.7389C17.0001 35.1428 17.8 36.3546 17.8 37.7684V39.5862C17.8 39.7882 18.0001 39.9902 18.2001 39.9902H22.6001C22.8001 39.9902 23 39.7882 23 39.5862V37.7684C23 36.3546 23.8001 35.1428 25.2001 34.7389C25.8001 34.5369 26.4 34.335 27 33.9311C28.2 33.3251 29.6001 33.5271 30.6001 34.5369L32 35.9508C32.2 36.1527 32.4001 36.1527 32.6001 35.9508L35.6001 32.9212L35.8 32.7192C35.8 32.5172 35.8001 32.5172 35.6001 32.5172L34.2001 31.1034C33.2001 30.0936 33.0001 28.6798 33.6001 27.468C33.8001 26.8621 34.2 26.2561 34.4 25.6502C34.8 24.4384 36 23.4286 37.4 23.4286H39.2001C39.4001 23.4286 39.6001 23.2266 39.6001 23.0246V18.5813C39.6001 18.3793 39.4001 18.1773 39.2001 18.1773H37.2001C35.8001 18.1773 34.6001 17.3695 34.2001 15.9557C34.0001 15.3498 33.8 14.7438 33.4 14.1379C32.8 12.9261 33 11.5123 34 10.5025L35.4 9.08865L35.6001 8.88673C35.6001 8.68476 35.6 8.68481 35.4 8.68481L32.4 5.65526C32.2 5.45329 32 5.45329 31.8 5.65526L30.4 7.06895C29.4 8.0788 28 8.28087 26.8 7.67496C26.2 7.47299 25.6 7.069 25 6.86703C23.8 6.46309 22.8 5.25127 22.8 3.83748V1.81778C22.8 1.61581 22.6 1.41381 22.4 1.41381H18C17.8 1.41381 17.6001 1.61581 17.6001 1.81778V3.83748C17.6001 5.25127 16.8 6.46309 15.4 6.86703C14.8 7.069 14.2001 7.27102 13.6001 7.67496C12.4001 8.28087 11 8.0788 10 7.06895L8.6001 5.65526C8.4001 5.45329 8.2 5.45329 8 5.65526L5 8.68481L4.80005 8.88673C4.80005 9.0887 4.8 9.08865 5 9.08865L6.40002 10.5025C7.40002 11.5123 7.6 12.9261 7 14.1379C6.8 14.7438 6.40007 15.3498 6.20007 15.9557C5.80007 17.1675 4.60007 18.1773 3.20007 18.1773H1.20007C1.00007 18.1773 0.800049 18.3793 0.800049 18.5813V23.0246C0.800049 23.2266 1.00007 23.4286 1.20007 23.4286H3C4.4 23.4286 5.6 24.2364 6 25.6502C6.2 26.2561 6.40005 26.8621 6.80005 27.468C7.40005 28.6798 7.20007 30.0936 6.20007 31.1034L4.80005 32.5172L4.6001 32.7192C4.6001 32.9211 4.60005 32.9212 4.80005 32.9212L7.80005 35.9508C8.00005 36.1527 8.20002 36.1527 8.40002 35.9508L9.80005 34.5369C10.8 33.7291 11.6 33.5271 12.4 33.5271Z" fill="#136B9F"/>
<path d="M20.5 32.087C14.1984 32.087 8.91309 27.005 8.91309 20.5C8.91309 14.1984 13.9951 8.91309 20.5 8.91309C26.8017 8.91309 32.087 13.9951 32.087 20.5C31.8837 27.005 26.8017 32.087 20.5 32.087ZM20.5 10.3361C14.8082 10.3361 10.1328 15.0114 10.1328 20.7033C10.1328 26.3951 14.8082 31.0706 20.5 31.0706C26.1919 31.0706 30.8674 26.3951 30.8674 20.7033C30.8674 15.0114 26.1919 10.3361 20.5 10.3361Z" fill="#136B9F"/>
</svg>
