<svg width="34" height="34" viewBox="0 0 34 34" fill="none" xmlns="http://www.w3.org/2000/svg">
<path d="M18.2293 29H15.6537C15.1854 29 14.7171 28.6453 14.7171 28.0541V26.9901C14.7171 26.5172 14.3659 26.0443 13.8976 25.8079C13.5464 25.6896 13.0781 25.5714 12.7269 25.3349C12.2586 25.0985 11.7902 25.2167 11.439 25.5714L10.6196 26.399C10.2683 26.7537 9.68294 26.7537 9.33172 26.399L7.57562 24.6256C7.2244 24.2709 7.2244 23.6798 7.57562 23.3251L8.39515 22.4976C8.74637 22.1429 8.86346 21.5517 8.62931 21.197C8.39516 20.8423 8.27806 20.4877 8.16099 20.0148C8.04392 19.5419 7.57562 19.1872 6.99026 19.1872H5.93664C5.46835 19.1872 5 18.8325 5 18.2414V15.6404C5 15.1675 5.35128 14.6946 5.93664 14.6946H7.10737C7.57567 14.6946 8.04396 14.3399 8.27811 13.867C8.39518 13.5123 8.51221 13.1577 8.74636 12.803C8.9805 12.3301 8.86341 11.8571 8.5122 11.5024L7.69274 10.6749C7.57567 10.5567 7.45858 10.3202 7.45858 10.0838C7.45858 9.84734 7.57567 9.61088 7.69274 9.49266L9.44884 7.71926C9.80006 7.36458 10.3854 7.36458 10.7366 7.71926L11.5561 8.54679C11.9074 8.90147 12.4927 9.01971 12.8439 8.78326C13.1951 8.5468 13.5464 8.42862 14.0146 8.31039C14.4829 8.19217 14.8342 7.71926 14.8342 7.12813V5.94587C14.8342 5.47296 15.1854 5 15.7707 5H18.3464C18.8147 5 19.2829 5.35474 19.2829 5.94587V7.12813C19.2829 7.60104 19.6342 8.07394 20.1025 8.31039C20.4537 8.42862 20.8049 8.5468 21.1562 8.78326C21.6244 9.01971 22.0927 8.90147 22.4439 8.54679L23.2635 7.71926C23.6147 7.36458 24.2 7.36458 24.5512 7.71926L26.3073 9.49266C26.4244 9.61088 26.5415 9.84734 26.5415 10.0838C26.5415 10.3202 26.4244 10.5567 26.3073 10.6749L25.4878 11.5024C25.1366 11.8571 25.0196 12.4483 25.2537 12.803C25.4879 13.1577 25.6049 13.5123 25.722 13.867C25.839 14.3399 26.3073 14.6946 26.8927 14.6946H28.0634C28.5317 14.6946 29 15.0492 29 15.6404V18.2414C29 18.7143 28.6488 19.1872 28.0634 19.1872H27.0098C26.5415 19.1872 26.0732 19.5419 25.8391 20.0148C25.722 20.3694 25.6049 20.8423 25.3708 21.197C25.1366 21.6699 25.2537 22.1429 25.6049 22.4976L26.4244 23.3251C26.7757 23.6798 26.7757 24.2709 26.4244 24.6256L24.6683 26.399C24.3171 26.7537 23.7317 26.7537 23.3805 26.399L22.561 25.5714C22.2098 25.2167 21.6244 25.0985 21.2732 25.3349C20.922 25.5714 20.5708 25.6896 20.1025 25.8079C19.6342 25.9261 19.2829 26.399 19.2829 26.9901V28.0541C19.0488 28.6453 18.6976 29 18.2293 29ZM12.2586 24.6256C12.4927 24.6256 12.8439 24.7439 13.0781 24.8621C13.4293 24.9803 13.7805 25.2167 14.1318 25.3349C14.9513 25.5714 15.4195 26.2808 15.4195 27.1083V28.1724C15.4195 28.2906 15.5366 28.4089 15.6537 28.4089H18.2293C18.3464 28.4089 18.4634 28.2906 18.4634 28.1724V27.1083C18.4634 26.2808 18.9317 25.5714 19.7513 25.3349C20.1025 25.2167 20.4537 25.0985 20.8049 24.8621C21.5073 24.5074 22.3269 24.6256 22.9123 25.2167L23.7317 26.0443C23.8488 26.1626 23.9659 26.1626 24.083 26.0443L25.8391 24.2709L25.9561 24.1527C25.9561 24.0345 25.9562 24.0345 25.8391 24.0345L25.0196 23.2069C24.4342 22.6157 24.3171 21.7882 24.6683 21.0788C24.7854 20.7241 25.0195 20.3694 25.1366 20.0148C25.3707 19.3054 26.0732 18.7143 26.8927 18.7143H27.9464C28.0635 18.7143 28.1805 18.5961 28.1805 18.4778V15.8768C28.1805 15.7586 28.0635 15.6404 27.9464 15.6404H26.7757C25.9561 15.6404 25.2537 15.1675 25.0196 14.3399C24.9025 13.9852 24.7854 13.6305 24.5512 13.2758C24.2 12.5665 24.3171 11.7389 24.9024 11.1478L25.722 10.3202L25.8391 10.202C25.8391 10.0838 25.839 10.0838 25.722 10.0838L23.9659 8.31039C23.8488 8.19217 23.7317 8.19217 23.6147 8.31039L22.7951 9.13792C22.2098 9.72905 21.3903 9.84734 20.6878 9.49266C20.3366 9.37443 19.9854 9.13795 19.6341 9.01972C18.9317 8.78327 18.3464 8.07391 18.3464 7.24633V6.06407C18.3464 5.94584 18.2293 5.8276 18.1122 5.8276H15.5366C15.4195 5.8276 15.3025 5.94584 15.3025 6.06407V7.24633C15.3025 8.07391 14.8342 8.78327 14.0146 9.01972C13.6634 9.13795 13.3123 9.25621 12.961 9.49266C12.2586 9.84734 11.439 9.72905 10.8537 9.13792L10.0342 8.31039C9.91713 8.19217 9.8 8.19217 9.68293 8.31039L7.92683 10.0838L7.80978 10.202C7.80978 10.3202 7.80976 10.3202 7.92683 10.3202L8.74636 11.1478C9.33172 11.7389 9.44878 12.5665 9.09756 13.2758C8.98049 13.6305 8.74638 13.9852 8.62931 14.3399C8.39516 15.0493 7.69273 15.6404 6.87321 15.6404H5.70248C5.58541 15.6404 5.46832 15.7586 5.46832 15.8768V18.4778C5.46832 18.5961 5.58541 18.7143 5.70248 18.7143H6.7561C7.57561 18.7143 8.27805 19.1872 8.5122 20.0148C8.62927 20.3694 8.74637 20.7241 8.98052 21.0788C9.33174 21.7882 9.21468 22.6157 8.62931 23.2069L7.80978 24.0345L7.69274 24.1527C7.69274 24.2709 7.69271 24.2709 7.80978 24.2709L9.56588 26.0443C9.68296 26.1626 9.80001 26.1626 9.91709 26.0443L10.7366 25.2167C11.322 24.7438 11.7903 24.6256 12.2586 24.6256Z" fill="#183557"/>
<path d="M16.9999 23.7825C13.3111 23.7825 10.2173 20.8077 10.2173 16.9999C10.2173 13.3111 13.1921 10.2173 16.9999 10.2173C20.6887 10.2173 23.7825 13.1921 23.7825 16.9999C23.6635 20.8077 20.6887 23.7825 16.9999 23.7825ZM16.9999 11.0502C13.6681 11.0502 10.9313 13.7871 10.9313 17.1189C10.9313 20.4507 13.6681 23.1875 16.9999 23.1875C20.3317 23.1875 23.0686 20.4507 23.0686 17.1189C23.0686 13.7871 20.3317 11.0502 16.9999 11.0502Z" fill="#183557"/>
</svg>
