<svg width="23" height="23" viewBox="0 0 23 23" fill="none" xmlns="http://www.w3.org/2000/svg">
<path d="M12.6781 23H10.2098C9.76102 23 9.31225 22.66 9.31225 22.0935V21.0739C9.31225 20.6207 8.97565 20.1675 8.52687 19.9409C8.19028 19.8276 7.7415 19.7143 7.40492 19.4877C6.95614 19.2611 6.50732 19.3744 6.17073 19.7143L5.38542 20.5074C5.04884 20.8473 4.48782 20.8473 4.15123 20.5074L2.46831 18.8079C2.13172 18.468 2.13172 17.9014 2.46831 17.5615L3.25369 16.7685C3.59027 16.4286 3.70248 15.862 3.47809 15.5221C3.2537 15.1822 3.14148 14.8423 3.02928 14.3891C2.91709 13.9359 2.46831 13.596 1.90733 13.596H0.897616C0.448835 13.596 0 13.2561 0 12.6896V10.197C0 9.74382 0.33664 9.29063 0.897616 9.29063H2.01957C2.46835 9.29063 2.91713 8.95072 3.14152 8.49752C3.25371 8.15762 3.36587 7.81776 3.59026 7.47786C3.81465 7.02465 3.70244 6.57141 3.36585 6.23151L2.58054 5.43847C2.46835 5.32517 2.35614 5.09857 2.35614 4.87196C2.35614 4.64536 2.46835 4.41876 2.58054 4.30546L4.26347 2.60596C4.60005 2.26606 5.161 2.26606 5.49759 2.60596L6.28297 3.39901C6.61955 3.73891 7.1805 3.85222 7.51709 3.62562C7.85367 3.39902 8.19026 3.28576 8.63904 3.17246C9.08782 3.05916 9.42442 2.60596 9.42442 2.03946V0.906457C9.42442 0.453256 9.76099 0 10.322 0H12.7903C13.2391 0 13.6878 0.339956 13.6878 0.906457V2.03946C13.6878 2.49266 14.0244 2.94586 14.4732 3.17246C14.8098 3.28576 15.1464 3.39902 15.483 3.62562C15.9318 3.85222 16.3805 3.73891 16.7171 3.39901L17.5025 2.60596C17.8391 2.26606 18.4 2.26606 18.7366 2.60596L20.4195 4.30546C20.5317 4.41876 20.6439 4.64536 20.6439 4.87196C20.6439 5.09857 20.5317 5.32517 20.4195 5.43847L19.6341 6.23151C19.2976 6.57141 19.1854 7.13796 19.4098 7.47786C19.6342 7.81776 19.7464 8.15762 19.8586 8.49752C19.9707 8.95072 20.4195 9.29063 20.9805 9.29063H22.1025C22.5512 9.29063 23 9.63052 23 10.197V12.6896C23 13.1428 22.6634 13.596 22.1025 13.596H21.0927C20.644 13.596 20.1952 13.9359 19.9708 14.3891C19.8586 14.729 19.7464 15.1822 19.522 15.5221C19.2976 15.9753 19.4098 16.4286 19.7464 16.7685L20.5318 17.5615C20.8683 17.9014 20.8683 18.468 20.5318 18.8079L18.8488 20.5074C18.5122 20.8473 17.9512 20.8473 17.6146 20.5074L16.8293 19.7143C16.4927 19.3744 15.9317 19.2611 15.5951 19.4877C15.2586 19.7143 14.922 19.8276 14.4732 19.9409C14.0244 20.0542 13.6878 20.5074 13.6878 21.0739V22.0935C13.4634 22.66 13.1269 23 12.6781 23ZM6.95611 18.8079C7.1805 18.8079 7.5171 18.9212 7.74149 19.0345C8.07808 19.1478 8.41469 19.3744 8.75127 19.4877C9.53664 19.7143 9.98539 20.3941 9.98539 21.1872V22.2069C9.98539 22.3202 10.0976 22.4335 10.2098 22.4335H12.6781C12.7903 22.4335 12.9024 22.3202 12.9024 22.2069V21.1872C12.9024 20.3941 13.3513 19.7143 14.1366 19.4877C14.4732 19.3744 14.8098 19.2611 15.1463 19.0345C15.8195 18.6946 16.6049 18.8079 17.1659 19.3744L17.9512 20.1675C18.0634 20.2808 18.1757 20.2808 18.2879 20.1675L19.9708 18.468L20.083 18.3546C20.083 18.2413 20.083 18.2414 19.9708 18.2414L19.1854 17.4483C18.6244 16.8818 18.5122 16.0887 18.8488 15.4089C18.961 15.069 19.1854 14.729 19.2976 14.3891C19.522 13.7093 20.1951 13.1429 20.9805 13.1429H21.9903C22.1025 13.1429 22.2147 13.0296 22.2147 12.9163V10.4236C22.2147 10.3103 22.1025 10.197 21.9903 10.197H20.8683C20.083 10.197 19.4098 9.74385 19.1854 8.95074C19.0732 8.61084 18.961 8.27092 18.7366 7.93102C18.4 7.25121 18.5122 6.45813 19.0732 5.89162L19.8586 5.09851L19.9708 4.98524C19.9708 4.87194 19.9707 4.87196 19.8586 4.87196L18.1756 3.17246C18.0634 3.05916 17.9512 3.05916 17.8391 3.17246L17.0537 3.96551C16.4927 4.53201 15.7073 4.64536 15.0342 4.30546C14.6976 4.19216 14.361 3.96554 14.0244 3.85224C13.3512 3.62563 12.7903 2.94583 12.7903 2.15273V1.01973C12.7903 0.906429 12.6781 0.793115 12.5659 0.793115H10.0976C9.98537 0.793115 9.87323 0.906429 9.87323 1.01973V2.15273C9.87323 2.94583 9.4244 3.62563 8.63904 3.85224C8.30245 3.96554 7.96591 4.07886 7.62932 4.30546C6.95615 4.64536 6.17073 4.53201 5.60976 3.96551L4.82445 3.17246C4.71225 3.05916 4.6 3.05916 4.4878 3.17246L2.80488 4.87196L2.69271 4.98524C2.69271 5.09854 2.69268 5.09851 2.80488 5.09851L3.59026 5.89162C4.15123 6.45813 4.26341 7.25121 3.92683 7.93102C3.81463 8.27092 3.59029 8.61084 3.47809 8.95074C3.2537 9.63055 2.58053 10.197 1.79516 10.197H0.673212C0.561017 10.197 0.448808 10.3103 0.448808 10.4236V12.9163C0.448808 13.0296 0.561017 13.1429 0.673212 13.1429H1.68293C2.46829 13.1429 3.14146 13.596 3.36585 14.3891C3.47805 14.729 3.59027 15.069 3.81466 15.4089C4.15125 16.0887 4.03907 16.8818 3.47809 17.4483L2.69271 18.2414L2.58054 18.3546C2.58054 18.4679 2.58052 18.468 2.69271 18.468L4.37564 20.1675C4.48783 20.2808 4.60001 20.2808 4.71221 20.1675L5.49759 19.3744C6.05856 18.9212 6.50733 18.8079 6.95611 18.8079Z" fill="#183557"/>
<path d="M11.5 18C7.96492 18 5 15.1491 5 11.5C5 7.96492 7.85088 5 11.5 5C15.0351 5 18 7.85088 18 11.5C17.886 15.1491 15.0351 18 11.5 18ZM11.5 5.79826C8.30702 5.79826 5.68425 8.42103 5.68425 11.614C5.68425 14.807 8.30702 17.4298 11.5 17.4298C14.693 17.4298 17.3158 14.807 17.3158 11.614C17.3158 8.42103 14.693 5.79826 11.5 5.79826Z" fill="#183557"/>
</svg>
