<svg width="119" height="41" viewBox="0 0 119 41" fill="none" xmlns="http://www.w3.org/2000/svg">
<path d="M113.36 0.777344H4.8C2.14903 0.777344 0 2.92638 0 5.57734V35.9773C0 38.6283 2.14903 40.7773 4.8 40.7773H113.36C116.011 40.7773 118.16 38.6283 118.16 35.9773V5.57734C118.16 2.92638 116.011 0.777344 113.36 0.777344Z" fill="white"/>
<path fill-rule="evenodd" clip-rule="evenodd" d="M26.3902 20.8212C26.3644 17.96 28.733 16.568 28.8413 16.5032C27.4999 14.5475 25.4208 14.2803 24.6901 14.259C22.9439 14.0752 21.2501 15.3039 20.3606 15.3039C19.4533 15.3039 18.0835 14.2767 16.6071 14.3069C14.7073 14.3362 12.9301 15.4361 11.9553 17.1442C9.94366 20.6268 11.444 25.7447 13.3713 28.5598C14.3354 29.9394 15.4619 31.4778 16.9365 31.4237C18.3791 31.3651 18.918 30.504 20.6588 30.504C22.3837 30.504 22.8898 31.4237 24.3936 31.3882C25.9419 31.3651 26.9166 30.0042 27.847 28.6122C28.9611 27.0337 29.4085 25.4757 29.4263 25.3958C29.3908 25.3843 26.4204 24.2506 26.3902 20.8212Z" fill="#183557"/>
<path fill-rule="evenodd" clip-rule="evenodd" d="M23.5494 12.4074C24.3253 11.4371 24.8561 10.117 24.7088 8.77734C23.5858 8.82706 22.1813 9.55413 21.3726 10.5031C20.6571 11.3394 20.0179 12.7101 20.183 13.9991C21.4445 14.0932 22.7397 13.3626 23.5494 12.4074Z" fill="#183557"/>
<path fill-rule="evenodd" clip-rule="evenodd" d="M47.2864 26.7664H45.2703L44.166 23.2961H40.3273L39.2753 26.7664H37.3125L41.1165 14.9521H43.4655L47.2864 26.7664ZM43.833 21.8402L42.8343 18.7562C42.7287 18.4401 42.5298 17.698 42.2386 16.5297H42.2031C42.086 17.0322 41.8986 17.7743 41.6421 18.7562L40.6602 21.8402H43.833Z" fill="#183557"/>
<path fill-rule="evenodd" clip-rule="evenodd" d="M57.0496 22.4027C57.0496 23.8515 56.6563 24.9967 55.8689 25.8374C55.164 26.5858 54.2878 26.9596 53.2429 26.9596C52.1146 26.9596 51.3032 26.5574 50.8105 25.7504V30.2203H48.9178V21.048C48.9178 20.1381 48.8938 19.205 48.8477 18.248H50.5122L50.6178 19.5992H50.6533C51.2845 18.5809 52.2424 18.0723 53.5279 18.0723C54.5328 18.0723 55.3718 18.4691 56.0429 19.2636C56.7132 20.0599 57.0496 21.1057 57.0496 22.4027ZM55.1214 22.472C55.1214 21.6428 54.935 20.9592 54.5604 20.4213C54.1511 19.8611 53.6016 19.5797 52.9127 19.5797C52.4457 19.5797 52.0214 19.7359 51.6423 20.0449C51.2623 20.3547 51.0138 20.7604 50.8975 21.2637C50.8389 21.4972 50.8096 21.6881 50.8096 21.839V23.2612C50.8096 23.8791 50.9996 24.4019 51.3795 24.8298C51.7595 25.256 52.2531 25.4699 52.8603 25.4699C53.5732 25.4699 54.128 25.1938 54.5248 24.6461C54.9226 24.0966 55.1214 23.3722 55.1214 22.472Z" fill="#183557"/>
<path fill-rule="evenodd" clip-rule="evenodd" d="M66.8479 22.4027C66.8479 23.8515 66.4546 24.9967 65.6672 25.8374C64.9614 26.5858 64.0861 26.9596 63.0403 26.9596C61.9128 26.9596 61.1014 26.5574 60.6078 25.7504V30.2203H58.7152V21.048C58.7152 20.1381 58.6912 19.205 58.645 18.248H60.3096L60.4152 19.5992H60.4507C61.081 18.5809 62.0389 18.0723 63.3253 18.0723C64.3293 18.0723 65.1691 18.4691 65.8412 19.2636C66.5105 20.0599 66.8479 21.1057 66.8479 22.4027ZM64.9188 22.472C64.9188 21.6428 64.7315 20.9592 64.3568 20.4213C63.9485 19.8611 63.3998 19.5797 62.7109 19.5797C62.244 19.5797 61.8196 19.7359 61.4388 20.0449C61.0597 20.3547 60.8111 20.7604 60.6948 21.2637C60.6371 21.4972 60.6061 21.6881 60.6061 21.839V23.2612C60.6061 23.8791 60.7969 24.4019 61.1751 24.8298C61.5551 25.2551 62.0487 25.4699 62.6577 25.4699C63.3714 25.4699 63.9263 25.1938 64.3222 24.6461C64.7199 24.0966 64.9188 23.3722 64.9188 22.472Z" fill="#183557"/>
<path fill-rule="evenodd" clip-rule="evenodd" d="M77.8031 23.4534C77.8031 24.4583 77.4524 25.2759 76.7529 25.9071C75.9841 26.596 74.9108 26.9413 73.5348 26.9413C72.2635 26.9413 71.2444 26.6963 70.4756 26.2054L70.9132 24.6279C71.7433 25.1188 72.655 25.3647 73.6475 25.3647C74.3613 25.3647 74.9161 25.2031 75.3121 24.8826C75.7098 24.5604 75.9095 24.1316 75.9095 23.5954C75.9095 23.1151 75.7444 22.7121 75.4177 22.3845C75.0901 22.0587 74.5486 21.7533 73.7887 21.4746C71.7202 20.7031 70.6851 19.5739 70.6851 18.0904C70.6851 17.121 71.0508 16.3274 71.7797 15.7068C72.5094 15.0872 73.4771 14.7773 74.6809 14.7773C75.7559 14.7773 76.6517 14.9647 77.3628 15.3384L76.8878 16.8813C76.2185 16.5191 75.463 16.338 74.6178 16.338C73.9503 16.338 73.4256 16.5022 73.0518 16.8289C72.7367 17.121 72.576 17.477 72.576 17.8996C72.576 18.3656 72.758 18.7527 73.1211 19.0554C73.4354 19.336 74.0088 19.6405 74.838 19.9672C75.8554 20.3773 76.602 20.8549 77.0814 21.4035C77.5634 21.9522 77.8031 22.6366 77.8031 23.4534Z" fill="#183557"/>
<path fill-rule="evenodd" clip-rule="evenodd" d="M84.0768 19.6678H81.9906V23.8039C81.9906 24.8559 82.3581 25.3805 83.0949 25.3805C83.4332 25.3805 83.7137 25.3521 83.9356 25.2927L83.988 26.7299C83.6152 26.8693 83.1242 26.9394 82.517 26.9394C81.7686 26.9394 81.1854 26.7104 80.7628 26.255C80.342 25.7987 80.1316 25.0343 80.1316 23.9584V19.6643H78.8896V18.2439H80.1316V16.6841L81.9906 16.123V18.2439H84.0768V19.6678Z" fill="#183557"/>
<path fill-rule="evenodd" clip-rule="evenodd" d="M93.4709 22.4366C93.4709 23.7461 93.0972 24.8211 92.3488 25.6618C91.5667 26.5265 90.5263 26.9589 89.2293 26.9589C87.9775 26.9589 86.9824 26.5443 86.2402 25.7151C85.498 24.886 85.127 23.8402 85.127 22.5787C85.127 21.2586 85.5114 20.1773 86.2748 19.3366C87.0401 18.4959 88.0716 18.0742 89.3686 18.0742C90.6195 18.0742 91.6226 18.4906 92.3835 19.3188C93.1096 20.124 93.4709 21.1618 93.4709 22.4366ZM91.509 22.4801C91.509 21.6998 91.3403 21.0304 91.0021 20.4703C90.6053 19.7938 90.0362 19.4565 89.3012 19.4565C88.5439 19.4565 87.9607 19.7938 87.5656 20.4703C87.2256 21.0304 87.0578 21.7113 87.0578 22.5156C87.0578 23.2969 87.2256 23.968 87.5656 24.5255C87.9749 25.2029 88.5457 25.5411 89.2861 25.5411C90.0087 25.5411 90.576 25.1949 90.987 24.5095C91.3341 23.9361 91.509 23.2623 91.509 22.4801Z" fill="#183557"/>
<path fill-rule="evenodd" clip-rule="evenodd" d="M99.6254 19.9126C99.4381 19.878 99.2375 19.8611 99.0289 19.8611C98.363 19.8611 97.8481 20.1105 97.4859 20.6148C97.1708 21.0587 97.0137 21.6197 97.0137 22.2971V26.7669H95.121V20.9308C95.121 19.9499 95.1023 19.0541 95.0659 18.2489H96.7145L96.7837 19.8788H96.8361C97.0367 19.3187 97.351 18.8668 97.7824 18.5295C98.205 18.2241 98.6595 18.0723 99.1505 18.0723C99.3254 18.0723 99.4834 18.0856 99.6236 18.1069L99.6254 19.9126Z" fill="#183557"/>
<path fill-rule="evenodd" clip-rule="evenodd" d="M108.09 22.1041C108.09 22.4432 108.068 22.7291 108.021 22.9625H102.344C102.364 23.8041 102.64 24.4486 103.167 24.8925C103.645 25.2885 104.265 25.4873 105.024 25.4873C105.865 25.4873 106.632 25.3542 107.321 25.0843L107.618 26.3982C106.812 26.7488 105.859 26.9246 104.762 26.9246C103.441 26.9246 102.404 26.5358 101.65 25.7599C100.898 24.9831 100.52 23.9382 100.52 22.6314C100.52 21.3477 100.869 20.278 101.572 19.4248C102.307 18.514 103.301 18.0586 104.551 18.0586C105.779 18.0586 106.708 18.514 107.338 19.4248C107.839 20.1466 108.09 21.0414 108.09 22.1041ZM106.285 21.6132C106.299 21.0512 106.175 20.5683 105.918 20.1581C105.59 19.6308 105.086 19.368 104.411 19.368C103.791 19.368 103.288 19.6246 102.904 20.1395C102.589 20.5487 102.402 21.0414 102.344 21.6114L106.285 21.6132Z" fill="#183557"/>
</svg>
