<svg width="90" height="78" viewBox="0 0 90 78" fill="none" xmlns="http://www.w3.org/2000/svg">
<path d="M80.1155 0.063053C80.8506 -0.210765 81.3576 0.465147 81.7251 0.978248C83.722 3.01339 85.5919 5.16076 87.5678 7.2144C88.1524 8.09506 89.1034 8.6612 89.6498 9.56653C90.0346 10.3584 89.2502 11.4635 88.3424 11.2489C79.838 11.2662 71.3311 11.2329 62.8279 11.2649C61.4095 14.272 59.9553 17.2692 58.5135 20.2677C58.4185 20.8819 57.819 21.1668 57.2652 21.2408C56.5548 21.0459 56.2526 20.0345 56.7053 19.4672C58.247 16.1554 59.811 12.8511 61.3293 9.53076C61.5538 9.25694 61.9288 9.02876 62.3161 9.1595C70.3777 9.1447 78.4393 9.16814 86.5021 9.1484C84.7976 7.12066 82.94 5.22243 81.1886 3.23417C80.6397 2.52002 79.8146 1.98595 79.4618 1.13243C79.4569 0.690862 79.653 0.198729 80.1155 0.063053Z" fill="#136B9F"/>
<path d="M17.7036 8.82185C26.118 8.73551 34.5361 8.81445 42.9517 8.78238C43.3784 8.83049 43.8878 8.67261 44.2739 8.94273C45.2088 10.8422 46.2955 12.6652 47.3414 14.503C49.6676 18.7817 52.0999 23.0061 54.4249 27.2861C53.6454 27.2787 52.8671 27.3169 52.0913 27.2775C49.2976 22.1502 46.4102 17.0796 43.598 11.9646C43.2637 11.523 43.1404 10.5893 42.3362 10.8841C34.2771 10.8817 26.2167 10.8817 18.1575 10.8841C17.7665 10.8595 17.2016 10.746 17.1609 10.2687C16.9883 9.74692 17.1005 8.99823 17.7036 8.82185Z" fill="#136B9F"/>
<path d="M43.6115 23.8726C43.9026 23.8664 44.486 23.8528 44.7771 23.8467C46.3916 26.4344 47.8458 29.1553 49.5159 31.7085C53.6589 31.7529 57.8044 31.7122 61.9487 31.727C62.4902 31.727 62.8294 32.3314 62.6826 32.8358C62.7036 38.2135 62.6604 43.5937 62.7023 48.9701C62.7356 49.0034 62.8035 49.0688 62.838 49.1009C65.7859 49.1515 68.7362 49.091 71.6841 49.1256C72.2034 49.2205 71.9875 49.8829 71.9468 50.227C71.916 52.8998 71.953 55.5726 71.9332 58.2467C71.9937 58.5748 71.9135 58.9658 71.6643 59.2026C71.1056 59.3185 70.5308 59.3753 69.9647 59.358C67.4572 59.3592 64.9496 59.3469 62.4433 59.3604C62.4335 64.9096 62.4433 70.46 62.4396 76.0091C62.3533 76.5148 62.341 77.3104 61.6589 77.3116C54.6864 77.4325 47.7065 77.3289 40.7315 77.3634C27.5746 77.3609 14.4178 77.3683 1.26093 77.3597C0.545546 77.5533 -0.161203 76.8466 0.0324437 76.1312C0.0225763 61.699 0.033677 47.2668 0.0275099 32.8346C0.0262765 32.2586 0.427138 31.4926 1.13759 31.7294C11.2121 31.7257 21.2867 31.7245 31.3612 31.7307C31.7239 31.7603 32.0199 31.4951 32.3159 31.3261C36.0667 28.8198 39.8693 26.3925 43.6115 23.8726ZM43.8582 26.3431C38.2437 30.1001 32.66 33.8953 27.0529 37.6634C26.1883 38.2666 25.188 38.7476 24.4344 39.4876C33.6541 39.5061 42.8752 39.5012 52.095 39.4889C51.0342 37.6239 49.8538 35.7985 48.7413 33.9521C48.5625 33.5685 48.1838 33.344 47.9963 32.969C46.6753 30.755 45.3506 28.5435 44.0185 26.3369C43.9778 26.3382 43.8977 26.3406 43.8582 26.3431ZM2.13172 33.7041C2.11939 47.5566 2.12432 61.4079 2.12925 75.2604C21.5321 75.2715 40.9338 75.2678 60.3367 75.2629C60.3478 70.0443 60.3453 64.8257 60.3379 59.6071C52.3219 59.5923 44.3059 59.6108 36.29 59.5985C35.8595 59.7144 35.4747 59.4986 35.2009 59.205C35.1564 56.1301 35.191 53.0552 35.1824 49.9803C34.9887 49.6362 35.2786 49.0849 35.672 49.1182C43.894 49.1157 52.1159 49.1231 60.3379 49.1145C60.3478 46.6094 60.3453 44.1043 60.3391 41.5992C44.0592 41.5857 27.7782 41.6029 11.4983 41.5906C10.5473 41.8509 9.87141 40.6421 10.4277 39.9021C10.6707 39.5012 11.2232 39.5407 11.6216 39.5024C14.4869 39.463 17.3558 39.5518 20.2198 39.4617C23.143 37.6424 25.9983 35.7097 28.8722 33.8139L28.9006 33.7091C19.978 33.6918 11.0543 33.7004 2.13172 33.7041ZM50.4558 33.7128C51.5523 35.6517 52.7474 37.5364 53.818 39.4901C56.1134 39.5061 58.4113 39.4975 60.7079 39.4938C60.7104 37.6128 60.7313 35.7306 60.6956 33.8509C60.6635 33.8176 60.5969 33.751 60.5636 33.7177C57.1964 33.6819 53.8242 33.698 50.4558 33.7128ZM37.532 51.0953C37.5123 53.2711 37.5246 55.4481 37.5295 57.6238C48.4206 57.6324 59.3117 57.6312 70.2028 57.625C70.2213 55.448 70.2089 53.2723 70.2052 51.0966C59.3141 51.0879 48.4231 51.0892 37.532 51.0953Z" fill="#DF1E54"/>
<path d="M79.9863 33.4763C80.4069 33.422 80.9632 33.3504 81.2234 33.7895C82.0387 34.6603 82.9625 35.43 83.6865 36.3834C85.6242 38.2335 87.3597 40.2687 89.3011 42.1151C89.6402 42.5221 90.1755 42.9427 89.9437 43.5619C89.845 44.0466 89.3085 44.3057 88.8361 44.1811C81.9302 44.1848 75.023 44.1922 68.1184 44.1774C68.1134 43.3991 68.09 42.622 68.1221 41.845C74.2509 41.8253 80.3797 41.8623 86.5086 41.829C84.5524 39.7975 82.5234 37.8339 80.5401 35.8284C80.1503 35.3905 79.5583 35.06 79.4744 34.4322C79.4831 34.051 79.6903 33.7094 79.9863 33.4763Z" fill="#136B9F"/>
</svg>
