<svg width="90" height="61" viewBox="0 0 90 61" fill="none" xmlns="http://www.w3.org/2000/svg">
<path d="M0.696512 0.0771398C5.39813 -0.00270366 10.1047 0.065496 14.808 0.04304C29.7787 0.0455351 44.7502 0.0380499 59.7208 0.0463669C60.0119 0.0721497 60.4718 0.0771397 60.6415 0.370731C59.6094 0.845633 58.5797 1.32553 57.5293 1.75635C52.8277 1.8337 48.1219 1.76716 43.4186 1.78962C29.5633 1.7971 15.7079 1.77465 1.85258 1.80043C1.83012 1.82372 1.78438 1.86946 1.76109 1.89192C1.73697 5.37758 1.75361 8.86408 1.75361 12.3498C10.8998 12.3581 20.0469 12.3464 29.1932 12.3556C29.1965 12.8247 29.2098 13.2946 29.1923 13.7636C20.1276 13.7695 11.0629 13.7645 1.99896 13.7661C1.75777 13.7187 1.6064 14.0597 1.75028 14.2643C1.75278 29.0129 1.74529 43.7607 1.75444 58.5093C20.9368 58.5126 40.1192 58.5159 59.3016 58.5076C59.3116 54.1536 59.295 49.7997 59.3091 45.4465C59.8115 45.6961 60.3479 45.9497 60.7887 46.3049C60.8145 50.732 60.7995 55.16 60.7962 59.588C60.7039 60.0679 60.2789 60.329 59.804 60.255C40.2581 60.2642 20.7131 60.2534 1.16726 60.2608C0.790494 60.2999 0.33888 60.2434 0.110161 59.9049C0.0228325 59.5314 -0.00877185 59.143 0.00204029 58.7621C0.00703051 39.4383 0.00120848 20.1137 0.0045353 0.790741C0.0461204 0.40899 0.316424 0.118725 0.696512 0.0771398Z" fill="#DF1E54"/>
<path d="M68.0646 0.0726158L68.4539 0.0418428C68.9612 -0.162756 69.3829 0.42609 69.2822 0.873546C69.2889 15.5681 69.2814 30.2618 69.2864 44.9555C69.422 45.6666 68.7075 46.4376 67.9773 46.1764C59.2353 41.2245 50.4966 36.2625 41.7504 31.3189C38.8128 31.3081 35.8752 31.318 32.9377 31.3155C32.6449 31.3081 32.2964 31.1949 32.2232 30.8731C32.1875 30.4107 32.0785 29.9515 32.1059 29.4858C32.1084 24.3559 32.1084 19.2267 32.1059 14.0976C32.1084 13.6194 32.1043 13.0131 32.5443 12.7078C32.9185 12.6205 33.3019 12.5881 33.687 12.5997C36.5963 12.5972 39.5056 12.6114 42.4141 12.5939C50.9798 8.45036 59.5106 4.23862 68.0646 0.0726158ZM67.7827 2.12775C59.5214 6.14072 51.2917 10.2161 43.0137 14.1991C42.9871 19.3498 43.0104 24.5014 43.0029 29.6521C42.7601 30.0281 43.1335 30.1196 43.3314 30.2418C51.488 34.7771 59.6228 39.3515 67.7852 43.8734C67.7877 29.9582 67.7927 16.043 67.7827 2.12775ZM33.6097 14.3505C33.5989 19.4222 33.6047 24.4939 33.6072 29.5648C36.1272 29.5706 38.6473 29.5698 41.1682 29.5656C41.1782 24.4939 41.1732 19.4222 41.1707 14.3513C38.6506 14.3455 36.1297 14.3463 33.6097 14.3505Z" fill="#136B9F"/>
<path d="M81.2031 2.22882C81.7271 2.02922 82.1388 2.40016 82.449 2.76361C86.1775 6.83563 88.7392 11.993 89.6174 17.454C90.3319 21.8104 90.0549 26.3357 88.7134 30.5475C87.5307 34.3692 85.5288 37.928 82.9214 40.9579C82.6977 41.2557 82.4249 41.5143 82.1546 41.7688C81.8053 41.832 81.3927 41.9959 81.1124 41.6915C80.6217 41.4004 80.5843 40.6585 81.0085 40.2942C85.2992 35.7673 87.9341 29.6659 88.1827 23.419C88.6918 16.1515 85.9105 8.75187 80.8704 3.51214C80.6134 3.09795 80.6958 2.40681 81.2031 2.22882Z" fill="#136B9F"/>
<path d="M13.7523 4.73779C15.345 4.70453 16.7664 6.37043 16.3081 7.94567C16.0852 9.28305 14.6988 10.1405 13.3988 10.0116C12.7152 9.89103 11.9716 9.6174 11.5882 9.00277C10.7066 7.74357 11.0942 5.67928 12.5605 5.03055C12.9189 4.78936 13.3481 4.81764 13.7523 4.73779ZM13.4213 6.22904C13.0387 6.3172 12.6777 6.61578 12.6253 7.02082C12.3758 7.7785 13.1576 8.71417 13.971 8.52454C14.4202 8.37566 14.8077 8.00306 14.8934 7.52899C15.0406 6.73638 14.1723 6.03276 13.4213 6.22904Z" fill="#136B9F"/>
<path d="M20.4068 4.73409C22.0835 4.63844 23.5614 6.45654 23.0067 8.08169C22.7164 9.30513 21.4431 10.1086 20.2197 10.0112C19.6474 9.90562 19.0361 9.72098 18.6511 9.25772C17.5424 8.27132 17.584 6.32513 18.7326 5.38198C19.175 4.93869 19.8071 4.79979 20.4068 4.73409ZM20.1548 6.21868C19.6807 6.44989 19.3938 6.94226 19.299 7.44461C19.3863 8.08751 20.0367 8.67885 20.7079 8.52416C21.2834 8.34118 21.8182 7.71574 21.5795 7.08448C21.4206 6.49563 20.7569 6.07147 20.1548 6.21868Z" fill="#136B9F"/>
<path d="M6.1035 4.81876C6.92938 4.67487 7.83927 4.78299 8.47469 5.37683C8.76745 5.73113 9.13173 6.06465 9.22655 6.53539C9.73389 7.86944 8.90468 9.5212 7.51573 9.88799C6.62498 10.1941 5.57703 9.92541 4.91084 9.27252C4.11407 8.55643 3.91612 7.328 4.31368 6.35491C4.61475 5.59889 5.30091 4.98842 6.1035 4.81876ZM6.43618 6.23016C5.67601 6.32913 5.29675 7.33715 5.74337 7.94263C6.08188 8.55144 6.94269 8.73774 7.48662 8.27282C7.70786 7.92933 8.058 7.52761 7.85174 7.08515C7.65879 6.52541 7.05414 6.04469 6.43618 6.23016Z" fill="#136B9F"/>
<path d="M74.5499 9.79656C74.8734 9.70175 75.2435 9.84148 75.4639 10.0818C78.1595 13.0302 79.8503 16.9134 80.0142 20.9181C80.3835 25.6663 78.5188 30.4636 75.3741 33.9933C75.1828 34.2661 74.8235 34.2362 74.5308 34.2228C73.991 33.995 73.8571 33.2606 74.1923 32.8114C75.6552 31.1896 76.8546 29.3075 77.6222 27.254C78.9904 23.6635 78.9388 19.5491 77.4459 16.0044C76.6924 14.1555 75.5463 12.4855 74.1349 11.0807C73.8405 10.6316 74.0501 9.97871 74.5499 9.79656Z" fill="#136B9F"/>
<path d="M29.1482 21.2845L29.1848 21.2305C29.1989 22.4265 29.2097 23.6249 29.1873 24.8209C28.4704 26.3762 27.6029 27.855 26.8677 29.402C26.283 30.3692 25.8713 31.4296 25.2974 32.4027C22.6468 37.5917 19.9304 42.75 17.2906 47.9423C26.332 47.9572 35.3727 47.9464 44.4141 47.9481C43.4793 46.1574 42.5677 44.3543 41.672 42.5429C40.4502 40.0619 39.1428 37.6267 37.9276 35.1415C38.504 35.1399 39.0812 35.1257 39.6584 35.1523C40.3729 36.7359 41.257 38.2305 42.0047 39.7982C42.9894 41.7744 44.034 43.7181 45.0021 45.7042C45.6167 46.7005 46.0101 47.8192 46.6406 48.8064C46.8477 49.3229 46.2214 49.7961 45.7481 49.693C35.9058 49.6963 26.0634 49.698 16.221 49.6922C15.8418 49.7845 15.5798 49.4726 15.233 49.4202C15.2321 49.199 15.2305 48.7582 15.2305 48.5378C19.7691 39.582 24.3592 30.6528 28.8978 21.6962C28.9868 21.5623 29.065 21.4218 29.1482 21.2845Z" fill="#DF1E54"/>
<path d="M30.1156 35.1432C30.6953 35.1357 31.275 35.1332 31.8555 35.144C31.8638 36.8066 31.8522 38.4692 31.8613 40.1317C31.927 40.6482 31.3681 41.1015 30.8658 40.9618C30.4799 40.748 30.0283 40.3854 30.1148 39.8814C30.1098 38.302 30.1064 36.7226 30.1156 35.1432Z" fill="#136B9F"/>
<path d="M30.6386 41.5833C31.2474 41.4452 31.8787 41.6681 32.3669 42.0308C33.1171 42.7236 33.2618 43.9902 32.6405 44.8178C32.3394 45.3493 31.6957 45.6029 31.1102 45.6196C30.1387 45.7493 29.159 45.034 28.996 44.0651C28.6966 42.9598 29.4667 41.6923 30.6386 41.5833ZM30.7941 43.6326C30.4972 43.8272 30.8473 44.3911 31.1343 44.1483C31.4636 43.9686 31.0453 43.5536 30.7941 43.6326Z" fill="#136B9F"/>
</svg>
