<svg width="94" height="90" viewBox="0 0 94 90" fill="none" xmlns="http://www.w3.org/2000/svg">
<path d="M10.2033 0.0653557C26.3915 -0.045553 42.5852 0.0544024 58.7762 0.0146943C59.3911 -0.0387061 60.3018 0.0215405 60.5154 0.743132C60.614 8.12062 60.5181 15.5008 60.5619 22.8797C65.0989 22.7784 69.5702 24.9116 72.6117 28.2211C75.8326 31.7811 77.4212 36.798 76.6406 41.5534C75.971 46.9893 72.2995 51.9432 67.2435 54.0738C66.9984 54.1751 66.7176 54.2436 66.5642 54.4805C71.8257 55.5731 76.4407 59.1523 79.0577 63.816C79.4535 64.5499 80.3614 65.6097 79.5 66.3326C79.0824 66.9501 78.2634 66.4641 77.9895 65.9794C74.9781 59.7425 68.1596 55.6046 61.2398 55.7415C57.9915 55.6334 54.7815 56.5644 51.9358 58.0884C51.3018 58.5266 50.5088 58.7812 50.0172 59.3919C50.0912 59.4316 50.2404 59.5111 50.3158 59.5508C49.4585 59.3892 49.0285 60.1998 48.4095 60.5886C44.6846 63.9419 42.2538 68.7932 42.0648 73.8196C42.0772 78.5203 42.0525 83.2195 42.0758 87.9201C51.2456 87.9365 60.4168 87.9092 69.588 87.9324C70.6123 88.2159 69.8879 89.9548 68.9101 89.5646C59.554 89.5591 50.198 89.5879 40.8419 89.5509C40.2681 89.4934 39.8641 88.9169 40.0189 88.3364C40.0052 83.5426 40.0175 78.7503 40.0134 73.9566C40.1942 69.3162 41.8567 64.7019 44.8558 61.1309C45.3049 60.6188 45.7377 60.0943 46.1992 59.5932C31.3544 59.5645 16.5096 59.5891 1.66479 59.5809C0.695224 59.4001 -0.151094 58.4102 0.0228253 57.3928C0.0310419 41.5534 0.0214556 25.714 0.0269334 9.87598C0.0967752 8.90793 1.07182 8.43554 1.94142 8.51359C17.9188 8.49716 33.8961 8.51769 49.8748 8.504C50.6198 8.35886 51.2908 8.7354 51.9235 9.05991C52.4617 9.86229 52.4617 10.8673 52.4781 11.7929C52.4589 15.8911 52.5041 19.9906 52.4548 24.0887C51.8797 24.5748 51.11 24.7829 50.4308 25.0938C50.402 20.2507 50.4363 15.4091 50.4157 10.5661C34.2604 10.562 18.1036 10.5524 1.9469 10.5716C1.94279 26.2672 1.9332 41.9642 1.95238 57.6598C17.0587 57.6708 32.1665 57.6598 47.2728 57.6639C47.5878 57.6201 47.7028 57.9802 47.9562 58.087C49.4694 56.815 51.2429 55.8976 53.0355 55.0829C53.6832 54.9008 54.2735 54.5188 54.9595 54.4832C54.3515 54.0532 53.5709 53.8917 52.9245 53.5151C50.9498 52.3787 49.1011 50.9656 47.733 49.1281C43.9013 44.4329 43.1919 37.4635 45.8993 32.0577C48.2356 27.1531 53.1889 23.5109 58.6297 23.0043C58.6434 16.0294 58.6447 9.05307 58.6297 2.07677C42.6085 2.06719 26.5887 2.07404 10.5676 2.07404C10.295 2.08088 10.0403 1.97408 9.78424 1.89603C9.20222 1.36477 9.35697 0.200911 10.2033 0.0653557ZM59.2322 25.5634C56.6645 25.7702 54.2666 26.8861 52.1714 28.3334C50.0624 29.9765 48.3972 32.1919 47.4563 34.699C45.509 39.7269 46.7894 45.7529 50.5239 49.6196C51.9166 50.9738 53.5134 52.1555 55.3046 52.9318C59.6307 54.8858 64.8962 54.3052 68.8224 51.6954C71.0724 50.2084 72.8582 48.0655 73.9647 45.6105C75.8614 41.3412 75.5081 36.1545 73.0335 32.1851C72.2009 30.7446 70.9506 29.5986 69.7249 28.5018C66.8148 26.1508 62.9338 25.1088 59.2322 25.5634Z" fill="#DF1E54"/>
<path d="M8.6927 16.7634C14.6128 16.6744 20.5357 16.7442 26.4572 16.7278C27.298 16.5348 28.1512 17.3878 27.9581 18.2285C27.9608 23.2482 27.9731 28.2664 27.9526 33.2861C27.8745 33.7817 27.372 33.9953 26.9967 34.2445C21.0191 34.2582 15.0401 34.2473 9.06108 34.25C8.25585 34.1788 7.71629 33.3942 7.8368 32.6083C7.82584 27.8146 7.82858 23.0222 7.83543 18.2285C7.67657 17.585 8.13807 16.9976 8.6927 16.7634ZM9.4815 18.3709C9.46781 23.0236 9.47329 27.6763 9.47876 32.3276C14.999 32.3372 20.5179 32.3358 26.0381 32.329C26.0518 27.6763 26.0463 23.0236 26.0409 18.3723C20.5206 18.3627 15.0017 18.3641 9.4815 18.3709Z" fill="#136B9F"/>
<path d="M31.4269 16.7648C35.9763 16.6662 40.5297 16.7566 45.0803 16.7196C45.4802 16.8086 45.9691 16.6128 46.3608 16.8045C47.0948 17.0866 47.0482 18.3929 46.2718 18.5996C41.4938 18.6982 36.7103 18.6092 31.9309 18.6448C31.5598 18.6818 31.2366 18.4545 30.9942 18.1984C30.9723 17.7575 30.8203 16.9223 31.4269 16.7648Z" fill="#136B9F"/>
<path d="M31.7047 25.1332C36.0212 24.9963 40.3486 25.1182 44.6692 25.073C45.1992 25.1688 45.825 24.9004 46.3167 25.2058C47.189 25.4249 47.0603 27.0625 46.1304 27.0707C41.8126 27.2104 37.4865 27.0858 33.1659 27.1323C32.4551 27.0844 31.5266 27.3089 30.9953 26.6887C30.8625 26.0739 30.8748 25.1524 31.7047 25.1332Z" fill="#136B9F"/>
<path d="M31.1535 33.3321C34.8386 33.2403 38.5293 33.3074 42.2172 33.2992C41.968 33.9414 41.7133 34.6014 41.3599 35.1943C38.4006 35.2299 35.4398 35.1943 32.4805 35.2107C31.9464 35.1135 31.248 35.386 30.8084 34.9683C30.4509 34.4809 30.4838 33.5334 31.1535 33.3321Z" fill="#136B9F"/>
<path d="M10.4744 41.4095C20.3166 41.3191 30.1643 41.3889 40.0092 41.3752C40.0092 41.886 40.0092 42.9074 40.0092 43.4181C30.3327 43.4264 20.6549 43.4277 10.9797 43.4181C10.3511 43.3935 9.70065 42.8636 9.75132 42.1981C9.85266 41.8394 10.117 41.5327 10.4744 41.4095Z" fill="#136B9F"/>
<path d="M10.6073 49.888C20.9069 49.8236 31.2092 49.8702 41.5102 49.8647C41.869 50.485 42.0922 51.1723 42.488 51.7721C31.9419 51.7762 21.3944 51.7844 10.8497 51.768C9.99923 51.6091 9.86776 50.2851 10.6073 49.888Z" fill="#136B9F"/>
<path d="M92.7743 70.4379C93.5056 70.2106 94.3766 71.0062 93.8274 71.762C91.2926 74.9071 88.5236 77.8757 85.9161 80.9674C83.7154 83.469 81.5394 85.9925 79.3524 88.5065C78.9484 88.894 78.6334 89.3554 78.3116 89.81C77.9651 89.8456 77.6214 89.8538 77.2777 89.8346C75.6987 86.9455 74.0526 84.092 72.4709 81.207C72.056 80.0582 73.8376 79.5051 74.2484 80.5334C75.5809 82.7365 76.8203 84.9971 78.1021 87.2303C82.7048 81.993 87.2678 76.5954 91.8732 71.317C92.1307 70.9856 92.3525 70.5817 92.7743 70.4379Z" fill="#136B9F"/>
</svg>
