<svg width="22" height="20" viewBox="0 0 22 20" fill="none" xmlns="http://www.w3.org/2000/svg">
<path fill-rule="evenodd" clip-rule="evenodd" d="M10.1931 0.580678C10.463 0.277495 9.98781 -0.182709 9.68864 0.0760325C9.00817 0.752118 8.33404 1.4346 7.6599 2.11709C7.21048 2.57208 6.76106 3.02707 6.30976 3.48017C6.19635 3.58287 6.22763 3.76459 6.27163 3.89396C6.58785 4.21337 6.90377 4.53303 7.21966 4.85265C8.0318 5.67439 8.84376 6.49595 9.66029 7.3129C9.86169 7.51832 10.2303 7.36327 10.2655 7.08675C10.2996 6.92992 10.1796 6.80549 10.0806 6.70272C10.0773 6.69936 10.0741 6.69603 10.0709 6.69271C9.72855 6.35012 9.38832 6.00522 9.04806 5.6603C8.55658 5.16207 8.06506 4.66381 7.56706 4.17245L7.52795 4.06085C9.12253 4.07277 10.7175 4.07103 12.3125 4.06929C13.3619 4.06814 14.4114 4.067 15.4609 4.06974C17.163 4.08159 18.8388 4.89337 19.9133 6.22757C20.8763 7.385 21.3554 8.92955 21.2527 10.4336C21.1569 11.7698 20.5937 13.0655 19.6777 14.0343C19.653 14.0685 19.6215 14.1004 19.5898 14.1327C19.5171 14.2065 19.4429 14.2819 19.445 14.3898C19.3775 14.692 19.7686 14.9389 20.0091 14.7473C20.9447 13.8308 21.6037 12.623 21.8598 11.3303C21.9019 11.1746 21.917 11.0142 21.9322 10.8539C21.9466 10.7011 21.961 10.5485 21.9987 10.4V9.70182C21.9087 8.60266 21.6272 7.50449 21.0405 6.56334C19.9006 4.60006 17.7008 3.33993 15.4511 3.33203C14.6933 3.33203 13.9355 3.33235 13.1776 3.33268C11.2829 3.33348 9.38809 3.33429 7.49276 3.33006C7.8795 2.92912 8.27324 2.5345 8.66695 2.13992C9.18093 1.62478 9.69487 1.10969 10.1931 0.580678ZM2.1294 6.16842C2.41293 5.88795 2.01208 5.38035 1.67673 5.60452C0.665804 6.6701 0.132965 8.1317 0 9.58638V10.4001C0.104612 11.5842 0.46049 12.7584 1.14096 13.7371C2.32396 15.5335 4.41523 16.6623 6.55049 16.6662C7.55593 16.6673 8.56136 16.6663 9.5668 16.6653C11.4592 16.6634 13.3516 16.6615 15.2441 16.6731C14.911 17.0121 14.5758 17.3489 14.2405 17.6857C13.6615 18.2674 13.0825 18.849 12.5154 19.4413C12.2924 19.7771 12.792 20.1918 13.0707 19.9025C13.7732 19.2003 14.4714 18.4939 15.1695 17.7876C15.5819 17.3704 15.9943 16.9531 16.4075 16.5369C16.5532 16.3966 16.5258 16.1458 16.3762 16.0184C15.8358 15.4792 15.2993 14.9361 14.7629 14.393C14.1948 13.818 13.6268 13.2429 13.0541 12.6725C12.748 12.394 12.2778 12.8523 12.5349 13.1791C12.9491 13.6035 13.3669 14.024 13.7846 14.4446C14.274 14.9372 14.7634 15.4299 15.247 15.9285C13.556 15.9245 11.8649 15.9252 10.1739 15.9258C8.9661 15.9263 7.7583 15.9268 6.55049 15.9256C4.93731 15.9186 3.3388 15.2036 2.26432 13.985C1.1566 12.7861 0.601277 11.0954 0.755751 9.4659C0.855475 8.25613 1.35801 7.09574 2.1294 6.16842Z" fill="#136B9F"/>
</svg>
