<svg width="32" height="32" viewBox="0 0 32 32" fill="none" xmlns="http://www.w3.org/2000/svg">
<path d="M27.6325 27.9998H16.8481C16.603 27.9998 16.4805 27.8784 16.4805 27.6357V12.8299C16.4805 12.5872 16.603 12.4658 16.8481 12.4658H27.6325C27.8776 12.4658 28.0001 12.5872 28.0001 12.8299V27.6357C28.0001 27.7571 27.8776 27.9998 27.6325 27.9998ZM17.2158 27.2716H27.2648V13.194H17.2158V27.2716Z" fill="#136B9F"/>
<path d="M27.6325 10.767H16.8481C16.603 10.767 16.4805 10.6456 16.4805 10.4029V3.36406C16.4805 3.12134 16.603 3 16.8481 3H27.6325C27.8776 3 28.0001 3.12134 28.0001 3.36406V10.4029C28.0001 10.6456 27.8776 10.767 27.6325 10.767ZM17.2158 10.1602H27.2648V3.84953H17.2158V10.1602Z" fill="#136B9F"/>
<path d="M14.152 18.5339H3.36763C3.12253 18.5339 3 18.4126 3 18.1699V3.36406C3 3.12134 3.12253 3 3.36763 3H14.152C14.3971 3 14.5196 3.12134 14.5196 3.36406V18.1699C14.5196 18.4126 14.3971 18.5339 14.152 18.5339ZM3.73534 17.9271H13.7843V3.84953H3.73534V17.9271Z" fill="#136B9F"/>
<path d="M14.152 28.0003H3.36763C3.12253 28.0003 3 27.879 3 27.6363V20.5975C3 20.3547 3.12253 20.2334 3.36763 20.2334H14.152C14.3971 20.2334 14.5196 20.3547 14.5196 20.5975V27.6363C14.5196 27.7576 14.3971 28.0003 14.152 28.0003ZM3.73534 27.2722H13.7843V20.9615H3.73534V27.2722Z" fill="#136B9F"/>
</svg>
