<svg width="196" height="222" viewBox="0 0 196 222" fill="none" xmlns="http://www.w3.org/2000/svg">
<path d="M93.2382 16.9619H107.518C110.624 17.1055 113.655 18.6925 115.334 21.3443C117.012 23.7688 117.323 26.935 116.466 29.7223C112.502 43.0649 108.463 56.3836 104.499 69.7262C107.291 69.79 110.106 70.5158 112.383 72.1866C114.863 73.9133 116.578 76.577 117.403 79.464C129.657 120.289 141.899 161.119 154.149 201.948C155.649 207.036 157.252 212.101 158.691 217.209C159.257 219.055 157.798 220.965 155.924 221.129H155.286C153.36 220.778 152.638 218.868 152.259 217.193C150.03 209.704 147.769 202.227 145.524 194.742C138.091 194.73 130.658 194.734 123.225 194.742C125.418 202.132 127.679 209.505 129.861 216.898C130.59 218.788 129.199 220.933 127.209 221.129H126.678C125.028 220.937 124.035 219.482 123.716 217.966C114.086 185.766 104.404 153.582 94.7535 121.386C94.3348 119.823 93.6449 118.3 93.5732 116.665C93.617 114.571 96.0973 113.12 97.9516 114.089C99.8577 115.062 99.9055 117.482 100.587 119.261C108.016 119.253 115.445 119.261 122.874 119.257C121.195 113.614 119.501 107.976 117.806 102.337C113.125 102.329 108.443 102.337 103.762 102.337C102.677 102.341 101.469 102.209 100.715 101.34C99.5825 100.164 99.6463 98.0942 100.871 97.0056C101.728 96.1323 103.036 96.1602 104.172 96.1443C108.096 96.1563 112.024 96.1563 115.948 96.1483C114.496 91.2914 113.037 86.4384 111.581 81.5855C111.047 79.7392 110.034 77.9248 108.311 76.9518C106.621 75.8871 104.547 75.939 102.625 75.931C88.6245 122.558 74.6399 169.19 60.6473 215.821C60.0013 217.867 59.6823 220.865 56.9906 221.129H56.4483C55.4713 220.881 54.4784 220.391 54.0398 219.434C53.4576 218.413 53.7766 217.221 54.0757 216.172C56.241 209.034 58.3783 201.884 60.5197 194.742C52.7717 194.734 45.0277 194.73 37.2798 194.742C34.8912 202.682 32.5225 210.629 30.118 218.565C29.8069 219.884 28.7343 220.845 27.4263 221.129H27.0036C25.9469 220.981 24.8623 220.491 24.3718 219.486C23.5424 217.962 24.4117 216.26 24.8104 214.748C43.652 151.999 62.4537 89.2417 81.2952 26.4963C82.7069 21.1689 87.7393 17.1892 93.2382 16.9619ZM90.2475 24.2194C88.5328 25.2163 87.5638 27.0546 87.0295 28.9009C82.9541 42.5226 78.8508 56.1364 74.7715 69.7581C82.5234 69.7502 90.2714 69.7821 98.0234 69.7422C102.019 56.3757 106.035 43.0131 110.054 29.6506C110.473 28.1951 111.155 26.5482 110.353 25.0967C109.751 23.8127 108.331 23.1308 106.952 23.1547C103.092 23.1148 99.2316 23.1667 95.3756 23.1348C93.621 23.1228 91.7588 23.2305 90.2475 24.2194ZM72.9292 75.939C70.8915 82.6701 68.8817 89.4092 66.86 96.1483C74.6 96.1602 82.344 96.1443 90.084 96.1563C92.1057 89.4212 94.1314 82.6821 96.1492 75.9469C93.298 75.939 90.4469 75.943 87.5957 75.943C88.481 79.0214 89.4779 82.064 90.3153 85.1544C90.7938 86.6577 89.9125 88.3604 88.4451 88.8948C86.862 89.5607 84.92 88.5638 84.4455 86.9329C83.2851 83.2882 82.2483 79.5996 81.1158 75.943C78.3883 75.939 75.6567 75.9469 72.9292 75.939ZM65.0018 102.337C63.307 107.976 61.6123 113.614 59.9295 119.257C67.6775 119.253 75.4255 119.265 83.1694 119.249C84.8522 113.61 86.5549 107.976 88.2337 102.337C80.4897 102.337 72.7458 102.333 65.0018 102.337ZM58.0593 125.449C56.3885 131.084 54.6818 136.71 53.003 142.341C60.751 142.345 68.4989 142.361 76.2469 142.333C77.9257 136.698 79.6284 131.072 81.3072 125.437C73.5552 125.445 65.8073 125.425 58.0593 125.449ZM102.434 125.441C104.116 131.076 105.819 136.702 107.494 142.337C114.931 142.357 122.368 142.349 129.805 142.341C128.126 136.706 126.419 131.084 124.748 125.449C117.312 125.425 109.871 125.441 102.434 125.441ZM51.1448 148.546C49.446 154.176 47.7593 159.811 46.0765 165.449C53.8324 165.429 61.5884 165.493 69.3443 165.417C70.9792 159.779 72.7139 154.172 74.3767 148.546C66.6327 148.538 58.8887 148.542 51.1448 148.546ZM109.364 148.546C111.051 154.18 112.738 159.815 114.436 165.449C121.869 165.453 129.298 165.449 136.731 165.449C135.049 159.811 133.358 154.176 131.663 148.546C124.23 148.542 116.797 148.542 109.364 148.546ZM44.2502 171.618C42.4876 177.241 40.8527 182.899 39.142 188.538C46.886 188.546 54.63 188.538 62.3739 188.542C64.0767 182.907 65.7634 177.269 67.4502 171.634C59.7142 171.622 51.9822 171.654 44.2502 171.618ZM116.295 171.634C117.977 177.273 119.668 182.907 121.363 188.538C128.796 188.542 136.229 188.546 143.662 188.538C141.971 182.903 140.292 177.265 138.59 171.634C131.157 171.634 123.724 171.63 116.295 171.634Z" fill="#DF1E54"/>
<path fill-rule="evenodd" clip-rule="evenodd" d="M193.173 0H2.82695C0.942336 0 0 0.942336 0 2.82695V164.254C0 166.139 0.942336 167.081 2.82695 167.081H34.2131L35.9503 161.427H4.71154V44.2884H71.9419L73.679 38.6347H4.71154V4.71154H190.346V38.6347H118.96L117.003 44.2884H190.346V161.427H146.756L148.314 167.081H193.173C195.058 167.081 196 166.139 196 164.254V2.82695C195.058 0.942336 194.115 0 193.173 0ZM101.667 167.081L99.6936 161.427H82.0273L80.5576 167.081H101.667ZM20.731 31.0962C25.4426 31.0962 29.2117 27.327 29.2117 22.6155C29.2117 17.9039 25.4426 14.1346 20.731 14.1346C16.0195 14.1346 12.2503 17.9039 12.2503 22.6155C12.2503 27.327 16.0195 31.0962 20.731 31.0962ZM20.731 18.8461C22.6156 18.8461 24.5002 20.7308 24.5002 22.6155C24.5002 24.5001 22.6156 26.3846 20.731 26.3846C18.8464 26.3846 16.9618 24.5001 16.9618 22.6155C16.9618 20.7308 18.8464 18.8461 20.731 18.8461ZM51.8259 22.6155C51.8259 27.327 48.0566 31.0962 43.345 31.0962C37.6912 31.0962 33.922 27.327 34.8643 22.6155C34.8643 17.9039 38.6335 14.1346 43.345 14.1346C48.0566 14.1346 51.8259 17.9039 51.8259 22.6155ZM47.1143 22.6155C47.1143 20.7308 45.2296 18.8461 43.345 18.8461C41.4604 18.8461 39.5758 20.7308 39.5758 22.6155C39.5758 24.5001 41.4604 26.3846 43.345 26.3846C45.2296 26.3846 47.1143 24.5001 47.1143 22.6155ZM73.5 22.6155C73.5 27.327 69.7307 31.0962 65.0192 31.0962C60.3076 31.0962 56.5385 27.327 56.5385 22.6155C56.5385 17.9039 60.3076 14.1346 65.0192 14.1346C69.7307 14.1346 73.5 17.9039 73.5 22.6155ZM68.7885 22.6155C68.7885 20.7308 66.9038 18.8461 65.0192 18.8461C63.1347 18.8461 62.1924 20.7306 61.2502 22.6152C61.2502 24.4998 63.1346 26.3846 65.0192 26.3846C66.9038 26.3846 68.7885 24.5001 68.7885 22.6155Z" fill="#136B9F"/>
</svg>
