<svg width="84" height="84" viewBox="0 0 84 84" fill="none" xmlns="http://www.w3.org/2000/svg">
<circle cx="42" cy="42" r="42" fill="white"/>
<path d="M35.672 13.6412C36.4275 13.5963 37.1838 13.5659 37.94 13.541C37.94 14.0754 37.94 14.6104 37.94 15.1447C37.1831 15.1648 36.4268 15.2035 35.6706 15.2422C35.6685 14.7085 35.6685 14.1749 35.672 13.6412Z" fill="#183557"/>
<path d="M37.9493 13.5395C38.7062 13.5146 39.4631 13.5001 40.22 13.5021C40.218 14.0358 40.2194 14.5694 40.22 15.1024C39.4631 15.1052 38.7062 15.1231 37.9493 15.1418C37.9493 14.6075 37.9486 14.0738 37.9493 13.5395Z" fill="#183557"/>
<path d="M40.2288 13.5016C40.9857 13.4961 41.7426 13.5051 42.4995 13.5265C42.5016 14.0567 42.4975 14.5862 42.5037 15.1164C41.7461 15.1039 40.9878 15.1053 40.2301 15.1025C40.2295 14.5689 40.2308 14.0352 40.2288 13.5016Z" fill="#183557"/>
<path d="M42.5122 13.5244C43.2685 13.5514 44.0254 13.5797 44.7816 13.6143C44.7844 14.1396 44.7802 14.6643 44.783 15.1889C44.0261 15.1634 43.2699 15.1371 42.5129 15.115C42.5122 14.5848 42.5116 14.0546 42.5122 13.5244Z" fill="#183557"/>
<path d="M33.3861 13.8C34.1437 13.7385 34.902 13.6832 35.661 13.6396C35.6541 14.1726 35.6569 14.7063 35.6582 15.2392C34.9006 15.2897 34.1437 15.3443 33.3861 15.3982C33.3882 14.8652 33.3854 14.3323 33.3861 13.8Z" fill="#183557"/>
<path d="M44.7931 13.6201C45.5514 13.654 46.3097 13.7024 47.066 13.7701C47.0604 14.2879 47.0646 14.8056 47.0625 15.3227C46.3056 15.277 45.5494 15.2273 44.7917 15.1955C44.7938 14.6701 44.7931 14.1455 44.7931 13.6201Z" fill="#183557"/>
<path d="M31.1079 14.0277C31.8627 13.9413 32.619 13.868 33.3759 13.8037C33.3786 14.3374 33.3766 14.8703 33.3786 15.404C32.6231 15.4696 31.8676 15.5422 31.1134 15.6231C31.103 15.0915 31.1065 14.5599 31.1079 14.0277Z" fill="#183557"/>
<path d="M47.073 13.7695C47.8147 13.8269 48.5571 13.8857 49.296 13.9748L49.3389 14.0191C49.3555 14.5175 49.3347 15.0166 49.3444 15.5156C48.5868 15.452 47.8306 15.3767 47.0723 15.3318C47.0723 14.8106 47.073 14.29 47.073 13.7695Z" fill="#183557"/>
<path d="M49.3521 13.9736C50.1097 14.0552 50.8659 14.1485 51.6221 14.2411C51.6325 14.7513 51.6228 15.2621 51.6297 15.7723C50.8756 15.6727 50.118 15.5912 49.3597 15.5241C49.3479 15.0071 49.3679 14.49 49.3521 13.9736Z" fill="#183557"/>
<path d="M20.6595 15.9332C24.0854 15.038 27.5817 14.4249 31.0988 14.0322C31.0953 14.5631 31.0926 15.094 31.1036 15.6249C27.7227 15.9981 24.3612 16.565 21.057 17.3765C21.0487 23.6911 21.0542 30.005 21.0542 36.3189C24.3791 35.721 27.7345 35.2965 31.0974 34.9779C31.0967 35.3587 31.094 35.7396 31.103 36.1205C27.6004 36.4841 24.1089 36.9486 20.6291 37.4906C19.9848 37.5445 19.445 36.9065 19.4567 36.2892C19.4519 30.0658 19.4574 23.8432 19.454 17.6198C19.4595 17.3164 19.4104 16.9846 19.5867 16.7164C19.8231 16.3306 20.2109 16.0223 20.6595 15.9332Z" fill="#183557"/>
<path d="M51.6318 14.25C54.7065 14.6571 57.766 15.2164 60.7633 16.0217C60.7349 16.7026 60.7501 17.3841 60.7515 18.065C60.6914 18.0643 60.5711 18.0623 60.511 18.0609C60.5124 17.8328 60.5117 17.6046 60.5068 17.3765C57.587 16.6597 54.6208 16.135 51.6374 15.7714C51.6311 15.2641 51.6381 14.7567 51.6318 14.25Z" fill="#183557"/>
<path d="M60.7772 16.0322C61.1518 16.2465 61.5237 16.559 61.6302 16.9958C61.68 17.3491 61.6433 17.7078 61.6537 18.0638C61.3564 18.0617 61.0592 18.0624 60.762 18.0631C60.7661 17.3857 60.744 16.709 60.7772 16.0322Z" fill="#183557"/>
<path d="M39.3624 17.0181C39.5061 16.6863 39.9174 16.6815 40.2243 16.7043C40.2188 17.157 40.2188 17.6105 40.2188 18.0633C39.914 18.0626 39.6091 18.0626 39.305 18.0633C39.3167 17.7163 39.2476 17.3527 39.3624 17.0181Z" fill="#183557"/>
<path d="M40.2426 16.7178C40.4002 16.798 40.5785 16.8885 40.6235 17.0772C40.705 17.3993 40.656 17.736 40.6636 18.0636C40.5177 18.063 40.3732 18.063 40.2288 18.0636C40.2357 17.615 40.2225 17.1664 40.2426 16.7178Z" fill="#183557"/>
<path d="M39.3052 18.0723C39.61 18.0736 39.9148 18.0743 40.2197 18.073C40.2224 18.7614 40.2176 19.4499 40.2225 20.1384C39.131 20.032 38.0001 20.3209 37.1118 20.97C35.8593 21.8458 35.1155 23.3797 35.1943 24.906C34.7367 24.906 34.2784 24.9067 33.8201 24.9053C33.8228 23.5352 34.3122 22.1714 35.1929 21.1207C36.2049 19.8916 37.7174 19.1036 39.3031 18.9688C39.301 18.6702 39.2982 18.3709 39.3052 18.0723Z" fill="#183557"/>
<path d="M40.228 18.0732C40.3731 18.0739 40.5183 18.0739 40.6635 18.0732C40.669 18.3719 40.6662 18.6712 40.6655 18.9712C41.896 19.1751 43.0752 19.7385 43.9601 20.6247C44.9347 21.5813 45.5672 22.8913 45.6681 24.2572C45.7697 25.433 45.4317 26.6282 44.7875 27.6118C43.875 29.0531 42.3481 30.09 40.6669 30.3907C40.6683 30.9506 40.6642 31.5105 40.6676 32.0704C40.7022 32.5349 40.257 32.8183 39.9695 33.1121C39.7358 33.1398 39.4814 33.0278 39.3715 32.8142C39.2872 32.6476 39.3024 32.4561 39.2996 32.2764C39.3045 31.7987 39.3024 31.3211 39.2982 30.8434C37.8632 30.7287 36.4814 30.0692 35.4894 29.0254C34.4249 27.9429 33.8228 26.4339 33.8201 24.9173C34.277 24.9159 34.7332 24.9187 35.1901 24.9166C35.2606 25.9667 35.6795 26.9959 36.4033 27.7653C37.1927 28.6307 38.325 29.1761 39.4966 29.2349C40.5529 29.2971 41.6298 28.9784 42.4732 28.3363C43.3877 27.6623 44.0312 26.6351 44.2386 25.5187C44.4225 24.5309 44.278 23.4775 43.8011 22.5899C43.1195 21.2426 41.7301 20.2949 40.2294 20.1387C40.2328 19.4502 40.2335 18.7617 40.228 18.0732Z" fill="#183557"/>
<path d="M60.5132 18.0747C60.5733 18.0741 60.6929 18.0727 60.7531 18.0713C60.7482 18.8296 60.7489 19.5879 60.7531 20.3455C60.6936 20.3448 60.5733 20.3427 60.5132 20.3421C60.5146 19.5865 60.5146 18.8303 60.5132 18.0747Z" fill="#183557"/>
<path d="M60.7662 18.073C61.0634 18.0736 61.3607 18.0743 61.6586 18.0723C61.6579 18.8299 61.6579 19.5875 61.6586 20.3451C61.3607 20.343 61.0634 20.3437 60.7662 20.3444C60.7641 19.5875 60.7641 18.8299 60.7662 18.073Z" fill="#183557"/>
<path d="M60.5132 20.357C60.5733 20.3563 60.6936 20.3542 60.7537 20.3535C60.7482 21.1118 60.7482 21.8701 60.7537 22.6284C60.6936 22.627 60.5733 22.625 60.5132 22.6243C60.5146 21.8687 60.5146 21.1125 60.5132 20.357Z" fill="#183557"/>
<path d="M60.7606 20.3535C61.0579 20.3542 61.3551 20.3549 61.653 20.3535C61.6523 21.1104 61.6523 21.868 61.653 22.6257C61.3551 22.6236 61.0579 22.6243 60.7606 22.6243C60.7579 21.8674 60.7579 21.1104 60.7606 20.3535Z" fill="#183557"/>
<path d="M63.4805 21.347C63.4736 21.0602 63.598 20.7512 63.8476 20.5963C64.0204 20.5417 64.2188 20.5894 64.3715 20.6821C64.5672 20.812 64.6197 21.0595 64.6197 21.28C64.6245 21.7279 64.6176 22.1765 64.6211 22.6245C64.2409 22.6238 63.8607 22.6252 63.4805 22.6245C63.4819 22.1987 63.4771 21.7729 63.4805 21.347Z" fill="#183557"/>
<path d="M60.5132 22.6372C60.5733 22.6366 60.6929 22.6345 60.7531 22.6338C60.7489 23.3921 60.7482 24.1504 60.7537 24.9087C60.6936 24.9073 60.5733 24.9052 60.5132 24.9046C60.5146 24.149 60.5146 23.3935 60.5132 22.6372Z" fill="#183557"/>
<path d="M60.7665 22.6355C61.0637 22.6361 61.361 22.6368 61.6589 22.6348C61.6582 23.3924 61.6582 24.15 61.6589 24.9076C61.361 24.9055 61.0637 24.9062 60.7665 24.9069C60.7637 24.1493 60.7644 23.3924 60.7665 22.6355Z" fill="#183557"/>
<path d="M63.4819 22.6364C63.8621 22.6357 64.2423 22.6364 64.6225 22.6357C64.6218 23.3927 64.6218 24.1503 64.6225 24.9072C64.2423 24.9065 63.8621 24.9072 63.4819 24.9065C63.4819 24.1496 63.4819 23.3934 63.4819 22.6364Z" fill="#183557"/>
<path d="M60.5132 24.9195C60.5733 24.9188 60.6936 24.9167 60.7537 24.916C60.7489 25.6743 60.7475 26.4326 60.7537 27.1909C60.6936 27.1895 60.5733 27.1875 60.5132 27.1861C60.5146 26.4305 60.5146 25.675 60.5132 24.9195Z" fill="#183557"/>
<path d="M60.7607 24.9167C61.0579 24.9174 61.3551 24.9181 61.6531 24.916C61.6524 25.6736 61.6524 26.4312 61.6531 27.1889C61.3551 27.1868 61.0579 27.1875 60.7607 27.1875C60.7572 26.4305 60.7586 25.6736 60.7607 24.9167Z" fill="#183557"/>
<path d="M63.4819 24.9163C63.8621 24.9156 64.2423 24.9163 64.6225 24.9163C64.6218 25.6726 64.6218 26.4295 64.6225 27.1864C64.2423 27.1864 63.8621 27.1871 63.4819 27.1857C63.4819 26.4295 63.4819 25.6732 63.4819 24.9163Z" fill="#183557"/>
<path d="M60.5132 27.1997C60.5733 27.1991 60.6936 27.197 60.7537 27.1963C60.7482 27.9546 60.7482 28.7129 60.7537 29.4712C60.6936 29.4698 60.5733 29.4677 60.5132 29.4671C60.5146 28.7108 60.5146 27.9553 60.5132 27.1997Z" fill="#183557"/>
<path d="M60.7665 27.1973C61.0637 27.198 61.361 27.1986 61.6589 27.1973C61.6582 27.9542 61.6582 28.7118 61.6589 29.4694C61.361 29.4673 61.0637 29.468 60.7665 29.4687C60.7644 28.7118 60.7637 27.9542 60.7665 27.1973Z" fill="#183557"/>
<path d="M63.4819 27.198C63.8621 27.1973 64.2423 27.198 64.6225 27.1973C64.6218 27.9542 64.6218 28.7111 64.6225 29.4687C64.2423 29.4673 63.8621 29.4687 63.4819 29.4673C63.4819 28.7111 63.4819 27.9549 63.4819 27.198Z" fill="#183557"/>
<path d="M60.5132 29.481C60.5733 29.4803 60.6936 29.4782 60.7537 29.4775C60.7475 30.2358 60.7489 30.9941 60.7537 31.7524C60.6936 31.7511 60.5733 31.749 60.5132 31.7483C60.5146 30.9928 60.5146 30.2365 60.5132 29.481Z" fill="#183557"/>
<path d="M60.7607 29.4789C61.0579 29.4789 61.3551 29.4789 61.6531 29.4775C61.6524 30.2352 61.6524 30.9928 61.6531 31.7504C61.3551 31.7483 61.0579 31.749 60.7607 31.749C60.7586 30.9921 60.7572 30.2352 60.7607 29.4789Z" fill="#183557"/>
<path d="M63.4819 29.4782C63.8621 29.4775 64.2423 29.4782 64.6225 29.4775C64.6218 30.2345 64.6218 30.9914 64.6225 31.7483C64.2423 31.7476 63.8621 31.749 63.4819 31.7476C63.4819 30.9914 63.4819 30.2352 63.4819 29.4782Z" fill="#183557"/>
<path d="M60.5132 31.7622C60.5733 31.7616 60.6936 31.7595 60.7537 31.7588C60.7482 32.0927 60.7489 32.4272 60.7524 32.7618C60.6936 32.757 60.5761 32.748 60.5173 32.7431C60.5111 32.4162 60.5153 32.0892 60.5132 31.7622Z" fill="#183557"/>
<path d="M60.7608 31.7595C61.0581 31.7595 61.3553 31.7602 61.6525 31.7588C61.6518 32.1376 61.6546 32.5157 61.6498 32.8945C61.3546 32.8434 61.0587 32.7971 60.7615 32.7639C60.7567 32.4286 60.7587 32.094 60.7608 31.7595Z" fill="#183557"/>
<path d="M63.4796 31.7605C63.8598 31.7598 64.24 31.7605 64.6202 31.7598C64.6188 32.3252 64.6208 32.8907 64.6188 33.4561C64.2393 33.3821 63.8598 33.3123 63.481 33.239C63.4782 32.7462 63.4796 32.2533 63.4796 31.7605Z" fill="#183557"/>
<path d="M58.4718 34.1771C60.2138 33.81 61.9847 33.5702 63.764 33.49C64.9025 33.4464 66.05 33.454 67.1781 33.6317C67.7892 33.7623 68.3927 33.9282 68.9989 34.0831C67.7989 34.7729 66.5671 35.4068 65.3574 36.0794C61.5458 38.1442 57.7432 40.2262 53.9282 42.2848C53.9095 41.8465 53.9227 41.4076 53.9033 40.97C57.3651 39.0746 60.8276 37.1813 64.2894 35.2872C64.4885 35.1732 64.6945 35.0723 64.9025 34.9769C64.8051 34.8877 64.7159 34.7377 64.5624 34.7833C63.1965 34.963 61.8126 34.9803 60.4516 35.2029C59.7893 35.3087 59.1326 35.4476 58.476 35.5796C58.4801 35.1117 58.4829 34.6444 58.4718 34.1771Z" fill="#183557"/>
<path d="M56.1969 34.7061C56.9497 34.5216 57.6997 34.3266 58.4615 34.1787C58.4691 34.6481 58.4677 35.1181 58.4642 35.5882C57.7059 35.7575 56.9518 35.9449 56.2045 36.1564C56.1921 35.6725 56.1942 35.1893 56.1969 34.7061Z" fill="#183557"/>
<path d="M40.2288 34.4844C40.9864 34.4844 41.744 34.4927 42.5016 34.5148C42.5002 34.8971 42.5016 35.2793 42.5009 35.6623C41.744 35.6401 40.9864 35.6263 40.2295 35.6249C40.2315 35.2448 40.2308 34.8646 40.2288 34.4844Z" fill="#183557"/>
<path d="M35.6685 34.63C36.4248 34.5927 37.181 34.5553 37.9379 34.5332C37.9379 34.912 37.9386 35.2908 37.9365 35.6689C37.1789 35.6973 36.422 35.7291 35.6658 35.7733C35.6672 35.3917 35.6685 35.0109 35.6685 34.63Z" fill="#183557"/>
<path d="M37.949 34.5316C38.7059 34.5157 39.4621 34.4839 40.2197 34.4991C40.2197 34.8745 40.219 35.2498 40.2204 35.6252C39.4635 35.639 38.7059 35.6445 37.949 35.6708C37.949 35.2906 37.9504 34.9111 37.949 34.5316Z" fill="#183557"/>
<path d="M42.5106 34.5186C43.2668 34.5338 44.0224 34.5766 44.7772 34.6181C44.7807 35.0031 44.7786 35.3881 44.782 35.7732C44.0251 35.7282 43.2682 35.6909 42.5106 35.6633C42.5085 35.2817 42.5092 34.9001 42.5106 34.5186Z" fill="#183557"/>
<path d="M44.7917 34.6191C46.2849 34.7097 47.7738 34.8459 49.2614 35.0028C48.6489 35.2807 48.0268 35.5351 47.4233 35.8316C47.3003 35.8862 47.178 35.9698 47.0369 35.9491C46.2904 35.8883 45.5445 35.8185 44.7959 35.7798C44.7917 35.3933 44.7924 35.0062 44.7917 34.6191Z" fill="#183557"/>
<path d="M33.3873 34.7765C34.1435 34.7274 34.8998 34.6686 35.6567 34.6348C35.6581 35.0136 35.6567 35.3924 35.6532 35.7712C34.8977 35.8189 34.1428 35.8693 33.3873 35.924C33.3859 35.5417 33.3852 35.1587 33.3873 34.7765Z" fill="#183557"/>
<path d="M44.7917 39.1982C48.4346 37.3449 52.2303 35.7578 56.1891 34.7168C56.1912 35.1972 56.1863 35.6776 56.1988 36.1587C52.2393 37.2675 48.445 38.9037 44.8028 40.7998C44.7931 40.2662 44.7966 39.7318 44.7917 39.1982Z" fill="#183557"/>
<path d="M31.1062 34.9725C31.8624 34.9047 32.6194 34.8329 33.3777 34.7852C33.377 35.1674 33.3763 35.549 33.3783 35.9313C32.6207 35.9852 31.8652 36.0584 31.109 36.1269C31.1069 35.7418 31.1062 35.3575 31.1062 34.9725Z" fill="#183557"/>
<path d="M40.4703 38.1935C41.333 38.1714 42.1971 38.1306 43.0605 38.1493C42.4653 38.5322 41.8667 38.9124 41.2722 39.2947C40.5692 39.3521 39.8593 39.3438 39.1549 39.3894C37.2298 39.4813 35.3074 39.6265 33.3898 39.8131C33.3843 39.4419 33.3947 39.0714 33.3816 38.7009C33.3712 39.0728 33.3802 39.444 33.3774 39.8159C32.6198 39.8857 31.8649 39.9721 31.1087 40.0544C31.1053 39.6742 31.106 39.2933 31.1073 38.9124C34.218 38.5571 37.341 38.3069 40.4703 38.1935Z" fill="#183557"/>
<path d="M63.4915 39.004C63.8751 38.8326 64.2353 38.6156 64.6148 38.4365C64.6196 39.1706 64.6224 39.9054 64.6148 40.6395C64.6092 41.14 64.1675 41.6806 63.6332 41.5935C62.3965 41.3232 61.1516 41.0909 59.9053 40.8683C60.4362 40.6071 60.9518 40.3133 61.4876 40.0623C62.1567 40.1446 62.812 40.3167 63.4804 40.41C63.4818 39.9414 63.4652 39.472 63.4915 39.004Z" fill="#183557"/>
<path d="M28.8279 39.1914C29.5834 39.0946 30.339 38.9958 31.0973 38.917C31.0945 39.2944 31.0917 39.6712 31.1014 40.0486C30.3417 40.1536 29.5793 40.2359 28.8196 40.3403C28.8327 39.9573 28.821 39.5744 28.8279 39.1914Z" fill="#183557"/>
<path d="M26.5432 39.5101C27.3015 39.4071 28.0571 39.2855 28.8174 39.1963C28.8084 39.5613 28.8299 39.9276 28.8084 40.2919L28.7718 40.3445C28.0308 40.453 27.2884 40.5511 26.5487 40.6673C26.5453 40.2816 26.5453 39.8958 26.5432 39.5101Z" fill="#183557"/>
<path d="M40.2599 41.7448C41.7357 40.851 43.2413 40.0056 44.7745 39.2148C44.7869 39.7519 44.7821 40.2891 44.7869 40.8268C43.4632 41.4987 42.1795 42.2481 40.9028 43.0057C40.6546 43.1425 40.4078 43.4135 40.0968 43.2946C39.9219 43.1944 39.7829 43.0402 39.6468 42.8937C39.5762 42.7105 39.6834 42.517 39.7615 42.3531C39.897 42.1299 40.018 41.872 40.2599 41.7448Z" fill="#183557"/>
<path d="M23.6303 39.9855C24.5967 39.821 25.5637 39.6579 26.5342 39.5127C26.5363 39.8977 26.5329 40.2834 26.5418 40.6685C25.769 40.7915 24.9948 40.909 24.2282 41.0625C24.0333 41.0881 23.8425 41.2512 23.6448 41.1572C23.3973 41.0556 23.3413 40.7715 23.2729 40.5434C23.1741 40.2952 23.389 40.0304 23.6303 39.9855Z" fill="#183557"/>
<path d="M34.9336 40.2574C35.3497 40.1696 35.7624 40.0624 36.1799 39.9795L36.2345 40.0016C36.6182 41.0475 36.9762 42.103 37.3468 43.1537C36.8726 43.153 36.3984 43.162 35.9248 43.153C35.6034 42.1846 35.2502 41.2272 34.9336 40.2574Z" fill="#183557"/>
<path d="M51.6235 42.2174C52.3805 41.8068 53.1332 41.3865 53.8936 40.9814C53.9157 41.419 53.9033 41.858 53.9185 42.2955C53.4339 42.5658 52.9438 42.8243 52.4593 43.0946C52.2132 43.255 51.9104 43.1375 51.6387 43.1464C51.6408 42.8368 51.6374 42.5271 51.6235 42.2174Z" fill="#183557"/>
<path d="M29.8525 41.4141C30.2203 41.3401 30.5818 41.2323 30.9544 41.1846C31.5233 43.3938 32.2222 45.5671 32.9998 47.7107C32.6065 47.7197 32.2125 47.7155 31.8192 47.7245C31.065 45.6535 30.3979 43.5493 29.8525 41.4141Z" fill="#183557"/>
<path d="M50 43.1191C50.5233 42.7998 51.0714 42.5212 51.6106 42.2295C51.6258 42.5371 51.6272 42.8461 51.6272 43.1544C51.0846 43.1426 50.5399 43.1841 50 43.1191Z" fill="#183557"/>
<path d="M35.9392 43.1672C36.41 43.1659 36.8814 43.1638 37.3528 43.1631C38.1491 45.4408 38.9579 47.7136 39.7487 49.9934C39.2683 49.9996 38.7879 49.992 38.3074 50.0079C37.5166 47.7281 36.7196 45.4504 35.9392 43.1672Z" fill="#183557"/>
<path d="M49.3398 43.4632C49.5624 43.363 49.7594 43.1819 50.0034 43.1445C50.5433 43.177 51.0839 43.1632 51.6237 43.1653C51.6251 43.289 51.63 43.4134 51.6362 43.5372C50.8772 43.9429 50.1286 44.3653 49.3661 44.7628C49.3502 44.33 49.3592 43.8959 49.3398 43.4632Z" fill="#183557"/>
<path d="M51.6318 43.1543C51.8302 43.1654 52.0279 43.1799 52.2256 43.2013C52.039 43.3202 51.8454 43.4273 51.6491 43.529C51.6436 43.4031 51.6374 43.2787 51.6318 43.1543Z" fill="#183557"/>
<path d="M44.7864 45.961C46.3023 45.1349 47.8092 44.2916 49.3341 43.4814C49.3535 43.9142 49.3445 44.3476 49.3597 44.7803C47.8376 45.5946 46.3293 46.4338 44.8064 47.246C44.7926 46.8174 44.8002 46.3889 44.7864 45.961Z" fill="#183557"/>
<path d="M42.5032 47.2069C43.2608 46.7984 44.0101 46.3733 44.7719 45.9717C44.7871 46.403 44.785 46.8344 44.7878 47.2657C44.4719 47.4116 44.1864 47.63 43.8546 47.7364C43.4087 47.7192 42.9615 47.7088 42.5149 47.7185C42.5108 47.5477 42.5059 47.377 42.5032 47.2069Z" fill="#183557"/>
<path d="M41.6528 47.6855C41.9259 47.5168 42.2093 47.3668 42.4934 47.2168C42.4989 47.3848 42.5038 47.5534 42.5086 47.7214C42.2224 47.72 41.9369 47.7152 41.6528 47.6855Z" fill="#183557"/>
<path d="M31.8289 47.7345C32.2222 47.7242 32.6162 47.7283 33.0095 47.7207C33.5784 49.2622 34.2254 50.774 34.9029 52.2705C34.4992 52.2795 34.0955 52.2747 33.6918 52.2885C33.0088 50.7975 32.3819 49.2788 31.8289 47.7345Z" fill="#183557"/>
<path d="M41.3295 47.8614C41.6551 47.5731 42.1127 47.7819 42.5005 47.7314C42.5012 47.9879 42.5054 48.245 42.5054 48.5022C42.1687 48.6528 41.8196 49.0033 41.4305 48.7987C41.0496 48.6487 41.0371 48.1054 41.3295 47.8614Z" fill="#183557"/>
<path d="M42.5093 47.728C42.9538 47.7294 43.4003 47.7107 43.8441 47.7591C43.4121 48.019 42.9634 48.2506 42.5183 48.487C42.5114 48.234 42.5107 47.981 42.5093 47.728Z" fill="#183557"/>
<path d="M17.4077 50.5248C18.3582 49.8488 19.5319 49.4886 20.6995 49.546C22.026 49.5923 23.3165 50.1598 24.2712 51.0771C24.249 51.4753 24.2497 51.8741 24.2525 52.2737C24.0769 52.2813 23.9013 52.293 23.7258 52.3034C23.4811 52.0462 23.2011 51.8264 22.9039 51.6343C22.7193 51.5223 22.6039 51.328 22.4165 51.2209C21.4301 50.6928 20.2488 50.493 19.158 50.7847C18.5213 50.943 17.9503 51.2852 17.4409 51.6903C17.4146 51.3025 17.4195 50.9133 17.4077 50.5248Z" fill="#183557"/>
<path d="M38.312 50.0183C38.7945 50.0038 39.2777 50.0086 39.7609 50.0059C40.5531 52.2835 41.3618 54.555 42.1554 56.8327C41.6625 56.8458 41.169 56.8375 40.6768 56.8465C39.8894 54.5695 39.0959 52.2953 38.312 50.0183Z" fill="#183557"/>
<path d="M15.8716 52.2634C16.2691 51.6067 16.7598 50.9901 17.3958 50.5498C17.4158 50.9362 17.4055 51.3233 17.4331 51.7097C17.2119 51.8812 17.0578 52.1328 16.8283 52.2869C16.5089 52.2959 16.1902 52.2717 15.8716 52.2634Z" fill="#183557"/>
<path d="M24.2855 51.127C24.6602 51.4387 24.9297 51.8528 25.1807 52.2654C24.8744 52.28 24.5675 52.2807 24.2606 52.2813C24.2634 51.8963 24.2489 51.5106 24.2855 51.127Z" fill="#183557"/>
<path d="M15.2496 56.8447C14.7685 55.3274 14.9904 53.6145 15.8503 52.2734C16.178 52.2866 16.5063 52.2942 16.834 52.3066C16.3024 53.0324 15.9554 53.9041 15.9111 54.8076C15.8634 55.4988 16.0045 56.1921 16.2623 56.8322C15.925 56.8412 15.5876 56.844 15.2496 56.8447Z" fill="#183557"/>
<path d="M23.7507 52.3143C23.9208 52.3019 24.0915 52.2915 24.2623 52.2832C24.2519 52.4961 24.2436 52.7083 24.2284 52.9212C24.0687 52.7194 23.9111 52.5155 23.7507 52.3143Z" fill="#183557"/>
<path d="M24.2742 52.2915C24.5811 52.2935 24.8887 52.2887 25.1963 52.2783C25.5869 52.9813 25.833 53.7604 25.9132 54.5608C25.5489 54.5608 25.1846 54.5595 24.8203 54.5657C24.7367 54.079 24.6005 53.5979 24.3537 53.1673C24.1698 52.9074 24.2832 52.5839 24.2742 52.2915Z" fill="#183557"/>
<path d="M33.6997 52.302C34.1089 52.2875 34.5188 52.2889 34.9288 52.2861C35.4859 53.5117 36.1149 54.7041 36.7682 55.88C36.9486 56.1903 36.7592 56.6154 36.408 56.6866C36.1343 56.7896 35.8557 56.6016 35.7368 56.359C35.0082 55.0325 34.3156 53.6852 33.6997 52.302Z" fill="#183557"/>
<path d="M31.0906 53.6278C31.3104 53.5255 31.5316 53.3229 31.7915 53.3983C32.0963 53.4881 32.3175 53.7411 32.5007 53.9893C32.6376 54.1573 32.5477 54.3792 32.5166 54.5679C32.0452 54.563 31.5745 54.5568 31.1037 54.5623C31.1065 54.2499 31.1023 53.9388 31.0906 53.6278Z" fill="#183557"/>
<path d="M29.4834 54.528C30.0053 54.2134 30.5438 53.9273 31.083 53.6445C31.0968 53.9494 31.0982 54.2549 31.0989 54.5604C30.5604 54.5508 30.0205 54.5853 29.4834 54.528Z" fill="#183557"/>
<path d="M24.8157 54.5747C25.1814 54.5727 25.5478 54.5727 25.9134 54.5713C25.9667 55.2383 25.9052 55.9109 25.7372 56.5593C26.7685 56.0202 27.7764 55.436 28.805 54.892C28.8278 55.4623 28.805 56.0326 28.8271 56.6036C27.7743 57.1524 26.7271 57.7123 25.6757 58.2646C25.4545 58.3801 25.2139 58.4796 25.0508 58.6766C24.2503 59.5863 23.1678 60.2485 21.9858 60.5237C21.9823 60.093 21.9871 59.6624 21.9761 59.2317C22.8878 58.8833 23.671 58.2211 24.1805 57.3895C24.7038 56.5586 24.9243 55.5501 24.8157 54.5747Z" fill="#183557"/>
<path d="M28.8162 54.8813C29.0781 54.7652 29.3104 54.5136 29.6152 54.553C30.1074 54.5882 30.6017 54.5668 31.0945 54.5709C31.0793 54.8468 31.1415 55.1357 31.0773 55.4053C30.3355 55.809 29.5848 56.1968 28.8383 56.5908C28.8148 56.0212 28.8369 55.4509 28.8162 54.8813Z" fill="#183557"/>
<path d="M31.1062 54.5702C31.561 54.575 32.0173 54.5564 32.4714 54.5903C32.4002 54.6663 32.3318 54.7499 32.2357 54.7969C31.8652 54.9981 31.4898 55.1903 31.118 55.3886C31.1152 55.1156 31.1103 54.8426 31.1062 54.5702Z" fill="#183557"/>
<path d="M15.2666 56.8583C15.6026 56.8534 15.9385 56.8527 16.2738 56.8438C16.7341 57.8779 17.5996 58.7157 18.642 59.1539C18.98 59.3018 19.3402 59.3882 19.6982 59.474C19.6885 59.8479 19.6948 60.2219 19.692 60.5959C18.8272 60.4307 17.9604 60.1168 17.2899 59.53C16.3484 58.8905 15.6212 57.9415 15.2666 56.8583Z" fill="#183557"/>
<path d="M40.6882 56.8588C41.179 56.8463 41.6698 56.8629 42.1606 56.8408C42.9638 59.1074 43.7463 61.3823 44.5606 63.6455C45.012 62.657 45.7537 61.7612 46.7623 61.3139C47.0982 61.1466 47.5862 61.4038 47.5738 61.7964C47.5842 62.0453 47.4162 62.2609 47.2019 62.3708C46.0924 63.0185 45.2878 64.1833 45.1247 65.4635C44.8827 66.8045 45.4371 68.2016 46.3683 69.1638C46.8673 69.667 47.5289 69.9691 48.2021 70.1633C48.6335 70.2815 49.0752 70.4018 49.5273 70.3714C50.5842 70.3196 51.6024 69.8502 52.3752 69.1347C53.0955 68.4463 53.4315 67.4647 53.607 66.5073C53.7888 64.9312 53.0817 63.2155 51.7054 62.3757C51.2533 62.1918 51.3114 61.495 51.6771 61.2489C51.8858 61.1259 52.1471 61.1992 52.3324 61.3326C54.2015 62.5962 55.1555 65.0156 54.7455 67.2227C54.5416 68.3764 53.9513 69.4679 53.0637 70.2394C52.5218 70.6859 51.9473 71.1117 51.2851 71.3613C50.4446 71.7062 49.5204 71.7898 48.621 71.7276C48.0134 71.7408 47.4383 71.5092 46.8929 71.2679C46.2058 70.9341 45.6196 70.4301 45.0922 69.8848C44.6837 69.4824 44.421 68.9626 44.1811 68.4497C43.7996 67.6057 43.6896 66.6649 43.7498 65.7476C43.5694 65.1241 43.3233 64.5193 43.1249 63.9006C42.3127 61.5538 41.4887 59.2104 40.6882 56.8588Z" fill="#183557"/>
<path d="M19.7016 59.4663C20.4606 59.5817 21.2404 59.496 21.9634 59.2402C21.9724 59.6716 21.9745 60.1036 21.9683 60.5356C21.2245 60.696 20.4558 60.7299 19.7037 60.6061C19.6961 60.2267 19.7016 59.8465 19.7016 59.4663Z" fill="#183557"/>
</svg>
