<svg width="84" height="84" viewBox="0 0 84 84" fill="none" xmlns="http://www.w3.org/2000/svg">
<circle cx="42" cy="42" r="42" fill="white"/>
<path fill-rule="evenodd" clip-rule="evenodd" d="M15.3 25H67.8C69.0703 25 70.1 26.0297 70.1 27.3V57.3C70.1 58.5703 69.0703 59.6 67.8 59.6H15.3C14.0297 59.6 13 58.5703 13 57.3V27.3C13 26.0297 14.0297 25 15.3 25ZM12.3 27.3C12.3 25.6431 13.6431 24.3 15.3 24.3H67.8C69.4569 24.3 70.8 25.6431 70.8 27.3V57.3C70.8 58.9569 69.4569 60.3 67.8 60.3H15.3C13.6431 60.3 12.3 58.9569 12.3 57.3V27.3ZM25.1299 41.8249C25.4667 41.8719 25.811 41.8962 26.1611 41.8962C26.5621 41.8962 26.9554 41.8643 27.3388 41.803C31.552 42.3176 34.8984 45.9664 34.8984 50.2812V56.4923C34.8984 56.8029 35.0545 56.9582 35.3666 56.9582C35.6786 56.9582 35.8346 56.8029 35.8346 56.4923V50.2812C35.8346 46.0184 32.9866 42.4643 29.1794 41.2535C31.726 40.1106 33.4941 37.5638 33.4941 34.5981C33.4941 30.5609 30.2176 27.3 26.1611 27.3C22.1045 27.3 18.828 30.5609 18.828 34.5981C18.828 37.6131 20.6553 40.195 23.2701 41.3093C19.4864 42.5923 16.8 46.1892 16.8 50.2812V56.4923C16.8 56.8029 16.956 56.9582 17.268 56.9582C17.5801 56.9582 17.7361 56.8029 17.7361 56.4923V50.2812C17.7361 46.0231 20.9951 42.4138 25.1299 41.8249ZM27.7597 40.92C27.288 40.847 26.8061 40.8092 26.3173 40.8092C25.7592 40.8092 25.2133 40.8574 24.683 40.9494C21.7936 40.2731 19.6081 37.6646 19.6081 34.5981C19.6081 31.0267 22.5726 28.0764 26.1611 28.0764C29.7495 28.0764 32.714 30.8714 32.714 34.5981C32.714 37.6218 30.5891 40.2002 27.7597 40.92ZM40.3174 36.1215H63.4552C63.7658 36.1215 63.9211 36.4478 63.9211 36.6109C63.9211 36.9372 63.7658 37.1003 63.4552 37.1003H40.3174C40.0068 37.1003 39.8515 36.9372 39.8515 36.6109C39.8515 36.2847 40.0068 36.1215 40.3174 36.1215ZM40.628 41.3406H63.4552C63.7658 41.3406 63.9211 41.1775 63.9211 40.8513C63.9211 40.525 63.7658 40.3619 63.4552 40.3619H40.628C40.3174 40.3619 40.1621 40.525 40.1621 40.8513C40.1621 41.1775 40.3174 41.3406 40.628 41.3406ZM63.4552 45.4195H40.628C40.3174 45.4195 40.1621 45.2564 40.1621 44.9301C40.1621 44.6039 40.3174 44.4408 40.628 44.4408H63.4552C63.7658 44.4408 63.9211 44.6039 63.9211 44.9301C63.9211 45.2564 63.7658 45.4195 63.4552 45.4195ZM40.4727 48.6816H63.4552C63.7658 48.6816 63.9211 48.8448 63.9211 49.1711C63.9211 49.4974 63.7658 49.6605 63.4552 49.6605H40.4727C40.1621 49.6605 40.0068 49.4974 40.0068 49.1711C40.0068 48.8448 40.1621 48.6816 40.4727 48.6816Z" fill="#9CB8C2"/>
<path fill-rule="evenodd" clip-rule="evenodd" d="M67.8 25.3H15.3C14.1954 25.3 13.3 26.1954 13.3 27.3V57.3C13.3 58.4046 14.1954 59.3 15.3 59.3H67.8C68.9046 59.3 69.8 58.4046 69.8 57.3V27.3C69.8 26.1954 68.9046 25.3 67.8 25.3ZM12 27.3C12 25.4775 13.4775 24 15.3 24H67.8C69.6225 24 71.1 25.4775 71.1 27.3V57.3C71.1 59.1225 69.6225 60.6 67.8 60.6H15.3C13.4775 60.6 12 59.1225 12 57.3V27.3ZM25.1311 42.1279C21.1591 42.7143 18.0361 46.1911 18.0361 50.2812V56.4923C18.0361 56.6942 17.9851 56.9006 17.8307 57.0543C17.6766 57.2078 17.47 57.2582 17.268 57.2582C17.0661 57.2582 16.8595 57.2078 16.7054 57.0543C16.551 56.9006 16.5 56.6942 16.5 56.4923V50.2812C16.5 46.2996 18.9625 42.7762 22.5126 41.2765C20.1376 39.9906 18.528 37.4854 18.528 34.5981C18.528 30.3938 21.9402 27 26.1611 27C30.3819 27 33.7941 30.3938 33.7941 34.5981C33.7941 37.4337 32.2416 39.9007 29.9364 41.2062C33.5226 42.639 36.1346 46.1329 36.1346 50.2812V56.4923C36.1346 56.6942 36.0837 56.9006 35.9292 57.0543C35.7751 57.2078 35.5685 57.2582 35.3666 57.2582C35.1646 57.2582 34.958 57.2078 34.8039 57.0544C34.6494 56.9007 34.5984 56.6942 34.5984 56.4923V50.2812C34.5984 46.1362 31.391 42.6214 27.3436 42.1059C26.9581 42.1653 26.5631 42.1962 26.1611 42.1962C25.8118 42.1962 25.468 42.1729 25.1311 42.1279ZM27.3388 41.803C26.9554 41.8643 26.5621 41.8962 26.1611 41.8962C25.811 41.8962 25.4667 41.8719 25.1299 41.8249C20.9951 42.4138 17.7361 46.0231 17.7361 50.2812V56.4923C17.7361 56.8029 17.5801 56.9582 17.268 56.9582C16.956 56.9582 16.8 56.8029 16.8 56.4923V50.2812C16.8 46.3362 19.2968 42.8514 22.8667 41.4564C22.9997 41.4044 23.1342 41.3554 23.2701 41.3093C23.1383 41.2531 23.0085 41.1932 22.8809 41.1297C20.4757 39.9336 18.828 37.4611 18.828 34.5981C18.828 30.5609 22.1045 27.3 26.1611 27.3C30.2176 27.3 33.4941 30.5609 33.4941 34.5981C33.4941 37.4116 31.9028 39.8481 29.5652 41.0666C29.4388 41.1325 29.3101 41.1949 29.1794 41.2535C29.3161 41.297 29.4516 41.3435 29.5857 41.3929C33.1874 42.7204 35.8346 46.1715 35.8346 50.2812V56.4923C35.8346 56.8029 35.6786 56.9582 35.3666 56.9582C35.0545 56.9582 34.8984 56.8029 34.8984 56.4923V50.2812C34.8984 45.9664 31.552 42.3176 27.3388 41.803ZM27.7438 40.6142C27.2768 40.545 26.8003 40.5092 26.3173 40.5092C25.7634 40.5092 25.2209 40.5552 24.6931 40.6434C21.9631 39.9764 19.9081 37.4993 19.9081 34.5981C19.9081 31.1937 22.7369 28.3764 26.1611 28.3764C29.5899 28.3764 32.414 31.0431 32.414 34.5981C32.414 37.4583 30.4167 39.9065 27.7438 40.6142ZM40.3174 35.8215H63.4552C63.7283 35.8215 63.9253 35.9684 64.0433 36.1233C64.1548 36.2697 64.2211 36.4545 64.2211 36.6109C64.2211 36.8167 64.1724 37.0268 64.0219 37.1848C63.8688 37.3456 63.6606 37.4003 63.4552 37.4003H40.3174C40.112 37.4003 39.9038 37.3456 39.7507 37.1848C39.6003 37.0267 39.5515 36.8167 39.5515 36.6109C39.5515 36.4051 39.6003 36.1951 39.7507 36.037C39.9038 35.8762 40.112 35.8215 40.3174 35.8215ZM63.4552 41.6406H40.628C40.4226 41.6406 40.2144 41.586 40.0613 41.4252C39.9108 41.2671 39.8621 41.0571 39.8621 40.8513C39.8621 40.6455 39.9108 40.4354 40.0613 40.2774C40.2144 40.1166 40.4226 40.0619 40.628 40.0619H63.4552C63.6606 40.0619 63.8688 40.1166 64.0219 40.2774C64.1724 40.4354 64.2211 40.6455 64.2211 40.8513C64.2211 41.0571 64.1724 41.2671 64.0219 41.4252C63.8688 41.586 63.6606 41.6406 63.4552 41.6406ZM63.4552 45.7195H40.628C40.4226 45.7195 40.2144 45.6648 40.0613 45.504C39.9108 45.346 39.8621 45.1359 39.8621 44.9301C39.8621 44.7243 39.9108 44.5143 40.0613 44.3562C40.2144 44.1954 40.4226 44.1408 40.628 44.1408H63.4552C63.6606 44.1408 63.8688 44.1954 64.0219 44.3562C64.1724 44.5143 64.2211 44.7243 64.2211 44.9301C64.2211 45.1359 64.1724 45.346 64.0219 45.504C63.8688 45.6648 63.6606 45.7195 63.4552 45.7195ZM40.4727 48.3816H63.4552C63.6607 48.3816 63.8689 48.4363 64.0219 48.5972C64.1724 48.7553 64.2211 48.9653 64.2211 49.1711C64.2211 49.3769 64.1724 49.5869 64.0219 49.745C63.8688 49.9058 63.6606 49.9605 63.4552 49.9605H40.4727C40.2673 49.9605 40.0591 49.9058 39.906 49.745C39.7555 49.5869 39.7068 49.3769 39.7068 49.1711C39.7068 48.9653 39.7555 48.7553 39.906 48.5972C40.0591 48.4363 40.2672 48.3816 40.4727 48.3816ZM67.8 25H15.3C14.0297 25 13 26.0297 13 27.3V57.3C13 58.5703 14.0297 59.6 15.3 59.6H67.8C69.0703 59.6 70.1 58.5703 70.1 57.3V27.3C70.1 26.0297 69.0703 25 67.8 25ZM15.3 24.3C13.6431 24.3 12.3 25.6431 12.3 27.3V57.3C12.3 58.9569 13.6431 60.3 15.3 60.3H67.8C69.4569 60.3 70.8 58.9569 70.8 57.3V27.3C70.8 25.6431 69.4569 24.3 67.8 24.3H15.3ZM26.3173 40.8092C26.8061 40.8092 27.288 40.847 27.7597 40.92C30.5891 40.2002 32.714 37.6218 32.714 34.5981C32.714 30.8714 29.7495 28.0764 26.1611 28.0764C22.5726 28.0764 19.6081 31.0267 19.6081 34.5981C19.6081 37.6646 21.7936 40.2731 24.683 40.9494C25.2133 40.8574 25.7592 40.8092 26.3173 40.8092ZM63.4552 36.1215H40.3174C40.0068 36.1215 39.8515 36.2847 39.8515 36.6109C39.8515 36.9372 40.0068 37.1003 40.3174 37.1003H63.4552C63.7658 37.1003 63.9211 36.9372 63.9211 36.6109C63.9211 36.4478 63.7658 36.1215 63.4552 36.1215ZM63.4552 41.3406H40.628C40.3174 41.3406 40.1621 41.1775 40.1621 40.8513C40.1621 40.525 40.3174 40.3619 40.628 40.3619H63.4552C63.7658 40.3619 63.9211 40.525 63.9211 40.8513C63.9211 41.1775 63.7658 41.3406 63.4552 41.3406ZM40.628 45.4195H63.4552C63.7658 45.4195 63.9211 45.2564 63.9211 44.9301C63.9211 44.6039 63.7658 44.4408 63.4552 44.4408H40.628C40.3174 44.4408 40.1621 44.6039 40.1621 44.9301C40.1621 45.2564 40.3174 45.4195 40.628 45.4195ZM63.4552 48.6816H40.4727C40.1621 48.6816 40.0068 48.8448 40.0068 49.1711C40.0068 49.4974 40.1621 49.6605 40.4727 49.6605H63.4552C63.7658 49.6605 63.9211 49.4974 63.9211 49.1711C63.9211 48.8448 63.7658 48.6816 63.4552 48.6816Z" fill="#9CB8C2"/>
</svg>
