<svg width="26" height="26" viewBox="0 0 26 26" fill="none" xmlns="http://www.w3.org/2000/svg">
<path d="M0.372819 0C0.124276 0 0 0.124332 0 0.372876V25.2272C0 25.4758 0.124276 25.6 0.372819 25.6H25.4757C25.7243 25.6 25.8485 25.4758 25.8485 25.2272V0.372876C25.8485 0.124332 25.7243 0 25.4757 0H0.372819ZM25.2272 24.8544H0.745638V0.745676H25.2272V24.8544Z" fill="#9CB8C2"/>
<path d="M3.85219 6.5865H22.2444C22.493 6.5865 22.6172 6.46216 22.6172 6.21362C22.6172 5.96508 22.493 5.84082 22.2444 5.84082H3.85219C3.60365 5.84082 3.47937 5.96508 3.47937 6.21362C3.47937 6.46216 3.60365 6.5865 3.85219 6.5865Z" fill="#9CB8C2"/>
<path d="M22.1201 9.81787C22.3687 9.81787 22.493 9.69361 22.493 9.44507C22.493 9.19652 22.3687 9.07227 22.1201 9.07227H3.85219C3.60365 9.07227 3.47937 9.19652 3.47937 9.44507C3.47937 9.69361 3.60365 9.81787 3.85219 9.81787H22.1201Z" fill="#9CB8C2"/>
<path d="M3.85219 12.9243H22.1201C22.3687 12.9243 22.493 12.8001 22.493 12.5515C22.493 12.303 22.3687 12.1787 22.1201 12.1787H3.85219C3.60365 12.1787 3.47937 12.303 3.47937 12.5515C3.47937 12.8001 3.72792 12.9243 3.85219 12.9243Z" fill="#9CB8C2"/>
<path d="M13.1731 18.5166H3.72841C3.47987 18.5166 3.35559 18.6409 3.35559 18.8894C3.35559 19.1379 3.47987 19.2622 3.72841 19.2622H13.1731C13.4216 19.2622 13.5459 19.1379 13.5459 18.8894C13.5459 18.6409 13.2973 18.5166 13.1731 18.5166Z" fill="#9CB8C2"/>
<path d="M3.60585 16.1558H22.1223C22.3709 16.1558 22.4952 16.0315 22.4952 15.783C22.4952 15.5344 22.3709 15.4102 22.1223 15.4102H3.60585C3.35731 15.4102 3.23303 15.5344 3.23303 15.783C3.23303 15.9072 3.48158 16.1558 3.60585 16.1558Z" fill="#9CB8C2"/>
</svg>
