<svg width="84" height="84" viewBox="0 0 84 84" fill="none" xmlns="http://www.w3.org/2000/svg">
<circle cx="42" cy="42" r="42" fill="white"/>
<path d="M40.87 13.5049C43.1675 13.4339 45.4818 14.0059 47.5179 15.0722C49.2251 15.9614 50.7001 17.2511 51.9041 18.7459C54.0727 21.4879 55.0981 25.0847 54.7458 28.5547C54.4631 31.3795 53.2905 34.1311 51.3878 36.2455C49.9941 37.8458 48.1756 39.0806 46.1959 39.8437C46.1183 39.8862 46.0084 39.8935 45.9608 39.977C50.506 41.1547 54.51 44.2739 56.7401 48.4075C58.1426 50.9079 58.845 53.7766 58.8926 56.6359C59.0002 60.5292 58.894 64.4321 58.9453 68.3291C59.1189 68.7949 58.7373 69.4687 58.2041 69.3523C46.9745 69.353 35.7455 69.3581 24.5166 69.3501C24.0874 69.2505 23.9885 68.7839 24.0046 68.4024C23.9944 64.3743 24.0061 60.3454 23.9995 56.3173C24.1101 53.198 25.0314 50.0942 26.7189 47.462C28.9929 43.8718 32.6248 41.1562 36.7328 40.0459V39.999C33.6633 38.9898 31.0414 36.7626 29.4184 33.981C27.8746 31.4074 27.2901 28.3028 27.6622 25.3366C28.0672 22.35 29.4763 19.4849 31.672 17.4093C34.0896 14.9887 37.4556 13.5884 40.87 13.5049ZM40.0651 15.1982C37.2227 15.4406 34.4499 16.726 32.5142 18.8367C30.0659 21.3173 28.8589 24.9594 29.2727 28.4134C29.6279 32.8304 32.7684 36.8336 36.9122 38.3533C40.7287 39.8239 45.2739 39.1619 48.5169 36.6674C51.1901 34.6013 52.9478 31.3576 53.1485 27.9747C53.128 27.0944 53.21 26.2067 53.0928 25.3315C52.8328 22.9659 51.7262 20.7299 50.1303 18.9824C47.5889 16.2719 43.7681 14.8071 40.0651 15.1982ZM40.0651 40.8317C39.2456 40.9255 38.4224 41.017 37.6234 41.2294C32.1612 42.5462 27.5501 46.9252 26.0165 52.339C25.6635 53.6595 25.3544 55.0151 25.391 56.3905C25.3962 60.1726 25.3881 63.9553 25.3947 67.7374C36.1102 67.7476 46.8258 67.7425 57.5413 67.7403C57.5486 64.0542 57.5406 60.3688 57.5457 56.6827C57.4673 54.9404 57.2359 53.1827 56.6266 51.5385C55.4709 48.2442 53.2268 45.3293 50.2929 43.4288C47.3194 41.4169 43.6392 40.486 40.0651 40.8317Z" fill="#9CB8C2"/>
</svg>
