<svg width="100" height="100" viewBox="0 0 100 100" fill="none" xmlns="http://www.w3.org/2000/svg">
<path d="M76.7883 0C77.2626 0.709952 77.4465 1.73409 76.8096 2.39873C76.767 1.60117 76.7537 0.800584 76.7883 0Z" fill="#F4F5F9"/>
<path d="M73.2637 1.69193C73.5674 1.41701 73.7566 1.4865 73.8259 1.90039C73.5168 2.18437 73.3303 2.11488 73.2637 1.69193Z" fill="#F4F5F9"/>
<path d="M72.3254 2.12695C73.0555 2.23269 73.7057 2.61939 74.3665 2.96077C75.0487 3.13297 75.7628 3.03025 76.4583 3.06349C76.5382 4.21149 76.6208 5.3595 76.7434 6.50146C76.9805 7.09662 77.5161 7.44404 77.9158 7.88814C77.9158 7.57092 77.9158 6.9365 77.9158 6.61929C78.7099 6.52261 79.2322 7.21746 79.5892 7.92741C80.2954 7.54675 81.0148 7.15704 81.8142 7.16308C82.2113 6.78545 82.6456 6.46521 83.0959 6.18123C82.9068 7.41685 82.142 8.73101 82.8535 9.9334C82.3392 11.2023 81.8675 12.4953 81.3159 13.743C81.6384 14.8457 82.5044 15.9091 81.8009 17.0782C81.0628 17.3924 80.3993 17.9604 80.2687 18.8999C80.4046 19.0359 80.6791 19.3108 80.815 19.4468C80.4366 19.8697 80.4233 20.2806 80.7724 20.6793C80.3513 20.9664 79.9277 21.2896 79.7918 21.8576C80.9829 22.0147 81.1934 20.3893 81.8995 19.6431C82.1526 19.625 82.4085 19.6069 82.6643 19.5857C82.7895 20.0087 82.9147 20.4286 83.0426 20.8485C82.9068 21.1416 82.7735 21.4346 82.6403 21.7277C82.4751 22.5675 81.5291 23.785 82.6456 24.2503C82.5017 24.8363 82.3232 25.4103 82.11 25.9692C82.4138 26.1203 82.7202 26.2744 83.0267 26.4254C82.7788 26.5916 82.5257 26.7577 82.2806 26.9239C82.1607 27.0508 81.9262 27.3046 81.8063 27.4314C82.1713 28.1746 81.7769 28.9178 81.5558 29.6338C82.2672 29.4254 82.9334 29.0719 83.517 28.5674C83.4477 28.8665 83.3784 29.1686 83.3091 29.4676C83.3864 29.6308 83.5409 29.9571 83.6182 30.1202C83.2665 30.0356 82.9147 29.9571 82.563 29.8846C83.0586 30.4435 83.6928 30.7848 84.3057 31.1474C84.1432 31.522 83.9833 31.8966 83.8234 32.2742C84.3217 32.4525 84.8333 32.7485 85.3742 32.6337C85.9871 32.3709 86.536 31.9449 87.1116 31.5945C87.466 32.0084 87.7218 32.5008 87.8257 33.0718C88.4599 32.3407 89.0488 31.5612 89.6377 30.7788C90.0454 30.8845 90.4637 30.8785 90.8768 30.806C91.3111 31.1746 91.8227 31.386 92.3477 31.528C92.2597 32.2017 92.3636 32.963 92.0119 33.5582C91.5536 34.4554 90.7382 35.105 90.509 36.1472C90.3891 36.6427 90.064 37.3617 90.6769 37.6457C90.6796 37.8602 90.6876 38.2862 90.6902 38.4976C90.8421 38.7484 90.9913 38.9961 91.1486 39.2469C91.463 39.3314 91.7747 39.4281 92.0865 39.5339C91.908 39.9357 91.6442 40.274 91.4044 40.6275C91.5056 41.0686 91.6095 41.5066 91.7135 41.9447C92.4489 41.6607 93.227 41.7211 93.9864 41.7936C94.0557 41.8873 94.1916 42.0716 94.2609 42.1652C93.656 42.9416 92.7633 43.3374 92.1585 44.1229C92.2997 44.3494 92.4729 44.8177 92.7873 44.5972C93.5308 44.1078 94.3382 43.7815 95.1349 43.425C95.8597 42.9658 96.6084 42.558 97.4132 42.3042C97.6796 42.7936 97.8608 43.6425 98.5163 43.5579C99.02 43.1773 98.6602 42.5942 98.5616 42.0927C98.8494 42.3253 99.1425 42.5519 99.4357 42.7815C99.4223 43.8238 100.144 44.709 99.9739 45.7603C99.5342 48.6152 98.7269 51.4067 97.4638 53.9353C96.8163 55.0289 96.0942 56.0652 95.5346 57.2222C94.9004 58.5122 93.6773 59.4095 93.3949 60.917C93.2297 61.9411 92.8673 62.9049 92.6461 63.9139C92.0865 64.938 91.0633 65.361 90.2053 65.9682C86.941 68.6781 84.2817 72.1705 81.5558 75.5239C79.7758 77.9407 77.3296 79.5721 75.451 81.8742C74.8888 82.7503 74.124 83.3998 73.4312 84.1309C72.2827 86.3333 70.2176 87.5598 68.5282 89.1549C65.2614 92.2304 61.9199 95.2122 58.3545 97.8375C57.7763 98.2091 57.1768 98.5475 56.6838 99.0641C56.5399 99.1033 56.2468 99.1879 56.1029 99.2302C56.1082 98.6562 56.388 98.0913 56.9183 97.9825C57.7337 97.7499 58.4212 97.1336 58.7915 96.2756C57.1448 96.7952 55.6606 97.8526 54.139 98.7197C53.9445 98.5686 53.7527 98.4175 53.5608 98.2665C51.938 98.5444 50.7016 100.152 49.0042 99.9885C49.0362 99.1909 49.0735 98.3934 49.0762 97.5988C48.3088 97.4961 47.5866 97.8375 46.8485 98.0097C47.1896 97.2393 47.3042 96.2001 46.3556 95.9554C46.5901 95.6714 46.7073 95.3089 46.8006 94.9433C46.0331 94.9524 45.3563 95.3542 44.6902 95.7258C44.7061 95.4327 44.7355 94.8466 44.7514 94.5536C44.5729 94.324 44.3944 94.1004 44.2158 93.8739C44.2558 93.3724 44.2958 92.8709 44.3278 92.3663C43.2992 92.6111 42.3346 93.0914 41.37 93.5506C41.8603 93.1881 42.3719 92.7198 42.0681 91.9766C42.1241 91.596 42.1827 91.2153 42.2413 90.8407C42.5531 90.4782 43.2912 89.8045 42.5744 89.4178C42.2973 89.6776 42.0335 89.9555 41.767 90.2274C39.3475 91.9132 36.8534 93.46 34.4898 95.2515C33.7544 95.7197 33.2214 96.472 32.5899 97.0822C31.9024 97.3904 31.159 97.5354 30.5035 97.9402C29.395 97.046 27.8895 97.6623 26.6184 97.6109C26.6184 96.7137 26.5012 95.8134 26.6104 94.9192C26.1787 94.1488 25.4166 94.6201 24.8597 94.898C24.6279 94.6624 24.4014 94.4297 24.1749 94.1941C23.1703 94.2878 22.227 94.7923 21.2225 94.8527C20.8414 94.6896 20.4817 94.472 20.1166 94.2726C20.4311 93.4026 20.7828 92.4147 20.3058 91.5204C19.0987 91.2999 17.7131 91.744 16.6766 90.8045C16.1756 90.3271 15.1817 90.1338 15.4988 89.1338C15.3549 89.1852 15.0724 89.2879 14.9285 89.3423L15.219 88.5477C15.3442 88.7532 15.4695 88.9556 15.5947 89.161C15.9065 88.4178 16.3115 87.7381 16.6766 87.0311C16.0663 87.016 15.4748 87.161 14.9152 87.4299C14.8752 86.6928 14.5875 85.8559 14.9951 85.1943C15.5974 84.1369 16.2928 83.1551 16.9483 82.137C16.053 81.8651 15.7226 82.9799 15.1284 83.4844C14.9898 83.3575 14.71 83.1007 14.5688 82.9738C14.1771 83.4512 13.7881 83.9315 13.3964 84.4149C13.4097 84.6475 13.431 85.1158 13.4443 85.3484C13.7374 85.7653 14.0066 86.2034 14.2357 86.6686C14.1052 86.6595 13.8413 86.6384 13.7108 86.6293C13.3644 86.288 13.0046 85.9677 12.6502 85.6414C12.6236 84.4481 12.5143 83.2548 12.2159 82.1068C11.7869 82.1279 11.3579 82.1551 10.9289 82.1884C12.1653 80.7775 13.5189 79.5026 14.6914 78.0193C14.1558 77.977 13.5589 78.0737 13.1432 77.5963C12.1466 78.4966 11.2486 79.5359 10.5452 80.7443C10.1348 80.8742 9.95627 80.4784 10.1481 80.1038C10.9235 78.9135 12.0987 78.1522 12.8421 76.9317C12.6209 76.5752 12.3971 76.2217 12.1706 75.8743C12.0027 75.8351 11.6696 75.7565 11.5018 75.7202C11.4272 74.5783 12.3465 73.9348 13.1485 73.5239C14.798 72.7777 16.2609 71.6146 17.7531 70.5452C18.4619 69.9228 19.4478 69.4787 19.669 68.3821C19.0934 68.5603 18.5338 68.796 17.9529 68.9531C19.3679 67.5392 20.924 66.1374 21.7741 64.1798C19.7862 65.1767 18.6138 67.5483 16.5806 68.4425C17.4147 67.1706 18.8589 66.4758 19.3172 64.8927C18.3633 65.3852 17.6785 66.3368 16.7671 66.9199C16.9803 66.4184 17.1935 65.9169 17.404 65.4154C15.8265 66.6087 14.3876 68.0105 12.9967 69.4666C12.8608 69.4727 12.589 69.4848 12.4531 69.4908C12.8075 68.4244 13.7188 67.7809 14.249 66.8383C14.6967 66.0045 15.5627 65.5211 15.8505 64.5846C15.7492 64.5302 15.5494 64.4245 15.4481 64.3731C14.6141 65.0075 13.9346 65.8625 13.1192 66.5271C12.8687 66.8262 12.509 66.793 12.1813 66.7265C12.6582 66.0226 13.1325 65.3127 13.4816 64.5151C12.6636 64.7145 12.0134 65.3308 11.3339 65.8414C12.1866 64.503 13.5616 63.349 13.6522 61.5877C12.6076 61.1315 11.643 62.1315 10.5905 62.0257C10.1668 61.7599 9.8337 61.352 9.46597 60.9986C9.17819 61.1315 8.88774 61.2674 8.59729 61.4034C8.52002 60.5968 8.24023 59.8445 8.09634 59.059C8.13098 58.5545 8.42409 58.1406 8.59996 57.6875C7.81921 57.4609 7.217 58.1376 6.52152 58.3853C6.02589 58.5424 5.62353 58.0802 5.21051 57.8597C5.49563 57.2555 5.96461 56.6966 5.89533 55.9624C5.43434 55.7177 5.0453 55.896 4.73886 56.3038C4.78416 55.9141 5.08527 55.3975 4.71754 55.0954C4.36314 55.0773 4.00874 55.0742 3.65434 55.0833C3.7103 54.3975 3.61171 53.6453 3.91282 53.0199C4.60296 52.0713 5.59422 51.5003 6.39895 50.6937C6.86793 50.2194 7.15305 49.5215 7.73661 49.1983C9.70313 47.9808 11.7309 46.8026 13.3964 45.0745C14.281 44.1803 15.5148 43.6788 16.0797 42.422C15.4535 42.6879 14.8832 43.0836 14.3237 43.4945C13.4097 44.2377 12.144 44.2135 11.3632 45.1923C9.93229 45.5518 8.95169 46.8569 7.71529 47.6424C7.36622 47.733 6.9905 47.7693 6.69206 48.017C5.46898 48.9264 4.21659 49.7813 3.07078 50.8145C2.65243 50.5638 2.26872 50.2466 1.87435 49.9505C3.03881 47.9234 5.14123 47.0654 6.89191 45.857C8.50936 44.6395 10.3293 43.7996 11.8482 42.4099C13.5376 41.2257 15.2403 40.0293 16.7378 38.5429C16.7751 38.3375 16.8471 37.9327 16.8844 37.7273C16.5673 37.7907 16.2422 37.8451 15.9544 38.0203C13.9986 39.1623 12.1626 40.5429 10.2627 41.7966C7.99508 43.1471 5.82604 44.6999 3.72629 46.3645C2.8656 45.6002 1.94896 46.3554 1.21884 46.9657C0.816478 47.3403 0.595311 48.02 0.0144142 48.0805C-0.156124 46.7361 1.2295 46.3977 1.90366 45.6334C2.96686 44.4673 4.65626 44.0806 5.23982 42.3918C7.36888 41.9114 9.13822 40.4613 10.9475 39.1895C10.9582 39.0324 10.9848 38.7212 10.9982 38.5641C10.4039 38.7816 9.83636 39.0837 9.28211 39.4039C9.29277 39.2469 9.31675 38.9357 9.32741 38.7786C10.8969 37.6668 12.6236 36.8481 14.0838 35.5491C14.0812 35.2409 14.0838 34.9358 14.0865 34.6276C14.3503 34.3376 14.7367 34.1292 14.798 33.673C14.2997 33.3074 13.9186 33.9147 13.5269 34.1775C13.3697 34.0718 13.0526 33.8633 12.8927 33.7576C13.0952 33.6307 13.5003 33.383 13.7028 33.2591C13.6308 32.9932 13.5589 32.7274 13.4896 32.4615C14.0172 32.238 14.5208 31.951 14.9925 31.5975C15.0484 31.4162 15.1657 31.0567 15.2243 30.8755C15.8558 30.7033 16.3754 30.2954 16.7085 29.661C17.4919 29.5734 18.2754 29.6731 19.0588 29.6519C20.1619 29.1202 21.3584 28.8423 22.331 28.0115C24.9423 27.1626 27.1247 25.2079 29.6801 24.208C27.7855 25.8635 25.4513 26.7396 23.5834 28.4284C24.3854 28.5281 25.1448 28.2169 25.8163 27.7426C27.1913 26.8031 28.7048 26.0569 29.8506 24.7487C30.1331 24.4919 30.221 24.1626 30.1224 23.7578C30.2503 23.8001 30.5062 23.8908 30.6341 23.933C30.65 23.7397 30.6874 23.347 30.706 23.1506C31.3748 22.7427 32.0597 22.3651 32.7258 21.9482C33.5865 21.4044 34.3726 20.6401 35.3665 20.4256C34.7563 21.5162 33.6958 22.0751 32.7871 22.785C32.7605 22.9663 32.7018 23.3258 32.6752 23.5071C33.8023 23.063 34.6444 22.06 35.6809 21.4225C36.6109 20.8606 37.2957 19.9362 38.0551 19.1356C37.1278 19.2806 36.3897 19.9452 35.585 20.4226C35.8222 19.9996 36.0833 19.5948 36.3551 19.199C37.6155 18.5978 38.4788 17.3048 39.7392 16.6915C39.7472 16.9332 39.7605 17.4106 39.7685 17.6522C40.8957 16.9272 41.9349 16.042 42.9395 15.1145C43.2939 14.749 43.7708 14.6281 44.2078 14.4469C44.3011 14.2233 44.3944 14.0028 44.485 13.7822C44.5169 14.0602 44.5809 14.613 44.6129 14.891C45.1325 14.4862 45.6441 14.0632 46.1504 13.6342C46.3342 13.6523 46.7046 13.6825 46.8885 13.7007C47.0724 12.9092 47.7119 12.5194 48.3141 12.1992C49.356 11.7189 50.0754 10.4923 51.2799 10.4651C51.8314 10.021 52.415 9.38054 53.1585 9.63129C53.4569 10.0119 53.281 10.5678 53.3183 11.024C54.3815 10.2446 55.562 9.69474 56.5905 8.85186C57.0808 8.41984 57.7363 8.53767 58.3119 8.4138C58.4185 8.49537 58.6343 8.65549 58.7409 8.73706C59.7828 8.07242 60.7394 7.25673 61.7813 6.5921C62.2316 6.32624 62.5141 5.83381 62.8338 5.40784C63.0523 5.22657 63.2069 4.63142 63.5426 4.92749C63.6279 5.74015 63.7851 6.58908 64.4353 7.07547C64.835 7.04224 65.0349 6.57699 65.3333 6.33228C65.7756 6.36854 66.186 6.61324 66.6097 6.75523C66.551 7.17214 66.4898 7.58603 66.4205 8.00294C66.9481 8.05127 67.3904 8.35338 67.8301 8.65851C68.3897 8.69174 68.9652 8.60111 69.5008 8.40474C69.9618 8.01804 70.207 7.39268 70.6013 6.92744C70.9104 6.87306 71.2222 6.87003 71.5393 6.92441C71.4194 7.61926 71.2648 8.31109 71.1023 8.99687C72.0349 9.03916 72.5652 8.26275 72.9516 7.42289C73.1354 7.47727 73.322 7.52863 73.5112 7.58301C73.2553 6.16915 74.8088 6.33531 75.2272 5.33231C75.0806 5.19938 74.7875 4.92749 74.641 4.79456C75.102 2.86712 72.1868 3.96074 72.3254 2.12695ZM55.514 11.9454C56.6891 12.2868 57.0942 10.5829 58.2426 10.7582C58.3119 10.6434 58.4478 10.4168 58.5144 10.302C59.6762 10.2929 60.1585 8.84884 60.822 7.99085C58.8368 8.81258 56.6305 9.73703 55.514 11.9454ZM68.339 9.22043C68.5575 9.63129 68.784 9.61015 69.0185 9.16303C68.8054 8.74612 68.5789 8.76727 68.339 9.22043ZM70.5907 9.29898C70.2309 9.49535 70.2203 9.69474 70.5614 9.90017C70.9264 9.69172 70.9371 9.49232 70.5907 9.29898ZM43.7682 16.0783C42.3719 17.0933 41.1728 18.4317 39.6699 19.2534C38.5161 19.9211 37.6101 20.9935 36.5576 21.8274C34.8362 23.3047 32.9123 24.4345 31.2789 26.0448C32.462 26.0236 33.2801 24.9119 34.2926 24.3741C35.2386 23.8636 35.8568 22.7971 36.8747 22.4376C37.9672 21.9633 38.8386 21.0721 39.7232 20.2383C41.0529 19.1265 42.3985 18.0329 43.6936 16.8698C44.6102 16.1508 45.5615 15.465 46.2836 14.4862C45.2018 14.2686 44.5782 15.5073 43.7682 16.0783ZM43.4218 15.2747C43.0594 15.3864 43.0993 16.2293 43.539 15.8819C43.8881 15.758 43.8668 14.9333 43.4218 15.2747ZM19.0215 31.8724C18.9921 32.0023 18.9335 32.2621 18.9042 32.389C19.5571 32.2138 20.1886 31.9479 20.8041 31.6458C20.8361 31.4827 20.9 31.1504 20.9347 30.9842C20.2898 31.2652 19.661 31.5824 19.0215 31.8724ZM14.6594 34.7998C15.7492 34.9992 16.4367 33.9267 17.38 33.5521C17.7824 33.4373 17.913 32.9902 18.0142 32.5914C16.8764 33.2802 15.5574 33.6971 14.6594 34.7998ZM17.9822 36.6638C18.755 37.1502 19.5331 36.54 20.2232 36.1623C20.2552 35.9992 20.3165 35.6759 20.3485 35.5158C19.4585 35.5702 18.691 36.0959 17.9822 36.6638ZM96.699 43.1259C96.8216 43.2891 96.8216 43.2891 96.699 43.1259V43.1259ZM13.1858 83.5237C14.1052 82.6355 14.8752 81.563 15.8612 80.7564C16.5353 79.8742 17.452 79.2156 17.9476 78.1764C16.3461 79.9316 14.2117 81.1884 13.1858 83.5237ZM18.4672 80.2488C17.9609 80.3757 17.5186 80.6657 17.1748 81.1038C18.0862 80.8047 18.9255 80.27 19.6743 79.6114C19.2266 79.7081 18.8403 79.9709 18.4672 80.2488ZM16.4954 86.3756C16.7751 86.4299 17.0576 86.4753 17.3401 86.5115C17.6465 86.152 17.6225 85.6022 17.1828 85.4209C16.6659 85.3212 16.6313 85.9828 16.4954 86.3756ZM43.2965 88.726C43.2219 88.8921 43.0754 89.2214 43.0008 89.3846C43.976 89.4027 45.0046 88.7864 45.5002 87.8227C44.7168 87.9616 44.0426 88.4601 43.2965 88.726ZM42.9128 90.9223C43.8295 90.8407 44.5889 90.1972 45.4256 89.8287C46.0545 89.5598 46.6007 89.1127 47.0883 88.5991C46.9498 88.5628 46.6727 88.4903 46.5341 88.4541C45.3643 89.3423 43.8801 89.7259 42.9128 90.9223Z" fill="#F4F5F9"/>
<path d="M82.9946 21.873C83.1598 21.5044 83.3943 21.4259 83.6981 21.6404C83.8686 21.9697 83.8153 22.2295 83.5329 22.4198C83.1785 22.444 83 22.2627 82.9946 21.873Z" fill="#F4F5F9"/>
<path d="M0.627441 42.1201C1.42684 40.9962 2.58597 40.241 3.89698 40.386C2.78315 40.9086 1.77325 41.6881 0.627441 42.1201Z" fill="#F4F5F9"/>
<path d="M17.651 19.0286C30.3361 18.9711 43.0247 19.021 55.7107 19.0041C56.0653 19.0092 56.2963 19.4475 56.2142 19.7658C56.2117 24.1022 56.2328 28.4403 56.2041 32.7759C55.709 32.9155 55.2511 33.1593 54.7899 33.3818C54.7696 33.3581 54.7298 33.3099 54.7095 33.2862C54.668 29.0065 54.7103 24.7259 54.6892 20.4453C42.3358 20.4343 29.9824 20.453 17.6298 20.436C17.0628 20.2134 17.0247 19.2216 17.651 19.0286Z" fill="#136B9F"/>
<path d="M10.8831 25.4682C15.6672 25.3929 20.4564 25.458 25.2422 25.436C33.0002 25.4386 40.7582 25.431 48.5162 25.4394C49.3118 25.3743 50.0472 26.0809 50.0328 26.8781C50.0464 30.0365 50.0362 33.1957 50.0379 36.355C50.0413 36.6046 49.7755 36.718 49.6207 36.8653C49.2102 37.1573 48.9098 37.5728 48.523 37.8918C48.5002 34.2485 48.5298 30.6052 48.5095 26.9619C36.1848 26.9585 23.8594 26.9551 11.5347 26.9636C11.5305 38.9506 11.5296 50.9367 11.5356 62.9236C22.2539 62.9321 32.9731 62.9236 43.6923 62.9279C43.9674 62.7222 44.129 62.9634 44.2518 63.1234C44.4269 63.5795 44.6563 64.0128 44.8763 64.4504C33.6764 64.4495 22.4765 64.4521 11.2774 64.4487C10.5462 64.3065 9.92168 63.6134 10.008 62.8441C10.0114 50.7124 10.0055 38.5816 10.0105 26.4499C10.0639 25.9827 10.4142 25.563 10.8831 25.4682Z" fill="#136B9F"/>
<path d="M16.9757 31.649C21.3367 31.5703 25.7036 31.633 30.0671 31.6177C30.6756 31.561 31.4584 32.018 31.3331 32.7137C31.3391 36.5508 31.3348 40.3879 31.3357 44.2259C31.2663 44.7294 30.7458 45.1382 30.2363 45.0679C25.8635 45.0722 21.4899 45.073 17.117 45.0671C16.4129 45.1636 15.845 44.4781 15.9364 43.8019C15.9297 40.0773 15.9331 36.3528 15.9348 32.6291C16.0126 32.134 16.4459 31.6287 16.9757 31.649ZM17.2059 32.8863C17.2 36.4391 17.2 39.991 17.2059 43.5438C21.4348 43.5497 25.6646 43.5488 29.8936 43.5446C29.8995 39.9918 29.8995 36.4391 29.8936 32.8872C25.6646 32.8813 21.4348 32.8821 17.2059 32.8863Z" fill="#136B9F"/>
<path d="M34.2407 31.6479C37.7553 31.5666 41.2751 31.6411 44.7923 31.6106C45.3323 31.5709 45.978 32.0643 45.7571 32.6567C45.7258 33.0206 45.2882 33.2127 44.9616 33.1348C41.3783 33.1399 37.7943 33.1374 34.2119 33.1365C33.6516 33.1052 33.4595 32.3833 33.6982 31.9492C33.7921 31.7418 34.0494 31.7164 34.2407 31.6479Z" fill="#DF1E54"/>
<path d="M62.9305 33.9352C67.0368 33.6086 71.2234 34.6419 74.7245 36.8059C79.7879 39.9143 83.3542 45.4254 83.9255 51.3614C84.6482 57.0713 82.6256 63.0783 78.5896 67.1837C78.0776 67.8489 77.2998 68.2898 76.776 68.9356C81.1039 74.1335 85.5165 79.2697 89.869 84.4499C90.1822 84.8494 89.8783 85.3377 89.5441 85.5975C89.3079 85.6237 88.8712 85.6787 88.7731 85.3715C84.4908 80.2286 80.1112 75.1372 75.8053 70.0019C75.7282 69.8995 75.6783 69.7336 75.5175 69.7819C69.6814 73.8094 61.5858 74.2952 55.3409 70.9176C51.2779 68.8145 48.0348 65.2279 46.2762 61.0091C44.6691 57.0586 44.3103 52.5766 45.4553 48.4526C47.0201 42.4989 51.5622 37.4491 57.301 35.2318C59.0993 34.5141 61.0044 34.113 62.9305 33.9352ZM62.7621 35.2157C59.9744 35.4416 57.2586 36.3582 54.8679 37.7986C51.5749 39.7899 48.9446 42.8434 47.4636 46.3953C45.9623 49.9032 45.6754 53.8782 46.4861 57.5952C47.3815 61.544 49.5844 65.2076 52.7521 67.7465C55.8673 70.3269 59.8712 71.8257 63.9182 71.8993C67.7925 72.0254 71.721 70.8897 74.8887 68.658C74.948 68.2094 75.3643 67.8963 75.8247 67.9733C80.7036 64.1912 83.4346 57.8178 82.7161 51.6702C82.4648 48.6803 81.3654 45.802 79.7439 43.2927C77.6172 40.1538 74.5248 37.6539 70.9695 36.3201C68.368 35.313 65.5363 34.9728 62.7621 35.2157Z" fill="#136B9F"/>
<path d="M33.9759 38.1445C37.7699 38.1292 41.5655 38.1072 45.3586 38.1555C45.9333 38.3569 45.9477 39.2429 45.4467 39.5535C41.6476 39.5882 37.8469 39.5654 34.047 39.5645C33.4199 39.4198 33.48 38.417 33.9759 38.1445Z" fill="#DF1E54"/>
<path d="M33.9023 44.3443C37.3586 44.2631 40.82 44.3291 44.2779 44.3113C44.0604 44.8081 43.8937 45.326 43.6677 45.8186C40.5728 45.8499 37.4762 45.8237 34.3813 45.8321C34.1156 45.8888 33.8829 45.8008 33.6433 45.7213C33.1643 45.3887 33.2583 44.3993 33.9023 44.3443Z" fill="#DF1E54"/>
<path d="M17.817 50.5875C26.0464 50.5528 34.2775 50.5757 42.5069 50.5765C42.4942 51.0547 42.4129 51.5269 42.4138 52.0068C34.3486 52.0161 26.2825 52.0051 18.2164 52.0127C17.7882 52.0169 17.338 51.6285 17.4548 51.1613C17.4607 50.921 17.6545 50.7432 17.817 50.5875Z" fill="#DF1E54"/>
<path d="M18.1586 57.0272C26.2687 56.9764 34.383 57.006 42.4939 57.0128C42.6064 57.5079 42.7055 58.0165 42.7639 58.5226C34.6402 58.5217 26.5149 58.5404 18.3922 58.5141C17.6381 58.476 17.4215 57.2658 18.1586 57.0272Z" fill="#DF1E54"/>
</svg>
