<svg width="135" height="41" viewBox="0 0 135 41" fill="none" xmlns="http://www.w3.org/2000/svg">
<path d="M130 0.777344H5C2.23858 0.777344 0 3.01592 0 5.77734V35.7773C0 38.5388 2.23858 40.7773 5 40.7773H130C132.761 40.7773 135 38.5388 135 35.7773V5.77734C135 3.01592 132.761 0.777344 130 0.777344Z" fill="white"/>
<path d="M68.1401 19.5323C67.3004 19.5363 66.4807 19.7889 65.7844 20.2583C65.0881 20.7277 64.5465 21.3928 64.2279 22.1697C63.9093 22.9467 63.828 23.8006 63.9942 24.6237C64.1605 25.4468 64.5668 26.2022 65.162 26.7945C65.7571 27.3869 66.5144 27.7897 67.3383 27.9521C68.1622 28.1145 69.0157 28.0291 69.7911 27.7069C70.5665 27.3846 71.2291 26.8399 71.6952 26.1414C72.1613 25.443 72.4101 24.6221 72.4101 23.7823C72.4183 23.2203 72.3132 22.6623 72.1013 22.1417C71.8893 21.6211 71.5748 21.1484 71.1764 20.7518C70.7779 20.3553 70.3038 20.043 69.7822 19.8335C69.2606 19.624 68.7021 19.5216 68.1401 19.5323ZM68.1401 26.3623C67.6237 26.3985 67.1083 26.2784 66.6611 26.0177C66.2138 25.7571 65.8553 25.3679 65.6321 24.9008C65.409 24.4337 65.3315 23.9102 65.4098 23.3985C65.4881 22.8868 65.7185 22.4104 66.0711 22.0314C66.4237 21.6523 66.8821 21.3881 67.3869 21.2731C67.8916 21.1581 68.4193 21.1976 68.9013 21.3864C69.3833 21.5753 69.7973 21.9048 70.0896 22.332C70.3819 22.7593 70.5388 23.2647 70.5401 23.7823C70.5562 24.1104 70.5065 24.4383 70.3938 24.7468C70.2812 25.0553 70.1079 25.3381 69.8842 25.5785C69.6606 25.819 69.391 26.0122 69.0914 26.1468C68.7919 26.2815 68.4684 26.3547 68.1401 26.3623ZM58.8301 19.5323C57.99 19.5343 57.1692 19.7853 56.4717 20.2535C55.7741 20.7217 55.2309 21.3861 54.9108 22.1629C54.5906 22.9396 54.5079 23.7938 54.673 24.6176C54.8381 25.4413 55.2437 26.1977 55.8384 26.7911C56.4332 27.3844 57.1905 27.7882 58.0146 27.9514C58.8388 28.1146 59.6928 28.0298 60.4688 27.7079C61.2448 27.3859 61.908 26.8412 62.3745 26.1425C62.8411 25.4438 63.0901 24.6225 63.0901 23.7823C63.0982 23.2203 62.9932 22.6623 62.7813 22.1417C62.5693 21.6211 62.2548 21.1484 61.8564 20.7518C61.4579 20.3553 60.9838 20.043 60.4622 19.8335C59.9406 19.624 59.3821 19.5216 58.8201 19.5323H58.8301ZM58.8301 26.3623C58.3134 26.4005 57.7972 26.2822 57.3487 26.0229C56.9002 25.7636 56.5402 25.3752 56.3155 24.9084C56.0907 24.4416 56.0118 23.918 56.0888 23.4057C56.1658 22.8934 56.3953 22.4161 56.7474 22.036C57.0995 21.656 57.5578 21.3907 58.0628 21.2748C58.5677 21.1588 59.0959 21.1976 59.5785 21.386C60.0611 21.5745 60.4757 21.9038 60.7685 22.3312C61.0613 22.7586 61.2187 23.2643 61.2201 23.7823C61.2362 24.1104 61.1865 24.4383 61.0738 24.7468C60.9612 25.0553 60.7879 25.3381 60.5642 25.5785C60.3406 25.819 60.071 26.0122 59.7714 26.1468C59.4719 26.2815 59.1484 26.3547 58.8201 26.3623H58.8301ZM47.7401 20.8423V22.6423H52.0601C51.9924 23.4901 51.6399 24.2901 51.0601 24.9123C50.6279 25.3526 50.1083 25.6975 49.5348 25.9248C48.9613 26.1521 48.3465 26.2569 47.7301 26.2323C46.4571 26.2323 45.2362 25.7266 44.336 24.8265C43.4358 23.9263 42.9301 22.7054 42.9301 21.4323C42.9301 20.1593 43.4358 18.9384 44.336 18.0382C45.2362 17.1381 46.4571 16.6323 47.7301 16.6323C48.9479 16.6125 50.1239 17.0764 51.0001 17.9223L52.2701 16.6523C51.6786 16.0534 50.9728 15.5792 50.1947 15.258C49.4166 14.9368 48.5819 14.775 47.7401 14.7823C46.8511 14.7477 45.9643 14.893 45.1327 15.2093C44.3012 15.5257 43.5421 16.0066 42.9009 16.6234C42.2596 17.2401 41.7495 17.9799 41.4011 18.7985C41.0527 19.6171 40.873 20.4977 40.873 21.3873C40.873 22.277 41.0527 23.1575 41.4011 23.9761C41.7495 24.7948 42.2596 25.5346 42.9009 26.1513C43.5421 26.7681 44.3012 27.249 45.1327 27.5654C45.9643 27.8817 46.8511 28.0269 47.7401 27.9923C48.5961 28.031 49.4504 27.8859 50.2455 27.5668C51.0407 27.2477 51.7583 26.762 52.3501 26.1423C53.3978 24.9913 53.9571 23.4781 53.9101 21.9223C53.9133 21.5433 53.8798 21.1649 53.8101 20.7923L47.7401 20.8423ZM93.0501 22.2423C92.7893 21.4751 92.3016 20.8051 91.6516 20.3212C91.0016 19.8373 90.2199 19.5622 89.4101 19.5323C88.8631 19.5313 88.3217 19.6424 87.8193 19.8589C87.317 20.0753 86.8644 20.3925 86.4895 20.7909C86.1146 21.1892 85.8254 21.6602 85.6397 22.1747C85.4541 22.6893 85.3759 23.2364 85.4101 23.7823C85.3979 24.3413 85.4986 24.8969 85.706 25.416C85.9133 25.9352 86.2232 26.4072 86.6171 26.8039C87.0111 27.2006 87.4809 27.5139 87.9985 27.7249C88.5162 27.936 89.0711 28.0405 89.6301 28.0323C90.3296 28.0361 91.0191 27.8664 91.6369 27.5383C92.2547 27.2102 92.7815 26.734 93.1701 26.1523L91.7201 25.1523C91.5037 25.5131 91.1973 25.8115 90.8309 26.0184C90.4646 26.2252 90.0508 26.3334 89.6301 26.3323C89.1969 26.3489 88.7688 26.2347 88.4014 26.0046C88.034 25.7745 87.7444 25.4392 87.5701 25.0423L93.2601 22.6923L93.0501 22.2423ZM87.2501 23.6623C87.2298 23.353 87.2715 23.0428 87.3726 22.7498C87.4737 22.4568 87.6323 22.1869 87.8391 21.9559C88.0458 21.725 88.2966 21.5376 88.5766 21.4048C88.8567 21.2719 89.1604 21.1963 89.4701 21.1823C89.7927 21.1611 90.1144 21.2351 90.3953 21.3951C90.6762 21.5551 90.9039 21.794 91.0501 22.0823L87.2501 23.6623ZM82.6301 27.7823H84.5001V15.2823H82.6301V27.7823ZM79.5701 20.4823H79.5001C79.2183 20.1672 78.873 19.9153 78.487 19.7429C78.101 19.5706 77.6829 19.4818 77.2601 19.4823C76.1673 19.5353 75.1367 20.0068 74.3821 20.7989C73.6274 21.5911 73.2064 22.6432 73.2064 23.7373C73.2064 24.8314 73.6274 25.8836 74.3821 26.6758C75.1367 27.4679 76.1673 27.9393 77.2601 27.9923C77.6839 27.9995 78.104 27.9136 78.491 27.7409C78.8781 27.5681 79.2225 27.3126 79.5001 26.9923H79.5601V27.6023C79.5601 29.2323 78.6901 30.1023 77.2901 30.1023C76.8238 30.0914 76.3713 29.942 75.9902 29.6731C75.6091 29.4042 75.3167 29.028 75.1501 28.5923L73.5201 29.2723C73.8269 30.0187 74.3497 30.6564 75.0214 31.1036C75.6931 31.5508 76.4831 31.7872 77.2901 31.7823C79.4801 31.7823 81.2901 30.4923 81.2901 27.3523V19.7823H79.5701V20.4823ZM77.4301 26.3623C76.785 26.3055 76.1847 26.0091 75.7474 25.5315C75.31 25.054 75.0675 24.4299 75.0675 23.7823C75.0675 23.1348 75.31 22.5107 75.7474 22.0332C76.1847 21.5556 76.785 21.2592 77.4301 21.2023C77.7499 21.2188 78.0632 21.299 78.3516 21.4384C78.6399 21.5777 78.8974 21.7734 79.1089 22.0138C79.3205 22.2543 79.4818 22.5346 79.5833 22.8383C79.6848 23.1421 79.7245 23.463 79.7001 23.7823C79.7274 24.103 79.6893 24.4259 79.5883 24.7315C79.4872 25.0371 79.3252 25.319 79.1121 25.5601C78.8989 25.8013 78.6391 25.9967 78.3483 26.1346C78.0575 26.2725 77.7417 26.35 77.4201 26.3623H77.4301ZM101.81 15.2823H97.3401V27.7823H99.2101V23.0423H101.82C102.353 23.0806 102.888 23.0087 103.392 22.8311C103.896 22.6534 104.358 22.3739 104.749 22.0098C105.14 21.6458 105.452 21.2051 105.665 20.7152C105.879 20.2253 105.989 19.6967 105.989 19.1623C105.989 18.628 105.879 18.0994 105.665 17.6095C105.452 17.1196 105.14 16.6789 104.749 16.3149C104.358 15.9508 103.896 15.6713 103.392 15.4936C102.888 15.316 102.353 15.2441 101.82 15.2823H101.81ZM101.81 21.2823H99.2001V17.0223H101.85C102.419 17.0223 102.965 17.2483 103.367 17.6506C103.769 18.0529 103.995 18.5985 103.995 19.1673C103.995 19.7362 103.769 20.2818 103.367 20.6841C102.965 21.0864 102.419 21.3123 101.85 21.3123L101.81 21.2823ZM113.34 19.4823C112.659 19.4417 111.981 19.6007 111.39 19.9401C110.798 20.2794 110.319 20.7842 110.01 21.3923L111.67 22.0823C111.834 21.7807 112.082 21.5331 112.383 21.3698C112.685 21.2065 113.028 21.1344 113.37 21.1623C113.607 21.1346 113.848 21.1544 114.078 21.2207C114.307 21.2869 114.521 21.3982 114.708 21.5481C114.894 21.6979 115.048 21.8834 115.162 22.0936C115.276 22.3038 115.346 22.5345 115.37 22.7723V22.9023C114.769 22.5843 114.1 22.4195 113.42 22.4223C111.63 22.4223 109.82 23.4223 109.82 25.2323C109.838 25.6183 109.933 25.9968 110.099 26.3454C110.266 26.694 110.5 27.0058 110.789 27.2621C111.078 27.5185 111.416 27.7144 111.782 27.8381C112.148 27.9618 112.535 28.0108 112.92 27.9823C113.391 28.0162 113.862 27.9226 114.285 27.7114C114.707 27.5003 115.065 27.1794 115.32 26.7823H115.38V27.7823H117.18V22.9723C117.18 20.7823 115.52 19.5123 113.39 19.5123L113.34 19.4823ZM113.11 26.3323C112.5 26.3323 111.65 26.0223 111.65 25.2723C111.65 24.2723 112.71 23.9423 113.65 23.9423C114.244 23.9277 114.831 24.0727 115.35 24.3623C115.288 24.9037 115.031 25.4043 114.629 25.7718C114.227 26.1393 113.705 26.3491 113.16 26.3623L113.11 26.3323ZM123.74 19.7823L121.6 25.2023H121.54L119.32 19.7823H117.32L120.65 27.3623L118.75 31.5723H120.7L125.82 19.7823H123.74ZM106.93 27.7823H108.8V15.2823H106.93V27.7823Z" fill="#183557"/>
<path d="M10.4401 8.18279C10.1142 8.5739 9.9497 9.07459 9.98014 9.58279V31.7028C9.9497 32.211 10.1142 32.7117 10.4401 33.1028L10.5101 33.1728L22.9001 20.7928V20.5028L10.5101 8.11279L10.4401 8.18279Z" fill="#183557"/>
<path d="M31.7534 19.6375L31.7547 19.6382C32.3633 19.9817 32.5504 20.3653 32.5504 20.644C32.5504 20.9237 32.3622 21.3102 31.7523 21.6587L31.7523 21.6587L31.7499 21.6601L26.3657 24.7773H26.2269L23 21.0895V20.9873L27.082 16.9831L31.7534 19.6375Z" stroke="#183557"/>
<mask id="path-5-inside-1" fill="white">
<path d="M27.1195 24.8631L22.8995 20.6431L10.4395 33.1031C10.7248 33.3539 11.0888 33.4972 11.4686 33.5082C11.8484 33.5191 12.2201 33.3971 12.5195 33.1631L27.1295 24.8631"/>
</mask>
<path d="M22.8995 20.6431L23.6066 19.936L22.8995 19.2289L22.1923 19.936L22.8995 20.6431ZM10.4395 33.1031L9.73235 32.396L8.97827 33.15L9.77922 33.8541L10.4395 33.1031ZM12.5195 33.1631L12.0255 32.2936L11.9616 32.3299L11.9036 32.3752L12.5195 33.1631ZM27.8266 24.156L23.6066 19.936L22.1923 21.3502L26.4123 25.5702L27.8266 24.156ZM22.1923 19.936L9.73235 32.396L11.1466 33.8102L23.6066 21.3502L22.1923 19.936ZM9.77922 33.8541C10.2396 34.2589 10.827 34.4901 11.4398 34.5077L11.4975 32.5086C11.3507 32.5043 11.21 32.449 11.0997 32.352L9.77922 33.8541ZM11.4398 34.5077C12.0526 34.5254 12.6523 34.3285 13.1353 33.9509L11.9036 32.3752C11.7879 32.4656 11.6443 32.5128 11.4975 32.5086L11.4398 34.5077ZM13.0134 34.0326L27.6234 25.7326L26.6355 23.9936L12.0255 32.2936L13.0134 34.0326Z" fill="#183557" mask="url(#path-5-inside-1)"/>
<path d="M27.1197 16.4231L12.5097 8.12311C12.2103 7.88913 11.8387 7.76707 11.4589 7.77802C11.0791 7.78898 10.715 7.93226 10.4297 8.18312L22.8997 20.6431L27.1197 16.4231Z" fill="#183557"/>
<path opacity="0.2" d="M26.9995 24.7729L12.5095 33.0229C12.2207 33.2388 11.8699 33.3554 11.5095 33.3554C11.149 33.3554 10.7982 33.2388 10.5095 33.0229L10.4395 33.0929L10.5095 33.1629C10.7975 33.3804 11.1486 33.498 11.5095 33.498C11.8703 33.498 12.2214 33.3804 12.5095 33.1629L27.1195 24.8629L26.9995 24.7729Z" fill="#183557"/>
<path opacity="0.12" d="M10.4401 32.9631C10.1142 32.572 9.9497 32.0713 9.98014 31.5631V31.7131C9.9497 32.2213 10.1142 32.722 10.4401 33.1131L10.5101 33.0431L10.4401 32.9631ZM32.0001 21.9431L27.0001 24.7731L27.0901 24.8631L32.0001 22.0831C32.2787 21.9522 32.5179 21.7501 32.6935 21.4973C32.869 21.2445 32.9748 20.9498 33.0001 20.6431C32.9439 20.9218 32.8245 21.1839 32.6512 21.4092C32.4778 21.6346 32.2551 21.8172 32.0001 21.9431Z" fill="#183557"/>
<path opacity="0.25" d="M12.5107 8.263L32.0007 19.343C32.2557 19.4689 32.4784 19.6515 32.6517 19.8768C32.8251 20.1022 32.9445 20.3643 33.0007 20.643C32.9754 20.3362 32.8696 20.0416 32.694 19.7887C32.5185 19.5359 32.2793 19.3339 32.0007 19.203L12.5107 8.123C11.1107 7.333 9.9707 7.993 9.9707 9.593V9.743C10.0007 8.133 11.1207 7.473 12.5107 8.263Z" fill="white"/>
</svg>
